<svg width="187" height="192" viewBox="0 0 187 192" fill="none" xmlns="http://www.w3.org/2000/svg">
<path d="M0 28C0 12.536 12.536 0 28 0H159C174.464 0 187 12.536 187 28V164C187 179.464 174.464 192 159 192H28C12.536 192 0 179.464 0 164V28Z" fill="white"/>
<path d="M67.2619 129.627L67.4042 129.537C68.9347 128.557 72.9293 125.125 74.6141 123.748L89.7989 111.33L155.379 58.0323C157.238 56.5226 161.929 52.478 163.808 51.6847L163.986 51.8153C163.014 53.6404 154.77 59.9204 152.53 61.7278L136.186 74.9865L73.8527 125.666L55.0804 140.828C54.2489 141.506 48.3279 145.988 48.3862 146.685C49.2755 146.612 62.6745 135.931 64.7673 134.36L152.868 68.2283C155.847 66.006 158.824 63.7806 161.787 61.5372C162.326 61.1291 163.44 60.1754 164.051 60.2681C164.224 61.4019 162.667 62.2768 161.814 62.9002C156.792 66.5702 151.825 70.3023 146.865 74.0554L71.7494 130.376C69.5486 132.015 64.3621 135.664 62.525 137.383C61.4358 137.838 49.2911 146.977 48.3462 147.921L48.275 148.243C49.2816 148.409 61.4298 139.254 63.2502 137.986C72.6164 131.874 81.8902 125.136 91.119 118.78L136.683 87.5015L156.24 74.0442C157.929 72.9024 162.549 69.3149 164.192 69.1235L164.259 69.3164C163.064 70.9889 155.976 75.4755 153.772 76.9958L74.0312 131.819C70.2454 134.404 66.4065 137.079 62.621 139.652C61.6108 140.338 55.425 144.393 54.8617 144.983C52.9407 146.156 51.7817 147.083 50.0153 148.38C48.9127 149.189 48.755 148.839 47.3632 150.14L47.3188 150.416C48.6027 150.56 54.3904 146.382 55.697 145.379L55.8678 145.291C56.9275 144.738 58.6886 143.456 59.7942 142.74C62.207 141.182 64.6378 139.651 67.0866 138.15L150.88 85.7482C152.97 84.4268 162.249 78.2472 163.824 78.1078C163.762 79.3499 156.141 83.671 154.632 84.6058L76.1205 133.736C68.2985 138.598 55.5768 146.441 47.3327 151.558C47.3022 151.654 47.272 151.749 47.2415 151.844L47.4068 152.033C48.5216 151.966 60.1149 144.788 62.0312 143.716L126.202 107.643C138.077 100.919 150.008 94.2309 161.896 87.5293C162.33 87.2844 163.7 86.6049 164.097 86.8807C163.881 87.4051 163.593 87.7146 163.11 88.0012C159.294 90.2648 155.374 92.4024 151.508 94.57L71.6336 139.544L60.4985 145.757C59.1323 146.519 56.6143 147.79 55.4254 148.609C54.0248 149.338 52.5853 150.18 51.1903 150.907C47.3308 152.919 48.6233 153.419 45.1237 151.383C44.8754 151.292 44.5877 150.901 44.3961 150.679C44.3456 149.773 44.7564 149.827 45.018 148.991C45.2368 148.292 44.8295 148.811 44.6075 147.974C44.8185 147.554 45.0226 147.203 45.2589 146.801C45.8656 146.217 48.2036 144.696 48.9683 144.464C50.2581 144.309 64.9612 131.533 67.2619 129.627Z" fill="black"/>
<path d="M57.7753 133.274C61.3416 130.088 64.893 126.387 68.4262 123.086L102.996 90.4995C110.312 83.5826 117.809 76.7579 125.098 69.8214C126.783 68.2174 129.338 66.1004 130.741 64.6205C130.709 65.1593 130.641 65.3944 130.905 65.8599C126.671 70.2864 119.999 76.084 115.407 80.426L78.3923 115.13C74.0022 119.233 69.6246 123.333 65.1615 127.355C64.7364 127.739 64.2503 128.224 63.8553 128.64C59.6042 132.41 55.4652 136.575 51.2586 140.446C50.5298 141.107 49.7589 141.725 49.2631 142.57L49.4495 142.644C50.3826 142.13 51.071 141.428 51.8533 140.708C52.4739 140.038 54.0305 138.899 54.7855 138.155C57.4866 135.492 62.1671 131.943 64.6281 129.269C65.8242 128.38 66.9645 127.176 68.1303 126.181L69.2256 126.402C68.5382 127.044 67.2088 128.208 66.6162 128.853C64.8048 130.367 49.2191 143.707 48.9683 144.464C48.2036 144.696 45.8656 146.217 45.2589 146.801C44.9699 147.02 44.0704 147.635 43.9811 147.908C43.1354 148.111 42.2821 149.716 41.7415 150.594L41.6643 150.72C41.8093 151.246 42.097 151.369 42.5453 151.669C42.0993 152.309 42.1591 152.043 42.1817 152.703C42.5196 153.124 42.5864 153.174 43.0398 153.468C44.541 155.419 45.3324 155.714 47.56 156.789C48.0965 156.727 48.1767 156.696 48.6697 156.473L48.8178 156.719L48.7777 156.947C47.3582 158.487 43.652 155.235 42.4236 154.463L42.2432 154.705C42.6814 156.542 47.0824 158.231 48.8658 158.31C47.6442 160.414 42.3173 156.236 40.8529 155.347C42.4106 157.416 44.577 159.161 47.2302 159.633C48.8679 159.924 49.6561 158.959 51.8076 158.881L51.7086 159.56C50.1017 160.03 49.9642 159.752 47.7926 160.605C42.4207 158.873 43.7115 159.24 39.4455 156.166C42.0783 159.622 42.9848 159.814 47.0297 161.293C46.8766 161.391 46.4359 161.685 46.2979 161.744C43.676 161.17 42.9772 160.889 40.5907 159.625C40.4406 159.377 39.9474 159.048 39.5892 158.481L39.2924 158.408C39.0551 158.922 39.0878 158.687 39.3055 159.376C39.7102 159.718 39.7913 159.813 40.267 160.025C42.0363 161.284 44.9441 162.692 47.0577 162.873C46.853 163.4 47.0063 163.232 46.4675 163.488C43.793 162.714 42.9756 162.966 39.737 161.738C38.6689 161.176 39.199 160.821 38.5453 160.535C38.017 161.395 39.0305 162.051 39.6862 162.481C43.9028 164.088 47.4477 164.7 51.959 164.027L52.5986 164.274L52.7235 164.603C52.4151 164.976 52.3728 165.054 51.975 165.316C50.5608 165.329 49.4426 165.373 48.0346 165.491L47.9182 165.48C45.2195 165.205 41.246 164.076 38.6594 164.455L38.7412 164.611C40.1 165.213 40.7924 165.138 42.2099 165.431C42.8829 165.956 43.5629 166.014 44.365 166.249C43.793 166.397 43.3384 166.485 42.7574 166.588C41.536 166.729 37.1163 166.626 35.7591 166.624C31.1724 166.586 26.5854 166.623 22 166.735C23.7196 165.3 26.9681 161.83 28.6675 160.122L41.5295 147.157C50.8092 137.727 60.3135 128.66 69.5606 119.114C69.7464 119.502 69.7828 119.698 70.1402 119.887C65.891 124.204 61.2999 128.479 57.1419 132.822C55.0965 134.678 52.3393 137.918 50.5995 139.395C50.1689 139.855 49.9065 139.963 49.8412 140.486C50.5627 140.29 50.5212 140.147 51.1325 139.547C53.2716 137.451 55.7026 135.509 57.7753 133.274Z" fill="black"/>
<path d="M56.0253 149.206L147.993 103.167C150.236 102.044 162.151 95.7595 163.61 95.8315L163.657 96.0553C162.141 97.788 157.848 99.3863 155.67 100.466L139.212 108.745L62.3154 147.18C58.9696 148.824 55.6788 150.572 52.2695 152.109C51.0374 152.665 49.633 153.478 48.4057 153.948L48.2438 154.291C47.2126 154.414 45.1678 153.127 44.3766 152.503C44.3036 152.446 44.2313 152.387 44.1597 152.328L43.899 152.388C44.1629 153.592 47.3972 155.219 48.5605 155.419C48.0524 155.974 48.2796 155.816 47.4815 155.972C46.9811 155.636 43.3845 153.473 43.0398 153.468C42.5864 153.174 42.5196 153.124 42.1817 152.703C42.1591 152.043 42.0993 152.309 42.5453 151.669C42.097 151.369 41.8093 151.246 41.6643 150.72L41.7415 150.594C42.2821 149.716 43.1354 148.111 43.9811 147.908C42.1309 151.034 43.3738 150.086 44.8821 151.846C45.721 152.441 46.5998 153.151 47.5166 153.595C48.7408 153.285 54.9058 149.958 56.0253 149.206Z" fill="black"/>
<path d="M68.1303 126.181C70.0797 124.327 72.6326 122.273 74.7104 120.472L115.526 84.6407L147.751 56.4465C152.695 52.1201 157.669 47.7947 162.567 43.4159C162.943 43.0796 163.455 42.7515 163.974 42.7751C164.073 43.068 164.078 43.0614 163.942 43.3457C163.319 44.6457 143.005 62.0032 139.988 64.6557L78.108 118.802C76.068 120.594 71.2619 125.027 69.2256 126.402L68.1303 126.181Z" fill="black"/>
<path d="M69.5606 119.114L156.478 32.1697C157.706 30.9412 162.864 25.6381 163.838 25L164.126 25.0388C164.191 26.5625 160.224 29.7851 159.07 30.9422L149.371 40.6899L87.6936 102.362C81.9482 108.102 75.9927 114.314 70.1402 119.887C69.7828 119.698 69.7464 119.502 69.5606 119.114Z" fill="black"/>
<path d="M48.9831 154.587C50.4921 154.185 52.3808 153.016 53.8482 152.356C72.8361 143.819 91.9642 135.52 111.05 127.203L156.923 107.091C158.547 106.38 162.351 104.598 163.95 104.255C163.899 105.721 153.725 109.609 151.86 110.421L136.523 117.155L90.8552 137.122C77.4032 143.033 63.9278 149.013 50.4041 154.763C49.7742 155.031 49.3541 155.211 48.6527 155.158L48.7157 154.694L48.9831 154.587Z" fill="black"/>
<path d="M48.6697 156.473C49.3438 155.933 49.5576 156.045 50.2767 155.733C57.3511 152.667 64.639 150.246 71.8287 147.508C100.942 136.31 130.133 125.316 159.399 114.527C160.391 114.169 162.731 113.29 163.729 113.493C163.523 114.415 156.848 116.594 155.688 117.042C147.57 120.143 139.433 123.195 131.279 126.198L75.1871 147.247C72.0881 148.408 50.7604 156.769 48.8178 156.719L48.6697 156.473Z" fill="black"/>
<path d="M49.2124 157.65C51.008 157.385 55.3222 155.707 57.2727 155.078C60.4687 154.047 63.6906 153.048 66.8995 152.05L153.909 124.874C155.526 124.381 162.61 121.86 163.535 122.221L163.545 122.601C162.943 123.258 152.914 126.173 151.257 126.693L57.3697 156.12C55.4547 156.664 50.522 158.317 48.8658 158.31L49.2124 157.65Z" fill="black"/>
<path d="M58.6602 156.95C59.774 156.431 62.0418 155.991 63.3381 155.666C67.0861 154.726 70.9126 154.033 74.6511 153.038C98.5312 146.78 122.469 140.743 146.461 134.928C148.997 134.324 162.391 130.72 163.309 131.017C163.338 131.026 163.365 131.038 163.393 131.048L163.365 131.321C161.959 132.43 152.375 134.415 150.125 134.982L121.6 142.139C99.6305 147.626 77.2227 153.518 55.2231 158.757C54.067 159.09 52.6982 159.259 51.7086 159.56L51.8076 158.881C52.6649 158.227 57.3748 157.274 58.6602 156.95Z" fill="black"/>
<path d="M47.9182 165.48L48.0346 165.491C50.1977 166.047 59.3147 165.787 61.9245 165.727C64.8166 165.754 72.2096 166.024 74.8035 165.778L138.266 165.699L153.408 165.731C156.308 165.742 161.844 165.683 164.518 166.259C161.637 166.754 157.568 166.625 154.562 166.63L140.502 166.646L90.011 166.622C76.6337 166.563 63.169 166.91 49.8214 166.333C47.4976 166.233 45.304 166.845 42.7574 166.588C43.3384 166.485 43.793 166.397 44.365 166.249C43.5629 166.014 42.8829 165.956 42.2099 165.431C43.6334 165.61 46.5949 166.077 47.9182 165.48Z" fill="black"/>
<path d="M77.7632 155.597C80.9407 154.697 86.7758 153.825 90.1828 153.203L110.199 149.48C117.561 148.179 124.996 146.493 132.39 145.25C133.105 145.13 134.153 145.162 134.86 145.382L135.008 145.617C134.285 146.281 84.6645 154.961 79.7126 156.142C78.8644 156.152 78.2099 156.336 77.7632 155.597Z" fill="black"/>
<path d="M130.741 64.6205C133.7 61.9713 136.569 59.0909 139.457 56.3573L155.831 41.121C157.274 39.8038 162.474 34.325 163.837 34.1793L163.941 34.42C163.298 35.8802 156.433 41.9203 154.641 43.5983L138.915 58.3982C136.376 60.7787 133.304 63.466 130.905 65.8599C130.641 65.3944 130.709 65.1593 130.741 64.6205Z" fill="black"/>
<path d="M80.758 158.66C83.5055 157.922 89.2233 157.608 92.286 157.195L116.548 154.157C118.673 153.901 127.139 152.565 128.634 152.983L128.8 153.197C127.46 154.062 114.739 155.265 112.443 155.551L81.4715 159.451C80.9598 159.158 81.1278 159.261 80.758 158.66Z" fill="black"/>
<path d="M155.518 149.147C157.211 148.86 158.506 149.221 160.174 149.556C155.66 150.391 149.674 150.707 144.946 151.488C143.532 151.722 135.673 152.805 134.511 152.839C133.46 152.921 132.192 153.297 131.302 152.533L131.576 152.312C136.408 151.336 141.542 151.048 146.436 150.39C149.215 150.017 150.326 149.597 153.202 150.006C154.164 149.539 154.484 149.408 155.518 149.147Z" fill="black"/>
<path d="M160.89 139.785C161.609 139.779 162.664 139.763 163.257 140.142L163.177 140.379C161.904 140.873 158.179 141.352 156.629 141.676C151.22 142.807 145.595 143.685 140.199 144.799C139.322 144.945 138.823 145.16 138.006 144.85L138.059 144.371C140.197 143.472 143.533 143.319 145.87 142.779C150.817 141.637 155.997 141.092 160.89 139.785Z" fill="black"/>
<path d="M48.9683 144.464C49.2191 143.707 64.8048 130.367 66.6162 128.853L67.2619 129.627C64.9612 131.533 50.2581 144.309 48.9683 144.464Z" fill="black"/>
<path d="M106.409 160.384C108.839 160.168 110.639 160.554 113.018 161.024C111.341 161.334 108.287 161.419 106.476 161.528C102.996 161.738 99.3274 162.051 95.8572 162.123C94.615 162.075 91.1919 162.418 90.3092 162.027L90.5137 161.778C93.0268 160.685 98.0163 161.169 100.679 161.657C103.444 160.429 103.201 160.551 106.409 160.384Z" fill="black"/>
<path d="M62.2465 158.446C63.1217 158.405 64.5132 158.186 65.2376 158.432C65.4092 158.748 65.405 158.599 65.3751 158.893C61.7771 159.343 48.9169 162.623 46.2979 161.744C46.4359 161.685 46.8766 161.391 47.0297 161.293C49.3 161.025 56.2522 159.776 58.3684 159.134C59.5361 158.834 60.8537 158.793 62.2465 158.446Z" fill="black"/>
<path d="M63.2502 137.986C61.4298 139.254 49.2816 148.409 48.275 148.243L48.3462 147.921C49.2911 146.977 61.4358 137.838 62.525 137.383L62.7953 137.883L63.2502 137.986Z" fill="black"/>
<path d="M40.8529 155.347C42.3173 156.236 47.6442 160.414 48.8658 158.31C50.522 158.317 55.4547 156.664 57.3697 156.12C57.953 156.924 57.6366 156.702 58.6602 156.95C57.3748 157.274 52.6649 158.227 51.8076 158.881C49.6561 158.959 48.8679 159.924 47.2302 159.633C44.577 159.161 42.4106 157.416 40.8529 155.347Z" fill="black"/>
<path d="M39.4455 156.166C43.7115 159.24 42.4207 158.873 47.7926 160.605C49.9642 159.752 50.1017 160.03 51.7086 159.56C52.6982 159.259 54.067 159.09 55.2231 158.757C56.6646 159.524 56.7875 158.955 58.3684 159.134C56.2522 159.776 49.3 161.025 47.0297 161.293C42.9848 159.814 42.0783 159.622 39.4455 156.166Z" fill="black"/>
<path d="M63.8553 128.64C64.144 128.939 64.2554 129.104 64.6281 129.269C62.1671 131.943 57.4866 135.492 54.7855 138.155C54.0305 138.899 52.4739 140.038 51.8533 140.708L51.2586 140.446C55.4652 136.575 59.6042 132.41 63.8553 128.64Z" fill="black"/>
<path d="M62.2476 158.446C62.991 158.057 75.339 156.205 77.7632 155.597C78.2099 156.336 78.8644 156.152 79.7126 156.142C76.3106 156.813 68.4566 157.939 65.3762 158.893C65.4061 158.599 65.4103 158.748 65.2387 158.432C64.5143 158.186 63.1228 158.405 62.2476 158.446Z" fill="black"/>
<path d="M51.959 164.027C55.6514 163.815 59.1226 162.775 62.4884 164.221C61.1173 164.644 58.7231 164.582 57.2468 164.575C55.4559 164.626 53.876 165.367 51.975 165.316C52.3728 165.054 52.4151 164.976 52.7235 164.603L52.5986 164.274L51.959 164.027Z" fill="black"/>
<path d="M45.1226 151.384C48.6221 153.419 47.3297 152.919 51.1891 150.907C52.5842 150.18 54.0237 149.338 55.4243 148.609C55.6204 148.861 55.7408 149.07 56.0253 149.206C54.9058 149.958 48.7408 153.285 47.5166 153.595C46.5998 153.151 45.721 152.441 44.8821 151.846L45.1226 151.384Z" fill="black"/>
<path d="M62.4884 164.221C63.9983 164.442 65.8179 163.904 66.5552 164.702C66.9125 166.604 73.5897 164.935 74.8035 165.778C72.2096 166.024 64.8166 165.754 61.9245 165.727L62.5693 165.431L62.568 165.177C61.8028 164.618 58.3999 164.623 57.2468 164.575C58.7231 164.582 61.1173 164.644 62.4884 164.221Z" fill="black"/>
<path d="M143.461 158.098C145.685 157.93 146.809 158.289 148.953 158.755C147.41 159.069 144.954 159.117 143.369 159.154C141.725 159.296 140.596 159.509 138.984 159.139L138.861 158.921C140.014 158.167 142.105 158.158 143.461 158.098Z" fill="black"/>
<path d="M113.406 160.968C116.337 159.249 119.676 159.406 122.886 160.182L123.439 160.444C121.045 160.625 115.609 161.128 113.406 160.968Z" fill="black"/>
<path d="M55.697 145.379C54.3904 146.382 48.6027 150.56 47.3188 150.416L47.3632 150.14C48.755 148.839 48.9127 149.189 50.0153 148.38C51.7817 147.083 52.9407 146.156 54.8617 144.983L55.697 145.379Z" fill="black"/>
<path d="M47.0577 162.873C49.4887 162.894 51.6559 161.972 53.624 162.001C54.2189 162.029 55.5365 161.969 55.9325 162.238C55.9053 162.402 55.8802 162.607 55.8341 162.762C53.5945 162.889 47.9662 163.686 46.4675 163.488C47.0063 163.232 46.853 163.4 47.0577 162.873Z" fill="black"/>
<path d="M60.2541 160.934C61.6302 161.544 62.8107 160.999 64.2495 160.587L63.4764 161.081L63.4269 161.365C64.2671 161.561 64.9069 161.383 65.7517 161.437C62.6857 161.988 58.7764 161.972 55.9921 162.721L55.8341 162.762C55.8802 162.607 55.9053 162.402 55.9325 162.238C55.5365 161.969 54.2189 162.029 53.624 162.001C55.8312 161.884 58.2392 161.071 59.8879 161.068C59.1436 161.326 58.9038 161.261 58.5186 161.784C59.0916 162.255 60.0864 162.239 60.6104 161.725C60.4952 161.405 60.447 161.223 60.2541 160.934Z" fill="black"/>
<path d="M50.5995 139.395C52.3393 137.918 55.0965 134.678 57.1419 132.822L57.7753 133.274C55.7026 135.509 53.2716 137.451 51.1325 139.547L50.5995 139.395Z" fill="black"/>
<path d="M42.2099 165.431C40.7924 165.138 40.1 165.213 38.7412 164.611L38.6594 164.455C41.246 164.076 45.2195 165.205 47.9182 165.48C46.5949 166.077 43.6334 165.61 42.2099 165.431Z" fill="black"/>
<path d="M122.886 160.182C124.66 160.138 125.9 159.546 127.627 159.216C128.619 159.026 129.763 159.012 130.78 158.983C130.02 159.218 129.709 159.334 128.918 159.379L128.63 159.657C129.733 159.837 132.987 159.666 134.482 159.748C131.808 160.209 126.001 159.985 123.439 160.444L122.886 160.182Z" fill="black"/>
<path d="M48.8658 158.31C47.0824 158.231 42.6814 156.542 42.2432 154.705L42.4236 154.463C43.652 155.235 47.3582 158.487 48.7777 156.947L49.2124 157.65L48.8658 158.31Z" fill="black"/>
<path d="M81.4715 159.451C80.599 159.582 75.2594 160.266 74.874 159.873C76.3075 158.503 78.9276 159.21 80.758 158.66C81.1278 159.261 80.9598 159.158 81.4715 159.451Z" fill="black"/>
<path d="M43.9821 147.908C44.0714 147.635 44.9699 147.02 45.2589 146.801C45.0226 147.203 44.8185 147.554 44.6075 147.974C44.8295 148.811 45.2368 148.292 45.018 148.991C44.7564 149.827 44.3456 149.773 44.3961 150.679C44.5877 150.901 44.8754 151.292 45.1237 151.383L44.8821 151.846C43.3738 150.086 42.1319 151.034 43.9821 147.908Z" fill="black"/>
<path d="M71.6155 162.666C72.209 162.667 73.1054 162.74 73.5399 163.169L73.4386 163.475C72.8236 163.846 72.0851 163.745 71.3544 163.724C70.0498 163.654 69.1027 163.569 67.8712 163.115C69.2656 162.809 70.1846 162.761 71.6155 162.666Z" fill="black"/>
<path d="M130.78 158.983C132.434 158.851 133.745 158.75 135.343 159.35L135.451 159.59C135.012 159.733 134.943 159.753 134.482 159.748C132.987 159.666 129.733 159.837 128.63 159.657L128.918 159.379C129.709 159.334 130.02 159.218 130.78 158.983Z" fill="black"/>
<path d="M84.0833 162.801C83.9491 162.83 83.8138 162.855 83.6781 162.876C82.6619 163.037 79.274 163.33 78.4788 162.757C79.2386 161.79 83.1035 161.68 84.2275 162.021C83.3418 162.063 82.4822 162.038 81.6767 162.405L81.7968 162.592C82.6362 162.772 83.2361 162.773 84.0833 162.801Z" fill="black"/>
<path d="M48.5605 155.419C47.3972 155.219 44.1629 153.592 43.899 152.388L44.1597 152.328C44.2313 152.387 44.3036 152.446 44.3766 152.503C45.1678 153.127 47.2126 154.414 48.2438 154.291L48.4057 153.948L48.9845 154.587L48.7171 154.694L48.6541 155.158L48.5605 155.419Z" fill="black"/>
<path d="M156.912 158.385C155.593 158.248 152.022 158.823 151.282 158.239C152.243 157.394 154.003 157.458 155.285 157.372L154.542 157.768L154.517 158.016C155.485 158.291 156.106 158.093 156.97 158.238L156.912 158.385Z" fill="black"/>
<path d="M43.0398 153.468C43.3845 153.473 46.9811 155.636 47.4815 155.972L47.56 156.789C45.3324 155.714 44.541 155.419 43.0398 153.468Z" fill="black"/>
<path d="M64.2495 160.587C65.562 160.293 66.0801 160.205 67.3074 160.743L67.3695 161.011C66.9147 161.373 66.3346 161.373 65.7517 161.437C64.9069 161.383 64.2671 161.561 63.4269 161.365L63.4764 161.081L64.2495 160.587Z" fill="black"/>
<path d="M84.2275 162.021C84.8523 162.084 85.3696 162.081 85.8975 162.417L85.9651 162.66C85.4435 162.971 84.7239 162.841 84.0833 162.801C83.2361 162.773 82.6362 162.772 81.7968 162.592L81.6767 162.405C82.4822 162.038 83.3418 162.063 84.2275 162.021Z" fill="black"/>
<path d="M157.94 157.851C157.975 157.844 160.785 158.145 160.785 158.145L160.997 158.705L161.47 158.669L161.498 158.361L161.595 158.408L161.59 158.649C160.493 158.873 158.097 158.511 156.912 158.385L156.97 158.238C157.373 158.163 157.57 158.036 157.94 157.851Z" fill="black"/>
<path d="M155.285 157.372C156.135 157.227 157.092 157.602 157.94 157.851C157.57 158.036 157.373 158.163 156.97 158.238C156.106 158.093 155.485 158.291 154.517 158.016L154.542 157.768L155.285 157.372Z" fill="black"/>
<path d="M51.2586 140.446L51.8533 140.708C51.071 141.428 50.3826 142.13 49.4495 142.644L49.2631 142.57C49.7589 141.725 50.5298 141.107 51.2586 140.446Z" fill="black"/>
<path d="M59.8879 161.068L60.2541 160.934C60.447 161.223 60.4952 161.405 60.6104 161.725C60.0864 162.239 59.0916 162.255 58.5186 161.784C58.9038 161.261 59.1436 161.326 59.8879 161.068Z" fill="black"/>
<path d="M40.267 160.025C39.7913 159.813 39.7102 159.718 39.3055 159.376C39.0878 158.687 39.0551 158.922 39.2924 158.408L39.5892 158.481C39.9474 159.048 40.4406 159.377 40.5907 159.625C40.4806 159.743 40.3167 159.888 40.267 160.025Z" fill="black"/>
<path d="M39.6862 162.481C39.0305 162.051 38.017 161.395 38.5453 160.535C39.199 160.821 38.6689 161.176 39.737 161.738L39.6862 162.481Z" fill="black"/>
<path d="M50.5995 139.395L51.1325 139.547C50.5212 140.147 50.5627 140.29 49.8412 140.486C49.9065 139.963 50.1689 139.855 50.5995 139.395Z" fill="black"/>
</svg>
