<svg preserveAspectRatio="none" width="100%" height="100%" overflow="visible" style="display: block;" viewBox="0 0 10 11" fill="none" xmlns="http://www.w3.org/2000/svg">
<g id="image" clip-path="url(#clip0_74_6796)">
<path id="Vector" opacity="0.3" d="M1.498 0.795V1.445C1.498 1.523 1.53 1.598 1.585 1.654C1.64 1.709 1.715 1.74 1.794 1.74H7.883L0.086 9.537C0.031 9.592 0 9.667 0 9.745C0 9.824 0.031 9.899 0.087 9.954L0.546 10.414C0.661 10.529 0.848 10.529 0.964 10.414L8.76 2.617V8.707C8.76 8.785 8.791 8.86 8.846 8.915C8.902 8.971 8.977 9.002 9.055 9.002H9.705C9.783 9.002 9.858 8.971 9.913 8.915C9.969 8.86 10 8.785 10 8.707V0.795C10 0.717 9.969 0.642 9.913 0.587C9.858 0.531 9.783 0.5 9.705 0.5H1.793C1.715 0.5 1.64 0.531 1.585 0.587C1.529 0.642 1.498 0.717 1.498 0.795Z" fill="var(--fill-0, white)"/>
</g>
<defs>
<clipPath id="clip0_74_6796">
<rect width="10" height="11" fill="white"/>
</clipPath>
</defs>
</svg>
