<svg preserveAspectRatio="none" width="100%" height="100%" overflow="visible" style="display: block;" viewBox="0 0 1814 253" fill="none" xmlns="http://www.w3.org/2000/svg">
<g id="Vector">
<path d="M0 47.6482V11.5053H189.574V47.6482H116.135V249.514H73.4397V47.6482H0Z" fill="white"/>
<path d="M248.293 144.92V249.514H206.295V11.5053H247.365V101.339H249.454C253.63 91.2675 260.089 83.3261 268.829 77.5154C277.646 71.6272 288.861 68.6831 302.474 68.6831C314.849 68.6831 325.639 71.2785 334.843 76.4694C344.047 81.6604 351.163 89.2531 356.191 99.2476C361.295 109.242 363.848 121.445 363.848 135.855V249.514H321.849V142.363C321.849 130.354 318.755 121.019 312.568 114.356C306.457 107.615 297.872 104.245 286.812 104.245C279.386 104.245 272.735 105.872 266.856 109.126C261.056 112.302 256.492 116.912 253.166 122.955C249.918 128.999 248.293 136.32 248.293 144.92Z" fill="white"/>
<path d="M467.582 253C449.716 253 434.285 249.281 421.291 241.843C408.374 234.328 398.435 223.714 391.474 210C384.513 196.21 381.033 179.978 381.033 161.306C381.033 142.944 384.513 126.829 391.474 112.961C398.513 99.0152 408.336 88.1684 420.943 80.4208C433.55 72.5956 448.362 68.6831 465.378 68.6831C476.361 68.6831 486.725 70.465 496.471 74.0289C506.294 77.5154 514.957 82.9388 522.459 90.299C530.039 97.6593 535.995 107.034 540.326 118.423C544.657 129.735 546.823 143.216 546.823 158.866V171.766H400.756V143.409H506.565C506.487 135.352 504.747 128.185 501.344 121.91C497.941 115.556 493.184 110.559 487.073 106.918C481.04 103.276 474.002 101.456 465.958 101.456C457.373 101.456 449.832 103.548 443.334 107.731C436.837 111.838 431.771 117.261 428.136 124.001C424.578 130.664 422.761 137.986 422.683 145.966V170.72C422.683 181.102 424.578 190.011 428.368 197.449C432.158 204.81 437.456 210.465 444.263 214.417C451.069 218.29 459.036 220.227 468.162 220.227C474.273 220.227 479.803 219.375 484.753 217.671C489.703 215.889 493.996 213.293 497.631 209.884C501.266 206.475 504.012 202.253 505.868 197.217L545.083 201.633C542.608 212.015 537.89 221.08 530.928 228.827C524.045 236.497 515.227 242.463 504.476 246.724C493.725 250.908 481.427 253 467.582 253Z" fill="white"/>
<path d="M705.231 118.191L666.945 122.374C665.862 118.501 663.967 114.859 661.26 111.45C658.63 108.041 655.072 105.291 650.586 103.199C646.1 101.107 640.609 100.061 634.112 100.061C625.372 100.061 618.024 101.959 612.068 105.756C606.19 109.552 603.29 114.472 603.367 120.515C603.29 125.706 605.185 129.928 609.052 133.182C612.997 136.436 619.494 139.109 628.543 141.201L658.94 147.709C675.801 151.351 688.331 157.123 696.53 165.025C704.806 172.928 708.982 183.271 709.06 196.055C708.982 207.289 705.695 217.206 699.198 225.806C692.779 234.328 683.845 240.991 672.398 245.795C660.951 250.598 647.802 253 632.952 253C611.14 253 593.583 248.429 580.279 239.287C566.976 230.067 559.048 217.245 556.495 200.819L597.45 196.868C599.306 204.926 603.251 211.008 609.284 215.114C615.317 219.22 623.167 221.273 632.836 221.273C642.813 221.273 650.818 219.22 656.851 215.114C662.962 211.008 666.017 205.933 666.017 199.89C666.017 194.776 664.045 190.554 660.1 187.222C656.233 183.891 650.2 181.334 642.001 179.552L611.604 173.16C594.511 169.596 581.865 163.592 573.666 155.147C565.468 146.625 561.407 135.855 561.484 122.839C561.407 111.838 564.385 102.308 570.418 94.2503C576.528 86.1153 584.997 79.8397 595.826 75.4235C606.731 70.9299 619.3 68.6831 633.532 68.6831C654.415 68.6831 670.851 73.138 682.84 82.0478C694.906 90.9576 702.369 103.005 705.231 118.191Z" fill="white"/>
<path d="M814.709 71.0074V103.548H712.264V71.0074H814.709ZM737.556 28.2402H779.555V195.822C779.555 201.478 780.406 205.817 782.107 208.838C783.886 211.782 786.207 213.797 789.068 214.881C791.93 215.966 795.101 216.508 798.582 216.508C801.212 216.508 803.609 216.315 805.775 215.927C808.018 215.54 809.72 215.191 810.88 214.881L817.957 247.77C815.714 248.545 812.504 249.397 808.327 250.327C804.228 251.257 799.201 251.799 793.245 251.954C782.726 252.264 773.251 250.676 764.821 247.189C756.39 243.625 749.699 238.124 744.749 230.687C739.877 223.249 737.479 213.952 737.556 202.795V28.2402Z" fill="white"/>
<path d="M907.682 253C890.279 253 875.197 249.165 862.435 241.495C849.673 233.825 839.773 223.094 832.734 209.303C825.773 195.512 822.293 179.397 822.293 160.958C822.293 142.518 825.773 126.364 832.734 112.496C839.773 98.6278 849.673 87.8585 862.435 80.1883C875.197 72.5182 890.279 68.6831 907.682 68.6831C925.085 68.6831 940.167 72.5182 952.929 80.1883C965.691 87.8585 975.553 98.6278 982.514 112.496C989.553 126.364 993.072 142.518 993.072 160.958C993.072 179.397 989.553 195.512 982.514 209.303C975.553 223.094 965.691 233.825 952.929 241.495C940.167 249.165 925.085 253 907.682 253ZM907.914 219.298C917.35 219.298 925.24 216.702 931.582 211.511C937.924 206.243 942.642 199.192 945.736 190.36C948.907 181.528 950.493 171.688 950.493 160.842C950.493 149.917 948.907 140.039 945.736 131.207C942.642 122.297 937.924 115.208 931.582 109.939C925.24 104.671 917.35 102.037 907.914 102.037C898.246 102.037 890.202 104.671 883.782 109.939C877.44 115.208 872.683 122.297 869.512 131.207C866.418 140.039 864.871 149.917 864.871 160.842C864.871 171.688 866.418 181.528 869.512 190.36C872.683 199.192 877.44 206.243 883.782 211.511C890.202 216.702 898.246 219.298 907.914 219.298Z" fill="white"/>
<path d="M1010.75 249.514V71.0074H1051.47V100.758H1053.33C1056.58 90.454 1062.15 82.5126 1070.04 76.9343C1078 71.2785 1087.09 68.4506 1097.3 68.4506C1099.62 68.4506 1102.21 68.5668 1105.07 68.7993C1108.01 68.9542 1110.45 69.2254 1112.38 69.6128V108.312C1110.6 107.693 1107.78 107.15 1103.91 106.685C1100.12 106.143 1096.45 105.872 1092.89 105.872C1085.23 105.872 1078.35 107.538 1072.24 110.869C1066.21 114.123 1061.45 118.655 1057.97 124.466C1054.49 130.277 1052.75 136.979 1052.75 144.571V249.514H1010.75Z" fill="white"/>
<path d="M1122.32 249.514V71.0074H1164.31V249.514H1122.32ZM1143.43 45.6725C1136.78 45.6725 1131.06 43.4644 1126.26 39.0482C1121.46 34.5546 1119.07 29.17 1119.07 22.8943C1119.07 16.5413 1121.46 11.1566 1126.26 6.74046C1131.06 2.24682 1136.78 0 1143.43 0C1150.16 0 1155.88 2.24682 1160.6 6.74046C1165.4 11.1566 1167.79 16.5413 1167.79 22.8943C1167.79 29.17 1165.4 34.5546 1160.6 39.0482C1155.88 43.4644 1150.16 45.6725 1143.43 45.6725Z" fill="white"/>
<path d="M1278.52 71.0074V103.548H1176.07V71.0074H1278.52ZM1201.37 28.2402H1243.37V195.822C1243.37 201.478 1244.22 205.817 1245.92 208.838C1247.7 211.782 1250.02 213.797 1252.88 214.881C1255.74 215.966 1258.91 216.508 1262.39 216.508C1265.02 216.508 1267.42 216.315 1269.59 215.927C1271.83 215.54 1273.53 215.191 1274.69 214.881L1281.77 247.77C1279.52 248.545 1276.31 249.397 1272.14 250.327C1268.04 251.257 1263.01 251.799 1257.06 251.954C1246.54 252.264 1237.06 250.676 1228.63 247.189C1220.2 243.625 1213.51 238.124 1208.56 230.687C1203.69 223.249 1201.29 213.952 1201.37 202.795V28.2402Z" fill="white"/>
<path d="M1372.65 253C1354.79 253 1339.36 249.281 1326.36 241.843C1313.44 234.328 1303.51 223.714 1296.54 210C1289.58 196.21 1286.1 179.978 1286.1 161.306C1286.1 142.944 1289.58 126.829 1296.54 112.961C1303.58 99.0152 1313.41 88.1684 1326.01 80.4208C1338.62 72.5956 1353.43 68.6831 1370.45 68.6831C1381.43 68.6831 1391.8 70.465 1401.54 74.0289C1411.36 77.5154 1420.03 82.9388 1427.53 90.299C1435.11 97.6593 1441.07 107.034 1445.4 118.423C1449.73 129.735 1451.89 143.216 1451.89 158.866V171.766H1305.83V143.409H1411.64C1411.56 135.352 1409.82 128.185 1406.41 121.91C1403.01 115.556 1398.25 110.559 1392.14 106.918C1386.11 103.276 1379.07 101.456 1371.03 101.456C1362.44 101.456 1354.9 103.548 1348.41 107.731C1341.91 111.838 1336.84 117.261 1333.21 124.001C1329.65 130.664 1327.83 137.986 1327.75 145.966V170.72C1327.75 181.102 1329.65 190.011 1333.44 197.449C1337.23 204.81 1342.53 210.465 1349.33 214.417C1356.14 218.29 1364.11 220.227 1373.23 220.227C1379.34 220.227 1384.87 219.375 1389.82 217.671C1394.77 215.889 1399.07 213.293 1402.7 209.884C1406.34 206.475 1409.08 202.253 1410.94 197.217L1450.15 201.633C1447.68 212.015 1442.96 221.08 1436 228.827C1429.12 236.497 1420.3 242.463 1409.55 246.724C1398.8 250.908 1386.5 253 1372.65 253Z" fill="white"/>
<path d="M1511.45 11.5053V249.514H1469.46V11.5053H1511.45Z" fill="white"/>
<path d="M1615.57 253C1597.7 253 1582.27 249.281 1569.27 241.843C1556.36 234.328 1546.42 223.714 1539.46 210C1532.5 196.21 1529.02 179.978 1529.02 161.306C1529.02 142.944 1532.5 126.829 1539.46 112.961C1546.5 99.0152 1556.32 88.1684 1568.93 80.4208C1581.53 72.5956 1596.35 68.6831 1613.36 68.6831C1624.34 68.6831 1634.71 70.465 1644.45 74.0289C1654.28 77.5154 1662.94 82.9388 1670.44 90.299C1678.02 97.6593 1683.98 107.034 1688.31 118.423C1692.64 129.735 1694.81 143.216 1694.81 158.866V171.766H1548.74V143.409H1654.55C1654.47 135.352 1652.73 128.185 1649.33 121.91C1645.92 115.556 1641.17 110.559 1635.06 106.918C1629.02 103.276 1621.99 101.456 1613.94 101.456C1605.36 101.456 1597.81 103.548 1591.32 107.731C1584.82 111.838 1579.75 117.261 1576.12 124.001C1572.56 130.664 1570.74 137.986 1570.67 145.966V170.72C1570.67 181.102 1572.56 190.011 1576.35 197.449C1580.14 204.81 1585.44 210.465 1592.25 214.417C1599.05 218.29 1607.02 220.227 1616.15 220.227C1622.26 220.227 1627.79 219.375 1632.74 217.671C1637.69 215.889 1641.98 213.293 1645.61 209.884C1649.25 206.475 1652 202.253 1653.85 197.217L1693.07 201.633C1690.59 212.015 1685.87 221.08 1678.91 228.827C1672.03 236.497 1663.21 242.463 1652.46 246.724C1641.71 250.908 1629.41 253 1615.57 253Z" fill="white"/>
<path d="M1712.37 249.514V71.0074H1753.09V100.758H1754.95C1758.2 90.454 1763.76 82.5126 1771.65 76.9343C1779.62 71.2785 1788.71 68.4506 1798.92 68.4506C1801.24 68.4506 1803.83 68.5668 1806.69 68.7993C1809.63 68.9542 1812.07 69.2254 1814 69.6128V108.312C1812.22 107.693 1809.4 107.15 1805.53 106.685C1801.74 106.143 1798.07 105.872 1794.51 105.872C1786.85 105.872 1779.97 107.538 1773.86 110.869C1767.82 114.123 1763.07 118.655 1759.59 124.466C1756.11 130.277 1754.37 136.979 1754.37 144.571V249.514H1712.37Z" fill="white"/>
<path d="M1797.3 216.599C1806.37 216.599 1813.73 223.968 1813.73 233.057C1813.73 242.145 1806.37 249.514 1797.3 249.514C1788.23 249.514 1780.87 242.145 1780.87 233.057C1780.87 223.968 1788.23 216.599 1797.3 216.599Z" fill="#1C4EFF"/>
<path d="M1797.3 183.685C1806.37 183.685 1813.73 191.053 1813.73 200.142C1813.73 209.231 1806.37 216.599 1797.3 216.599C1788.23 216.599 1780.87 209.231 1780.87 200.142C1780.87 191.053 1788.23 183.685 1797.3 183.685Z" fill="#AC24FF"/>
<path d="M1797.3 150.771C1806.37 150.771 1813.73 158.139 1813.73 167.228C1813.73 176.317 1806.37 183.685 1797.3 183.685C1788.23 183.685 1780.87 176.317 1780.87 167.228C1780.87 158.139 1788.23 150.771 1797.3 150.771Z" fill="var(--fill-0, #FE881B)"/>
</g>
</svg>
