<svg preserveAspectRatio="none" width="100%" height="100%" overflow="visible" style="display: block;" viewBox="0 0 95 54" fill="none" xmlns="http://www.w3.org/2000/svg">
<g id="Vector">
<path d="M89.5235 32.4237C91.8589 31.274 90.608 28.8401 94.0856 29.7108L95 38.7472C91.5326 39.2717 91.0295 37.1874 91.3456 34.229L89.5099 34.814L87.6845 38.7506C84.0981 38.6397 85.2165 36.6596 85.859 34.2324C83.5372 35.1669 83.4794 39.0633 80.3825 38.7472C80.2262 35.6544 80.3383 32.1212 82.6703 29.7175L84.0403 33.3247L88.1468 28.8165L89.5201 32.4237H89.5235Z" fill="var(--fill-0, white)"/>
<path d="M78.557 38.7506L75.9599 38.5556L75.3582 36.9117C63.484 43.5008 69.0727 27.4685 77.1055 29.7915C79.6245 30.521 78.2341 36.552 78.557 38.7472V38.7506ZM72.1661 36.0343C75.3684 36.2427 75.0522 33.2306 74.9027 30.6151C72.5265 31.469 71.7582 33.7416 72.1661 36.0343Z" fill="var(--fill-0, white)"/>
<path d="M51.151 28.8132C51.2054 30.1882 49.4581 29.889 48.3635 31.0185C46.2388 33.2138 46.2116 37.9976 49.7776 36.9386C53.2348 35.9099 49.0535 30.8437 49.3255 30.6218L52.9119 30.6823C55.7572 35.4124 48.7 41.161 44.7465 37.4059C41.4728 34.2996 47.1703 27.9391 51.151 28.8132Z" fill="var(--fill-0, white)"/>
<path d="M65.7718 37.8463C64.5379 37.7488 62.7736 39.5171 62.1787 37.3319C60.9583 32.854 62.7158 28.124 66.2274 25.206L67.2914 30.1982C64.3611 32.9246 64.5073 34.1853 65.7752 37.8463H65.7718Z" fill="var(--fill-0, white)"/>
<path d="M60.2886 26.1036C59.0818 27.9795 59.3979 29.1191 60.3498 31.0219C57.3481 32.1951 56.9912 35.5267 59.3742 37.8396C57.5623 38.3169 56.6376 38.485 54.8291 37.8261C54.581 37.5639 55.1215 31.0857 55.3051 30.6185C55.6994 29.6133 56.811 28.3156 57.5011 26.6381C57.9634 25.5119 59.4149 26.265 60.2852 26.1036H60.2886Z" fill="var(--fill-0, white)"/>
<path d="M38.359 29.7108L38.3658 35.1333L41.1091 29.7108C43.0978 29.3544 43.3765 29.9629 42.7986 31.8388C42.4077 33.1028 38.0666 40.5189 36.5369 38.7439L35.6225 29.7074H38.359V29.7108Z" fill="var(--fill-0, white)"/>
<path d="M33.7936 29.7108V34.229L32.427 31.5228C29.6633 32.7397 32.9131 38.959 28.3171 38.7472C28.2423 34.5248 28.1913 28.598 33.7936 29.7108Z" fill="var(--fill-0, white)"/>
<path d="M26.444 29.7511C26.495 31.4824 28.4531 37.9942 26.0225 38.7472C22.9494 39.6986 22.9324 32.1111 23.7415 30.6218C21.5115 30.0772 22.2764 31.1093 21.7426 31.8018C21.0458 32.7061 20.3081 33.4995 20.0803 34.6761C19.5874 37.221 23.3234 35.4056 22.8305 36.4915C21.3483 39.7524 16.3614 39.7356 17.4968 34.8409C18.418 30.8672 22.5585 28.793 26.4474 29.7545L26.444 29.7511Z" fill="var(--fill-0, white)"/>
<path d="M18.401 15.1307C20.5638 15.1307 22.3171 13.3968 22.3171 11.258C22.3171 9.11908 20.5638 7.38518 18.401 7.38518C16.2382 7.38518 14.4849 9.11908 14.4849 11.258C14.4849 13.3968 16.2382 15.1307 18.401 15.1307Z" fill="var(--fill-0, white)"/>
<path d="M31.9647 12.5455C30.5233 12.4514 30.5845 10.2326 29.6565 8.96186C25.9647 3.91246 18.6288 1.36087 13.2271 5.31096C8.91666 8.46432 7.77786 12.2598 8.27077 17.4705C9.20221 27.2937 17.1534 35.7216 16.9291 45.5246C16.6129 59.3314 4.38864 54.0097 0 45.5246L5.72121 49.7974C10.3002 52.2952 14.2503 48.2779 14.6447 43.7563C15.3857 35.2476 6.56427 26.3826 5.52405 17.4705C3.08327 -3.4801 26.7908 -6.1628 31.9613 12.5489L31.9647 12.5455Z" fill="var(--fill-0, white)"/>
<path d="M32.4236 13.4498C33.0185 13.4498 33.0185 14.3542 32.4236 14.3542C31.8287 14.3542 31.8287 13.4498 32.4236 13.4498Z" fill="var(--fill-0, white)"/>
</g>
</svg>
