<svg preserveAspectRatio="none" width="100%" height="100%" overflow="visible" style="display: block;" viewBox="0 0 151 51" fill="none" xmlns="http://www.w3.org/2000/svg">
<g id="Vector">
<path d="M47.6826 14.9268C47.8167 9.46202 45.7604 4.23762 42.224 0.145261L46.5899 0C49.585 4.40793 51.3582 9.51211 51.1595 14.9268L151 15.4277V17.4263C149.54 17.7219 144.622 16.675 144.101 18.2478C143.217 20.9126 145.482 20.7874 146.778 21.9395C150.623 25.3556 150.106 30.4147 146.947 34.1364C144.151 37.4373 140.887 38.9751 139.074 33.9661C141.503 33.7958 145.278 31.8372 146.753 29.9388C152.341 22.7459 141.861 19.9008 137.584 25.7062C135.488 28.5513 136.417 32.1879 131.684 28.1556L133.606 23.4522C122.957 21.0228 121.804 31.3364 129.136 36.9665C122.698 35.2484 116.137 26.6229 123.826 21.8493C130.049 17.9873 132.419 22.6557 135.717 22.3552C138.061 22.1398 141.707 20.3566 140.559 17.4364H105.791V20.9427C106.298 21.4436 114.423 18.4782 116.659 22.7559C116.887 23.1917 117.712 25.9066 117.712 26.2021V36.9715C116.043 37.6577 114.632 35.4638 114.438 35.4538C112.968 35.3936 109.606 37.7178 106.596 37.4524C100.705 36.9364 97.809 31.4516 103.635 27.5395C106.288 25.7613 108.846 25.6862 111.97 25.9767C112.526 26.0268 114.453 27.4894 114.726 26.1921C114.925 25.2504 114.319 24.7545 113.753 24.1735C111.115 21.4686 105.359 23.9481 102.309 24.9449C103.62 22.1448 102.821 20.3817 102.801 17.4313H82.188L81.4429 18.1827V31.707C81.4429 34.6974 85.6748 35.4087 88.044 34.8527C89.7427 34.457 92.8669 30.8004 92.8669 29.2025V20.4367L96.3537 21.679L96.8454 22.6858C96.2991 29.2175 97.5607 36.8463 96.8405 43.2277C95.7924 52.4994 78.8105 53.4712 75.0505 46.168C73.6995 43.5433 74.7624 41.7701 77.0075 40.2524C80.385 37.9733 82.7294 37.8931 84.4231 41.9655C81.1102 41.9755 73.3419 43.8789 78.2095 47.9863C81.736 50.9616 89.9016 49.8797 92.3056 45.6621C92.4994 45.3165 93.3636 42.9072 93.3636 42.7218V33.9561C89.395 37.1468 79.0439 36.5207 77.9909 30.6752C77.6929 29.0272 77.5638 25.1703 77.4545 23.2067C77.3452 21.2432 78.1151 18.6736 77.226 17.4213H61.0835V20.9276C61.605 21.4436 69.2094 18.5634 71.7475 22.4454C72.0405 22.8962 73.0041 25.3556 73.0041 25.6862V36.9565C71.1862 37.828 69.9097 35.4437 69.716 35.4237C68.6878 35.3085 65.1216 37.4473 62.8219 37.4524C57.0056 37.4524 52.6844 32.3331 58.3516 27.9453C62.0172 25.1051 65.7325 25.8064 70.019 26.4375C68.9411 20.3416 61.5106 23.7076 57.6066 24.9348L58.5255 17.9974C58.1331 17.3612 51.9393 16.8253 51.1446 18.1777V37.4624C48.8449 36.5858 47.1313 36.5056 47.6628 33.4552C45.974 34.6974 44.2207 36.6609 42.0899 37.1368C38.1511 38.0184 32.6626 32.6287 31.9722 28.9621C31.1179 24.4339 38.1461 18.0775 42.6462 21.2382L47.6628 25.4407V18.1777L46.9177 17.4263H0V14.9218H47.6826V14.9268ZM41.1014 23.0264C36.7752 23.7677 32.0467 30.4397 36.0004 33.9711C39.9541 37.5024 47.4045 30.3195 46.6048 26.3173C46.1876 24.2286 43.0336 22.6958 41.1064 23.0264H41.1014ZM69.413 29.5732C67.1878 27.5195 61.4609 28.3259 59.0917 30.1943C53.4493 34.6473 58.9824 35.6992 63.6017 34.7425C65.1812 34.4169 71.4296 31.4365 69.413 29.5732ZM114.115 29.5732C110.996 26.698 102.21 28.7868 101.36 33.6605C101.763 35.4387 106.899 35.038 108.304 34.7425C109.884 34.4119 116.137 31.4365 114.115 29.5732Z" fill="var(--fill-0, white)"/>
<path d="M6.95359 37.4677C5.34927 37.3475 3.437 36.8666 3.09924 35.1185C2.82606 33.7009 2.79626 21.9849 3.19362 21.4088L6.68041 20.9079C7.35591 21.0932 6.39729 22.8664 7.68373 22.4357C8.61255 22.1251 9.77481 20.9831 11.394 20.6675C14.9454 19.9712 18.2435 21.0081 19.3709 24.7398C19.5597 26.0021 16.5696 29.7689 15.3825 29.2229L12.909 25.952C19.0183 25.0103 16.3957 18.4886 10.9569 22.2253C9.85925 22.9816 6.94862 26.498 6.94862 27.7001V37.4677H6.95359Z" fill="var(--fill-0, white)"/>
<path d="M27.318 20.4385V37.4692L24.3378 35.716V20.4385H27.318Z" fill="var(--fill-0, white)"/>
<path d="M28.3107 12.9212C26.6765 12.9463 26.8404 10.572 25.5937 9.40491C24.0937 7.99237 21.4513 7.61669 21.3619 4.41093C26.4282 5.03205 27.6252 8.35302 28.3107 12.9212Z" fill="var(--fill-0, white)"/>
</g>
</svg>
