<svg preserveAspectRatio="none" width="100%" height="100%" overflow="visible" style="display: block;" viewBox="0 0 119 43" fill="none" xmlns="http://www.w3.org/2000/svg">
<g id="Vector">
<path d="M41.7682 8.90288C38.7447 18.4029 30.006 7.99826 25.5977 5.42452C22.5921 3.67011 17.8549 2.22638 14.3947 2.49746C10.2557 2.81727 6.17642 5.43061 7.14838 10.2065C8.14427 15.1073 18.4321 17.6445 22.4396 19.606C40.9039 28.643 30.9091 46.7353 11.8048 42.3158C2.93455 40.266 -0.971246 33.827 0.204082 24.7443L1.08633 29.4745C3.85866 37.4942 11.6075 40.403 19.4848 39.6629C24.4732 39.1938 28.7798 35.9957 26.4411 30.4553C22.5503 21.2386 -1.17461 22.3625 3.10801 8.36072C6.22726 -1.83374 21.1207 -2.11395 28.1727 4.32801C32.1413 7.95562 36.1637 16.1337 41.7682 8.90592V8.90288Z" fill="var(--fill-0, white)"/>
<path d="M115.327 23.2639L115.712 36.3786C115.945 37.3248 116.174 38.262 116.591 39.1477C117.301 40.6672 118.761 41.4831 119 42.9753C117.27 43.0481 115.428 43.0117 113.888 42.1291C110.765 40.3427 113.422 38.1013 112.878 35.3959L110.732 38.5714C105.515 46.7302 90.4141 41.6469 93.3743 31.9898C95.7162 24.3527 107.891 26.2726 110.634 21.4896C112.079 18.9661 110.569 17.2585 108.261 16.1636C103.688 13.992 97.8407 16.0241 97.4243 21.441C91.8896 8.07765 118.229 9.59415 114.57 21.1438C113.471 24.6136 108.543 25.6417 105.635 27.1491C103.431 28.2926 98.6121 31.183 98.208 33.7429C97.305 39.5025 101.646 41.9866 106.556 38.9809C109.859 36.9579 111.289 33.5852 112.186 30.0002C112.801 27.5465 112.293 24.2769 115.33 23.2608L115.327 23.2639Z" fill="var(--fill-0, white)"/>
<path d="M52.0132 14.3333C61.2091 17.0454 54.3137 29.2758 56.7645 35.5969C58.7342 40.6733 65.7108 41.3567 68.9766 37.1864C73.7459 31.1002 64.8267 17.9668 74.2451 14.4523L74.8675 14.7909V33.0953C74.8675 43.9041 57.9072 46.4026 53.2732 37.9185C52.9545 37.3328 52.0132 35.121 52.0132 34.6207V14.3333Z" fill="var(--fill-0, white)"/>
<path d="M81.4264 14.8738C82.0239 14.9903 83.2341 15.9009 83.3397 16.5847C83.4816 17.5162 81.704 19.1017 81.4082 20.5319C80.8529 23.222 82.6245 31.1552 83.2251 34.2932C83.3337 34.8605 83.4001 36.1952 83.9856 36.3713L94.0897 10.6878C95.0675 9.804 98.8853 9.9921 100.433 9.79803C106.684 9.00979 112.928 7.97373 119 6.37037C117.793 9.71144 116.16 12.9988 116.58 16.6683L114.929 14.2737C108.392 9.1113 100.198 9.14415 94.9046 15.9726C92.0405 19.666 87.921 30.2983 86.6263 34.9531C86.1615 36.6221 85.6787 41.3904 85.0328 42.3339C84.3115 43.3849 82.4585 42.8684 81.3147 42.9042L76.4437 14.8768C77.9225 15.0739 80.0441 14.6051 81.4233 14.8768L81.4264 14.8738Z" fill="var(--fill-0, white)"/>
<path d="M44.5046 43L44.0296 41.9602C44.143 31.7044 43.9376 21.4454 44.0296 11.1926C44.0418 9.7339 44.4709 8.37167 44.3452 6.68998C44.143 4.0258 43.3431 2.37425 40.9801 0.957773C44.2012 0.216383 48.8811 2.07589 49.4879 5.55077L49.5553 39.8416C49.5676 41.4238 51.1398 41.9813 52.0132 43H44.5046Z" fill="var(--fill-0, white)"/>
<path d="M33.5722 43C33.7708 41.8124 34.6818 41.0724 34.8394 39.8087C35.0159 38.4079 34.7385 36.6843 34.8173 35.2196C35.0916 30.1738 35.7662 22.7801 35.1515 17.8683C35.0475 17.04 34.707 16.3914 34.2026 15.7397L32.3113 14.3755C33.755 14.0771 40.1921 15.4078 40.1921 16.9608V42.997H33.5722V43Z" fill="var(--fill-0, white)"/>
<path d="M37.4338 9.55556C39.3924 9.55556 40.9801 7.95124 40.9801 5.97222C40.9801 3.9932 39.3924 2.38889 37.4338 2.38889C35.4752 2.38889 33.8874 3.9932 33.8874 5.97222C33.8874 7.95124 35.4752 9.55556 37.4338 9.55556Z" fill="var(--fill-0, white)"/>
</g>
</svg>
