<svg preserveAspectRatio="none" width="100%" height="100%" overflow="visible" style="display: block;" viewBox="0 0 67.837 52.857" fill="none" xmlns="http://www.w3.org/2000/svg">
<g id="Vector">
<path d="M43.217 0C43.8734 0.00696763 43.8349 0.350022 43.9993 0.922831C45.3434 1.91008 45.3513 2.06306 45.3192 3.69952C45.5794 3.70706 46.1728 3.68151 46.2474 4.0036C46.3786 4.57016 46.4808 5.98272 46.2526 6.48257C45.9699 6.73121 45.6782 6.70068 45.3064 6.71195C45.3085 7.24832 45.3012 7.79356 45.3535 8.32673C45.703 8.42762 46.2494 8.49615 46.298 8.90009C46.3545 9.36925 46.4611 10.9241 46.2308 11.2565C45.9209 11.4929 45.696 11.4512 45.3072 11.446L45.3247 15.0597C45.9653 15.115 46.489 15.0359 47.1505 15.1563C47.223 15.6832 47.2722 18.1889 47.1289 18.6501C46.9763 18.8563 46.5752 18.9204 46.324 18.9769C46.3362 20.7462 46.3318 22.5157 46.311 24.2849C46.4171 24.3899 46.8822 24.4788 47.1815 24.6187C47.2361 25.4121 47.2607 27.156 47.1454 27.9798C47.1178 28.1768 46.5433 28.3831 46.3392 28.464C46.3416 29.13 46.3662 30.4191 46.2705 31.0283C46.8182 31.0442 47.3664 31.0331 47.913 30.9951C48.046 29.3055 49.2754 27.9956 50.7198 27.2295C50.9359 27.1149 51.1523 27.0151 51.3683 26.8967C52.248 26.412 53.1499 25.9683 54.0708 25.5669C55.3803 24.9887 55.1659 25.5275 55.3117 24.1655C55.3545 23.7641 55.9198 23.9529 56.2239 24.0918C56.2691 24.421 56.32 24.7494 56.376 25.0769C57.0116 25.5249 58.0673 25.8697 58.7675 26.2193C61.5437 27.6053 62.9235 28.0613 63.8963 31.1465C64.6645 31.1384 66.2204 31.0725 66.8949 31.2439C66.9726 31.8707 66.9486 32.24 66.9029 32.8685C67.878 33.0958 67.8014 33.1346 67.8214 34.1557C67.8065 34.6383 67.8465 35.1348 67.8185 35.6159C67.7637 36.574 67.9643 36.7498 66.9509 36.825C66.8594 38.1355 66.9412 40.0004 66.9263 41.3555C66.8874 44.8049 66.9903 48.3206 66.9057 51.7667C67.1721 51.7866 67.4059 51.8307 67.6676 51.8766C67.8288 52.2273 67.9523 52.4276 67.6625 52.7334C67.1504 52.9369 64.668 52.828 63.9432 52.8268L3.95821 52.8311C2.95571 52.8316 1.95521 52.8375 0.952816 52.8523C0.585744 52.8577 0.168458 52.7612 0 52.4043C0.0450752 51.8386 0.627127 51.7943 1.06896 51.7709C1.13464 50.667 1.09457 49.1883 1.09474 48.0552L1.09445 41.3518C1.0976 39.9272 1.13984 38.2048 1.04753 36.8057C0.76808 36.7942 0.448449 36.7472 0.167618 36.713C0.0416859 36.078 0.0986673 33.8467 0.109173 33.0944C0.487488 33.0424 0.649304 32.9839 1.00849 32.8626C1.09977 32.4073 1.01689 31.6846 1.16144 31.3412C1.35333 30.8854 2.93725 31.3138 3.34296 31.069C3.58445 30.9232 3.79314 30.1703 3.90288 29.8812C4.19496 29.155 4.92842 28.3941 5.52264 27.9014C6.00414 27.5021 6.62494 27.2747 7.154 26.9694C8.44276 26.2257 9.78958 25.6645 11.1501 25.0692C11.136 24.6197 11.0917 24.0107 11.6711 23.9375C12.1586 24.1316 12.0854 24.6084 12.0823 25.0457C12.5294 25.3392 13.1856 25.5381 13.6743 25.787C16.531 27.2416 18.7943 27.7007 19.5804 31.1385C20.2818 31.1359 21.1113 31.1144 21.7985 31.1568C21.761 30.3753 21.791 29.2947 21.7863 28.4949C21.5563 28.4474 21.0199 28.3712 20.8813 28.233C20.6547 27.5633 20.7789 25.8495 20.7575 25.074C20.736 24.2961 21.4474 24.6428 21.7813 24.347C21.8815 23.0258 21.7985 20.45 21.7699 19.0414C21.4956 19.0078 21.1115 18.9151 20.833 18.8567C20.8081 18.6891 20.7894 18.5206 20.7767 18.3515C20.742 17.8251 20.6497 15.5832 20.9266 15.2704C21.3154 15.0998 22.2258 15.17 22.6864 15.1828C22.5806 14.3202 22.6325 12.421 22.6799 11.5301C22.439 11.501 21.8401 11.4615 21.8203 11.1759C21.79 10.7414 21.7091 9.00578 21.9151 8.69695C22.1345 8.56011 22.425 8.53067 22.6837 8.48466C22.6595 7.87895 22.6458 7.43717 22.6812 6.82586L21.8231 6.59466C21.7668 6.15488 21.7101 4.46516 21.8736 4.03784C21.94 3.86453 22.4708 3.75268 22.6739 3.7002C22.5863 2.2326 22.6545 1.79981 24.0058 1.12648C24.0553 0.816887 24.0727 0.232944 24.4105 0.127881C24.9591 -0.0427886 25.1383 0.775407 25.2323 1.11014C26.3928 1.93188 26.4635 2.42837 26.3742 3.77845C26.7042 3.78017 26.9196 3.80555 27.2439 3.84499C27.2696 3.9074 27.3804 4.20811 27.3846 4.29602C27.4141 4.89968 27.6021 6.11875 27.2854 6.62158C27.2002 6.75676 26.5749 6.78962 26.3972 6.80374L26.3918 8.49941C27.0048 8.55714 27.4128 8.49575 27.4357 9.28197C27.4541 9.90968 27.5759 10.7154 27.2888 11.2883C27.1997 11.4662 26.5942 11.5242 26.3996 11.5541C26.4331 12.706 26.4484 14.0131 26.3744 15.1647C26.7055 15.1627 27.9493 15.0826 28.1632 15.307C28.3607 15.7998 28.2963 18.0886 28.2676 18.7188C27.9412 18.8995 27.8154 18.9682 27.4577 19.0885C27.4047 19.7622 27.302 24.1943 27.6037 24.5289C27.6334 24.5619 27.7239 24.5498 27.769 24.5512C28.747 23.3781 29.1447 22.8021 30.4769 22.0128C31.3757 21.4803 32.3964 20.7525 33.2465 20.1461C33.5426 19.9349 33.4758 19.2285 33.4809 18.8708C33.6769 18.8283 33.9865 18.7299 34.1759 18.8038C34.5859 18.9639 34.3363 19.5651 34.4979 19.9083C34.7878 20.5237 38.0163 21.9624 38.8114 22.7555C39.1085 23.0517 39.9584 24.359 40.2456 24.4437C40.32 24.4657 40.3665 24.4217 40.433 24.3889C40.6927 24.0392 40.5893 22.5865 40.5867 22.0719C40.5816 21.0191 40.5956 19.9663 40.6286 18.9141C40.3343 18.8907 40.0023 18.8759 39.7714 18.6811C39.5909 18.3955 39.6865 15.7228 39.6918 15.212C40.4134 15.0551 40.8695 15.1258 41.5891 15.0652C41.5167 13.9444 41.5529 12.5537 41.568 11.4244C41.4749 11.4141 41.3819 11.4029 41.289 11.3911C41.135 11.3711 40.764 11.3238 40.6973 11.1888C40.4683 10.726 40.5743 9.11838 40.6456 8.64585C40.9707 8.51375 41.2089 8.46677 41.5486 8.38938C41.5794 7.88593 41.5558 7.20025 41.5528 6.68371C40.4816 6.58237 40.5905 6.48874 40.5792 5.4396C40.5743 4.98044 40.5651 4.42806 40.6685 3.99268C40.717 3.78857 41.3425 3.71878 41.5197 3.68952C41.5146 3.18641 41.5762 2.64649 41.6653 2.15132C41.782 1.5027 42.5657 1.37908 42.9008 0.851314C43.0829 0.564532 42.9659 0.290514 43.217 0ZM16.8351 43.6751C17.2145 45.3043 17.0108 47.9209 17.0608 49.6514C17.0695 49.9512 17.0703 51.5868 17.0415 51.8237C18.4134 51.7795 20.4533 51.7517 21.8082 51.8164C21.7622 46.8576 21.9089 41.6512 21.7708 36.7333C20.3105 36.781 18.7223 36.751 17.2505 36.7501L4.53734 36.7522C3.87762 36.7526 2.66574 36.7949 2.05872 36.751C2.12885 37.4041 2.08753 38.5191 2.08398 39.2279L2.07827 43.4982L2.08433 48.8514C2.08627 49.4716 2.12159 51.2736 2.03774 51.8016L4.99295 51.8011C5.49726 51.8015 6.33446 51.7793 6.80414 51.8506C6.78264 50.4371 6.77481 49.0234 6.78064 47.6098C6.7803 46.1535 6.6901 44.5504 7.20293 43.184C7.89483 41.3403 9.51562 40.0437 11.2209 39.1797C11.4527 39.0623 11.7683 38.7535 12.0094 38.7198C12.4165 39.2149 12.7095 39.1698 13.2308 39.466C14.8972 40.4129 16.2229 41.833 16.8351 43.6751ZM51.3683 43.4092C51.8724 41.6754 52.9573 40.6584 54.4554 39.7131C55.0402 39.3446 55.5883 39.1435 56.0599 38.6018C56.5514 39.1646 57.5894 39.5383 58.1868 39.9903C58.9693 40.5832 59.9644 41.453 60.4234 42.3215C61.3276 44.0329 61.227 46.0912 61.2116 47.9674C61.2007 49.2572 61.2373 50.5687 61.187 51.8473C62.057 51.759 65.0938 51.778 66.0186 51.8218C65.9094 50.7034 65.9906 49.0971 65.9918 47.931C65.9683 44.9102 65.9609 41.8893 65.9689 38.8684C65.9689 38.5764 66.0278 36.9078 65.9352 36.7571L65.902 36.7496L48.615 36.7555C47.9503 36.7585 46.9243 36.794 46.2834 36.739C46.3627 37.9515 46.3324 39.3808 46.3325 40.6126L46.3291 49.9231C46.3298 50.3926 46.3529 51.4122 46.285 51.8248C47.768 51.7572 49.5466 51.802 51.0523 51.8054C50.9999 50.7401 51.011 49.5455 51.0183 48.4656C51.0291 46.8759 50.8671 44.9124 51.3683 43.4092ZM33.9704 51.8031C36.0438 51.8024 38.457 51.7402 40.5025 51.8166C40.2862 45.5395 41.7414 40.4285 35.5233 37.0235C35.1083 36.7963 34.449 36.1808 34.0113 36.0325C33.1848 36.3954 32.9398 36.7225 32.2511 37.1208C30.3784 38.2038 28.8697 39.7559 28.0309 41.8075C27.0831 44.1263 27.5302 47.2731 27.4236 49.7582C27.4012 50.4129 27.4615 51.1544 27.3727 51.8034L33.9704 51.8031ZM41.4665 51.809C42.5301 51.7937 44.1749 51.758 45.2177 51.8183C45.1427 48.9234 45.2041 45.7831 45.2052 42.8726L45.2067 28.3994C43.9578 28.4173 42.7086 28.4213 41.4596 28.4112C41.5125 29.9399 41.4937 31.5449 41.4793 33.0796C41.4208 39.3143 41.5617 45.577 41.4665 51.809ZM22.6408 51.804C23.3757 51.8012 25.7845 51.7509 26.3967 51.8555C26.3224 49.1593 26.3836 46.1891 26.376 43.4622L26.3831 28.4008C25.3218 28.4074 23.6726 28.4618 22.6747 28.3943L22.6545 44.4464L22.6616 49.3533C22.6626 49.9573 22.7038 51.2678 22.6408 51.804ZM56.1479 51.8031L60.3068 51.8067C59.9289 47.3426 61.5803 43.123 57.1459 40.5567C56.8778 40.4015 56.2828 39.8493 56.0336 39.7746C55.3723 40.3135 54.6229 40.714 54.0799 41.1659C52.7933 42.2368 52.0279 43.6234 51.8765 45.2812C51.6948 47.2762 51.9833 49.9204 51.8239 51.8204C53.2654 51.7962 54.7064 51.7904 56.1479 51.8031ZM12.0215 51.8032C13.146 51.8012 14.9863 51.7455 16.0467 51.8368C16.0379 50.5449 16.0378 49.2529 16.0463 47.961C16.0506 45.664 16.2423 43.4537 14.4612 41.6678C13.7759 40.9806 12.74 40.4522 11.9586 39.8484C11.8947 39.8456 11.8405 39.8432 11.796 39.8412C11.1785 40.3451 10.5176 40.7139 9.89504 41.1959C7.56091 43.003 7.68443 45.5463 7.69872 48.1511L7.68272 51.8094L12.0215 51.8032ZM37.8728 37.389C38.5259 37.8795 38.8608 38.1988 39.371 38.8095C39.7309 39.2404 40.1958 40.3771 40.4896 40.5339L40.5691 40.506C40.5896 40.311 40.5203 40.2536 40.5195 40.105C40.5072 37.8293 40.4346 35.3035 40.5035 33.0486C39.2735 32.9764 37.8915 33.0047 36.6472 33.0045L30.6497 33.0058C30.1675 33.0065 27.6572 33.0476 27.3718 32.9935C27.4686 33.7764 27.4336 34.9081 27.4305 35.718C27.4296 37.4221 27.4054 39.1262 27.3579 40.8297C27.612 40.3836 27.8705 39.902 28.1562 39.4689C29.2255 37.847 30.8919 36.7115 32.5453 35.754C33.0999 35.4327 33.6508 34.6102 34.3443 35.107C35.5222 35.9305 36.7625 36.4695 37.8728 37.389ZM28.1983 27.3595C30.4863 27.4527 32.8407 27.3276 35.1356 27.3799C35.57 27.3898 39.4377 27.448 39.5824 27.2622C39.8713 24.6098 37.3742 23.0237 35.3886 21.9336C34.9479 21.6917 34.462 21.3249 34.0377 21.039C33.2263 21.3591 30.0764 23.4144 29.4095 24.1059C29.1267 24.3991 28.752 25.269 28.5611 25.6938C28.5243 25.8074 28.4081 26.137 28.4054 26.2351C28.3005 26.4921 28.2421 27.0539 28.1983 27.3595ZM4.54969 31.0966C6.69279 31.1993 9.52557 31.1749 11.7067 31.1425C12.5038 31.1445 18.3351 31.2212 18.5704 31.0425C18.606 30.6281 18.1423 29.8728 17.8644 29.5517C16.9435 28.4875 15.6837 27.9337 14.4478 27.352C13.5494 26.9292 12.5039 26.3805 11.628 25.9004C10.7889 26.3556 9.65389 26.9124 8.80897 27.3174C6.81728 28.2719 5.24382 28.7583 4.56512 31.0431L4.54969 31.0966ZM48.6154 31.1016C50.856 31.1915 53.6038 31.1739 55.8764 31.1413L60.2022 31.1439C60.9772 31.1416 61.9632 31.1002 62.7126 31.1637C62.4382 30.2834 62.2347 29.6065 61.4871 28.9941C60.3914 28.0969 59.1533 27.5941 57.8867 26.9983C57.546 26.8382 55.929 25.8415 55.6449 25.96C55.1025 26.2014 54.6749 26.4431 54.1599 26.7207C51.7358 28.0275 49.728 28.2883 48.6154 31.1016ZM21.805 35.8298C21.7909 35.2226 21.7849 34.6153 21.787 34.008L8.76736 34.0134C6.38076 34.0126 3.45082 34.0942 1.10274 34.0106C1.13767 34.5936 1.15773 35.2652 1.08651 35.8459L16.7664 35.8421C17.5228 35.8426 21.3159 35.9547 21.805 35.8298ZM66.9372 35.8601C66.9109 35.2154 66.9126 34.6554 66.9223 34.0119C65.6276 34.0841 63.754 34.0178 62.4153 34.0154L53.989 34.0132L48.8776 34.0194C48.2444 34.0221 46.7624 34.0708 46.2206 34.0077C46.236 34.597 46.2499 35.2609 46.2054 35.8463L59.211 35.842C61.7866 35.8314 64.3622 35.8374 66.9372 35.8601ZM27.364 32.1425C31.6691 32.027 36.1848 32.2494 40.4437 32.1049C40.5623 31.9144 40.5075 30.6342 40.516 30.278C36.2448 30.1969 31.7961 30.2756 27.513 30.2782C27.3229 30.5391 27.4744 31.5902 27.364 32.1425ZM41.4936 24.5261C42.7351 24.5486 43.9769 24.5504 45.2183 24.5316C45.1851 23.4388 45.2052 22.2701 45.2054 21.172C45.2055 20.5353 45.1771 19.543 45.2206 18.9316C44.0608 18.9435 42.623 18.9727 41.4782 18.9199C41.5102 20.7602 41.4175 22.6958 41.4936 24.5261ZM22.6713 24.5147C23.1667 24.5317 26.0528 24.603 26.3668 24.4951C26.3851 22.6476 26.3592 20.7841 26.3847 18.9459C25.5154 18.9342 23.387 19.002 22.6448 18.9248C22.7138 19.5884 22.6726 20.4957 22.6689 21.1891L22.6713 24.5147ZM40.5076 17.9545C41.9673 18.0787 44.6926 18.1096 46.1392 17.9807C46.2092 17.4719 46.2133 16.6536 46.2172 16.1199C44.918 15.9811 43.3278 16.1074 42.0069 16.0766C41.6099 16.0674 40.8297 16.1112 40.4631 16.0531C40.4935 16.6865 40.5083 17.3205 40.5076 17.9545ZM8.57114 32.1472C8.14216 32.167 7.11896 32.1988 6.72217 32.1326C6.72337 32.4191 6.71954 32.7206 6.73137 33.0057C7.06221 33.0018 8.29266 33.0564 8.55124 33.0105L8.57114 32.1472ZM9.57089 32.1681L9.5897 32.9894L10.3782 32.9954L11.4592 33.0053C11.4622 32.7297 11.462 32.4488 11.469 32.1739L10.7114 32.1621C10.3386 32.1676 9.941 32.1804 9.57089 32.1681ZM12.5002 33.0009C13.0041 32.9999 13.7543 33.1174 14.0961 32.8721C14.2306 32.6846 14.1843 32.4726 14.1517 32.2483C14.0593 32.1781 14.0878 32.179 13.9874 32.168C13.4545 32.1694 12.8557 32.158 12.3291 32.1906C12.3164 32.4131 12.2743 32.7247 12.3558 32.9211C12.3861 32.9386 12.473 32.9921 12.5002 33.0009ZM60.9835 33.0066C61.2567 32.8302 61.1796 32.5103 61.1779 32.1937C60.5966 32.1742 60.0455 32.1572 59.4625 32.1629C59.2865 32.3318 59.3299 32.4003 59.2882 32.6911C59.4871 33.1844 60.4742 32.9921 60.9835 33.0066ZM45.2041 4.88522C43.9762 4.8476 42.7473 4.85246 41.5197 4.89973C41.4175 5.11093 41.443 5.46932 41.4645 5.7075C42.2429 5.74339 44.3974 5.78478 45.1283 5.71413C45.2551 5.57592 45.2228 5.26109 45.2145 5.06932C45.2118 5.00793 45.2083 4.94655 45.2041 4.88522ZM52.3989 33.0013C52.6595 32.9237 52.6624 32.9691 52.8001 32.7918C52.831 32.5933 52.8327 32.568 52.755 32.3786C52.4355 32.0063 51.5898 32.1739 51.1185 32.2074C50.9022 32.3175 50.8748 32.3335 50.7334 32.5295C50.7322 33.0857 51.9839 32.9993 52.3989 33.0013ZM27.3811 16.0657C26.5309 16.0671 22.2477 16.1348 21.7809 15.991C21.7736 16.445 21.7054 17.535 21.8896 17.9018C22.2314 18.1678 26.5534 18.0215 27.3335 18.0044C27.4 17.6049 27.3765 16.5278 27.3811 16.0657ZM17.0247 33.0157L17.0349 32.1392C16.6498 32.1696 15.5566 32.1973 15.1944 32.1374L15.2032 33.0001C15.5103 33.0015 16.8147 33.0384 17.0247 33.0157ZM35.8416 29.2241C36.2613 29.2352 37.292 29.2795 37.6778 29.2422C37.7903 29.0141 37.7316 28.6668 37.7132 28.3981C37.1287 28.4201 36.5311 28.4032 35.9654 28.4263C35.8927 28.7503 35.871 28.8931 35.8416 29.2241ZM19.9274 32.9978L19.927 32.2124C19.3088 32.1843 18.69 32.1711 18.0711 32.1728C18.054 32.3835 18.0037 32.6599 18.1019 32.8347C18.4041 33.1558 19.4415 32.9892 19.9274 32.9978ZM41.4198 10.4114C42.4264 10.4159 44.1975 10.4691 45.1246 10.3954C45.2529 10.1835 45.2009 9.85675 45.1887 9.58148C44.0736 9.52586 42.6624 9.54512 41.5336 9.57233C41.4382 9.87213 41.4378 10.1012 41.4198 10.4114ZM22.6395 10.4078C23.8497 10.4166 25.0599 10.4182 26.2702 10.4124C26.5001 10.1596 26.5157 9.94295 26.299 9.69019C25.7674 9.45487 23.4658 9.55347 22.7757 9.58816C22.6366 9.73923 22.6535 10.1715 22.6395 10.4078ZM5.67891 32.9934C5.71772 32.7879 5.78448 32.5589 5.71521 32.3671C5.43839 31.9842 4.40285 32.1902 3.94232 32.2131C3.84664 32.48 3.80377 32.5997 3.91386 32.8536C4.242 33.1142 5.21679 33.0081 5.67891 32.9934ZM44.3553 6.6888C43.8834 6.69571 43.3662 6.69314 42.8991 6.72383C42.6238 6.73287 42.6226 6.68628 42.4496 6.82643C42.3094 7.19088 42.383 8.00899 42.3349 8.54719C42.8928 8.55788 43.4736 8.57754 44.0295 8.564L44.2469 8.52639C44.3893 8.29547 44.3286 7.11234 44.3553 6.6888ZM62.1776 32.1758L62.1867 32.9845C62.8 32.9983 63.4133 33.0052 64.0266 33.0053L64.0249 32.1707C63.4133 32.1772 62.788 32.1914 62.1776 32.1758ZM2.83533 32.9953C2.9876 32.8492 2.9672 32.5347 2.97234 32.3189C2.97337 32.2711 2.97411 32.2233 2.97457 32.1756C2.74268 32.1646 2.3883 32.137 2.16589 32.1525C1.55927 32.8599 2.22528 33.0149 2.83533 32.9953ZM27.3843 29.2308C27.9607 29.2356 28.5371 29.2453 29.1134 29.2598C29.3103 29.0669 29.3493 28.7615 29.1783 28.5362C28.8246 28.293 28.0154 28.4203 27.5311 28.4323C27.4061 28.7081 27.407 28.932 27.3843 29.2308ZM65.499 33.0324C65.6699 32.9849 65.7603 33 65.8357 32.8238C65.9906 32.4611 65.9495 32.1333 65.4916 32.1439C64.7851 32.285 64.8246 32.8964 65.499 33.0324ZM25.5389 6.68851C25.1984 6.70749 23.9479 6.75481 23.6485 6.70131C23.6515 7.19568 23.6907 8.14863 23.6542 8.58257C23.9147 8.58206 25.3699 8.592 25.5352 8.55925C25.4935 7.94628 25.5229 7.30457 25.5389 6.68851ZM20.8494 32.1989C20.7824 32.5183 20.7316 32.6121 20.8818 32.8831C21.1377 33.0465 21.4196 33.0084 21.7296 33.0042C21.7554 32.7115 21.7714 32.4712 21.7785 32.1753L20.8494 32.1989ZM47.0059 32.9944C47.0683 32.7055 47.067 32.4805 47.0758 32.1885L46.3482 32.1497C45.8865 32.8373 46.3754 33.0221 47.0059 32.9944ZM53.7038 32.984C53.9862 32.9903 54.3108 33.0056 54.5903 32.9958L55.5432 33.0084L55.5763 32.1747L54.8407 32.163L53.6764 32.1779C53.7004 32.4726 53.721 32.6855 53.7038 32.984ZM44.3255 11.4297C43.8536 11.4554 43.2561 11.4395 42.8285 11.4759C42.6252 11.488 42.5084 11.4584 42.3662 11.5613C42.3589 12.3844 42.4614 14.4651 42.3288 15.1617C42.8911 15.172 43.4536 15.1733 44.016 15.1657L44.2596 15.1624C44.2823 15.1378 44.3051 15.1132 44.3277 15.0886C44.3293 13.8689 44.3104 12.6495 44.3255 11.4297ZM43.6267 3.8379L44.3908 3.8267C44.3072 3.03711 44.2873 1.86027 43.1344 2.00256C42.4194 2.37967 42.3917 3.05763 42.3039 3.77885C42.7254 3.798 43.2108 3.80686 43.6267 3.8379ZM26.256 5.69264C26.4015 5.45 26.4842 5.10979 26.2661 4.8907C25.7702 4.81194 23.3387 4.8719 22.7323 4.87978C22.6759 5.1374 22.6214 5.38695 22.7547 5.62405C22.9602 5.73814 25.9094 5.77083 26.256 5.69264ZM57.6929 32.1621C57.3379 32.1689 56.9298 32.1863 56.5795 32.1791C56.5715 32.4358 56.5549 32.729 56.5572 32.9825L57.3054 32.9916C57.6609 32.9956 58.0627 33.0112 58.4131 32.9802L58.42 32.1774L57.6929 32.1621ZM23.6539 15.2172C24.0857 15.1864 25.113 15.1503 25.5456 15.1832C25.4935 14.2536 25.4682 12.3567 25.5191 11.4298C25.0575 11.4423 24.0557 11.4866 23.6412 11.4251C23.6482 12.6722 23.6737 13.9748 23.6539 15.2172ZM24.3334 2.00888C23.5742 2.37035 23.6675 3.10781 23.6326 3.85282C24.1015 3.84259 24.5704 3.83556 25.0394 3.83167C25.196 3.8239 25.4038 3.81921 25.5548 3.80286C25.493 2.93811 25.5402 1.9083 24.3334 2.00888ZM48.1288 32.1882C48.1038 32.3925 48.0491 32.6304 48.1382 32.8084C48.4472 33.1671 49.4197 32.993 49.8956 32.9833C49.9289 32.6986 49.9507 32.4887 49.9583 32.199C49.3015 32.1422 48.7723 32.1875 48.1288 32.1882ZM30.2763 28.4019L30.2605 29.2755C30.9063 29.2486 31.4774 29.2397 32.1261 29.2791L32.1175 28.399C31.5239 28.4013 30.8643 28.4167 30.2763 28.4019ZM33.0323 28.4208C32.9894 28.7406 32.9725 28.9156 32.9646 29.2409C33.3922 29.2502 34.3448 29.2925 34.7289 29.2346C34.947 29.0695 34.8625 28.6843 34.8445 28.4174C34.2463 28.3942 33.632 28.4117 33.0323 28.4208ZM38.6442 28.4292C38.6126 28.6979 38.5831 28.9669 38.5557 29.2361C39.1019 29.2421 39.9207 29.2752 40.4454 29.232C40.5628 29.0594 40.5375 28.6645 40.5344 28.4391C39.8531 28.4043 39.3243 28.4113 38.6442 28.4292ZM21.8612 25.5287C21.6843 25.7288 21.7837 27.0224 21.8039 27.374L21.8056 27.4016C23.6813 27.3582 25.538 27.3963 27.4106 27.3695C27.3777 26.7826 27.3733 26.1074 27.3799 25.5212C26.9911 25.5751 22.1553 25.5835 21.8612 25.5287ZM43.0959 25.5332C42.2783 25.5424 41.245 25.5889 40.4438 25.5672C40.5285 26.2359 40.5332 26.6983 40.4633 27.3695L43.7874 27.3764C44.3535 27.3787 45.7604 27.4133 46.2398 27.3184C46.1656 26.6101 46.24 26.1418 46.1974 25.528C45.1546 25.5583 44.1325 25.5219 43.0959 25.5332Z" fill="var(--fill-0, black)"/>
<path d="M4.18376 45.2685C5.47617 45.2442 5.98339 46.8534 5.97202 47.9156C5.9599 49.0455 5.85038 49.0119 4.80776 49.0229C2.56468 49.0185 3.03475 48.9616 3.09992 46.6839C3.11638 46.108 3.74712 45.5948 4.18376 45.2685ZM3.84235 48.0937L4.45137 48.1249C4.57455 48.101 4.72042 48.1076 4.77712 47.9848C5.01301 47.4734 4.89212 46.3873 4.16849 46.3586C3.74861 46.8565 3.84229 47.4278 3.84235 48.0937Z" fill="var(--fill-0, black)"/>
<path d="M19.2642 45.3149C19.7923 45.3734 20.2039 45.763 20.5899 46.1008C20.8702 46.8975 20.8881 48.1693 20.736 48.9896C20.3316 49.0488 20.1328 49.0423 19.7242 49.0327C19.1971 49.0328 18.6701 49.0185 18.1439 48.9899C18.127 48.1058 18.0803 47.1293 18.2797 46.2759C18.5724 45.9431 18.9369 45.619 19.2642 45.3149ZM18.9263 48.1021C19.184 48.1064 19.4646 48.1216 19.7169 48.08C20.1012 47.9376 19.9066 47.1734 19.8461 46.8286C19.6735 46.6516 19.4416 46.3505 19.2111 46.3341C18.8339 46.9328 18.9032 47.4084 18.9263 48.1021Z" fill="var(--fill-0, black)"/>
<path d="M6.58026 38.0215C7.01609 37.9236 7.47273 38.0312 7.81894 38.3136C8.25054 38.6656 8.44334 39.2331 8.31548 39.7752C8.18761 40.3173 7.76155 40.7388 7.21809 40.8609C6.43405 41.037 5.65572 40.5442 5.47961 39.7601C5.30345 38.9761 5.79621 38.1977 6.58026 38.0215ZM6.94516 39.8738C7.12064 39.7398 7.18202 39.7099 7.25884 39.502C7.23792 39.1563 7.07634 39.0708 6.75831 38.9586C6.62078 39.1387 6.50218 39.2584 6.47754 39.4824C6.54985 39.7602 6.67217 39.8115 6.94516 39.8738Z" fill="var(--fill-0, black)"/>
<path d="M15.9462 38.0632C16.7071 37.8668 17.4829 38.3258 17.677 39.0872C17.8711 39.8486 17.4099 40.623 16.6478 40.8148C16.4186 40.8726 16.1786 40.8721 15.9495 40.8136C15.46 40.6885 15.0739 40.3126 14.9356 39.8267C14.7973 39.3407 14.9276 38.8179 15.2779 38.4537C15.4602 38.2642 15.6916 38.129 15.9462 38.0632ZM16.5193 39.8942C16.9729 39.3297 16.7877 38.9586 16.0459 39.0824C15.8952 39.1903 15.8856 39.2173 15.8082 39.3874C15.8301 39.8451 16.1626 39.8394 16.5193 39.8942Z" fill="var(--fill-0, black)"/>
<path d="M48.4177 45.2658C49.857 45.3385 50.1834 47.0609 50.1268 48.2016C50.1128 48.4833 50.1096 48.618 49.9652 48.8628C49.763 49.06 49.2739 49.0319 48.9889 49.0371C48.3903 49.0428 47.8791 49.041 47.2786 49.0113C47.0756 48.1498 47.1211 47.0599 47.3152 46.2029C47.5757 45.9124 48.0918 45.4778 48.4177 45.2658ZM48.752 48.11C49.1228 47.7053 49.0995 46.4826 48.3648 46.3922C48.1077 46.7514 47.8141 47.6645 48.2679 48.0344C48.353 48.1038 48.6285 48.1069 48.752 48.11Z" fill="var(--fill-0, black)"/>
<path d="M63.4905 45.2719C63.8026 45.2617 63.9232 45.3486 64.2473 45.5725C65.1098 46.1692 65.4802 47.9105 65.0441 48.8282C64.9652 48.9939 64.1787 49.0158 63.9352 49.0292C63.6146 49.0401 63.0333 49.0616 62.7177 49.0525C61.9295 49.0298 62.2982 47.092 62.3119 46.6058C62.3291 45.9798 63.0075 45.6146 63.4905 45.2719ZM63.8295 48.1241C64.185 47.8269 64.1862 46.5814 63.4557 46.3809C63.1727 46.8106 62.8715 47.6735 63.3779 48.0554C63.5768 48.11 63.6283 48.113 63.8295 48.1241Z" fill="var(--fill-0, black)"/>
<path d="M60.145 38.0216C60.9229 37.8497 61.6934 38.3388 61.8689 39.1159C62.0444 39.8929 61.5585 40.6656 60.7823 40.8447C60.0009 41.0248 59.2224 40.5354 59.0458 39.7533C58.8692 38.9712 59.3619 38.1946 60.145 38.0216ZM60.5599 39.9166C60.9429 39.5603 60.9252 38.99 60.4279 38.9807C60.2576 39.1289 60.1781 39.1829 60.077 39.386C60.0735 39.7497 60.2239 39.737 60.5114 39.8909L60.5599 39.9166Z" fill="var(--fill-0, black)"/>
<path d="M50.7737 38.037C51.3777 38.0025 51.5408 38.0658 52.0628 38.3186C52.6876 39.41 52.5967 40.429 51.3257 40.8769C50.6023 40.8963 50.5365 40.8495 49.9491 40.4495C49.8771 40.3038 49.8181 40.1521 49.7726 39.9961C49.489 39.0413 49.7933 38.3052 50.7737 38.037ZM51.3708 39.8673C51.8188 39.1324 51.3485 39.0274 50.6999 39.0733C50.6095 39.2751 50.5763 39.3261 50.5755 39.5496C50.7428 39.9092 51.0149 39.8805 51.3708 39.8673Z" fill="var(--fill-0, black)"/>
</g>
</svg>
