<svg preserveAspectRatio="none" width="100%" height="100%" overflow="visible" style="display: block;" viewBox="0 0 84.3788 46.2588" fill="none" xmlns="http://www.w3.org/2000/svg">
<g id="Vector">
<path d="M40.0903 1.83978C40.3533 0.383924 41.2735 -0.193668 42.7121 0.0565519C44.7685 0.414323 44.256 3.28143 44.3625 4.77814C45.2551 5.25568 45.9372 5.81113 46.7436 6.40685C47.7416 7.14405 48.5693 7.60739 49.6608 8.16686L49.7276 8.13839L49.7702 7.99658L49.9505 7.96275C50.101 7.68835 50.2137 7.55302 50.5552 7.57388C50.6554 7.64154 50.6875 7.66787 50.7322 7.78121L50.8518 7.52648L50.8859 7.72025L51.0162 7.77198C51.0442 8.87559 51.0018 9.72088 51.4443 10.7472C51.4989 10.8746 51.5477 11.1304 51.5713 11.1812C51.6201 11.826 51.6298 13.0625 51.6351 13.7474C51.5038 14.3104 51.3193 14.9077 51.0187 15.4069C50.6425 16.0319 50.2136 16.328 50.036 17.0805C49.8523 17.8583 50.0795 19.0205 50.0336 19.6975C50.4058 19.8607 51.3242 20.3795 51.4689 20.7371C51.4775 21.0496 51.5992 21.1262 51.6394 21.3667C51.6501 21.4295 51.5279 21.8401 51.5424 21.9631C51.5654 22.3502 51.5815 22.8166 51.6335 23.1943C51.6544 23.335 51.6753 23.5213 51.7129 23.6547L51.8265 23.6889L51.8271 23.7315C51.9375 23.5212 51.878 23.4766 51.9262 23.2922C52.182 24.0835 53.1985 24.6926 53.9218 25.0727C54.2006 25.2582 54.4333 25.4678 54.7646 25.4077C54.919 25.2958 54.8756 25.3592 54.9217 25.167C54.8338 24.7488 54.6499 24.6839 54.2944 24.4463C53.7282 23.8796 54.4515 23.5264 54.6574 23.0225C54.8895 22.4533 54.8954 21.5939 55.2911 21.0876C56.0031 20.1768 57.625 19.311 58.1161 18.2749C58.2935 18.0403 58.1756 17.8821 58.434 17.757L59.1498 17.8036C59.123 18.1934 59.2061 18.8012 59.509 19.0841C60.0532 19.5927 60.778 20.4016 61.4836 20.67C61.5807 20.7068 61.5892 20.7157 61.6686 20.7742C61.7694 21.0799 61.7747 21.252 62.0203 21.4261L62.1018 21.4235L62.1329 21.3047C62.3146 21.5089 62.4299 22.083 62.5066 22.3749L62.4916 22.1562C62.5468 22.3394 62.654 22.7953 62.7666 22.9031C62.9586 23.2919 63.1199 23.6555 63.3971 23.9918C63.0508 24.6462 62.6197 24.6817 62.5666 25.6109C62.5205 26.4219 62.5961 27.217 62.5693 28.0209C65.523 28.0809 68.9441 28.1498 71.8795 28.0392C71.9599 27.372 72.0259 25.022 71.7793 24.8306C70.7268 24.0156 70.7391 24.3044 71.6688 23.0292C71.7096 22.9733 71.8425 22.1561 71.8795 21.9329C72.1883 21.7457 72.3964 21.1593 72.5921 21.0241C73.4794 20.4112 74.2134 19.6774 74.9736 18.9204C75.1774 18.7176 75.135 17.8573 75.2304 17.673C76.5397 17.7748 75.7028 18.7705 76.7376 19.3696C76.9767 19.5079 77.2335 20.2333 77.7605 20.218C77.8179 20.2253 77.8972 20.4707 77.9192 20.5424C78.1578 20.7005 78.2195 20.7234 78.4806 20.8C78.5942 20.8332 78.7368 21.2733 78.8339 21.3493L78.8296 21.1015L78.8644 21.0917C79.0666 21.5909 79.2687 22.0807 79.444 22.5906L79.4403 22.5577C79.5899 23.0516 79.3352 23.0641 79.4253 23.3596C79.5148 23.6517 80.0584 23.7185 79.792 24.2424C79.6885 24.4638 79.3883 24.558 79.3759 24.8906C79.3502 25.6008 79.37 26.3675 79.3716 27.076L79.3722 38.7598C79.3722 39.6877 79.3159 41.3936 79.3926 42.2191L79.4462 42.2732C79.466 43.035 79.4934 44.0898 79.4537 44.8376C80.3608 44.8827 83.685 44.7142 84.2088 45.3073C84.242 45.3445 84.2613 45.3908 84.2758 45.4374C84.0822 45.6416 83.8737 45.7292 83.9117 46.0513L83.894 46.2338C83.6211 46.2756 81.988 46.2524 81.6101 46.2524L7.54228 46.2495C5.41024 46.2492 3.27702 46.2508 1.146 46.2418C0.519747 46.2391 0.522186 46.2742 0.385538 45.6696C0.339462 45.4657 0.215853 45.5051 0.0490576 45.5057L0 45.4328L0.0296008 45.3275C0.501003 45.2054 0.488329 44.9951 0.65833 44.9536C1.36748 44.7804 4.27972 45.0449 4.73614 44.8278C4.94261 44.4093 4.85962 40.5611 4.8594 39.764L4.8616 26.8774C4.86112 26.6254 4.87672 25.2401 4.81774 25.1027C4.35258 24.0182 3.35947 24.8678 4.3543 23.217C4.71357 23.0528 4.67963 22.9008 4.75035 22.5372C4.74912 21.8364 4.95307 21.2055 5.48278 20.7231C6.26111 20.0141 7.09846 19.4823 7.75787 18.6166C8.06186 18.2175 7.85588 17.292 8.273 17.2473C8.52831 17.22 8.62734 17.4277 9.07395 17.369C9.25211 17.5175 9.26702 18.3939 9.31977 18.6941C10.1076 19.3473 10.938 20.0715 11.7098 20.736C12.3556 21.2921 12.4102 22.2657 12.5887 23.0261C12.6467 23.2731 13.1451 23.7824 13.196 24.0547C12.9605 24.5552 12.6639 24.5065 12.3996 25.1213L12.3006 25.123C11.9955 25.676 11.9976 27.3598 12.0873 27.9615C12.2291 28.0305 12.3642 28.0174 12.5249 28.0209C12.7959 27.9914 14.2552 28.0796 14.6839 28.0771C17.0147 28.0836 19.3456 28.0759 21.6764 28.0539C21.7194 27.4134 21.8868 25.4407 21.5716 24.832C21.4772 24.6498 20.9215 24.596 20.7606 24.266C20.6983 23.6725 21.2325 23.4301 21.3658 22.9645C21.6559 21.9512 21.8062 20.7676 22.9415 20.2954C23.4291 20.2917 24.7733 18.9694 25.037 18.4598C25.1388 18.263 25.0678 17.9323 25.2785 17.6974C26.1261 18.0747 25.5951 18.2327 26.021 18.8316C26.1478 19.01 26.3923 19.289 26.5576 19.4319L26.7869 19.4316C27.2464 20.2833 28.3589 20.6373 28.8612 21.472C29.0318 21.7555 28.8829 22.6684 29.0581 23.0045C29.4742 23.8028 29.7627 23.5443 29.6536 24.4872C29.4618 24.6663 29.0133 25.1805 29.3441 25.3863C30.0198 25.4172 31.6761 24.1308 32.1867 23.6697C32.3441 22.9354 32.2269 22.2265 32.3704 21.5547C32.7945 21.2607 32.7783 20.7658 33.1331 20.5979C33.3785 20.4816 33.964 20.0556 34.1382 19.8246C34.163 19.7917 34.1004 19.517 34.1904 19.4152C34.2318 19.523 34.2262 19.5201 34.3194 19.5852C34.4583 19.3262 34.4917 17.4548 34.3648 17.2699L34.3483 16.776C34.3879 16.5637 34.3558 16.5533 34.2603 16.4086L34.2615 16.4658C33.865 15.902 33.5926 15.3993 33.2329 14.8205L33.1679 14.8404L33.2347 14.8171L33.0974 14.9377L33.1159 14.7921C32.7889 14.475 32.8492 13.7181 32.8098 13.2469L32.7623 13.2094L32.6677 13.5144L32.6175 13.5121C32.4241 12.918 32.5308 12.0669 32.4822 11.3923C32.5973 11.0247 32.7161 10.6583 32.8389 10.2932C33.0163 10.0582 33.33 9.37105 33.2814 9.00362C33.2873 8.84428 33.2809 8.67437 33.278 8.51412C33.295 8.19715 33.2745 7.76464 33.3303 7.46472L33.5122 7.20689C33.5844 7.21193 33.8395 7.23391 33.8662 7.2627C33.9723 7.37679 33.925 7.85788 34.0807 7.99213C34.242 7.85117 34.1391 7.73499 34.2647 7.63661C34.3084 7.77086 34.3307 7.86999 34.3604 8.00575C34.4323 8.0777 34.4625 8.1207 34.5619 8.15034C34.9235 8.25811 35.7085 7.81659 36.0317 7.63103C36.5526 7.33197 39.965 5.19692 40.0563 4.83958C40.0587 4.83003 40.0608 4.82044 40.0632 4.81084C40.2212 4.17583 40.1457 2.52342 40.0903 1.83978ZM33.7627 11.5943C33.4526 12.5079 33.3626 13.1053 33.8614 13.9967C33.9602 14.2136 34.004 14.418 34.1095 14.6413C34.2906 14.7675 34.5535 14.9421 34.7737 14.952C35.86 15.0007 39.206 15.104 40.1485 14.9557C40.2246 14.8907 40.3005 13.7803 40.3336 13.5474C40.4688 12.5959 40.8372 12.3211 41.5427 11.7023C41.7593 11.5338 42.2031 11.3938 42.4743 11.4843C42.7618 11.5801 42.8941 11.9758 43.297 11.9976C43.3118 11.9984 43.4829 12.2846 43.5081 12.3262L43.5495 12.2962L43.5544 12.1261C43.5889 12.44 43.7435 12.6767 43.9096 12.935C44.0873 13.2113 43.9666 13.1664 44.2601 13.3468C44.3132 13.8444 44.3458 14.441 44.3247 14.9403C46.0785 15.024 48.0177 14.986 49.7806 14.938C50.1298 14.9284 50.3262 14.3948 50.436 14.1114C50.7737 13.8404 50.7171 13.7438 50.7161 13.335C50.735 13.4624 50.7421 13.5128 50.7811 13.6348L50.8298 13.6088C50.9517 13.1492 50.9493 12.0844 50.8659 11.6107C50.8907 11.4569 50.9217 11.3277 50.8913 11.1736C50.7816 11.1497 50.6953 11.1555 50.5844 11.1561L50.4192 10.9242C50.2488 10.6053 50.1179 10.202 49.8649 9.94076C49.0525 9.1019 44.6158 6.36846 43.5023 6.03899C42.688 5.79805 41.6213 5.97691 40.7803 6.00436C40.3512 6.38256 39.7012 6.60356 39.2131 6.91115C37.9036 7.73644 36.539 8.50887 35.2451 9.35517C34.4059 9.90408 34.0727 10.6781 33.7627 11.5943ZM21.7935 32.588C20.9424 32.5163 12.7685 32.468 12.2909 32.6178C12.2642 32.8214 12.2587 33.1093 12.1948 33.2986C12.041 33.7539 11.943 36.2005 12.2015 36.5059L12.2787 36.6004C12.3174 36.6483 12.3268 36.6707 12.3537 36.7252C12.3485 36.677 12.3522 36.7016 12.3422 36.6514C12.4247 36.5719 12.4023 36.618 12.4228 36.5148C12.4105 36.5962 12.4445 36.6367 12.4842 36.7104C12.8929 36.9316 21.4475 36.9694 21.7211 36.7671C21.848 35.984 21.7806 33.5285 21.7935 32.588ZM62.6063 36.8131C63.6159 36.849 71.6034 36.9799 71.8709 36.7786L71.9079 36.6772L71.9514 36.8146C72.1278 36.9205 72.1819 36.87 72.3106 36.7566C72.3685 36.6083 72.3395 36.5248 72.3111 36.3709C72.3192 36.2126 72.3176 36.035 72.3197 35.8747C72.347 35.1748 72.3642 33.2402 72.2655 32.6302L71.9632 32.5963C71.4265 32.5031 70.0239 32.5368 69.4304 32.5371L64.7311 32.544C64.078 32.5458 63.1773 32.5885 62.5559 32.5552C62.5575 34.0065 62.5586 35.3639 62.6063 36.8131ZM16.3481 42.3862C16.359 41.684 16.3779 40.982 16.4048 40.2803C16.8014 40.2862 16.9666 40.2195 17.4073 40.2856C17.649 40.8797 17.4226 41.8304 17.6921 42.2394C17.8096 42.2819 17.8262 42.2891 17.9494 42.3012C18.7313 42.454 20.8715 42.4006 21.7927 42.3998C21.7534 42.0266 21.7815 41.2212 21.7848 40.8126C21.7974 39.8957 21.7951 38.9787 21.7776 38.062C19.4874 38.0297 17.197 38.0207 14.9066 38.0348C14.5375 38.0361 12.7529 38.015 12.5215 38.0671C12.3966 38.1843 12.3881 38.4226 12.3631 38.6003C12.3342 38.43 12.3099 38.259 12.2902 38.0874C12.2186 38.1845 12.0843 38.2876 12.0862 38.2416C12.0547 39.0181 12.0251 40.0669 12.0623 40.8152C12.0863 41.2987 12.1855 41.9081 12.1712 42.1804C12.2229 42.2308 12.2564 42.2739 12.3189 42.3054C13.3141 42.4419 15.2856 42.4107 16.3481 42.3862ZM62.5441 42.3672C63.8196 42.4144 65.0592 42.3629 66.3068 42.3954C66.4923 42.3619 66.5518 42.3596 66.7132 42.2593C66.858 42.0881 66.8365 41.9227 66.8446 41.6926C66.8381 41.2719 66.8188 40.6407 66.9464 40.2392C67.3432 40.2365 67.5324 40.2556 67.926 40.3334C67.9844 41.0335 68.0337 41.6719 68.0155 42.374C68.5538 42.3817 71.597 42.447 71.9428 42.3602C72.079 42.3802 72.19 42.4176 72.302 42.3538C72.3176 42.0868 72.3261 41.8824 72.3192 41.612C72.3374 40.4513 72.3347 39.2904 72.31 38.1298L72.3084 38.0603C72.1267 37.934 71.6752 37.976 71.4565 38.0041C71.0737 38.0627 70.1231 38.0384 69.6877 38.0377L66.3883 38.0299L64.0812 38.0428C63.6143 38.0487 63.0154 38.0867 62.5661 38.0234C62.5505 39.2548 62.632 41.2383 62.5441 42.3672ZM35.659 19.7785C38.301 20.0403 37.3517 19.8684 37.8042 17.7408C38.1268 17.7393 38.5245 17.7272 38.8387 17.7542C38.8939 18.4219 38.9501 19.0923 38.967 19.7622C39.7885 19.7876 40.555 19.9304 41.3812 19.8668C41.5396 19.0852 41.5333 18.4531 41.6694 17.7395C41.991 17.738 42.3857 17.7255 42.6988 17.7541C42.7468 18.2784 42.8603 19.2229 42.8048 19.7187C42.8113 19.9409 42.7769 19.8898 42.8972 20.0382C43.1379 20.101 45.2116 19.9962 45.4719 19.9126C45.5743 19.6452 45.5301 19.144 45.5023 18.8545C45.4887 18.4515 45.5105 18.1467 45.5394 17.7431C45.8508 17.7378 46.2685 17.7201 46.5687 17.7434C46.6021 18.2928 46.7129 19.2174 46.6695 19.7162C46.6728 19.9176 46.6426 19.9097 46.7352 20.0611C47.0831 20.0813 48.3755 20.0066 48.6784 19.9012C48.7762 19.231 48.8396 17.0672 48.6754 16.4542L48.6884 16.4017C48.5695 16.3151 47.153 16.2337 46.9595 16.2439C46.3918 16.2238 45.8602 16.2268 45.2932 16.2322C44.6732 16.1699 44.7819 16.2231 44.2189 16.358C43.747 16.471 42.8382 16.2306 42.3623 16.2738C41.3586 16.1383 41.2343 16.5334 40.0365 16.2982C39.6908 16.218 39.3957 16.2235 39.046 16.2312C38.3341 16.1978 37.4409 16.2208 36.7083 16.2151L36.1768 16.2171C35.9199 16.2097 35.8931 16.1688 35.6958 16.2736C35.6553 16.3932 35.6276 16.4454 35.6316 16.5693C35.5196 17.4185 35.5466 18.9302 35.659 19.7785ZM6.3611 24.8671L6.28566 24.8516C6.16749 25.0056 6.03228 25.2276 6.09538 25.4286C6.04659 25.9172 6.03994 26.4094 6.04397 26.9C6.05555 28.3045 6.01839 29.7139 6.09206 31.1171C6.31145 31.1677 6.61073 31.2504 6.8284 31.248C7.66581 31.3387 10.106 31.3324 10.9531 31.2479C10.9931 30.3207 10.9151 29.0269 10.9292 28.0546C10.9419 27.1805 11.0077 25.6196 10.9366 24.8094C10.7355 24.8 10.5019 24.8043 10.298 24.8028C10.4134 24.7153 10.6387 24.8041 10.8789 24.7281L10.8577 24.653C10.6978 24.6306 9.86332 24.4805 9.77561 24.4966C8.90978 24.465 8.04455 24.4431 7.17958 24.5048C6.87585 24.5812 6.76433 24.6116 6.44291 24.6187L6.42404 24.6852L6.32062 24.6553C6.50184 24.8056 6.56885 24.7311 6.67083 24.8042C6.55776 24.8207 6.47079 24.8291 6.3611 24.8671ZM73.415 24.8646C73.3893 26.2484 73.437 27.6423 73.4231 29.0259C73.4161 29.6809 73.4617 30.5566 73.3443 31.1846C74.8417 31.3476 76.4395 31.3403 77.9487 31.2891C78.0286 31.3143 78.3278 31.4118 78.3487 31.3056C78.443 30.8385 78.42 29.9315 78.3669 29.476C78.3503 29.2842 78.3637 29.0889 78.3626 28.8965C78.3519 27.5669 78.3921 26.2354 78.3063 24.9074C78.1878 24.8135 78.139 24.8466 77.9562 24.8437L77.8924 24.8159C77.8779 24.7482 77.8602 24.7295 77.8259 24.6685C77.6361 24.6026 77.0201 24.4573 76.8378 24.4977C75.965 24.4578 75.091 24.4577 74.2187 24.4975C74.0445 24.4479 73.6408 24.5107 73.4885 24.6084L73.4322 24.736L73.4317 24.6928C73.6193 24.9022 76.5821 24.7917 77.0978 24.8294C76.0502 24.8704 75.0015 24.8388 73.9539 24.8761C73.7732 24.8825 73.5952 24.8818 73.415 24.8646ZM57.3381 26.0467C57.4201 26.834 57.6721 28.5768 57.1462 29.2153C57.0239 29.3637 56.8009 29.449 56.6267 29.5318L56.6068 29.5411C56.4079 30.0626 56.4154 30.6982 56.4663 31.2553C57.5848 31.3074 60.0392 31.3701 61.1421 31.2721C61.252 30.4038 61.4375 25.3901 61.0976 24.8486C61.0161 24.8164 60.9957 24.8001 60.9094 24.7924C60.97 24.7609 61.0665 24.7984 61.1866 24.7059L61.1308 24.6376C60.8327 24.6426 59.9636 24.4735 59.8532 24.4964C59.0742 24.4604 58.2935 24.4622 57.5145 24.5016C57.2893 24.543 57.0636 24.5809 56.8374 24.6152L56.8974 24.7288L56.7376 24.6582C56.8829 24.8141 57.1119 24.7455 57.3151 24.8198C55.8224 24.873 56.5811 25.5741 57.3381 26.0467ZM23.1275 31.1736C23.9681 31.1877 27.3048 31.4212 27.8194 31.1622C28.0264 30.8749 27.9341 30.0704 27.9076 29.7034L27.6022 29.4064C27.2174 28.9792 27.3531 29.0243 27.2725 28.4603C27.2985 27.8149 27.2872 27.1093 27.2747 26.4628L27.286 26.3984C27.3464 26.0576 27.368 26.053 27.5388 25.7521C27.9144 25.4333 28.0441 25.2109 27.801 24.7461C27.7966 24.7268 27.7404 24.6652 27.7288 24.6513C27.5182 24.6167 26.8906 24.4652 26.7757 24.493C26.0458 24.4716 24.8915 24.4239 24.1821 24.518C23.723 24.7295 23.4338 24.5072 23.2766 24.6604L23.2711 24.7145C23.016 26.3041 23.1547 27.9416 23.1383 29.5498C23.1332 30.0556 23.1742 30.6758 23.1275 31.1736ZM29.3187 41.3942C29.2725 41.6679 29.2104 41.9826 29.1933 42.2561C30.175 42.4599 31.5473 42.4001 32.5794 42.3995L54.044 42.3956C54.3995 42.3886 54.7603 42.3884 55.1131 42.3518C55.0804 41.9608 55.0992 41.7971 55.1394 41.4072C54.0676 41.3157 52.8715 41.34 51.7895 41.3366L30.4342 41.3513C30.0858 41.3639 29.66 41.3674 29.3187 41.3942ZM33.9513 22.8003C34.0555 22.8689 34.1642 22.9316 34.2486 23.0219C34.4813 23.0824 34.559 23.1108 34.7959 23.0927C36.2472 23.158 37.8448 23.1479 39.3036 23.1181C42.801 23.0467 46.3802 23.2189 49.8672 23.0983L50.5117 23.1006C50.6545 23.1296 50.6815 23.14 50.8169 23.0913C50.9106 22.9296 50.8782 22.8808 50.8839 22.6675C50.8931 22.3888 50.9346 21.8326 50.8583 21.5931C50.6357 21.481 50.7533 21.7134 50.4236 21.3246C50.204 21.2254 50.0066 21.1825 49.767 21.1693C48.4015 21.0939 34.7171 21.0538 34.2401 21.227C33.9888 21.3183 33.7875 21.6395 33.6897 21.8739C33.5881 22.1172 33.5569 22.3541 33.6126 22.6117C33.721 22.7655 33.823 22.6994 33.9513 22.8003ZM26.7914 44.8033C29.1504 44.7129 31.7834 44.7686 34.1688 44.7687L53.7642 44.7685C54.8895 44.7684 56.9982 44.718 58.0319 44.9054C58.1772 44.5732 58.1606 44.3188 58.1429 43.9707C57.5987 43.5698 53.302 43.678 52.4007 43.6777L33.8647 43.6768C31.9316 43.6769 29.8869 43.6447 27.9653 43.6878C27.653 43.676 27.298 43.6832 26.9827 43.6832C26.7631 43.6707 26.4765 43.6294 26.2839 43.7164C26.245 43.7838 26.2139 43.8245 26.2039 43.9022L26.2362 44.0707C26.1288 44.2557 26.0577 44.3413 26.0788 44.5529C26.2455 44.8596 26.4732 44.8229 26.7914 44.8033ZM56.4519 42.3778C57.2068 42.3847 60.6998 42.4516 61.2193 42.3419C61.2129 42.1713 61.2113 42 61.2236 41.8295C61.3163 40.5783 61.2831 39.3239 61.2477 38.071C60.3636 38.0353 59.4784 38.0229 58.5938 38.0339C58.1123 38.0368 56.8883 38.0883 56.4744 37.9871C56.3843 39.1911 56.4626 41.1077 56.4519 42.3778ZM27.7675 42.4192L27.8889 42.3609C27.994 41.9988 27.9522 38.613 27.9158 38.107C26.5732 38.0959 25.2307 38.0753 23.8883 38.1114C23.6822 38.1169 23.4773 38.1179 23.2711 38.1099C23.0253 39.1678 23.1117 41.2303 23.1511 42.3681C24.5989 42.4666 26.3038 42.4498 27.7675 42.4192ZM23.193 32.5814C23.1033 34.1031 23.1101 35.1931 23.1485 36.7147C23.6234 36.7544 24.1312 36.8443 24.5892 36.8651C25.4182 36.9028 26.2987 36.8801 27.1294 36.8555L27.8942 36.8306C28.0021 35.5359 27.9571 33.8973 27.963 32.5665C26.9626 32.5064 25.1494 32.512 24.1362 32.5564C23.8303 32.5658 23.4966 32.582 23.193 32.5814ZM56.483 36.844C57.2754 36.7748 60.4537 37.0336 61.0365 36.7718C61.0992 36.6792 61.1013 36.6847 61.1062 36.5755C61.2348 36.1334 61.3914 32.9443 61.1866 32.5981C59.6141 32.4575 57.892 32.646 56.4497 32.5252C56.4449 33.844 56.3999 35.5634 56.483 36.844ZM73.4965 36.7921C74.7538 36.8868 75.958 36.9028 77.2163 36.8661C77.4506 36.8593 77.664 36.8639 77.8972 36.8902C78.0436 36.8507 78.0345 36.9347 78.2897 36.8291C78.361 36.6685 78.3385 36.7075 78.3149 36.5127C78.339 36.0203 78.4312 32.9055 78.2977 32.626L78.1514 32.5978L78.0179 32.5756C76.9445 32.4517 74.556 32.5599 73.3963 32.572C73.4102 33.4897 73.3732 36.1238 73.4965 36.7921ZM52.5589 39.9512C52.6415 39.1579 52.6409 36.7497 52.5927 35.8885L49.8711 35.896C49.3583 35.8956 48.6637 35.9162 48.1673 35.8544C48.1651 37.0875 48.2267 38.7857 48.1651 39.9703C48.7956 40.0089 52.1348 40.1688 52.5589 39.9512ZM31.7827 39.9851C32.414 40.0178 35.5865 40.1098 36.1567 40.0175C36.2204 38.9246 36.2173 36.9825 36.1681 35.8772C35.2936 35.8928 34.4189 35.8999 33.5443 35.8987C33.0625 35.901 32.2547 35.9411 31.8074 35.855C31.7043 36.6983 31.7763 39.0499 31.7827 39.9851ZM40.0488 39.9815C40.5816 39.9977 44.0434 40.1448 44.3206 39.9709C44.3884 39.2271 44.4152 36.6105 44.3419 35.8779C43.4276 35.8831 40.8147 35.9598 40.0458 35.8598C40.0198 37.2476 40.0613 38.6023 40.0488 39.9815ZM6.22004 32.6395L6.21618 32.69C6.19511 32.9479 6.12734 33.1856 6.0897 33.4454C5.95722 34.3605 6.14733 35.4527 6.04573 36.3441L6.04981 36.3839C6.06514 36.5421 6.06579 36.5819 6.04863 36.7437L6.11747 36.8311C6.24239 36.8344 6.31 36.8363 6.4338 36.8232C6.67158 36.8282 6.90968 36.8312 7.14698 36.8481C8.41186 36.9381 9.67717 36.8455 10.9433 36.8573C10.9518 36.8568 10.9601 36.8563 10.9685 36.8557L11.0104 36.8522C11.1592 36.8403 11.1799 36.8437 11.3121 36.7724C11.408 36.467 11.4286 34.8296 11.3261 34.5706C11.3278 34.1179 11.4526 32.8955 11.095 32.6198L10.9809 32.5985C10.4106 32.5347 6.67732 32.4609 6.22004 32.6395ZM73.422 38.0189C73.4156 39.2535 73.4874 41.1739 73.4016 42.3272C73.9131 42.3689 74.5313 42.4244 75.0374 42.3675L75.0969 40.8088C75.4658 40.5671 75.6116 40.8516 75.7478 40.4285C75.9221 40.2937 76.0062 40.3235 76.2518 40.2928C76.4164 40.5155 76.395 41.9309 76.3799 42.2762C76.9493 42.3546 77.3927 42.4173 77.968 42.3768C78.071 42.3731 78.2061 42.3565 78.3117 42.3468C78.3524 42.2287 78.3283 42.1388 78.3128 42.0133C78.3556 41.3465 78.4184 38.6397 78.3074 38.054C78.2404 38.0189 78.2152 38.0378 78.1246 38.0465C78.049 38.0273 77.9637 38.0099 77.8865 37.9926C77.1847 38.0546 76.2545 38.0234 75.5301 38.0321C74.9039 38.0397 74.0091 38.0757 73.422 38.0189ZM60.6574 43.6936C60.3931 43.6882 60.1325 43.6758 59.8687 43.6682C59.5685 43.6597 59.5395 44.0242 59.4441 44.1424C59.4119 44.3093 59.3487 44.5219 59.4146 44.6689C59.6452 44.8769 63.143 44.7704 63.7322 44.7711L72.8821 44.7705C74.4418 44.7708 76.329 44.7154 77.8511 44.8925C77.8806 44.7894 77.9503 44.5192 77.9878 44.4346L78.0715 44.3974C78.0903 44.4555 78.1444 44.4953 78.2055 44.4964C78.2666 44.4975 78.3224 44.4599 78.3433 44.4024C78.3648 44.345 78.3476 44.2803 78.3004 44.2411C78.3015 44.1123 78.2999 43.9835 78.2961 43.8548C78.1439 43.7424 77.8018 43.7816 77.5568 43.7712C77.5235 43.7766 76.8367 43.6929 76.7161 43.6884C76.3177 43.6991 75.9081 43.6858 75.5087 43.6884C70.5622 43.7203 65.6023 43.6273 60.6574 43.6936ZM36.1562 31.2437C36.2167 30.6306 36.2055 30.0577 36.1693 29.4432C35.2898 29.4267 34.41 29.4259 33.5304 29.4409C33.0777 29.4466 32.2782 29.4814 31.8516 29.4396C31.7266 29.7738 31.7666 30.7909 31.7725 31.2041C32.9074 31.2608 35.0093 31.3086 36.1562 31.2437ZM41.3564 1.97623C41.3395 2.0195 41.3139 2.06952 41.3135 2.11257C41.1659 2.71493 41.2164 3.84942 41.2277 4.51317C41.3692 4.5092 41.4965 4.50218 41.6381 4.51521C41.8849 4.52717 42.2798 4.53381 42.5144 4.55907C42.7156 4.54679 42.9771 4.56046 43.1181 4.43211C43.2304 4.27898 43.1766 3.87977 43.1777 3.64869C43.2119 3.08311 43.1817 2.48825 43.1643 1.91999C43.0182 1.8467 42.9424 1.8201 42.862 1.67465L42.7359 1.44614C42.3477 1.43708 42.0367 1.42861 41.6502 1.45836L41.3564 1.97623ZM42.463 28.0535C42.7099 28.0264 42.6751 28.0685 42.8299 27.928C42.9479 27.5223 42.7799 26.8766 42.648 26.4808C42.367 26.4538 42.0616 26.4173 41.7814 26.4142C41.6235 26.6677 41.3743 27.5105 41.3373 27.8118C41.4767 27.9669 42.115 28.0363 42.3281 28.0475C42.3731 28.0498 42.418 28.0518 42.463 28.0535ZM71.954 31.1942C71.975 30.7764 71.9867 29.9137 71.9546 29.4938C69.7837 29.3355 67.2922 29.4974 65.0978 29.4413C64.4201 29.424 63.2191 29.5142 62.6224 29.4309C62.5795 29.994 62.6068 30.6867 62.5543 31.188C64.6651 31.2899 66.807 31.253 68.9227 31.2579C69.5526 31.2593 71.4517 31.3004 71.954 31.1942ZM75.372 20.1978C74.1528 20.9884 73.0306 21.566 73.0612 23.1667C74.1244 23.3444 75.0787 23.2883 76.1515 23.2782C76.833 23.2948 77.6608 23.3498 78.3203 23.2327C78.4136 22.7031 78.3926 22.5128 78.3111 21.9719C77.7477 21.3654 76.2754 19.9951 75.372 20.1978ZM58.7273 20.139C57.8689 20.5891 56.4814 21.3139 56.18 22.3016C56.1264 22.4778 56.0642 22.921 56.0347 23.1249C57.1365 23.3376 57.7563 23.2863 58.8838 23.2779C59.2817 23.2827 61.0912 23.4068 61.2617 23.1932C62.1436 22.0853 59.5642 20.2012 58.7273 20.139ZM54.3384 28.1216C54.8858 28.1131 55.4718 28.1147 56.0154 28.0896C56.0272 27.83 56.054 27.4599 56.0514 27.2091C55.0965 27.0962 53.4939 27.1234 52.4956 27.112C50.3393 27.0796 48.1826 27.0722 46.0261 27.0899C45.5271 27.1145 44.8141 27.1781 44.3323 27.1133C44.3178 27.4275 44.3071 27.7513 44.284 28.0643C45.7201 28.1484 47.1471 28.1295 48.585 28.1289L54.3384 28.1216ZM6.3003 42.2973C6.93762 42.4097 7.33485 42.3909 7.97721 42.3504C7.94257 41.7398 8.0156 40.8847 8.05087 40.2545C8.4747 40.249 8.82727 40.2439 9.2489 40.2769C9.26712 40.9609 9.30063 41.6942 9.27838 42.3744C9.8103 42.3781 10.3422 42.3881 10.8739 42.4044C11.0311 42.4294 11.1623 42.425 11.2857 42.3403C11.3427 41.4784 11.3872 38.9206 11.2878 38.1059L11.2671 38.0044C10.7141 37.7879 6.65544 37.7997 6.08777 37.9455L6.03726 38.0991C6.14809 38.8725 5.98617 40.4986 6.07034 41.4392C6.06509 41.6581 6.03641 41.9847 6.10825 42.1802C6.18213 42.2543 6.19645 42.2821 6.3003 42.2973ZM38.5353 29.5304C38.3377 29.5194 37.9861 29.4367 37.7801 29.3947C37.4031 29.483 37.3084 29.8248 37.3538 30.1736C37.3761 31.0241 37.3267 31.9424 37.3657 32.7769L37.3568 37.1707C37.3564 37.8222 37.3286 39.1838 37.4132 39.7792L37.5145 39.8812L37.71 39.9697L38.4243 40.044C38.6251 40.0428 38.7595 39.7815 38.7786 39.6382C38.8756 38.9107 38.9619 33.015 38.8081 32.7618C38.7646 31.5861 38.8997 30.697 38.6183 29.5249L38.5353 29.5304ZM55.0777 29.5328C54.8879 29.531 54.4906 29.4366 54.2896 29.3953C53.8966 29.5346 53.836 30.0903 53.8751 30.4549C53.873 31.1393 53.8403 32.1162 53.8784 32.7772C53.8687 34.1436 53.8655 35.5101 53.8698 36.8765C53.8703 37.679 53.8435 38.824 53.9239 39.5958C53.917 39.7925 53.8923 39.7371 53.9802 39.8666C54.0896 39.8988 54.1679 39.9212 54.2799 39.9429C54.4837 39.9784 54.6869 40.0159 54.8895 40.0553C55.0246 40.0706 55.0418 40.0628 55.1678 40.0098C55.3517 39.8433 55.4278 39.4194 55.4016 39.2132C55.2922 38.3536 55.5136 32.9074 55.3249 32.6011C55.3147 32.033 55.4251 29.856 55.0777 29.5328ZM29.1047 39.4423C29.1147 39.6991 29.0745 39.7152 29.1963 39.8983C29.3279 39.9411 29.3568 39.9546 29.4942 39.9486L30.0134 40.0469C30.2784 40.0793 30.2636 40.147 30.4926 40.0672C30.5542 39.9258 30.5174 39.8248 30.4894 39.6692C30.5906 37.907 30.5322 35.771 30.5348 33.9863C30.5365 32.8158 30.5935 30.4923 30.459 29.4164C30.3833 29.3948 30.1566 29.4197 30.0657 29.426L30.0318 29.4199C29.8306 29.2511 29.3723 29.3337 29.1614 29.4785C28.7694 30.2655 29.1395 35.3546 28.9952 36.5946C28.9715 36.798 28.9889 39.0379 29.0471 39.2152L29.1096 39.2428L29.1047 39.4423ZM12.3658 29.4927C12.302 29.8682 12.1313 30.7385 12.3031 31.0538C12.8577 31.3277 19.6706 31.2096 20.7493 31.2125C21.3239 31.2289 21.8482 31.3045 21.8017 30.4863C21.781 30.1225 21.7678 29.7855 21.7788 29.4211C20.7341 29.3903 19.6386 29.3853 18.5926 29.4081C16.8835 29.4452 15.1241 29.3707 13.4212 29.4472C13.0867 29.4613 12.6946 29.4674 12.3658 29.4927ZM32.7606 34.6938L32.8162 34.6851C33.1349 34.7615 36.032 34.7829 36.1824 34.6253L36.1759 34.4302L36.1866 34.29L36.1962 32.5656C34.7751 32.4781 33.2113 32.5919 31.7703 32.5386C31.7626 33.0645 31.7625 33.5904 31.77 34.1163C31.7885 34.3975 31.7454 34.4052 31.883 34.6059C32.0636 34.7147 32.4987 34.6792 32.7606 34.6938ZM39.8737 15.4964L39.9231 15.4081C39.6555 15.2102 36.3677 15.2682 35.8143 15.2994L35.7827 15.3983C37.1746 15.5868 38.7743 15.3458 39.8737 15.4964ZM44.3155 34.5181L44.3336 34.3242C44.3538 33.7392 44.3647 33.154 44.3666 32.5686C43.0704 32.4821 41.3717 32.5602 40.0306 32.5462C40.0323 33.1296 40.0388 33.713 40.0502 34.2963C40.0609 34.5307 40.0208 34.526 40.1443 34.666C40.2976 34.7135 40.5166 34.6828 40.6837 34.6699C41.1889 34.695 43.9478 34.7682 44.2853 34.6435L44.3155 34.5181ZM40.0371 31.201C41.3996 31.2233 42.944 31.3172 44.3009 31.2369C44.3531 30.6464 44.3551 30.0526 44.3068 29.4618C43.0889 29.4577 41.8712 29.4458 40.6536 29.483C40.464 29.4888 40.2777 29.4869 40.0888 29.4668C40.0605 30.0582 40.059 30.6186 40.0371 31.201ZM45.6134 39.4884L45.6157 39.5703C45.6238 39.7823 45.5924 39.7528 45.6952 39.9111C45.8349 39.9614 45.8538 39.9681 46.0007 39.9519C46.1668 39.9906 46.2975 40.0194 46.4588 40.0771C46.47 40.0892 46.5581 40.1388 46.5787 40.151C46.7238 40.1353 46.8382 40.1371 46.9613 40.0625L46.9515 39.9522C46.997 39.7565 47.0498 39.1708 47.0446 38.9959C47.0084 37.7709 47.1942 29.6956 46.9247 29.4082L46.5961 29.3982C46.4058 29.4147 46.158 29.4074 45.9619 29.4068C45.8235 29.4317 45.7313 29.4175 45.6687 29.5205C45.4864 29.8202 45.5246 30.2905 45.5636 30.6228C45.6121 32.627 45.5367 34.6872 45.5598 36.6963C45.5651 37.1597 45.5163 39.1547 45.6134 39.4884ZM48.9681 19.7056L49.0313 19.8029L49.1343 19.8028C49.3594 19.5143 49.3703 17.1171 49.2709 16.7089C49.16 16.5525 49.179 16.5173 49.0305 16.4919C48.9418 16.7004 48.9607 19.3062 48.9681 19.7056ZM51.6003 34.6906C52.1809 34.6902 52.4983 34.8158 52.6147 34.1877C52.6388 33.6761 52.6291 33.0908 52.6318 32.5736C51.6158 32.466 49.2873 32.5498 48.1522 32.5452C48.1815 33.047 48.1656 33.7659 48.1723 34.2881L48.178 34.3786L48.1828 34.5109L48.227 34.6796C48.3447 34.7088 48.2945 34.7187 48.3859 34.6822C49.4389 34.7012 50.5505 34.7267 51.6003 34.6906ZM44.6978 35.9228C44.6905 36.8153 44.6227 38.8762 44.7353 39.6847L44.7664 39.6719C44.9152 39.2441 44.8886 36.6499 44.8393 36.0323C44.8346 35.9725 44.7507 35.9465 44.6978 35.9228ZM11.2065 30.4386C11.2036 30.6457 11.1714 30.6661 11.2572 30.8255L11.3289 30.7755C11.3764 30.6102 11.3908 29.6873 11.3634 29.491C11.2767 28.8694 11.5531 25.3695 11.2324 25.112C11.194 25.2715 11.188 25.2103 11.2399 25.3506C11.1152 26.5139 11.1821 29.1857 11.2065 30.4386ZM73.1432 42.1628C73.1829 41.6969 73.2504 38.3566 73.1009 38.1612C73.0022 38.6883 72.9379 41.849 73.1432 42.1628ZM11.1412 21.7779C10.1594 21.1495 9.52351 20.3013 8.25456 20.131C7.62281 20.5906 6.95408 21.0489 6.42774 21.6288C5.98563 22.116 5.9822 22.5782 5.96236 23.1875C6.90786 23.336 8.04417 23.2862 9.01985 23.278C10.7538 23.3232 11.4217 23.8419 11.1412 21.7779ZM24.6528 44.8432C24.7027 44.5948 24.7726 44.3392 24.7355 44.0907C24.6773 43.8118 24.7289 43.8943 24.5514 43.7015C23.4216 43.6503 22.106 43.6799 20.9621 43.6806L9.98117 43.6831C8.98886 43.6829 7.81717 43.657 6.8388 43.7223C6.60338 43.7206 6.6348 43.6881 6.45021 43.7885C6.3559 43.9833 6.34051 44.1149 6.244 44.2835L6.1498 44.3457C6.13055 45.0356 7.40632 44.791 7.8904 44.7831C8.81874 44.7716 9.74714 44.7679 10.6755 44.7717L18.6314 44.7704C20.6637 44.7707 22.622 44.7497 24.6528 44.8432ZM32.3366 25.4081C32.6017 25.4601 32.8679 25.504 33.1381 25.5172C33.9758 25.5579 40.7322 25.6145 41.0331 25.4237C41.2514 25.2852 41.6231 24.918 41.7477 24.6873C42.0576 24.7712 42.2649 24.8263 42.5868 24.7599C42.7812 24.9292 43.2818 25.4836 43.4837 25.4908C46.0542 25.5824 48.7028 25.5152 51.2831 25.5111C51.3794 25.5109 51.5038 25.4801 51.5826 25.4543L51.708 25.4371C51.7874 25.5379 51.7826 25.5481 51.7895 25.6818C49.8218 25.7945 47.6385 25.673 45.6418 25.7233C45.318 25.7141 44.0357 25.6456 43.8075 25.7749C43.9121 25.8781 44.0208 25.8922 44.167 25.8769C44.9038 25.9505 51.522 25.9712 51.9901 25.8278L52.0222 25.7356C51.9943 25.6699 51.9584 25.5176 51.9557 25.448C51.945 25.1707 51.5263 24.9586 51.2718 24.7887C51.1223 24.6668 50.561 24.4238 50.3934 24.4212C49.4902 24.4073 42.9241 24.2354 42.5895 24.4767C42.3025 24.4672 42.0155 24.4598 41.7285 24.4549C41.2049 24.1887 35.9447 24.4857 34.9964 24.3729C33.7877 24.2291 33.2428 24.7564 32.3366 25.4081ZM44.7803 34.1591C44.8196 33.8116 44.943 32.9332 44.809 32.6471L44.6841 32.5623C44.6229 32.7995 44.6443 33.8707 44.6954 34.1145L44.7803 34.1591ZM52.5895 29.4712C51.7102 29.4395 50.83 29.4264 49.95 29.4319C49.4213 29.4327 48.7029 29.4621 48.1924 29.4074C48.1871 30.0047 48.1784 30.602 48.1662 31.1992C48.8971 31.2197 51.9809 31.3507 52.5466 31.1916C52.6291 30.6363 52.6104 30.0324 52.5895 29.4712ZM35.2008 19.2522C35.2321 18.809 35.3203 17.5917 35.1458 17.2179C35.0928 17.5357 34.9942 19.0529 35.2008 19.2522ZM73.095 30.8444C73.2236 30.6057 73.2494 25.6677 73.0649 25.4899C72.9883 25.9689 72.991 30.4349 73.095 30.8444ZM26.9088 45.008L26.9068 45.1019C27.1189 45.1525 27.2036 45.1424 27.4226 45.1329L53.5835 45.138C54.6434 45.1378 56.0953 45.1784 57.1301 45.1126C56.7859 44.8936 53.4677 44.9694 52.8677 44.9693L27.8254 44.9752L27.7982 44.9731C27.3889 44.9463 27.3095 44.955 26.9088 45.008ZM73.1459 36.4716C73.206 36.0655 73.244 33.338 73.081 33.1117C73.0124 33.5334 72.9373 36.1558 73.1459 36.4716ZM40.1128 27.1696C39.6452 27.0118 29.1027 27.0264 28.4692 27.2236C28.3089 27.4191 28.3537 27.7653 28.3603 28.0258C29.8002 28.1548 31.3934 28.1184 32.8518 28.1198C35.2791 28.1341 37.7065 28.1229 40.1336 28.0863C40.7701 27.9979 40.6061 27.1592 40.181 27.0607L40.1128 27.1696ZM40.5359 25.8598C40.4594 25.7618 40.4543 25.7346 40.2914 25.7282C39.6502 25.7025 38.9619 25.7142 38.3213 25.7148L33.9425 25.7197C33.5281 25.7198 32.375 25.6472 32.1054 25.6972C32.7201 26.0733 35.9335 25.9018 36.9338 25.9179C37.7197 25.9306 39.7746 25.9764 40.5359 25.8598ZM23.2664 21.7032C22.9416 22.2614 22.9652 22.5559 22.9965 23.1886C24.1297 23.2573 27.0164 23.3154 28.1261 23.1741C28.6744 23.2209 28.568 22.1201 28.4085 21.7997C28.3697 21.722 28.093 21.4285 28.0276 21.3796C27.7608 21.1804 27.8232 21.0367 27.681 20.7705C27.5231 20.6637 27.0317 20.6319 26.7942 20.5873C26.7488 20.4993 26.7048 20.4104 26.6623 20.3209C26.6129 20.335 26.5525 20.3523 26.4809 20.3726C26.3225 20.2851 25.4821 19.7785 25.3377 19.8672C25.0191 20.063 23.5113 20.9397 23.3503 21.2334L23.4692 21.2137C23.4931 21.367 23.3356 21.2973 23.2664 21.7032ZM41.7604 12.7108C41.4929 13.0405 41.4715 13.4222 41.4127 13.8195C41.2339 15.0268 41.6016 14.9763 42.6657 14.9623C42.7349 14.9373 42.8886 14.9014 42.9076 14.8252C42.9982 14.4626 42.94 13.9911 42.8884 13.6231C42.7476 12.6191 42.7579 12.6195 41.7604 12.7108ZM7.45269 44.9929L7.36487 45.0725C7.48036 45.1491 22.5483 45.1892 23.7385 45.1134L23.7989 45.0865C23.3138 44.9096 21.3383 44.9702 20.703 44.97L16.0814 44.9695C13.3482 44.9697 10.1323 44.8804 7.45269 44.9929ZM60.6242 45.0011L60.5609 45.0707C60.7652 45.1675 75.4883 45.1875 76.8335 45.114C76.5644 44.8943 74.1876 44.971 73.7244 44.9708L63.6255 44.9711C62.7146 44.9715 61.5104 44.9413 60.6242 45.0011Z" fill="var(--fill-0, black)"/>
<path d="M16.8266 34.2954C17.034 34.2822 17.3143 34.2363 17.4751 34.3992C17.4589 34.6804 17.431 34.9859 17.5012 35.2598C17.2511 35.4144 16.6981 35.3316 16.3714 35.311C16.3917 35.0277 16.4043 34.7329 16.4202 34.4483C16.4298 34.6533 16.4221 34.8941 16.5143 35.072L16.4969 34.9271L16.6479 34.9431L16.6618 34.9607C16.7954 34.667 16.7426 34.4483 16.8266 34.2954Z" fill="var(--fill-0, black)"/>
<path d="M15.2974 36.5318L15.0984 36.4861C15.6212 36.4216 20.6929 36.4392 20.9587 36.5804C20.0109 36.6075 19.0629 36.6268 18.1147 36.6381C17.5938 36.6492 16.3661 36.695 15.8868 36.6117C16.3971 36.6095 16.9096 36.6254 17.4144 36.5605L17.3093 36.5552L17.3018 36.5289C16.7182 36.4664 15.8951 36.5104 15.2974 36.5318Z" fill="var(--fill-0, black)"/>
<path d="M17.4751 34.3992L17.584 34.4629L17.787 34.4019C17.9191 34.5145 18.0471 35.1628 17.9583 35.2873C17.7789 35.2877 17.6794 35.2811 17.5012 35.2598C17.431 34.9859 17.4589 34.6804 17.4751 34.3992Z" fill="var(--fill-0, black)"/>
<path d="M16.4202 34.4483C16.4197 34.3924 16.4324 34.3813 16.4542 34.3242C16.5959 34.3012 16.6859 34.2994 16.8266 34.2954C16.7426 34.4483 16.7954 34.667 16.6618 34.9607L16.6479 34.9431L16.4969 34.9271L16.5143 35.072C16.4221 34.8941 16.4298 34.6533 16.4202 34.4483Z" fill="var(--fill-0, black)"/>
<path d="M15.2974 36.5318C15.8951 36.5104 16.7182 36.4664 17.3018 36.5289L17.3093 36.5552L17.4144 36.5605C16.9096 36.6254 16.3971 36.6095 15.8868 36.6117C15.6416 36.6112 15.5392 36.585 15.2974 36.5318Z" fill="var(--fill-0, black)"/>
<path d="M66.9167 35.1409C66.9499 34.97 66.9644 34.8638 67.0373 34.7042C67.181 34.5589 67.6844 34.5381 67.9252 34.5001C67.8464 34.8307 67.9246 34.929 67.9992 35.2627C67.6952 35.3055 67.3247 35.3799 67.0277 35.3331L66.9188 35.2502L66.9167 35.1409Z" fill="var(--fill-0, black)"/>
<path d="M64.5601 36.5181C65.3601 36.5274 66.1654 36.4947 66.9685 36.4901C67.8178 36.4853 68.7576 36.5502 69.5962 36.5148C69.6278 36.524 69.2428 36.5957 69.2214 36.6049C68.2301 36.5676 65.3434 36.7613 64.5601 36.5181Z" fill="var(--fill-0, black)"/>
<path d="M64.5601 36.5181C64.477 36.5129 64.1943 36.5065 64.1413 36.473C65.5508 36.4454 66.9614 36.4396 68.3715 36.4554C69.2492 36.4608 70.2839 36.4412 71.1385 36.5541C70.567 36.601 69.779 36.6697 69.2214 36.6049C69.2428 36.5957 69.6278 36.524 69.5962 36.5148C68.7576 36.5502 67.8178 36.4853 66.9685 36.4901C66.1654 36.4947 65.3601 36.5274 64.5601 36.5181Z" fill="var(--fill-0, black)"/>
<path d="M66.9167 35.1409C66.8968 34.7502 66.8129 34.5245 67.1437 34.2705C67.4075 34.188 67.622 34.2965 67.889 34.3889L67.9252 34.5001C67.6844 34.5381 67.181 34.5589 67.0373 34.7042C66.9644 34.8638 66.9499 34.97 66.9167 35.1409Z" fill="var(--fill-0, black)"/>
<path d="M66.5186 34.6529C66.7255 34.8615 66.6821 35.1598 66.4923 35.3663L66.4103 35.2374C66.3808 35.0702 66.4693 34.8272 66.5186 34.6529Z" fill="var(--fill-0, black)"/>
<path d="M8.04174 27.1964C8.10425 27.1028 8.1517 26.9856 8.23657 26.9729C8.55869 26.9245 8.82467 26.9853 9.13435 27.0384L9.26035 27.1576C9.29187 27.8859 9.2841 28.6153 9.23724 29.3428C8.80097 29.3731 8.48063 29.3595 8.04152 29.3405C8.02951 28.6259 8.02962 27.9111 8.04174 27.1964Z" fill="var(--fill-0, black)"/>
<path d="M8.04174 27.1964C8.05857 26.929 8.02271 26.8527 8.15717 26.6427C8.42712 26.4906 8.81401 26.6108 9.19408 26.5934L9.26035 27.1576L9.13435 27.0384C8.82467 26.9853 8.55869 26.9245 8.23657 26.9729C8.1517 26.9856 8.10425 27.1028 8.04174 27.1964Z" fill="var(--fill-0, black)"/>
<path d="M7.65078 27.1393C7.90089 27.2781 7.78889 28.4688 7.73383 28.7331C7.53293 28.5254 7.63351 27.4537 7.65078 27.1393Z" fill="var(--fill-0, black)"/>
<path d="M75.1011 27.5274C75.1531 27.3013 75.1531 27.139 75.3124 27.0062C75.5386 26.9829 75.6169 26.9919 75.8453 27.0172C76.2024 27.3198 76.1005 28.7551 75.9858 29.1656C75.7772 29.2052 75.5493 29.1905 75.3343 29.187C75.1601 29.0533 75.1885 28.9469 75.1092 28.6928C75.0743 28.395 75.0856 27.8299 75.1011 27.5274Z" fill="var(--fill-0, black)"/>
<path d="M75.1422 26.5783C75.533 26.5925 75.8896 26.5877 76.2804 26.5803C76.3287 27.2767 76.4761 28.621 76.2831 29.2557C75.9244 29.4276 75.3765 29.5855 75.1175 29.1604C75.0918 28.9693 75.099 28.8837 75.1092 28.6928C75.1885 28.9469 75.1601 29.0533 75.3343 29.187C75.5493 29.1905 75.7772 29.2052 75.9858 29.1656C76.1005 28.7551 76.2024 27.3198 75.8453 27.0172C75.6169 26.9919 75.5386 26.9829 75.3124 27.0062C75.1531 27.139 75.1531 27.3013 75.1011 27.5274C75.0952 27.1684 75.11 26.9364 75.1422 26.5783ZM75.7657 26.9228C75.517 26.6639 75.5936 26.6963 75.2215 26.7209C75.3926 26.9392 75.4977 26.9345 75.7657 26.9228Z" fill="var(--fill-0, black)"/>
<path d="M75.7657 26.9228C75.517 26.6639 75.5936 26.6963 75.2215 26.7209C75.3926 26.9392 75.4977 26.9345 75.7657 26.9228Z" fill="var(--fill-0, black)"/>
<path d="M58.8457 26.5615C58.9851 26.5816 59.1288 26.5725 59.2066 26.6881C59.4478 27.0466 59.3953 28.4 59.347 28.8143C59.1594 29.1986 59.0157 29.3901 58.5755 29.189L58.5557 29.133L58.6763 29.1156C58.6811 28.9285 58.6484 28.9442 58.53 28.7554L58.4168 28.7685C58.3021 28.6765 58.2619 28.4745 58.2061 28.3149C58.182 28.1588 58.1815 27.7552 58.1766 27.5799C58.2115 27.4698 58.2603 27.025 58.3273 26.9376L58.4158 27.021C58.5728 27.0067 58.6195 26.8533 58.6409 26.7256L58.649 26.6748L58.8457 26.5615Z" fill="var(--fill-0, black)"/>
<path d="M58.2061 28.3149C58.2619 28.4745 58.3021 28.6765 58.4168 28.7685L58.53 28.7554C58.6484 28.9442 58.6811 28.9285 58.6763 29.1156L58.5557 29.133L58.5755 29.189C59.0157 29.3901 59.1594 29.1986 59.347 28.8143C59.3476 29.1052 59.3773 29.2097 59.1425 29.3974C58.9286 29.4522 58.5023 29.3411 58.2385 29.3022L58.2061 28.3149Z" fill="var(--fill-0, black)"/>
<path d="M58.1766 27.5799C58.1664 27.296 58.1141 26.9396 58.2664 26.7172C58.4106 26.5729 58.6367 26.5805 58.8457 26.5615L58.649 26.6748L58.6409 26.7256C58.6195 26.8533 58.5728 27.0067 58.4158 27.021L58.3273 26.9376C58.2603 27.025 58.2115 27.4698 58.1766 27.5799Z" fill="var(--fill-0, black)"/>
<path d="M25.0582 28.6505C25.2233 28.0796 24.9194 27.3176 25.2658 26.9453C25.4614 26.8776 25.5233 26.9437 25.7586 27.018C25.9044 27.5442 25.9106 28.2058 25.8519 28.7478L25.7236 28.8442C25.734 28.9515 25.749 29.0187 25.772 29.1244C25.5989 29.2831 25.3915 29.2738 25.1281 29.3214L25.0782 29.2997C25.1176 29.0856 25.0647 28.8816 25.0582 28.6505Z" fill="var(--fill-0, black)"/>
<path d="M25.0583 26.977C25.0346 27.5313 25.0501 28.0951 25.0582 28.6505C25.0647 28.8816 25.1176 29.0856 25.0782 29.2997C24.7972 29.1958 25.1102 29.0267 24.9464 28.7021L24.7994 28.7416C24.5523 28.4725 24.6709 27.6103 24.7895 27.2734C24.8249 27.1728 24.9745 27.0566 25.0583 26.977Z" fill="var(--fill-0, black)"/>
<path d="M25.7586 27.018L26.1587 27.0364C26.2121 27.3657 26.2149 28.4931 26.1661 28.8409L25.8519 28.7478C25.9106 28.2058 25.9044 27.5442 25.7586 27.018Z" fill="var(--fill-0, black)"/>
<path d="M25.0583 26.977C25.0736 26.8775 25.0738 26.6983 25.1594 26.645C25.4624 26.4566 25.8393 26.4997 26.1123 26.7081C26.1671 26.8288 26.1571 26.9042 26.1587 27.0364L25.7586 27.018C25.5233 26.9437 25.4614 26.8776 25.2658 26.9453C24.9194 27.3176 25.2233 28.0796 25.0582 28.6505C25.0501 28.0951 25.0346 27.5313 25.0583 26.977Z" fill="var(--fill-0, black)"/>
<path d="M25.8519 28.7478L26.1661 28.8409C26.1468 28.9963 26.162 29.1515 26.0572 29.2325C25.8009 29.4305 25.5117 29.4196 25.2132 29.3832L25.1281 29.3214C25.3915 29.2738 25.5989 29.2831 25.772 29.1244C25.749 29.0187 25.734 28.9515 25.7236 28.8442L25.8519 28.7478Z" fill="var(--fill-0, black)"/>
<path d="M58.6047 39.7848C59.0025 39.6861 59.2143 39.6855 59.3092 40.1532C59.3526 40.3624 59.3103 40.5802 59.1923 40.7583C59.1548 40.816 59.1055 40.8473 59.046 40.8777C58.8492 40.8868 58.7961 40.8618 58.6106 40.8027C58.6122 40.4634 58.6101 40.1241 58.6047 39.7848Z" fill="var(--fill-0, black)"/>
<path d="M58.6106 40.8027L58.2852 40.8419C58.0965 40.6112 58.1141 39.9672 58.3554 39.7491L58.6047 39.7848C58.6101 40.1241 58.6122 40.4634 58.6106 40.8027Z" fill="var(--fill-0, black)"/>
<path d="M58.8743 41.0693L59.0727 41.1057L59.1172 41.185L59.0298 41.3502L58.7939 41.2549L58.7676 41.1894L58.8743 41.0693Z" fill="var(--fill-0, black)"/>
<path d="M25.0651 39.7818C25.2952 39.7245 25.8747 39.7771 26.0735 39.9024L26.0721 39.9999C25.8639 40.0673 25.7355 40.0466 25.6363 40.1831C25.9393 40.4247 25.9867 40.1861 26.132 40.4112C26.0549 40.7699 25.63 40.8452 25.3081 40.9262C25.1525 40.8602 25.0908 40.68 25.0125 40.5235C25.1603 40.1954 25.1281 40.146 25.0651 39.7818Z" fill="var(--fill-0, black)"/>
<path d="M24.7413 40.1851C24.734 40.1036 24.7389 39.982 24.7395 39.8973C24.8517 39.7752 24.8653 39.8097 25.0651 39.7818C25.1281 40.146 25.1603 40.1954 25.0125 40.5235L24.9792 40.5211C24.8962 40.2767 24.9412 40.3584 24.7413 40.1851Z" fill="var(--fill-0, black)"/>
<path d="M24.7413 40.1851C24.9412 40.3584 24.8962 40.2767 24.9792 40.5211C24.9216 40.6523 24.9141 40.6845 24.7977 40.7647L24.7312 40.7136C24.6768 40.4886 24.6998 40.4151 24.7413 40.1851Z" fill="var(--fill-0, black)"/>
<path d="M25.1252 34.2844C25.3522 34.2795 25.7497 34.2492 25.93 34.3693C26.065 34.8158 25.4693 34.5984 26.2066 35.1975C25.8872 35.2672 25.379 35.4103 25.0725 35.3183C25.0711 35.3132 25.1209 34.3588 25.1252 34.2844Z" fill="var(--fill-0, black)"/>
<path d="M25.0725 35.3183C24.9935 35.2919 24.8359 35.3033 24.7439 35.3041C24.6359 35.1671 24.7129 34.5914 24.7318 34.3858C24.8632 34.3526 24.9942 34.3189 25.1252 34.2844C25.1209 34.3588 25.0711 35.3132 25.0725 35.3183ZM25.0019 35.0865C25.0289 34.9029 25.0732 34.7339 25.01 34.5622L24.8995 34.4792C24.8752 34.6929 24.8764 34.8987 25.0019 35.0865Z" fill="var(--fill-0, black)"/>
<path d="M24.8995 34.4792L25.01 34.5622C25.0732 34.7339 25.0289 34.9029 25.0019 35.0865C24.8764 34.8987 24.8752 34.6929 24.8995 34.4792Z" fill="var(--fill-0, black)"/>
<path d="M24.1983 36.5338C24.5906 36.4679 25.6275 36.4096 25.989 36.5806C25.5868 36.6582 24.5864 36.6808 24.1983 36.5338Z" fill="var(--fill-0, black)"/>
<path d="M58.645 34.2984C58.816 34.2828 59.0015 34.2431 59.1447 34.3289C59.3865 34.5978 59.4192 35.0687 59.1543 35.3318C58.9259 35.3858 58.5404 35.3343 58.2943 35.3141C58.3147 35.172 58.3045 35.0661 58.3828 34.9682L58.3887 34.9834C58.4477 35.0075 58.4831 35.0212 58.5442 35.039C58.7511 34.6855 58.5721 34.5255 58.645 34.2984Z" fill="var(--fill-0, black)"/>
<path d="M57.9997 36.4718C58.6211 36.4562 59.2897 36.4849 59.9105 36.519L59.9582 36.5748L60.0403 36.5465C59.9523 36.6038 59.8478 36.5876 59.7271 36.5934C59.2693 36.6362 57.9091 36.7005 57.5161 36.5536C57.6533 36.4705 57.8356 36.4795 57.9997 36.4718Z" fill="var(--fill-0, black)"/>
<path d="M58.2943 35.3141L58.2104 35.2119C58.19 34.9577 58.1225 34.5458 58.3048 34.3583C58.3664 34.2953 58.5361 34.3066 58.645 34.2984C58.5721 34.5255 58.7511 34.6855 58.5442 35.039C58.4831 35.0212 58.4477 35.0075 58.3887 34.9834L58.3828 34.9682C58.3045 35.0661 58.3147 35.172 58.2943 35.3141Z" fill="var(--fill-0, black)"/>
<path d="M59.5491 35.1295L59.637 35.1051L59.697 35.1469L59.6043 35.2005L59.481 35.1903L59.5491 35.1295Z" fill="var(--fill-0, black)"/>
<path d="M75.2311 34.2743C75.4219 34.2957 76.0712 34.2828 76.3135 34.2892C76.2953 34.5876 76.3463 35.1194 76.261 35.3478C75.8755 35.3421 75.4906 35.3384 75.1051 35.3367C75.1158 35.063 75.0981 34.4596 75.2311 34.2743ZM75.7747 34.9361C75.7265 34.677 75.772 34.6648 75.6123 34.5413L75.3828 34.5161C75.4504 34.7497 75.408 34.722 75.5619 34.8772L75.7747 34.9361Z" fill="var(--fill-0, black)"/>
<path d="M75.3828 34.5161L75.6123 34.5413C75.772 34.6648 75.7265 34.677 75.7747 34.9361L75.5619 34.8772C75.408 34.722 75.4504 34.7497 75.3828 34.5161Z" fill="var(--fill-0, black)"/>
<path d="M74.4069 36.5195L74.3989 36.4677C75.2347 36.431 76.5939 36.4133 77.4045 36.5506C76.8721 36.6168 74.9682 36.7696 74.5243 36.6087C75.0926 36.5368 75.8368 36.718 76.5193 36.5442C76.0598 36.4544 74.913 36.5039 74.4069 36.5195Z" fill="var(--fill-0, black)"/>
<path d="M74.4069 36.5195C74.913 36.5039 76.0598 36.4544 76.5193 36.5442C75.8368 36.718 75.0926 36.5368 74.5243 36.6087L74.4069 36.5195Z" fill="var(--fill-0, black)"/>
<path d="M8.17699 34.2713C8.49085 34.2583 8.9381 34.2811 9.26204 34.2884C9.24928 34.5995 9.31105 35.122 9.15342 35.3295C8.78648 35.3479 8.38812 35.3335 8.01834 35.3269C8.03914 35.0275 7.97046 34.4527 8.17699 34.2713Z" fill="var(--fill-0, black)"/>
<path d="M7.62714 40.8643L7.86047 40.9393C8.02517 41.2479 7.90443 41.4521 7.79999 41.7988C7.80004 41.8428 7.80675 41.8207 7.76766 41.8601C7.5954 41.6939 7.62564 41.1092 7.62714 40.8643Z" fill="var(--fill-0, black)"/>
<path d="M26.7914 44.8033C29.1504 44.7129 31.7834 44.7686 34.1688 44.7687L53.7642 44.7685C54.8895 44.7684 56.9982 44.718 58.0319 44.9054L58.0148 44.9573C57.699 44.9786 57.2341 45.1342 57.1301 45.1126C56.7859 44.8936 53.4677 44.9694 52.8677 44.9693L27.8254 44.9752L27.7982 44.9731C27.3889 44.9463 27.3095 44.955 26.9088 45.008L26.7914 44.8033Z" fill="var(--fill-0, black)"/>
<path d="M26.2039 43.9022L55.2288 43.905C55.5446 43.9054 56.953 43.8802 57.1444 43.9396C57.0806 44.0379 57.0034 44.0322 56.8651 44.0761L35.2115 44.0719L29.2601 44.0771C28.6278 44.0801 26.7873 44.1342 26.2362 44.0707L26.2039 43.9022Z" fill="var(--fill-0, black)"/>
<path d="M27.8254 44.9752L52.8677 44.9693C53.4677 44.9694 56.7859 44.8936 57.1301 45.1126C56.0953 45.1784 54.6434 45.1378 53.5835 45.138L27.4226 45.1329L27.3699 45.0754C27.4515 44.9956 27.6871 44.9925 27.8254 44.9752Z" fill="var(--fill-0, black)"/>
<path d="M26.9827 43.6832C27.298 43.6832 27.653 43.676 27.9653 43.6878C28.3849 43.7684 29.7762 43.7389 30.2578 43.7375L34.6108 43.7257L51.3736 43.7268L54.9363 43.7432C55.4107 43.7464 56.5393 43.7277 56.9543 43.8161C54.354 43.8664 26.7812 43.9602 26.4166 43.7977C26.6043 43.7549 26.793 43.7167 26.9827 43.6832Z" fill="var(--fill-0, black)"/>
<path d="M26.2039 43.9022C26.2139 43.8245 26.245 43.7838 26.2839 43.7164C26.4765 43.6294 26.7631 43.6707 26.9827 43.6832C26.793 43.7167 26.6043 43.7549 26.4166 43.7977C26.7812 43.9602 54.354 43.8664 56.9543 43.8161C56.5393 43.7277 55.4107 43.7464 54.9363 43.7432L51.3736 43.7268L34.6108 43.7257L30.2578 43.7375C29.7762 43.7389 28.3849 43.7684 27.9653 43.6878C29.8869 43.6447 31.9316 43.6769 33.8647 43.6768L52.4007 43.6777C53.302 43.678 57.5987 43.5698 58.1429 43.9707C57.6062 43.9364 57.2769 44.1066 56.8651 44.0761C57.0034 44.0322 57.0806 44.0379 57.1444 43.9396C56.953 43.8802 55.5446 43.9054 55.2288 43.905L26.2039 43.9022Z" fill="var(--fill-0, black)"/>
<path d="M8.57971 43.8963L23.7896 43.9013C23.9746 43.9297 24.1924 43.9395 24.3252 44.0615C22.74 44.1124 21.0232 44.0795 19.4275 44.0798L10.5859 44.0771C9.92528 44.007 7.32072 44.1466 6.905 44.0167L6.92832 43.9741C7.17425 43.9057 8.25008 43.91 8.57971 43.8963Z" fill="var(--fill-0, black)"/>
<path d="M50.6709 22.6455L50.8839 22.6675C50.8782 22.8808 50.9106 22.9296 50.8169 23.0913C50.6815 23.14 50.6545 23.1296 50.5117 23.1006C50.4441 22.9765 50.436 22.9521 50.3084 22.8963C49.0247 22.9649 47.3063 22.9171 45.9949 22.9161L38.2735 22.9139C37.7206 22.9138 34.5349 22.8358 34.2486 23.0219C34.1642 22.9316 34.0555 22.8689 33.9513 22.8003C35.1592 22.6922 37.034 22.7437 38.2855 22.7437L46.3775 22.7418C47.6228 22.742 49.2848 22.8002 50.4808 22.7352L50.6709 22.6455Z" fill="var(--fill-0, black)"/>
<path d="M75.2171 43.8952C75.7918 43.9578 76.3333 43.8653 77.0105 43.9816L76.9922 44.0198C76.1816 44.1155 74.7141 44.0714 73.8451 44.071L68.349 44.0684L63.0058 44.0716C62.0611 44.0753 60.5931 44.1243 59.6892 44.0296L59.7395 43.9779C59.9642 43.8833 60.2467 43.9028 60.495 43.9009L70.2212 43.9007C71.7144 43.9004 73.7544 43.9632 75.2171 43.8952Z" fill="var(--fill-0, black)"/>
<path d="M7.45269 44.9929C10.1323 44.8804 13.3482 44.9697 16.0814 44.9695L20.703 44.97C21.3383 44.9702 23.3138 44.9096 23.7989 45.0865L23.7385 45.1134C22.5483 45.1892 7.48036 45.1491 7.36487 45.0725L7.45269 44.9929Z" fill="var(--fill-0, black)"/>
<path d="M60.6242 45.0011C61.5104 44.9413 62.7146 44.9715 63.6255 44.9711L73.7244 44.9708C74.1876 44.971 76.5644 44.8943 76.8335 45.114C75.4883 45.1875 60.7652 45.1675 60.5609 45.0707L60.6242 45.0011Z" fill="var(--fill-0, black)"/>
<path d="M54.8895 40.0553C55.037 39.7241 54.9429 31.419 54.96 30.2241L55.0973 30.2524C55.2029 30.4689 55.1123 30.9876 55.1514 31.3024C55.1021 33.6102 55.1193 36.1697 55.153 38.482C55.123 38.9025 55.1654 39.3431 55.2163 39.7599C55.3761 38.8616 55.3069 38.0501 55.3203 37.1429C55.3428 35.6445 55.282 34.0951 55.3249 32.6011C55.5136 32.9074 55.2922 38.3536 55.4016 39.2132C55.4278 39.4194 55.3517 39.8433 55.1678 40.0098C55.0418 40.0628 55.0246 40.0706 54.8895 40.0553Z" fill="var(--fill-0, black)"/>
<path d="M38.4617 30.3072L38.5687 30.3122C38.6925 30.5349 38.593 31.9951 38.6385 32.4283C38.5905 34.2602 38.5782 36.7926 38.6391 38.618C38.6157 39.038 38.6577 39.3654 38.7296 39.7754C38.9482 37.7187 38.7021 34.9039 38.8081 32.7618C38.9619 33.015 38.8756 38.9107 38.7786 39.6382C38.7595 39.7815 38.6251 40.0428 38.4243 40.044C38.4905 39.4503 38.4176 38.0722 38.4317 37.3914C38.4793 35.0839 38.3476 32.6027 38.4617 30.3072Z" fill="var(--fill-0, black)"/>
<path d="M29.0471 39.2152C28.9889 39.0379 28.9715 36.798 28.9952 36.5946C29.1395 35.3546 28.7694 30.2655 29.1614 29.4785C29.3723 29.3337 29.8306 29.2511 30.0318 29.4199C29.8376 29.4206 29.6082 29.3972 29.4535 29.5032C29.3155 29.7453 29.4254 31.0253 29.4292 31.391L29.4376 36.702C29.4373 37.3417 29.4764 38.8553 29.4181 39.44L29.346 39.4206C29.1022 39.1615 29.4548 31.5048 29.2113 30.3584L29.1481 30.2732C28.979 30.4948 29.098 38.2302 29.0471 39.2152Z" fill="var(--fill-0, black)"/>
<path d="M30.0657 29.426C30.1566 29.4197 30.3833 29.3948 30.459 29.4164C30.3559 29.5202 30.3375 29.6343 30.3365 29.7771C30.3131 32.9589 30.3479 36.1422 30.3255 39.3242C30.3245 39.4729 30.3304 39.5816 30.4333 39.6859L30.4894 39.6692C30.5174 39.8248 30.5542 39.9258 30.4926 40.0672C30.2636 40.147 30.2784 40.0793 30.0134 40.0469C30.1556 39.8637 30.2382 29.92 30.0657 29.426Z" fill="var(--fill-0, black)"/>
<path d="M34.7959 23.0927L34.8387 23.0093C35.3329 22.9434 36.2618 22.9661 36.7898 22.9658L40.0979 22.9669C40.9399 22.9679 49.7141 22.918 49.9058 23.0393L49.8672 23.0983C46.3802 23.2189 42.801 23.0467 39.3036 23.1181C37.8448 23.1479 36.2472 23.158 34.7959 23.0927Z" fill="var(--fill-0, black)"/>
<path d="M46.5961 29.3982L46.9247 29.4082C46.7707 29.7522 46.8047 39.681 46.9515 39.9522L46.9613 40.0625C46.8382 40.1371 46.7238 40.1353 46.5787 40.151C46.5581 40.1388 46.47 40.0892 46.4588 40.0771C46.5117 40.0444 46.5342 40.0065 46.5752 39.9569C46.695 39.4387 46.653 35.7971 46.6531 35.0287L46.6522 31.5854C46.6517 30.9627 46.6723 30.0008 46.5961 29.3982Z" fill="var(--fill-0, black)"/>
<path d="M46.9247 29.4082C47.1942 29.6956 47.0084 37.7709 47.0446 38.9959C47.0498 39.1708 46.997 39.7565 46.9515 39.9522C46.8047 39.681 46.7707 29.7522 46.9247 29.4082Z" fill="var(--fill-0, black)"/>
<path d="M6.03726 38.0991L6.08777 37.9455C6.65544 37.7997 10.7141 37.7879 11.2671 38.0044L11.2878 38.1059C11.1331 38.3914 11.1359 42.155 11.2857 42.3403C11.1623 42.425 11.0311 42.4294 10.8739 42.4044C10.9965 42.0746 10.9406 38.6404 10.9319 38.0582C10.4162 38.0324 6.5956 37.9465 6.39428 38.1077C6.27086 38.0703 6.22443 38.0887 6.09291 38.1088L6.03726 38.0991Z" fill="var(--fill-0, black)"/>
<path d="M23.2664 21.7032C23.3356 21.2973 23.4931 21.367 23.4692 21.2137L23.3503 21.2334C23.5113 20.9397 25.0191 20.063 25.3377 19.8672C25.4821 19.7785 26.3225 20.2851 26.4809 20.3726C26.5525 20.3523 26.6129 20.335 26.6623 20.3209C26.7048 20.4104 26.7488 20.4993 26.7942 20.5873C27.0317 20.6319 27.5231 20.6637 27.681 20.7705C27.8232 21.0367 27.7608 21.1804 28.0276 21.3796C28.093 21.4285 28.3697 21.722 28.4085 21.7997C28.568 22.1201 28.6744 23.2209 28.1261 23.1741L28.2255 23.063C28.2495 22.8539 28.3551 22.2993 28.2936 22.1406L28.2102 22.1444L28.1277 22.2558C27.8712 21.183 26.2648 20.42 25.3163 20.0712C24.5221 20.5928 23.9732 21.081 23.2664 21.7032Z" fill="var(--fill-0, black)"/>
<path d="M40.1485 14.9557C39.8748 14.4054 40.2248 12.8733 40.5648 12.3308C41.8926 10.2126 43.8345 11.1965 44.2601 13.3468C43.9666 13.1664 44.0873 13.2113 43.9096 12.935C43.7435 12.6767 43.5889 12.44 43.5544 12.1261L43.5495 12.2962L43.5081 12.3262C43.4829 12.2846 43.3118 11.9984 43.297 11.9976C42.8941 11.9758 42.7618 11.5801 42.4743 11.4843C42.2031 11.3938 41.7593 11.5338 41.5427 11.7023C40.8372 12.3211 40.4688 12.5959 40.3336 13.5474C40.3005 13.7803 40.2246 14.8907 40.1485 14.9557Z" fill="var(--fill-0, black)"/>
<path d="M30.4894 39.6692L30.4333 39.6859C30.3304 39.5816 30.3245 39.4729 30.3255 39.3242C30.3479 36.1422 30.3131 32.9589 30.3365 29.7771C30.3375 29.6343 30.3559 29.5202 30.459 29.4164C30.5935 30.4923 30.5365 32.8158 30.5348 33.9863C30.5322 35.771 30.5906 37.907 30.4894 39.6692Z" fill="var(--fill-0, black)"/>
<path d="M37.3538 30.1736C37.3084 29.8248 37.4031 29.483 37.7801 29.3947C37.7143 29.5554 37.6835 39.1405 37.71 39.9697L37.5145 39.8812C37.7049 39.5769 37.4728 31.4445 37.5626 30.4819C37.5732 30.3681 37.5444 30.0199 37.4922 29.9052C37.4003 29.9561 37.3976 30.0475 37.3538 30.1736Z" fill="var(--fill-0, black)"/>
<path d="M10.9323 35.9506C10.9601 36.2918 10.8728 36.6515 10.9433 36.8573C9.67717 36.8455 8.41186 36.9381 7.14698 36.8481C6.90968 36.8312 6.67158 36.8282 6.4338 36.8232C6.43696 36.6677 6.40402 36.4637 6.40026 36.2834C6.51763 36.4511 6.43259 36.5181 6.58003 36.6967L6.71439 36.6823L6.76232 36.5446C7.32501 36.2828 10.3468 36.6004 10.811 36.4817C10.9161 36.3495 10.9145 36.1295 10.9323 35.9506ZM8.91925 36.5814C8.69165 36.4176 8.10098 36.4909 7.81644 36.5286C8.10291 36.6537 8.61981 36.6433 8.91925 36.5814Z" fill="var(--fill-0, black)"/>
<path d="M8.91925 36.5814C8.69165 36.4176 8.10098 36.4909 7.81644 36.5286C8.10291 36.6537 8.61981 36.6433 8.91925 36.5814Z" fill="var(--fill-0, black)"/>
<path d="M53.8751 30.4549C53.836 30.0903 53.8966 29.5346 54.2896 29.3953C54.1673 29.6401 54.2299 30.4183 54.2342 30.7201C54.2401 31.3856 54.2428 32.0512 54.2412 32.7167C54.2434 34.9128 54.2149 37.1719 54.2509 39.3618L54.1688 39.5787C54.0257 39.4145 54.0873 37.5219 54.0879 37.1804L54.0793 32.6942C54.06 32.2436 54.149 30.2128 53.9871 29.9846C53.8927 30.1097 53.8987 30.2796 53.8751 30.4549Z" fill="var(--fill-0, black)"/>
<path d="M77.9562 24.8437C78.139 24.8466 78.1878 24.8135 78.3063 24.9074L78.1981 24.9629C78.0946 25.4263 78.1434 30.6008 78.2259 31.1829C78.382 30.4896 78.294 30.0888 78.3669 29.476C78.42 29.9315 78.443 30.8385 78.3487 31.3056C78.3278 31.4118 78.0286 31.3143 77.9487 31.2891L77.9562 24.8437Z" fill="var(--fill-0, black)"/>
<path d="M32.1054 25.6972C32.375 25.6472 33.5281 25.7198 33.9425 25.7197L38.3213 25.7148C38.9619 25.7142 39.6502 25.7025 40.2914 25.7282C40.4543 25.7346 40.4594 25.7618 40.5359 25.8598C39.7746 25.9764 37.7197 25.9306 36.9338 25.9179C35.9335 25.9018 32.7201 26.0733 32.1054 25.6972Z" fill="var(--fill-0, black)"/>
<path d="M45.5636 30.6228C45.5246 30.2905 45.4864 29.8202 45.6687 29.5205C45.7313 29.4175 45.8235 29.4317 45.9619 29.4068C45.8463 29.7004 45.9421 31.1986 45.9449 31.632L45.954 36.6907C45.9547 37.4771 45.9955 38.7208 45.9322 39.4505C45.7514 39.2435 45.8205 38.0182 45.8208 37.6854L45.8235 33.5616C45.8236 33.0672 45.8524 31.8602 45.7811 31.4449C45.7797 31.1734 45.787 30.4955 45.6805 30.2676C45.5799 30.3458 45.5927 30.4636 45.5636 30.6228Z" fill="var(--fill-0, black)"/>
<path d="M59.4441 44.1424C59.5395 44.0242 59.5685 43.6597 59.8687 43.6682C60.1325 43.6758 60.3931 43.6882 60.6574 43.6936L60.6118 43.7054C60.3861 43.762 60.2306 43.7735 59.999 43.7935C60.1738 43.8379 60.3175 43.8683 60.495 43.9009C60.2467 43.9028 59.9642 43.8833 59.7395 43.9779L59.6892 44.0296C60.5931 44.1243 62.0611 44.0753 63.0058 44.0716L68.349 44.0684L73.8451 44.071C74.7141 44.0714 76.1816 44.1155 76.9922 44.0198L77.0105 43.9816C76.3333 43.8653 75.7918 43.9578 75.2171 43.8952C75.5908 43.819 76.6941 43.9745 76.9182 43.7817L76.7161 43.6884C76.8367 43.6929 77.5235 43.7766 77.5568 43.7712C77.6495 43.8216 77.8603 43.9284 77.9337 43.9884C77.4571 44.0084 77.1622 44.1185 76.6078 44.1221C75.0648 44.1321 73.5185 44.128 71.9755 44.1267H63.4985C62.2042 44.1271 60.7244 44.0947 59.4441 44.1424Z" fill="var(--fill-0, black)"/>
<path d="M51.7895 25.6818L52.0222 25.7356L51.9901 25.8278C51.522 25.9712 44.9038 25.9505 44.167 25.8769C44.3684 25.6964 45.2104 25.7912 45.6418 25.7233C47.6385 25.673 49.8218 25.7945 51.7895 25.6818Z" fill="var(--fill-0, black)"/>
<path d="M12.3189 42.3054C12.2564 42.2739 12.2229 42.2308 12.1712 42.1804C12.1855 41.9081 12.0863 41.2987 12.0623 40.8152C12.0251 40.0669 12.0547 39.0181 12.0862 38.2416C12.0843 38.2876 12.2186 38.1845 12.2902 38.0874C12.3099 38.259 12.3342 38.43 12.3631 38.6003C12.5119 39.2418 12.427 41.6085 12.3189 42.3054ZM12.1837 40.1275C12.1874 39.8926 12.2326 39.4256 12.0915 39.255C12.0854 39.5113 12.0337 39.9377 12.1837 40.1275Z" fill="var(--fill-0, black)"/>
<path d="M12.1837 40.1275C12.1874 39.8926 12.2326 39.4256 12.0915 39.255C12.0854 39.5113 12.0337 39.9377 12.1837 40.1275Z" fill="var(--fill-0, black)"/>
<path d="M10.9809 32.5985L11.095 32.6198C11.1115 32.7744 11.1335 32.8658 11.1528 33.0031C11.2816 33.9193 11.1052 35.3863 11.2241 36.2575L11.2939 36.281C11.3486 36.0463 11.3267 34.8818 11.3261 34.5706C11.4286 34.8296 11.408 36.467 11.3121 36.7724C11.1799 36.8437 11.1592 36.8403 11.0104 36.8522L10.9685 36.8557C10.9601 36.8563 10.9518 36.8568 10.9433 36.8573C10.8728 36.6515 10.9601 36.2918 10.9323 35.9506C11.0313 35.0554 10.8327 33.5491 10.9809 32.5985Z" fill="var(--fill-0, black)"/>
<path d="M53.8784 32.7772L53.8876 32.7294C53.9906 32.1622 53.8758 31.269 53.9756 30.6463C54.0351 31.0968 54.0195 32.1934 54.0233 32.6943C54.0399 34.9258 54.0592 37.3225 54.012 39.5501L53.9239 39.5958C53.8435 38.824 53.8703 37.679 53.8698 36.8765C53.8655 35.5101 53.8687 34.1436 53.8784 32.7772Z" fill="var(--fill-0, black)"/>
<path d="M37.3657 32.7769L37.3746 32.7291C37.483 32.104 37.3498 31.0156 37.4506 30.3152C37.5194 30.5426 37.5315 33.6017 37.5049 33.9242C37.43 34.8324 37.656 39.3161 37.4132 39.7792C37.3286 39.1838 37.3564 37.8222 37.3568 37.1707L37.3657 32.7769Z" fill="var(--fill-0, black)"/>
<path d="M6.09538 25.4286C6.23172 25.6277 6.19493 25.5352 6.22437 25.7524C6.30999 26.3845 6.09869 30.4692 6.29787 30.7048L6.37116 30.6954C6.46386 30.3567 6.33835 29.5609 6.41915 29.1004C6.47952 29.6608 6.43304 30.456 6.39738 31.041C6.39701 31.0477 6.46553 31.1114 6.47636 31.1191C6.55946 31.1782 6.72798 31.2196 6.8284 31.248C6.61073 31.2504 6.31145 31.1677 6.09206 31.1171C6.01839 29.7139 6.05555 28.3045 6.04397 26.9C6.03994 26.4094 6.04659 25.9172 6.09538 25.4286Z" fill="var(--fill-0, black)"/>
<path d="M36.1768 16.2171L36.7083 16.2151L36.5135 16.333L36.5285 16.371C37.4845 16.4253 38.6878 16.4092 39.6488 16.3757C39.7766 16.4056 39.905 16.3425 40.0365 16.2982C41.2343 16.5334 41.3586 16.1383 42.3623 16.2738C42.5991 16.5166 44.3419 16.3806 44.5235 16.5524C43.7558 16.5785 42.956 16.5415 42.1756 16.5711C41.3581 16.6022 40.6625 16.475 39.822 16.5898L39.808 16.5199C39.5818 16.3522 36.807 16.5093 36.3561 16.4439C36.1915 16.42 36.1956 16.4483 36.0974 16.3116L36.1768 16.2171Z" fill="var(--fill-0, black)"/>
<path d="M6.09538 25.4286C6.03228 25.2276 6.16749 25.0056 6.28566 24.8516L6.3611 24.8671C6.43369 26.2928 6.4177 27.6743 6.41915 29.1004C6.33835 29.5609 6.46386 30.3567 6.37116 30.6954L6.29787 30.7048C6.09869 30.4692 6.30999 26.3845 6.22437 25.7524C6.19493 25.5352 6.23172 25.6277 6.09538 25.4286Z" fill="var(--fill-0, black)"/>
<path d="M78.2259 31.1829C78.1434 30.6008 78.0946 25.4263 78.1981 24.9629L78.3063 24.9074C78.3921 26.2354 78.3519 27.5669 78.3626 28.8965C78.3637 29.0889 78.3503 29.2842 78.3669 29.476C78.294 30.0888 78.382 30.4896 78.2259 31.1829Z" fill="var(--fill-0, black)"/>
<path d="M71.9632 32.5963L72.2655 32.6302C72.1583 32.8136 72.192 33.1252 72.1953 33.3491C72.1524 33.4548 72.1416 33.6554 72.1518 33.7661C72.2006 34.3055 72.0093 36.0232 72.3111 36.3709C72.3395 36.5248 72.3685 36.6083 72.3106 36.7566C72.1819 36.87 72.1278 36.9205 71.9514 36.8146L71.9079 36.6772C71.9803 35.3408 71.9042 33.9544 71.9632 32.5963Z" fill="var(--fill-0, black)"/>
<path d="M57.3151 24.8198C57.1119 24.7455 56.8829 24.8141 56.7376 24.6582L56.8974 24.7288L56.8374 24.6152C57.0636 24.5809 57.2893 24.543 57.5145 24.5016C57.7751 24.6961 59.6141 24.7078 59.8532 24.4964C59.9636 24.4735 60.8327 24.6426 61.1308 24.6376L61.1866 24.7059C61.0665 24.7984 60.97 24.7609 60.9094 24.7924C60.2489 24.8872 57.974 24.8755 57.3151 24.8198Z" fill="var(--fill-0, black)"/>
<path d="M71.4565 38.0041C71.6752 37.976 72.1267 37.934 72.3084 38.0603L72.1881 38.1292C72.0985 38.5303 72.1484 41.7041 72.1956 42.2196L72.302 42.3538C72.19 42.4176 72.079 42.3802 71.9428 42.3602C71.8447 41.6617 72.0551 38.5825 71.8921 38.1176C71.7163 37.9941 71.7004 38.0298 71.4565 38.0041Z" fill="var(--fill-0, black)"/>
<path d="M6.67083 24.8042C6.56885 24.7311 6.50184 24.8056 6.32062 24.6553L6.42404 24.6852L6.44291 24.6187C6.76433 24.6116 6.87585 24.5812 7.17958 24.5048C7.4587 24.6901 9.52641 24.7118 9.77561 24.4966C9.86332 24.4805 10.6978 24.6306 10.8577 24.653L10.8789 24.7281C10.6387 24.8041 10.4134 24.7153 10.298 24.8028C9.89554 24.8706 7.10232 24.8576 6.67083 24.8042Z" fill="var(--fill-0, black)"/>
<path d="M45.5636 30.6228C45.5927 30.4636 45.5802 30.3456 45.6808 30.2674C45.7874 30.4953 45.7801 31.1732 45.7815 31.4447C45.7046 33.9228 45.8112 36.5392 45.7695 39.0422L45.7275 39.0281L45.7203 33.3635C45.7194 32.981 45.7375 31.0092 45.6582 30.744C45.5947 31.2542 45.6217 32.369 45.6205 32.9158L45.6191 37.337C45.6192 37.9166 45.6525 38.937 45.6134 39.4884C45.5163 39.1547 45.5651 37.1597 45.5598 36.6963C45.5367 34.6872 45.6121 32.627 45.5636 30.6228Z" fill="var(--fill-0, black)"/>
<path d="M78.0179 32.5756L78.1514 32.5978C78.2361 33.8032 78.0774 35.0925 78.1792 36.3038C78.1862 36.3843 78.2575 36.4594 78.3149 36.5127C78.3385 36.7075 78.361 36.6685 78.2897 36.8291C78.0345 36.9347 78.0436 36.8507 77.8972 36.8902C77.9766 35.9382 77.8865 33.131 78.0179 32.5756Z" fill="var(--fill-0, black)"/>
<path d="M77.0978 24.8294C76.5821 24.7917 73.6193 24.9022 73.4317 24.6928L73.4322 24.736L73.4885 24.6084C73.6408 24.5107 74.0445 24.4479 74.2187 24.4975C74.4804 24.7028 76.5976 24.7082 76.8378 24.4977C77.0201 24.4573 77.6361 24.6026 77.8259 24.6685C77.8602 24.7295 77.8779 24.7482 77.8924 24.8159C77.6495 24.7901 77.3466 24.8163 77.0978 24.8294Z" fill="var(--fill-0, black)"/>
<path d="M34.2486 23.0219C34.5349 22.8358 37.7206 22.9138 38.2735 22.9139L45.9949 22.9161C47.3063 22.9171 49.0247 22.9649 50.3084 22.8963C50.436 22.9521 50.4441 22.9765 50.5117 23.1006L49.8672 23.0983L49.9058 23.0393C49.7141 22.918 40.9399 22.9679 40.0979 22.9669L36.7898 22.9658C36.2618 22.9661 35.3329 22.9434 34.8387 23.0093L34.7959 23.0927C34.559 23.1108 34.4813 23.0824 34.2486 23.0219Z" fill="var(--fill-0, black)"/>
<path d="M27.5388 25.7521C27.368 26.053 27.3464 26.0576 27.286 26.3984L27.2747 26.4628C27.0841 26.7413 27.0497 28.2225 27.2725 28.4603C27.3531 29.0243 27.2174 28.9792 27.6022 29.4064C27.3953 29.3114 27.2058 29.1702 27.0178 29.0405C26.8472 28.543 26.8184 26.5797 26.9753 26.0928C27.0659 26.0488 27.1024 26.0573 27.2073 26.0564L27.2445 26.0563C27.3498 25.9187 27.4113 25.867 27.5388 25.7521Z" fill="var(--fill-0, black)"/>
<path d="M23.2711 24.7145L23.2766 24.6604C23.4338 24.5072 23.723 24.7295 24.1821 24.518C24.5464 24.6832 26.4857 24.7499 26.7757 24.493C26.8906 24.4652 27.5182 24.6167 27.7288 24.6513C27.7404 24.6652 27.7966 24.7268 27.801 24.7461C26.2475 24.8112 24.8489 24.955 23.2711 24.7145Z" fill="var(--fill-0, black)"/>
<path d="M6.09251 38.1086C6.22403 38.0886 6.27046 38.0701 6.39388 38.1076C6.42316 39.303 6.44659 40.5048 6.37592 41.6986C6.36729 41.8448 6.28287 42.2029 6.3003 42.2973C6.19645 42.2821 6.18213 42.2543 6.10825 42.1802C6.03641 41.9847 6.06509 41.6581 6.07034 41.4392C6.25596 40.9809 6.35212 38.3821 6.09251 38.1086Z" fill="var(--fill-0, black)"/>
<path d="M38.5353 29.5304L38.6183 29.5249C38.8997 30.697 38.7646 31.5861 38.8081 32.7618C38.7021 34.9039 38.9482 37.7187 38.7296 39.7754C38.6577 39.3654 38.6157 39.038 38.6391 38.618L38.7139 38.9197C38.7939 38.7178 38.7445 31.9747 38.7183 31.2854C38.6609 31.6437 38.6859 32.038 38.6385 32.4283C38.593 31.9951 38.6925 30.5349 38.5687 30.3122L38.4617 30.3072C38.4383 30.0967 38.5034 29.7508 38.5353 29.5304Z" fill="var(--fill-0, black)"/>
<path d="M55.1514 31.3024C55.1654 31.2068 55.1733 31.0012 55.2301 30.9581L55.2489 31.0356L55.1803 31.0576L55.2532 31.0924C55.2553 31.8828 55.3052 38.6815 55.2296 38.8476L55.153 38.482C55.1193 36.1697 55.1021 33.6102 55.1514 31.3024Z" fill="var(--fill-0, black)"/>
<path d="M45.6134 39.4884C45.6525 38.937 45.6192 37.9166 45.6191 37.337L45.6205 32.9158C45.6217 32.369 45.5947 31.2542 45.6582 30.744C45.7375 31.0092 45.7194 32.981 45.7203 33.3635L45.7275 39.0281C45.7268 39.1969 45.7562 39.455 45.6157 39.5703L45.6134 39.4884Z" fill="var(--fill-0, black)"/>
<path d="M55.0777 29.5328C55.4251 29.856 55.3147 32.033 55.3249 32.6011C55.282 34.0951 55.3428 35.6445 55.3203 37.1429C55.3069 38.0501 55.3761 38.8616 55.2163 39.7599C55.1654 39.3431 55.123 38.9025 55.153 38.482L55.2296 38.8476C55.3052 38.6815 55.2553 31.8828 55.2532 31.0924L55.1803 31.0576L55.2489 31.0356L55.2301 30.9581C55.1733 31.0012 55.1654 31.2068 55.1514 31.3024C55.1123 30.9876 55.2029 30.4689 55.0973 30.2524L54.96 30.2241C54.9504 29.9998 55.0241 29.7539 55.0777 29.5328Z" fill="var(--fill-0, black)"/>
<path d="M29.1096 39.2428C29.1507 38.5613 29.1018 37.5652 29.1106 36.8569C29.1358 34.848 29.067 32.7754 29.1322 30.7711L29.2043 30.9641L29.2181 36.6079C29.2169 37.0218 29.2685 39.2368 29.1047 39.4423L29.1096 39.2428Z" fill="var(--fill-0, black)"/>
<path d="M77.8865 37.9926C77.9637 38.0099 78.049 38.0273 78.1246 38.0465C78.1723 39.371 78.1484 40.9206 78.12 42.2517C78.209 42.3189 78.2045 42.3163 78.3117 42.3468C78.2061 42.3565 78.071 42.3731 77.968 42.3768C77.8458 41.6183 78.0929 38.5029 77.8865 37.9926Z" fill="var(--fill-0, black)"/>
<path d="M31.77 34.1163L31.8904 34.4432C32.0208 34.4907 32.1378 34.4476 32.2646 34.3903C32.7466 34.1726 35.4059 34.2958 36.1142 34.299C35.7775 34.4806 33.0714 34.2973 32.3106 34.42C33.4551 34.5127 35.0171 34.4849 36.1759 34.4302L36.1824 34.6253C36.032 34.7829 33.1349 34.7615 32.8162 34.6851C33.3051 34.6368 35.9514 34.7363 36.105 34.6015L36.0394 34.5293C35.3579 34.4746 33.088 34.4638 32.4616 34.5386L32.4792 34.602L32.7606 34.6938C32.4987 34.6792 32.0636 34.7147 31.883 34.6059C31.7454 34.4052 31.7885 34.3975 31.77 34.1163Z" fill="var(--fill-0, black)"/>
<path d="M38.6385 32.4283C38.6859 32.038 38.6609 31.6437 38.7183 31.2854C38.7445 31.9747 38.7939 38.7178 38.7139 38.9197L38.6391 38.618C38.5782 36.7926 38.5905 34.2602 38.6385 32.4283Z" fill="var(--fill-0, black)"/>
<path d="M35.6316 16.5693C35.6276 16.4454 35.6553 16.3932 35.6958 16.2736C35.8931 16.1688 35.9199 16.2097 36.1768 16.2171L36.0974 16.3116C36.1956 16.4483 36.1915 16.42 36.3561 16.4439C36.807 16.5093 39.5818 16.3522 39.808 16.5199L39.822 16.5898C38.7568 16.6478 37.657 16.6051 36.5894 16.612C36.3645 16.6135 35.7447 16.5545 35.6316 16.5693Z" fill="var(--fill-0, black)"/>
<path d="M37.3538 30.1736C37.3976 30.0475 37.4003 29.9561 37.4922 29.9052C37.5444 30.0199 37.5732 30.3681 37.5626 30.4819C37.4728 31.4445 37.7049 39.5769 37.5145 39.8812L37.4132 39.7792C37.656 39.3161 37.43 34.8324 37.5049 33.9242C37.5315 33.6017 37.5194 30.5426 37.4506 30.3152C37.3498 31.0156 37.483 32.104 37.3746 32.7291L37.3657 32.7769C37.3267 31.9424 37.3761 31.0241 37.3538 30.1736Z" fill="var(--fill-0, black)"/>
<path d="M42.3623 16.2738C42.8382 16.2306 43.747 16.471 44.2189 16.358C44.7819 16.2231 44.6732 16.1699 45.2932 16.2322C45.1229 16.2554 44.9749 16.2434 44.8641 16.3389C45.1457 16.4504 46.4296 16.4211 46.8071 16.4196C46.9412 16.4402 47.0996 16.4344 47.1649 16.5167L46.6558 16.6035C45.9445 16.6252 45.2329 16.608 44.5235 16.5524C44.3419 16.3806 42.5991 16.5166 42.3623 16.2738Z" fill="var(--fill-0, black)"/>
<path d="M73.095 30.8444C73.2236 30.6057 73.2494 25.6677 73.0649 25.4899C72.9883 25.9689 72.991 30.4349 73.095 30.8444Z" fill="var(--fill-0, black)"/>
<path d="M35.8143 15.2994C36.3677 15.2682 39.6555 15.2102 39.9231 15.4081L39.8737 15.4964C38.7743 15.3458 37.1746 15.5868 35.7827 15.3983L35.8143 15.2994Z" fill="var(--fill-0, black)"/>
<path d="M12.4228 36.5148C12.4023 36.618 12.4247 36.5719 12.3422 36.6514C12.3522 36.7016 12.3485 36.677 12.3537 36.7252C12.3268 36.6707 12.3174 36.6483 12.2787 36.6004L12.2015 36.5059C11.943 36.2005 12.041 33.7539 12.1948 33.2986C12.2587 33.1093 12.2642 32.8214 12.2909 32.6178C12.3197 32.8269 12.3371 32.9422 12.3322 33.1527C12.3118 33.6028 12.1869 36.0422 12.3569 36.3496L12.4228 36.5148Z" fill="var(--fill-0, black)"/>
<path d="M50.4192 10.9242L50.5844 11.1561C50.6953 11.1555 50.7816 11.1497 50.8913 11.1736C50.9217 11.3277 50.8907 11.4569 50.8659 11.6107C50.582 11.952 50.6967 12.864 50.7161 13.335C50.7171 13.7438 50.7737 13.8404 50.436 14.1114C50.5382 13.0512 50.5326 11.9833 50.4192 10.9242Z" fill="var(--fill-0, black)"/>
<path d="M6.04573 36.3441L6.12783 36.4128L6.22036 36.3834C6.30577 36.1002 6.16632 33.8494 6.26771 33.2381L6.36239 33.1712C6.43305 33.677 6.45136 35.7816 6.40026 36.2834C6.40402 36.4637 6.43696 36.6677 6.4338 36.8232C6.31 36.8363 6.24239 36.8344 6.11747 36.8311L6.04863 36.7437C6.06579 36.5819 6.06514 36.5421 6.04981 36.3839L6.04573 36.3441Z" fill="var(--fill-0, black)"/>
<path d="M41.2463 34.5058C41.6755 34.5011 44.0453 34.43 44.3155 34.5181L44.2853 34.6435C43.9478 34.7682 41.1889 34.695 40.6837 34.6699L40.6975 34.5806C40.8299 34.4969 41.078 34.511 41.2463 34.5058Z" fill="var(--fill-0, black)"/>
<path d="M29.2113 30.3584C29.4548 31.5048 29.1022 39.1615 29.346 39.4206L29.4181 39.44C29.3823 39.6471 29.3221 39.7955 29.4942 39.9486C29.3568 39.9546 29.3279 39.9411 29.1963 39.8983C29.0745 39.7152 29.1147 39.6991 29.1047 39.4423C29.2685 39.2368 29.2169 37.0218 29.2181 36.6079L29.2043 30.9641L29.2113 30.3584Z" fill="var(--fill-0, black)"/>
<path d="M17.4073 40.2856C18.0894 40.6988 18.0394 41.5938 17.9494 42.3012C17.8262 42.2891 17.8096 42.2819 17.6921 42.2394C17.4226 41.8304 17.649 40.8797 17.4073 40.2856Z" fill="var(--fill-0, black)"/>
<path d="M78.1514 32.5978L78.2977 32.626C78.4312 32.9055 78.339 36.0203 78.3149 36.5127C78.2575 36.4594 78.1862 36.3843 78.1792 36.3038C78.0774 35.0925 78.2361 33.8032 78.1514 32.5978Z" fill="var(--fill-0, black)"/>
<path d="M48.9681 19.7056C48.9607 19.3062 48.9418 16.7004 49.0305 16.4919C49.179 16.5173 49.16 16.5525 49.2709 16.7089L49.1324 16.7497C49.0079 17.1228 49.0301 18.7019 49.0816 19.1384C49.4681 18.6832 49.0252 17.2311 49.2709 16.7089C49.3703 17.1171 49.3594 19.5143 49.1343 19.8028L49.0313 19.8029L48.9681 19.7056Z" fill="var(--fill-0, black)"/>
<path d="M45.5023 18.8545C45.5301 19.144 45.5743 19.6452 45.4719 19.9126C45.2116 19.9962 43.1379 20.101 42.8972 20.0382C42.7769 19.8898 42.8113 19.9409 42.8048 19.7187C43.4226 19.7415 44.6832 19.9788 45.2024 19.7967C45.4107 19.6436 45.4606 19.1154 45.5023 18.8545Z" fill="var(--fill-0, black)"/>
<path d="M61.1866 32.5981C61.3914 32.9443 61.2348 36.1334 61.1062 36.5755C61.0761 36.3421 61.1236 36.076 61.0994 35.8594C61.0072 35.04 60.9332 34.7043 61.0426 33.8704L61.0603 34.1465C61.1005 33.758 61.1244 32.8842 61.1866 32.5981Z" fill="var(--fill-0, black)"/>
<path d="M6.04573 36.3441C6.14733 35.4527 5.95722 34.3605 6.0897 33.4454C6.12734 33.1856 6.19511 32.9479 6.21618 32.69L6.22004 32.6395C6.29633 32.8466 6.34448 32.952 6.36239 33.1712L6.26771 33.2381C6.16632 33.8494 6.30577 36.1002 6.22036 36.3834L6.12783 36.4128L6.04573 36.3441Z" fill="var(--fill-0, black)"/>
<path d="M48.1723 34.2881C49.2125 34.4197 50.5488 34.2214 51.6181 34.2963C52.1784 34.3356 52.1584 34.871 52.6147 34.1877C52.4983 34.8158 52.1809 34.6902 51.6003 34.6906C51.8094 34.6115 51.7924 34.7105 51.9259 34.5818C51.9205 34.5744 51.9173 34.5656 51.9103 34.5595C51.787 34.4464 48.7054 34.5103 48.3181 34.5556L48.2779 34.6118L48.3859 34.6822C48.2945 34.7187 48.3447 34.7088 48.227 34.6796L48.1828 34.5109C48.5191 34.3265 51.2463 34.6193 51.5902 34.3917C50.9059 34.2897 48.9578 34.3656 48.178 34.3786L48.1723 34.2881Z" fill="var(--fill-0, black)"/>
<path d="M48.3859 34.6822L48.2779 34.6118L48.3181 34.5556C48.7054 34.5103 51.787 34.4464 51.9103 34.5595C51.9173 34.5656 51.9205 34.5744 51.9259 34.5818C51.7924 34.7105 51.8094 34.6115 51.6003 34.6906C50.5505 34.7267 49.4389 34.7012 48.3859 34.6822Z" fill="var(--fill-0, black)"/>
<path d="M44.6978 35.9228C44.7507 35.9465 44.8346 35.9725 44.8393 36.0323C44.8886 36.6499 44.9152 39.2441 44.7664 39.6719L44.7353 39.6847C44.6227 38.8762 44.6905 36.8153 44.6978 35.9228Z" fill="var(--fill-0, black)"/>
<path d="M11.2399 25.3506C11.3779 25.7934 11.3346 29.6392 11.2909 30.4194L11.2458 30.4619L11.2065 30.4386C11.1821 29.1857 11.1152 26.5139 11.2399 25.3506Z" fill="var(--fill-0, black)"/>
<path d="M78.3128 42.0133C78.3556 41.3465 78.4184 38.6397 78.3074 38.054C78.1374 38.2715 78.1396 41.7872 78.3128 42.0133Z" fill="var(--fill-0, black)"/>
<path d="M73.1432 42.1628C73.1829 41.6969 73.2504 38.3566 73.1009 38.1612C73.0022 38.6883 72.9379 41.849 73.1432 42.1628Z" fill="var(--fill-0, black)"/>
<path d="M41.822 34.3174C42.2869 34.3239 43.9957 34.3684 44.3336 34.3242L44.3155 34.5181C44.0453 34.43 41.6755 34.5011 41.2463 34.5058C41.0635 34.4796 40.9763 34.4659 40.7992 34.4132C40.8712 34.356 41.6316 34.3394 41.822 34.3174Z" fill="var(--fill-0, black)"/>
<path d="M66.391 41.7943C66.3867 41.3828 66.3695 41.0333 66.4655 40.6285C66.658 40.7076 66.5947 41.4132 66.7143 41.6502L66.8446 41.6926C66.8365 41.9227 66.858 42.0881 66.7132 42.2593C66.5518 42.3596 66.4923 42.3619 66.3068 42.3954C66.4328 42.1642 66.3985 42.0516 66.391 41.7943ZM66.5491 41.6862C66.5518 41.4414 66.5942 41.1484 66.4483 40.9675C66.4408 41.2092 66.3937 41.507 66.5491 41.6862Z" fill="var(--fill-0, black)"/>
<path d="M66.5491 41.6862C66.5518 41.4414 66.5942 41.1484 66.4483 40.9675C66.4408 41.2092 66.3937 41.507 66.5491 41.6862Z" fill="var(--fill-0, black)"/>
<path d="M32.7606 34.6938L32.4792 34.602L32.4616 34.5386C33.088 34.4638 35.3579 34.4746 36.0394 34.5293L36.105 34.6015C35.9514 34.7363 33.3051 34.6368 32.8162 34.6851L32.7606 34.6938Z" fill="var(--fill-0, black)"/>
<path d="M11.2857 42.3403C11.3427 41.4784 11.3872 38.9206 11.2878 38.1059C11.1331 38.3914 11.1359 42.155 11.2857 42.3403Z" fill="var(--fill-0, black)"/>
<path d="M54.0233 32.6943L54.0793 32.6942L54.0879 37.1804C54.0873 37.5219 54.0257 39.4145 54.1688 39.5787L54.2509 39.3618C54.246 39.5529 54.1974 39.8058 54.2799 39.9429C54.1679 39.9212 54.0896 39.8988 53.9802 39.8666C53.8923 39.7371 53.917 39.7925 53.9239 39.5958L54.012 39.5501C54.0592 37.3225 54.0399 34.9258 54.0233 32.6943Z" fill="var(--fill-0, black)"/>
<path d="M6.03726 38.0991L6.09291 38.1088C6.35251 38.3823 6.25596 40.9809 6.07034 41.4392C5.98617 40.4986 6.14809 38.8725 6.03726 38.0991ZM6.1514 40.3253C6.16341 40.0335 6.23193 39.2078 6.11746 38.9976C6.11189 39.265 6.07784 40.1292 6.1514 40.3253Z" fill="var(--fill-0, black)"/>
<path d="M6.1514 40.3253C6.16341 40.0335 6.23193 39.2078 6.11746 38.9976C6.11189 39.265 6.07784 40.1292 6.1514 40.3253Z" fill="var(--fill-0, black)"/>
<path d="M33.8614 13.9967C33.3626 13.1053 33.4526 12.5079 33.7627 11.5943C33.6931 12.2313 33.9214 12.9069 33.8545 13.5608C33.8416 13.6866 33.8465 13.8723 33.8614 13.9967Z" fill="var(--fill-0, black)"/>
<path d="M6.244 44.2835C6.34051 44.1149 6.3559 43.9833 6.45021 43.7885C6.6348 43.6881 6.60338 43.7206 6.8388 43.7223C7.23384 44.0139 8.03637 43.8098 8.57971 43.8963C8.25008 43.91 7.17425 43.9057 6.92832 43.9741L6.905 44.0167C7.32072 44.1466 9.92528 44.007 10.5859 44.0771C10.2728 44.2409 7.65447 44.0568 7.12583 44.101C6.79647 44.1285 6.5125 43.9801 6.244 44.2835Z" fill="var(--fill-0, black)"/>
<path d="M29.0471 39.2152C29.098 38.2302 28.979 30.4948 29.1481 30.2732L29.2113 30.3584L29.2043 30.9641L29.1322 30.7711C29.067 32.7754 29.1358 34.848 29.1106 36.8569C29.1018 37.5652 29.1507 38.5613 29.1096 39.2428L29.0471 39.2152Z" fill="var(--fill-0, black)"/>
<path d="M36.7083 16.2151C37.4409 16.2208 38.3341 16.1978 39.046 16.2312C39.1919 16.2584 39.5398 16.3085 39.6488 16.3757C38.6878 16.4092 37.4845 16.4253 36.5285 16.371L36.5135 16.333L36.7083 16.2151Z" fill="var(--fill-0, black)"/>
<path d="M11.095 32.6198C11.4526 32.8955 11.3278 34.1179 11.3261 34.5706C11.3267 34.8818 11.3486 36.0463 11.2939 36.281L11.2241 36.2575C11.1052 35.3863 11.2816 33.9193 11.1528 33.0031C11.1335 32.8658 11.1115 32.7744 11.095 32.6198Z" fill="var(--fill-0, black)"/>
<path d="M41.3135 2.11257C41.3139 2.06952 41.3395 2.0195 41.3564 1.97623C41.36 2.06437 41.3471 2.20552 41.3987 2.24734C41.8073 2.57766 41.4233 4.19481 41.6381 4.51521C41.4965 4.50218 41.3692 4.5092 41.2277 4.51317C41.2806 4.47864 41.3382 4.42914 41.3884 4.38898C41.3722 4.18497 41.4068 3.62615 41.4071 3.35925C41.4076 2.86836 41.3345 2.56428 41.3135 2.11257Z" fill="var(--fill-0, black)"/>
<path d="M73.1459 36.4716C73.206 36.0655 73.244 33.338 73.081 33.1117C73.0124 33.5334 72.9373 36.1558 73.1459 36.4716Z" fill="var(--fill-0, black)"/>
<path d="M66.391 41.7943C66.2811 41.6149 66.3439 40.616 66.383 40.3807L66.4935 40.306C66.6849 40.3235 66.7197 40.3176 66.9015 40.2549L66.9464 40.2392C66.8188 40.6407 66.8381 41.2719 66.8446 41.6926L66.7143 41.6502C66.5947 41.4132 66.658 40.7076 66.4655 40.6285C66.3695 41.0333 66.3867 41.3828 66.391 41.7943Z" fill="var(--fill-0, black)"/>
<path d="M11.2399 25.3506C11.188 25.2103 11.194 25.2715 11.2324 25.112C11.5531 25.3695 11.2767 28.8694 11.3634 29.491C11.3908 29.6873 11.3764 30.6102 11.3289 30.7755L11.2572 30.8255C11.1714 30.6661 11.2036 30.6457 11.2065 30.4386L11.2458 30.4619L11.2909 30.4194C11.3346 29.6392 11.3779 25.7934 11.2399 25.3506Z" fill="var(--fill-0, black)"/>
<path d="M46.6695 19.7162C47.1716 19.7674 48.237 19.828 48.6784 19.9012C48.3755 20.0066 47.0831 20.0813 46.7352 20.0611C46.6426 19.9097 46.6728 19.9176 46.6695 19.7162Z" fill="var(--fill-0, black)"/>
<path d="M45.7815 31.4447C45.8528 31.86 45.8236 33.0672 45.8235 33.5616L45.8208 37.6854C45.8205 38.0182 45.7514 39.2435 45.9322 39.4505L45.9186 39.6657C45.7331 39.5411 45.7727 39.2507 45.7695 39.0422C45.8112 36.5392 45.7046 33.9228 45.7815 31.4447Z" fill="var(--fill-0, black)"/>
<path d="M46.9595 16.2439C47.153 16.2337 48.5695 16.3151 48.6884 16.4017L48.6754 16.4542C48.0608 16.4809 47.1698 16.6493 46.6558 16.6035L47.1649 16.5167C47.0996 16.4344 46.9412 16.4402 46.8071 16.4196C46.8364 16.3938 46.9287 16.2803 46.9595 16.2439Z" fill="var(--fill-0, black)"/>
<path d="M72.31 38.1298C72.3347 39.2904 72.3374 40.4513 72.3192 41.612L72.2618 41.6383L72.2124 41.5711C72.2076 41.0946 72.1235 38.3531 72.31 38.1298Z" fill="var(--fill-0, black)"/>
<path d="M42.9873 3.76041C42.9873 3.43159 42.921 2.13813 43.0074 1.95579L43.1643 1.91999C43.1817 2.48825 43.2119 3.08311 43.1777 3.64869C43.0992 3.80412 43.0792 4.00028 43.0471 4.17126L43.0006 3.95454L43.0451 4.04917C42.9828 3.94827 42.993 3.8834 42.9873 3.76041Z" fill="var(--fill-0, black)"/>
<path d="M36.1142 34.299L36.1866 34.29L36.1759 34.4302C35.0171 34.4849 33.4551 34.5127 32.3106 34.42C33.0714 34.2973 35.7775 34.4806 36.1142 34.299Z" fill="var(--fill-0, black)"/>
<path d="M50.7161 13.335C50.6967 12.864 50.582 11.952 50.8659 11.6107C50.9493 12.0844 50.9517 13.1492 50.8298 13.6088L50.7811 13.6348C50.7421 13.5128 50.735 13.4624 50.7161 13.335Z" fill="var(--fill-0, black)"/>
<path d="M26.7757 24.493C26.0458 24.4716 24.8915 24.4239 24.1821 24.518C24.5464 24.6832 26.4857 24.7499 26.7757 24.493Z" fill="var(--fill-0, black)"/>
<path d="M12.3322 33.1527C12.4264 33.6311 12.4879 35.9313 12.3569 36.3496C12.1869 36.0422 12.3118 33.6028 12.3322 33.1527Z" fill="var(--fill-0, black)"/>
<path d="M48.178 34.3786C48.9578 34.3656 50.9059 34.2897 51.5902 34.3917C51.2463 34.6193 48.5191 34.3265 48.1828 34.5109L48.178 34.3786Z" fill="var(--fill-0, black)"/>
<path d="M76.8378 24.4977C75.965 24.4578 75.091 24.4577 74.2187 24.4975C74.4804 24.7028 76.5976 24.7082 76.8378 24.4977Z" fill="var(--fill-0, black)"/>
<path d="M49.0816 19.1384C49.0301 18.7019 49.0079 17.1228 49.1324 16.7497L49.2709 16.7089C49.0252 17.2311 49.4681 18.6832 49.0816 19.1384Z" fill="var(--fill-0, black)"/>
<path d="M45.2932 16.2322C45.8602 16.2268 46.3918 16.2238 46.9595 16.2439C46.9287 16.2803 46.8364 16.3938 46.8071 16.4196C46.4296 16.4211 45.1457 16.4504 44.8641 16.3389C44.9749 16.2434 45.1229 16.2554 45.2932 16.2322Z" fill="var(--fill-0, black)"/>
<path d="M9.77561 24.4966C8.90978 24.465 8.04455 24.4431 7.17958 24.5048C7.4587 24.6901 9.52641 24.7118 9.77561 24.4966Z" fill="var(--fill-0, black)"/>
<path d="M40.1128 27.1696L40.181 27.0607C40.6061 27.1592 40.7701 27.9979 40.1336 28.0863C40.118 27.8055 40.1272 27.4722 40.1128 27.1696Z" fill="var(--fill-0, black)"/>
<path d="M41.2277 4.51317C41.2164 3.84942 41.1659 2.71493 41.3135 2.11257C41.3345 2.56428 41.4076 2.86836 41.4071 3.35925C41.4068 3.62615 41.3722 4.18497 41.3884 4.38898C41.3382 4.42914 41.2806 4.47864 41.2277 4.51317Z" fill="var(--fill-0, black)"/>
<path d="M53.8751 30.4549C53.8987 30.2796 53.8927 30.1097 53.9871 29.9846C54.149 30.2128 54.06 32.2436 54.0793 32.6942L54.0233 32.6943C54.0195 32.1934 54.0351 31.0968 53.9756 30.6463C53.8758 31.269 53.9906 32.1622 53.8876 32.7294L53.8784 32.7772C53.8403 32.1162 53.873 31.1393 53.8751 30.4549Z" fill="var(--fill-0, black)"/>
<path d="M78.1246 38.0465C78.2152 38.0378 78.2404 38.0189 78.3074 38.054C78.1374 38.2715 78.1396 41.7872 78.3128 42.0133C78.3283 42.1388 78.3524 42.2287 78.3117 42.3468C78.2045 42.3163 78.209 42.3189 78.12 42.2517C78.1484 40.9206 78.1723 39.371 78.1246 38.0465Z" fill="var(--fill-0, black)"/>
<path d="M40.0502 34.2963C40.2421 34.3695 41.4128 34.2812 41.822 34.3174C41.6316 34.3394 40.8712 34.356 40.7992 34.4132C40.9763 34.4659 41.0635 34.4796 41.2463 34.5058C41.078 34.511 40.8299 34.4969 40.6975 34.5806L40.6837 34.6699C40.5166 34.6828 40.2976 34.7135 40.1443 34.666C40.0208 34.526 40.0609 34.5307 40.0502 34.2963Z" fill="var(--fill-0, black)"/>
<path d="M72.3084 38.0603L72.31 38.1298C72.1235 38.3531 72.2076 41.0946 72.2124 41.5711L72.2618 41.6383L72.3192 41.612C72.3261 41.8824 72.3176 42.0868 72.302 42.3538L72.1956 42.2196C72.1484 41.7041 72.0985 38.5303 72.1881 38.1292L72.3084 38.0603Z" fill="var(--fill-0, black)"/>
<path d="M59.8532 24.4964C59.0742 24.4604 58.2935 24.4622 57.5145 24.5016C57.7751 24.6961 59.6141 24.7078 59.8532 24.4964Z" fill="var(--fill-0, black)"/>
<path d="M42.7359 1.44614L42.862 1.67465C42.9424 1.8201 43.0182 1.8467 43.1643 1.91999L43.0074 1.95579C42.921 2.13813 42.9873 3.43159 42.9873 3.76041L42.938 3.75237C42.9407 3.40388 42.9521 2.80999 42.8817 2.4824C42.8151 2.80146 42.8241 3.40463 42.8183 3.75473L42.7704 3.75398C42.7822 3.11157 42.8374 2.0418 42.7359 1.44614Z" fill="var(--fill-0, black)"/>
<path d="M42.9873 3.76041C42.993 3.8834 42.9828 3.94827 43.0451 4.04917L43.0006 3.95454L43.0471 4.17126C43.0792 4.00028 43.0992 3.80412 43.1777 3.64869C43.1766 3.87977 43.2304 4.27898 43.1181 4.43211C42.9771 4.56046 42.7156 4.54679 42.5144 4.55907L42.7058 4.45634C42.8051 4.29324 42.7643 3.97857 42.7704 3.75398L42.8183 3.75473L42.8615 3.97954L42.9099 3.99546L42.938 3.75237L42.9873 3.76041Z" fill="var(--fill-0, black)"/>
<path d="M44.6841 32.5623L44.809 32.6471C44.943 32.9332 44.8196 33.8116 44.7803 34.1591L44.6954 34.1145C44.6443 33.8707 44.6229 32.7995 44.6841 32.5623Z" fill="var(--fill-0, black)"/>
<path d="M72.1953 33.3491C72.192 33.1252 72.1583 32.8136 72.2655 32.6302C72.3642 33.2402 72.347 35.1748 72.3197 35.8747L72.2617 35.9007C72.1813 35.7953 72.2145 35.7325 72.2183 35.5695C72.333 35.2706 72.3228 34.1945 72.2183 33.8933C72.2118 33.7119 72.2044 33.5305 72.1953 33.3491Z" fill="var(--fill-0, black)"/>
<path d="M75.0969 40.8088C75.0991 40.7515 75.1078 40.6857 75.1084 40.629C75.1175 40.1493 75.854 40.239 76.2518 40.2928C76.0062 40.3235 75.9221 40.2937 75.7478 40.4285C75.6116 40.8516 75.4658 40.5671 75.0969 40.8088Z" fill="var(--fill-0, black)"/>
<path d="M35.2008 19.2522C35.2321 18.809 35.3203 17.5917 35.1458 17.2179C35.0928 17.5357 34.9942 19.0529 35.2008 19.2522Z" fill="var(--fill-0, black)"/>
<path d="M50.4236 21.3246C50.7533 21.7134 50.6357 21.481 50.8583 21.5931C50.7796 21.6468 50.6937 21.6811 50.6982 21.7788C50.7068 21.9667 50.6609 22.4851 50.6709 22.6455L50.4808 22.7352C50.5591 22.4259 50.5198 21.656 50.4236 21.3246Z" fill="var(--fill-0, black)"/>
<path d="M27.2747 26.4628C27.0841 26.7413 27.0497 28.2225 27.2725 28.4603C27.2985 27.8149 27.2872 27.1093 27.2747 26.4628Z" fill="var(--fill-0, black)"/>
<path d="M41.7285 24.4549C42.0155 24.4598 42.3025 24.4672 42.5895 24.4767L42.5868 24.7599C42.2649 24.8263 42.0576 24.7712 41.7477 24.6873L41.7285 24.4549Z" fill="var(--fill-0, black)"/>
<path d="M77.5568 43.7712C77.8018 43.7816 78.1439 43.7424 78.2961 43.8548C78.2999 43.9835 78.3015 44.1123 78.3004 44.2411C78.2511 44.1999 78.1802 44.1964 78.1271 44.2327C78.0735 44.269 78.0511 44.3362 78.0715 44.3974L77.9878 44.4346C77.9953 44.2549 77.9702 44.1632 77.9337 43.9884C77.8603 43.9284 77.6495 43.8216 77.5568 43.7712Z" fill="var(--fill-0, black)"/>
<path d="M51.2718 24.7887C51.5263 24.9586 51.945 25.1707 51.9557 25.448C51.9584 25.5176 51.9943 25.6699 52.0222 25.7356L51.7895 25.6818C51.7826 25.5481 51.7874 25.5379 51.708 25.4371L51.5826 25.4543C51.5842 25.0966 51.5091 25.0589 51.2718 24.7887Z" fill="var(--fill-0, black)"/>
<path d="M72.3111 36.3709C72.0093 36.0232 72.2006 34.3055 72.1518 33.7661C72.1416 33.6554 72.1524 33.4548 72.1953 33.3491C72.2044 33.5305 72.2118 33.7119 72.2183 33.8933C72.2167 34.4323 72.2011 35.0356 72.2183 35.5695C72.2145 35.7325 72.1813 35.7953 72.2617 35.9007L72.3197 35.8747C72.3176 36.035 72.3192 36.2126 72.3111 36.3709Z" fill="var(--fill-0, black)"/>
<path d="M50.6709 22.6455C50.6609 22.4851 50.7068 21.9667 50.6982 21.7788C50.6937 21.6811 50.7796 21.6468 50.8583 21.5931C50.9346 21.8326 50.8931 22.3888 50.8839 22.6675L50.6709 22.6455Z" fill="var(--fill-0, black)"/>
<path d="M24.5514 43.7015C24.7289 43.8943 24.6773 43.8118 24.7355 44.0907C24.5968 44.0909 24.4631 44.0748 24.3252 44.0615C24.1924 43.9395 23.9746 43.9297 23.7896 43.9013C24.1328 43.8941 24.307 43.9286 24.5514 43.7015Z" fill="var(--fill-0, black)"/>
<path d="M45.7275 39.0281L45.7695 39.0422C45.7727 39.2507 45.7331 39.5411 45.9186 39.6657C45.9223 39.8597 45.9007 39.7843 46.0007 39.9519C45.8538 39.9681 45.8349 39.9614 45.6952 39.9111C45.5924 39.7528 45.6238 39.7823 45.6157 39.5703C45.7562 39.455 45.7268 39.1969 45.7275 39.0281Z" fill="var(--fill-0, black)"/>
<path d="M42.8183 3.75473C42.8241 3.40463 42.8151 2.80146 42.8817 2.4824C42.9521 2.80999 42.9407 3.40388 42.938 3.75237L42.9099 3.99546L42.8615 3.97954L42.8183 3.75473Z" fill="var(--fill-0, black)"/>
<path d="M44.167 25.8769C44.0208 25.8922 43.9121 25.8781 43.8075 25.7749C44.0357 25.6456 45.318 25.7141 45.6418 25.7233C45.2104 25.7912 44.3684 25.6964 44.167 25.8769Z" fill="var(--fill-0, black)"/>
<path d="M72.2183 35.5695C72.333 35.2706 72.3228 34.1945 72.2183 33.8933C72.2167 34.4323 72.2011 35.0356 72.2183 35.5695Z" fill="var(--fill-0, black)"/>
<path d="M26.9088 45.008C27.3095 44.955 27.3889 44.9463 27.7982 44.9731L27.8254 44.9752C27.6871 44.9925 27.4515 44.9956 27.3699 45.0754L27.4226 45.1329C27.2036 45.1424 27.1189 45.1525 26.9068 45.1019L26.9088 45.008Z" fill="var(--fill-0, black)"/>
<path d="M39.046 16.2312C39.3957 16.2235 39.6908 16.218 40.0365 16.2982C39.905 16.3425 39.7766 16.4056 39.6488 16.3757C39.5398 16.3085 39.1919 16.2584 39.046 16.2312Z" fill="var(--fill-0, black)"/>
<path d="M78.0715 44.3974C78.0511 44.3362 78.0735 44.269 78.1271 44.2327C78.1802 44.1964 78.2511 44.1999 78.3004 44.2411C78.3476 44.2803 78.3648 44.345 78.3433 44.4024C78.3224 44.4599 78.2666 44.4975 78.2055 44.4964C78.1444 44.4953 78.0903 44.4555 78.0715 44.3974Z" fill="var(--fill-0, black)"/>
<path d="M75.1622 17.2013L76.1836 17.3403C76.264 17.7738 76.3423 18.2488 76.4366 18.6761C77.0017 19.2399 77.6344 19.7387 78.2445 20.2426C78.7147 20.631 79.1297 20.9918 79.3624 21.5707C79.556 22.0539 79.5983 22.5841 79.742 23.0818C79.8042 23.2733 80.3312 23.8932 80.306 24.0534C80.2529 24.3932 79.765 24.6623 79.5211 25.0199C79.3844 25.9538 79.4541 28.7764 79.4573 29.8476L79.4557 38.8697C79.4557 39.3988 79.4998 41.8849 79.4462 42.2732L79.3926 42.2191C79.3159 41.3936 79.3722 39.6877 79.3722 38.7598L79.3716 27.076C79.37 26.3675 79.3502 25.6008 79.3759 24.8906C79.3883 24.558 79.6885 24.4638 79.792 24.2424C80.0584 23.7185 79.5148 23.6517 79.4253 23.3596C79.3352 23.0641 79.5899 23.0516 79.4403 22.5577L79.444 22.5906C79.2687 22.0807 79.0666 21.5909 78.8644 21.0917L78.8296 21.1015L78.8339 21.3493C78.7368 21.2733 78.5942 20.8332 78.4806 20.8C78.2195 20.7234 78.1578 20.7005 77.9192 20.5424C77.8972 20.4707 77.8179 20.2253 77.7605 20.218C77.2335 20.2333 76.9767 19.5079 76.7376 19.3696C75.7028 18.7705 76.5397 17.7748 75.2304 17.673C75.135 17.8573 75.1774 18.7176 74.9736 18.9204C74.2134 19.6774 73.4794 20.4112 72.5921 21.0241C72.3964 21.1593 72.1883 21.7457 71.8795 21.9329C72.1256 20.5339 74.0626 19.8322 74.7928 18.6559C74.9671 18.3756 75.048 17.6005 75.1622 17.2013Z" fill="var(--fill-0, black)"/>
<path d="M22.9415 20.2954C23.5057 19.7596 24.3082 19.1875 24.7184 18.5518C25.0189 18.0861 24.7025 16.9069 25.7323 17.3508C26.1874 18.0237 25.937 18.2093 26.3197 18.7287C26.5817 19.0072 26.9715 19.3748 27.2726 19.6018C28.5668 20.5772 29.2985 21.3426 29.5576 22.9906C29.6525 23.5944 30.1656 23.8388 29.6536 24.4872C29.7627 23.5443 29.4742 23.8028 29.0581 23.0045C28.8829 22.6684 29.0318 21.7555 28.8612 21.472C28.3589 20.6373 27.2464 20.2833 26.7869 19.4316L26.5576 19.4319C26.3923 19.289 26.1478 19.01 26.021 18.8316C25.5951 18.2327 26.1261 18.0747 25.2785 17.6974C25.0678 17.9323 25.1388 18.263 25.037 18.4598C24.7733 18.9694 23.4291 20.2917 22.9415 20.2954ZM29.1822 23.123C29.2052 22.9259 29.2568 22.675 29.1849 22.499L29.0857 22.4215C29.0619 22.6571 29.058 22.9096 29.1822 23.123Z" fill="var(--fill-0, black)"/>
<path d="M29.0857 22.4215L29.1849 22.499C29.2568 22.675 29.2052 22.9259 29.1822 23.123C29.058 22.9096 29.0619 22.6571 29.0857 22.4215Z" fill="var(--fill-0, black)"/>
<path d="M33.9401 16.4438C33.5028 15.8214 33.1147 15.4962 32.8278 14.7494C32.3662 13.5483 32.16 12.6566 32.4822 11.3923C32.5308 12.0669 32.4241 12.918 32.6175 13.5121L32.6677 13.5144L32.7623 13.2094L32.8098 13.2469C32.8492 13.7181 32.7889 14.475 33.1159 14.7921L33.0974 14.9377L33.2347 14.8171L33.1679 14.8404L33.2329 14.8205C33.5926 15.3993 33.865 15.902 34.2615 16.4658L34.2603 16.4086C34.3558 16.5533 34.3879 16.5637 34.3483 16.776L34.2643 16.8259C34.1645 17.5805 34.1556 18.6632 34.283 19.4136C34.4053 18.7809 34.3724 17.9317 34.3648 17.2699C34.4917 17.4548 34.4583 19.3262 34.3194 19.5852C34.2262 19.5201 34.2318 19.523 34.1904 19.4152C34.1004 19.517 34.163 19.7917 34.1382 19.8246C33.964 20.0556 33.3785 20.4816 33.1331 20.5979C32.7783 20.7658 32.7945 21.2607 32.3704 21.5547C32.7829 19.7041 33.9476 20.4767 33.9766 19.208C33.9939 18.4543 34.0092 17.191 33.9401 16.4438Z" fill="var(--fill-0, black)"/>
<path d="M33.349 6.87756C33.5307 6.84046 33.8183 6.81231 33.9792 6.90432C34.0051 7.05578 34.0068 7.11331 34.0957 7.24461L34.2824 7.2C34.4968 7.40947 34.339 7.60967 34.6005 7.89431C35.2015 8.02894 38.1669 5.95957 38.7609 5.5002C39.3812 5.02045 39.9816 5.06335 40.0168 4.1838C40.0444 3.4941 39.9448 2.53541 40.0791 1.89101L40.0903 1.83978C40.1457 2.52342 40.2212 4.17583 40.0632 4.81084C40.0608 4.82044 40.0587 4.83003 40.0563 4.83958C39.965 5.19692 36.5526 7.33197 36.0317 7.63103C35.7085 7.81659 34.9235 8.25811 34.5619 8.15034C34.4625 8.1207 34.4323 8.0777 34.3604 8.00575C34.3307 7.86999 34.3084 7.77086 34.2647 7.63661C34.1391 7.73499 34.242 7.85117 34.0807 7.99213C33.925 7.85788 33.9723 7.37679 33.8662 7.2627C33.8395 7.23391 33.5844 7.21193 33.5122 7.20689L33.3303 7.46472C33.3623 7.22276 33.3599 7.12312 33.349 6.87756Z" fill="var(--fill-0, black)"/>
<path d="M58.1161 18.2749C58.1263 17.9291 58.0793 17.5263 58.3163 17.29C58.4863 17.2193 59.2385 17.3252 59.2637 17.5562C59.3103 17.9745 59.3382 18.3134 59.4958 18.714C59.9172 19.0523 60.3177 19.4207 60.7295 19.765C61.7391 20.6093 62.5679 21.0265 62.7245 22.4556C62.7406 22.6046 62.7543 22.7537 62.7666 22.9031C62.654 22.7953 62.5468 22.3394 62.4916 22.1562L62.5066 22.3749C62.4299 22.083 62.3146 21.5089 62.1329 21.3047L62.1018 21.4235L62.0203 21.4261C61.7747 21.252 61.7694 21.0799 61.6686 20.7742C61.5892 20.7157 61.5807 20.7068 61.4836 20.67C60.778 20.4016 60.0532 19.5927 59.509 19.0841C59.2061 18.8012 59.123 18.1934 59.1498 17.8036L58.434 17.757C58.1756 17.8821 58.2935 18.0403 58.1161 18.2749Z" fill="var(--fill-0, black)"/>
<path d="M12.5249 28.0209C12.3642 28.0174 12.2291 28.0305 12.0873 27.9615C11.9976 27.3598 11.9955 25.676 12.3006 25.123L12.3996 25.1213C12.3996 25.6059 12.3812 27.6925 12.5249 28.0209Z" fill="var(--fill-0, black)"/>
<path d="M49.9637 6.95259C50.2384 6.92101 50.6039 6.90675 50.8864 6.88782C50.9498 7.19198 51.0186 7.46011 51.0162 7.77198L50.8859 7.72025L50.8518 7.52648L50.7322 7.78121C50.6875 7.66787 50.6554 7.64154 50.5552 7.57388C50.2137 7.55302 50.101 7.68835 49.9505 7.96275L49.7702 7.99658C49.8166 7.61816 49.8812 7.32537 49.9637 6.95259Z" fill="var(--fill-0, black)"/>
<path d="M32.8901 7.33131L33.022 7.24365C33.081 7.32412 33.0947 7.34262 33.1392 7.43087C33.1059 7.72554 33.0386 8.75145 33.1908 8.97015L33.2814 9.00362C33.33 9.37105 33.0163 10.0582 32.8389 10.2932C32.9746 9.59258 32.9289 8.0876 32.8901 7.33131ZM33.048 8.75113C33.0538 8.4911 33.1027 7.7613 32.9876 7.57751C32.9854 7.82462 32.9504 8.57823 33.048 8.75113Z" fill="var(--fill-0, black)"/>
<path d="M33.048 8.75113C33.0538 8.4911 33.1027 7.7613 32.9876 7.57751C32.9854 7.82462 32.9504 8.57823 33.048 8.75113Z" fill="var(--fill-0, black)"/>
<path d="M51.4689 20.7371C51.8716 21.3258 52.1332 22.6235 51.9262 23.2922C51.878 23.4766 51.9375 23.5212 51.8271 23.7315L51.8265 23.6889L51.7129 23.6547C51.6753 23.5213 51.6544 23.335 51.6335 23.1943C51.7611 23.0087 51.8126 22.0363 51.6534 21.8758L51.5424 21.9631C51.5279 21.8401 51.6501 21.4295 51.6394 21.3667C51.5992 21.1262 51.4775 21.0496 51.4689 20.7371Z" fill="var(--fill-0, black)"/>
<path d="M54.2944 24.4463C54.6499 24.6839 54.8338 24.7488 54.9217 25.167C54.8756 25.3592 54.919 25.2958 54.7646 25.4077C54.4333 25.4678 54.2006 25.2582 53.9218 25.0727C54.1255 25.0045 54.2832 24.6595 54.2944 24.4463Z" fill="var(--fill-0, black)"/>
<path d="M51.5713 11.1812C51.6952 11.454 51.6782 11.604 51.9297 11.8131L51.949 11.9359L51.7994 11.8629L51.7351 11.9086C51.7066 12.1445 51.6595 12.6811 51.815 12.8534L51.9452 12.8155C51.8991 13.166 51.7295 13.2188 51.6351 13.7474C51.6298 13.0625 51.6201 11.826 51.5713 11.1812Z" fill="var(--fill-0, black)"/>
<path d="M34.283 19.4136C34.1556 18.6632 34.1645 17.5805 34.2643 16.8259L34.3483 16.776L34.3648 17.2699C34.3724 17.9317 34.4053 18.7809 34.283 19.4136ZM34.2979 18.7187C34.3195 18.4645 34.3864 17.811 34.2616 17.6039C34.2567 17.8514 34.2251 18.5255 34.2979 18.7187Z" fill="var(--fill-0, black)"/>
<path d="M34.2979 18.7187C34.3195 18.4645 34.3864 17.811 34.2616 17.6039C34.2567 17.8514 34.2251 18.5255 34.2979 18.7187Z" fill="var(--fill-0, black)"/>
<path d="M32.8901 7.33131C32.8835 7.10918 32.8547 6.98999 33.0668 6.893C33.1838 6.91177 33.2359 6.91472 33.349 6.87756C33.3599 7.12312 33.3623 7.22276 33.3303 7.46472C33.2745 7.76464 33.295 8.19715 33.278 8.51412C33.0767 8.29618 33.2204 7.8133 33.1392 7.43087C33.0947 7.34262 33.081 7.32412 33.022 7.24365L32.8901 7.33131Z" fill="var(--fill-0, black)"/>
<path d="M4.3543 23.217C4.35349 22.9664 4.29966 22.4261 4.48699 22.266L4.55691 22.3459L4.68247 22.3016L4.75035 22.5372C4.67963 22.9008 4.71357 23.0528 4.3543 23.217Z" fill="var(--fill-0, black)"/>
<path d="M51.9452 12.8155L51.815 12.8534C51.6595 12.6811 51.7066 12.1445 51.7351 11.9086L51.7994 11.8629L51.949 11.9359L51.9452 12.8155Z" fill="var(--fill-0, black)"/>
<path d="M51.5424 21.9631L51.6534 21.8758C51.8126 22.0363 51.7611 23.0087 51.6335 23.1943C51.5815 22.8166 51.5654 22.3502 51.5424 21.9631Z" fill="var(--fill-0, black)"/>
<path d="M33.1392 7.43087C33.2204 7.8133 33.0767 8.29618 33.278 8.51412C33.2809 8.67437 33.2873 8.84428 33.2814 9.00362L33.1908 8.97015C33.0386 8.75145 33.1059 7.72554 33.1392 7.43087Z" fill="var(--fill-0, black)"/>
<path d="M83.9117 46.0513C84.0726 46.0633 84.2694 46.0514 84.3788 46.1494C84.2737 46.2426 84.0485 46.229 83.894 46.2338L83.9117 46.0513Z" fill="var(--fill-0, black)"/>
</g>
</svg>
