<svg preserveAspectRatio="none" width="100%" height="100%" overflow="visible" style="display: block;" viewBox="0 0 63.2652 63.2676" fill="none" xmlns="http://www.w3.org/2000/svg">
<g id="Vector">
<path d="M14.3881 0.0547121C16.8647 -0.0522119 19.8821 0.0306086 22.3998 0.0302471L44.8762 0.0280782C45.6844 0.0281184 48.8149 -0.107421 49.3058 0.329479C51.1266 1.95003 52.9344 3.61007 54.8054 5.17822C54.9218 5.27574 55.1236 5.58245 55.2095 5.71357C55.2982 6.61032 55.283 9.37967 55.2224 10.3027C56.2699 10.327 58.6639 10.1735 59.4668 10.5775C59.8739 11.0236 59.7593 12.6975 59.7586 13.3151L59.7404 17.1577C60.4945 17.1574 62.3888 17.0537 62.9565 17.3616C63.3647 17.583 63.3391 21.5948 63.0489 21.7873C62.5409 22.1243 60.4037 22.0027 59.7506 21.9721C59.715 24.3624 59.75 26.836 59.7504 29.2337L59.7518 43.5217C60.2243 43.4989 62.2775 43.3416 62.303 43.9373C62.3627 45.3293 62.6871 49.3708 62.0696 50.4514C61.4052 50.5123 60.4063 50.5771 59.771 50.3846C59.6123 53.6845 59.85 57.1562 59.7545 60.4721C59.7357 61.1265 59.8542 62.6144 59.4507 63.1096C58.6779 63.3777 50.3207 63.2236 49.0048 63.2234L8.39997 63.2265C7.28716 63.2278 4.55147 63.3078 3.64145 63.0794C3.45978 62.1658 3.52662 59.8047 3.5274 58.7182L3.52229 50.4669C2.94591 50.4808 1.64571 50.5339 1.15352 50.3629C0.739069 49.9172 0.76265 44.3763 1.05946 43.719C1.19189 43.4257 2.95344 43.5225 3.50918 43.5478C3.57968 41.2725 3.53275 38.7958 3.53244 36.4978L3.54102 22.014C2.27137 21.9149 1.48023 22.1008 0.08067 21.8375C0.0720486 21.7528 0.0653884 21.6681 0.0606961 21.5832C0.0333058 21.067 0.0793913 20.4344 0.0437545 19.9403C-0.21061 16.4135 0.604715 17.172 3.52849 17.1715C3.53133 16.0397 3.37776 11.2694 3.73145 10.5922C4.19959 10.17 7.35945 10.3225 8.12339 10.3206C8.01971 9.70432 7.97546 6.34967 8.17166 5.62796C8.26222 5.46531 8.6287 4.97975 8.76672 4.89575C9.63549 4.36722 13.7294 0.245909 14.3881 0.0547121ZM22.0032 43.5267C22.9057 43.4867 23.992 43.4122 24.8221 43.77C24.8682 44.5914 25.0095 49.7801 24.6559 50.1719C24.5548 50.2838 24.417 50.3792 24.2973 50.4709C23.6132 50.4914 22.6499 50.5688 22.018 50.3798C21.9109 54.0638 22.0157 58.0156 21.9961 61.7248L31.6683 61.7384C34.6974 61.7378 38.2934 61.642 41.2749 61.7449C41.2927 58.1416 41.3618 54.0595 41.2745 50.4693C40.425 50.484 39.2859 50.6114 38.5832 50.1585C38.2974 49.7117 38.3822 44.5601 38.4442 43.7336C39.3904 43.4289 40.2712 43.4912 41.2634 43.5523C41.2889 41.7849 41.297 40.0172 41.2879 38.2496C41.2877 34.2135 41.4107 31.924 38.4012 28.6755C36.8468 26.9976 33.9046 25.8799 31.6436 25.8299L31.5058 25.8273C29.1635 25.9395 26.175 27.1492 24.6244 28.9478C21.8278 32.1916 21.9911 34.2566 21.9954 38.1451L22.0032 43.5267ZM4.86775 43.5289C5.65445 43.4859 7.24961 43.5087 8.06262 43.5517C8.01241 41.2944 8.05693 38.9158 8.05278 36.643C8.0497 34.9636 8.00251 32.9105 8.075 31.2514C8.20131 31.0499 8.31798 30.8501 8.47233 30.6692C10.9302 30.5629 13.4471 30.6657 15.9103 30.6474C16.2945 30.6445 16.6868 30.6564 17.0707 30.6736C17.2347 30.7945 17.4542 30.9454 17.5926 31.0866C17.7119 32.3418 17.6587 35.1113 17.6403 36.5013C17.611 38.7039 17.7188 41.3557 17.6181 43.5122C18.541 43.5189 19.7474 43.4938 20.6472 43.5525C20.692 41.8193 20.7057 39.4807 20.6649 37.7761C20.5628 33.5057 21.0445 30.4084 24.31 27.3379C26.2544 25.5095 29.132 24.4264 31.8181 24.5086C34.7806 24.5838 37.5889 25.8453 39.6127 28.0101C43.1018 31.7343 42.6244 35.667 42.6146 40.3567C42.616 41.4074 42.6052 42.4813 42.6194 43.5298C43.4023 43.4881 44.8072 43.5118 45.622 43.5472C45.5726 43.0044 45.6121 42.2598 45.6133 41.6967L45.6064 33.7645C45.6056 32.9926 45.5698 31.6618 45.683 30.9399C45.8347 30.8599 46.1545 30.6917 46.3209 30.683C48.6727 30.561 51.0476 30.6616 53.4036 30.6445C53.8758 30.6411 54.3521 30.652 54.8203 30.6838L55.2129 31.174C55.3016 32.6806 55.2585 34.5404 55.2577 36.067L55.249 43.5158C56.2444 43.5199 57.4192 43.497 58.3997 43.5515C58.558 36.4516 58.3397 29.1359 58.427 22.0085C54.1095 21.9073 49.4485 21.9908 45.1029 21.9907L9.88127 21.9928C8.61926 21.9939 6.0485 22.0712 4.87397 21.9716C4.81741 24.0419 4.84305 26.1858 4.86079 28.259C4.90429 33.3419 4.80208 38.4491 4.86775 43.5289ZM46.9075 61.7176C49.1695 61.7547 51.6056 61.6735 53.824 61.741C53.9169 60.0325 53.8371 57.6415 53.8442 55.8798C53.8504 54.3556 53.9183 51.9207 53.819 50.4557C52.9212 50.4966 47.5859 50.5504 46.972 50.3852C46.8798 52.9847 46.9872 55.6985 46.9473 58.3081C46.931 59.3792 46.9974 60.6728 46.9075 61.7176ZM9.44311 43.5207C11.3766 43.4669 13.3482 43.5678 15.2853 43.5289C15.6287 43.522 15.9839 43.531 16.3264 43.5541L16.3242 36.023C16.325 34.7957 16.374 33.3241 16.324 32.122C14.8643 32.1025 13.4043 32.0999 11.9445 32.1145C11.3531 32.1173 9.98991 32.1715 9.48106 32.0597C9.37075 35.8217 9.51902 39.7349 9.44311 43.5207ZM9.43555 61.7272L16.3282 61.7324C16.224 59.1216 16.3624 56.3268 16.3228 53.6976C16.308 52.709 16.3829 51.4108 16.3025 50.4559C15.4589 50.5015 10.0129 50.5573 9.47156 50.3886C9.36995 54.1316 9.52491 57.9818 9.43555 61.7272ZM55.2238 61.7075C56.2835 61.728 57.3435 61.7401 58.4035 61.7438C58.4715 58.243 58.4907 53.9629 58.41 50.4646C57.6515 50.4771 55.9195 50.5559 55.279 50.3879C55.1927 52.9881 55.293 55.6862 55.2568 58.2951C55.2417 59.3834 55.3031 60.6402 55.2238 61.7075ZM14.5899 1.64987C13.4134 2.53424 12.4265 3.67485 11.2578 4.57633C11.065 4.72506 10.8915 4.84139 10.7097 5.00967L10.7024 5.1088C11.0695 5.33558 13.6507 5.25298 14.2377 5.25265L47.2315 5.25071C48.6004 5.25064 51.5253 5.32541 52.7909 5.19535C52.4093 4.87413 52.0172 4.56622 51.6295 4.25148C50.6073 3.42171 49.7216 2.42564 48.6721 1.63725C47.8947 1.50273 46.5795 1.53299 45.7599 1.53242L19.7622 1.53281C18.0334 1.53339 16.3116 1.49248 14.5899 1.64987ZM53.8246 32.1031L49.5398 32.1097C48.7826 32.1121 47.6856 32.1599 46.9705 32.0645C46.8536 35.7814 46.9739 39.7715 46.9375 43.5179L51.8345 43.5292C52.09 43.5298 53.6456 43.5501 53.8291 43.5211C53.8477 41.131 53.8535 38.741 53.8465 36.351C53.8466 35.0823 53.8964 33.3201 53.8246 32.1031ZM42.6568 50.38C42.5573 51.3312 42.6107 53.1484 42.6111 54.1624L42.612 61.7253L45.6623 61.7361C45.5566 60.8254 45.61 58.8588 45.6107 57.8849L45.6141 50.477C44.9719 50.4832 43.2028 50.5615 42.6568 50.38ZM17.6669 50.4095C17.5345 52.9994 17.6943 55.8494 17.6394 58.4681C17.6184 59.4701 17.6966 60.7301 17.5913 61.7095C18.6043 61.7293 19.6174 61.7405 20.6304 61.7428C20.721 61.0484 20.6807 58.5148 20.6701 57.6985C20.6394 55.317 20.715 52.8312 20.6584 50.4638C20.0218 50.4737 18.213 50.5423 17.6669 50.4095ZM8.01543 61.7221C7.91321 61.1306 7.96127 59.4464 7.96355 58.747L7.98323 53.5787C7.98858 52.5694 8.0329 51.4504 7.96563 50.4573C7.32558 50.4928 5.45009 50.5636 4.90483 50.3799C4.79961 51.3804 4.87156 52.9565 4.85878 54.0056C4.82765 56.5655 4.90329 59.1776 4.8559 61.7336C5.90579 61.7201 6.97329 61.7597 8.01543 61.7221ZM2.29865 44.8302C2.12782 45.3002 2.20641 48.4131 2.19884 49.135C3.319 49.0621 4.96206 49.1125 6.12608 49.1158L12.9449 49.1245L19.921 49.1161C21.0955 49.1175 22.4401 49.0799 23.5926 49.1553C23.5309 47.9561 23.6698 45.8916 23.5405 44.8671C17.0623 44.9557 10.5709 44.8315 4.09142 44.8998C3.6059 44.9048 2.75463 44.9441 2.29865 44.8302ZM39.833 44.8346C39.6059 45.1824 39.7349 48.3978 39.6845 49.1184L53.07 49.1226C55.4492 49.1183 58.6786 49.0221 60.999 49.1426C61.1348 48.9378 61.0954 45.3358 61.0506 44.8542C56.3645 44.9978 51.1865 44.8835 46.4593 44.886L42.2212 44.8932C41.6916 44.8943 40.3101 44.9225 39.833 44.8346ZM1.59719 18.6567C1.44707 18.8993 1.52684 20.1655 1.47243 20.6226C6.33968 20.752 11.5801 20.6487 16.4851 20.6482L46.2035 20.6465C51.3269 20.6463 56.6665 20.5648 61.7635 20.6588C61.7367 19.9825 61.7407 19.3461 61.7463 18.6708C57.4977 18.7725 52.7514 18.6603 48.4589 18.6598L7.67244 18.6615L3.82703 18.6855C3.19979 18.6907 2.17069 18.7305 1.59719 18.6567ZM53.8372 10.3337C53.842 9.22398 53.8895 7.70928 53.8225 6.6294L13.2302 6.60443C12.5607 6.60423 9.98663 6.66983 9.47276 6.59057C9.38836 7.81972 9.46212 9.08355 9.42383 10.3152L41.5531 10.3313C45.5572 10.3309 49.8637 10.2504 53.8372 10.3337ZM4.85195 17.162L58.4162 17.1717C58.4184 15.4223 58.3903 13.5725 58.4311 11.8314C54.0821 11.7404 49.5013 11.816 45.1321 11.8159L10.0654 11.8176C8.61752 11.8188 6.27026 11.8959 4.87464 11.7984C4.82511 13.5769 4.91226 15.4093 4.85195 17.162Z" fill="var(--fill-0, black)"/>
<path d="M12.0702 23.6246C13.0693 23.3385 14.145 23.6112 14.8871 24.3386C15.6292 25.066 15.9234 26.1361 15.6573 27.1406C15.3913 28.1452 14.6061 28.9293 13.6011 29.194C12.7558 29.4167 11.8551 29.2445 11.1515 28.7258C10.2655 28.0725 9.82788 26.9725 10.023 25.8892C10.2181 24.8059 11.012 23.9277 12.0702 23.6246ZM12.0976 25.0486C11.7368 25.2505 11.4728 25.5896 11.3655 25.9889C11.2582 26.3881 11.3166 26.8139 11.5275 27.1694C11.8061 27.6391 12.3133 27.9251 12.8593 27.9207C13.5008 27.9154 14.0713 27.5113 14.2892 26.9079C14.5071 26.3045 14.3265 25.6292 13.8363 25.2152C13.5621 24.9836 13.2153 24.8555 12.8564 24.8532C12.5908 24.8516 12.3294 24.9188 12.0976 25.0486Z" fill="var(--fill-0, black)"/>
<path d="M49.6767 23.5999C51.224 23.2112 52.7932 24.1506 53.1816 25.6979C53.5699 27.2452 52.6302 28.8142 51.0828 29.2022C49.7986 29.5242 48.4599 28.9318 47.8347 27.7648C47.4145 26.9806 47.3793 26.0464 47.7391 25.2327C48.099 24.419 48.8139 23.8166 49.6767 23.5999ZM49.1184 27.315C49.6711 27.7623 49.8529 27.9019 50.591 27.909C51.4062 27.8351 51.9923 26.9906 51.9487 26.1977C51.9165 25.6111 51.4942 25.4254 51.1935 24.9703C50.8924 24.9403 50.5481 24.8976 50.2495 24.8833C48.8672 25.1225 48.6808 26.1508 49.1184 27.315Z" fill="var(--fill-0, black)"/>
</g>
</svg>
