<svg preserveAspectRatio="none" width="100%" height="100%" overflow="visible" style="display: block;" viewBox="0 0 59.4568 59.409" fill="none" xmlns="http://www.w3.org/2000/svg">
<path id="Vector" d="M29.4288 0.00139321C30.3013 -0.0445897 31.0713 1.05931 31.7202 1.59042C33.744 3.2468 35.3991 5.17165 35.924 7.80745C36.1431 8.90721 36.0632 10.0245 36.2937 11.111C36.3975 10.7951 36.4915 10.4525 36.6679 10.1687C37.1862 9.33461 40.3646 6.13621 41.2036 5.95938C41.4774 5.90163 41.7452 6.05352 41.9676 6.19716C43.2194 7.00599 45.5595 9.336 46.3279 10.5814C46.8761 11.4698 47.296 12.5819 47.5054 13.6027C47.7289 14.6928 47.6507 15.8152 47.8829 16.9006C48.1164 16.203 48.2222 15.8797 48.7293 15.3268C49.8529 14.1005 51.1894 12.9541 52.412 11.8338C53.2008 11.1111 55.5747 13.8253 56.1087 14.2726C57.4746 15.4166 58.4001 16.9613 58.9005 18.6617C59.1544 19.5245 59.42 20.325 59.4331 21.2455C59.4706 23.3537 59.4524 25.4708 59.452 27.5826L59.4533 52.2293C59.4536 54.3161 59.4664 56.4279 59.4373 58.5149C59.4333 58.8011 59.3583 59.0815 59.1636 59.2987C58.6482 59.436 56.6718 59.3961 56.0511 59.3955L3.96072 59.3968C2.91449 59.398 1.04662 59.4708 0.101558 59.2472C0.0833333 59.1525 0.0684025 59.0572 0.056784 58.9616C-0.0232926 58.331 0.00430857 57.2967 0.00572546 56.6335L0.0100516 52.9954L0.00965504 27.1022L0.00541053 23.2752C0.00406291 22.4926 -0.0223669 21.1586 0.0959091 20.4285C0.333513 18.9619 1.15335 16.6788 2.09803 15.5693C2.73235 14.8242 5.62384 11.8365 6.47586 11.7498C7.27896 11.6681 10.4148 14.9963 11.0434 15.6842C11.3621 16.0331 11.389 16.4683 11.5423 16.5897C11.7465 16.2835 11.8208 13.9881 12.0493 13.1793C12.6991 10.6118 14.5202 8.71999 16.503 7.08332C16.8849 6.76808 17.7578 5.7187 18.3002 6.01209C19.8835 6.86846 21.2394 8.4676 22.5198 9.73002C22.6388 9.84727 23.0242 10.6167 23.119 10.8008C23.2619 10.7375 23.2747 10.302 23.2833 10.1436C23.3675 8.60563 23.4701 7.54019 24.0682 6.09162C25.1758 3.40897 27.4565 1.94255 29.4288 0.00139321ZM36.1305 57.9691C36.4917 57.9779 37.8222 58.0563 38.0651 57.8981C37.9791 54.8456 38.0747 51.7221 38.0584 48.6638C38.0542 47.8657 38.4612 46.8941 39.0073 46.3162C39.5699 45.7164 40.3533 45.3728 41.1757 45.3649C42.5639 45.3441 43.8991 46.1714 44.4355 47.4617C44.5241 47.6738 44.6104 47.9198 44.6186 48.1514C44.7116 50.7729 44.6388 53.4077 44.6593 56.0317C44.6644 56.6824 44.6583 57.3271 44.6455 57.9724C45.2313 57.9814 45.9055 57.9755 46.4839 58.0082C46.4209 53.5475 46.5215 49.0412 46.476 44.5812C46.4581 42.8282 46.5671 40.1691 46.446 38.4784C45.4432 38.6261 37.0392 38.6369 36.1856 38.4324C36.0582 39.6644 36.1431 42.5109 36.1443 43.847L36.1452 53.055C36.1451 54.591 36.1944 56.4539 36.1305 57.9691ZM12.9568 57.9676L14.7896 57.9974C14.6299 54.9699 14.8136 51.7074 14.7898 48.6599C14.7649 45.4721 18.9974 44.123 20.8287 46.8074C20.9481 46.9735 21.017 47.066 21.0986 47.261L21.1153 47.3003C21.1246 47.3246 21.1339 47.349 21.1431 47.3733C21.2433 47.7604 21.3756 48.4577 21.3657 48.8352C21.3332 50.0767 21.5501 57.0902 21.3065 57.9535C21.9618 57.9716 22.658 57.9793 23.3094 58.0099C23.252 53.5678 23.3448 49.0883 23.3016 44.6481C23.2841 42.8573 23.3916 40.2052 23.2727 38.4783C22.3739 38.6061 13.7228 38.6079 13.0118 38.4332C12.8822 39.675 12.969 42.5374 12.9702 43.889L12.9707 53.0278C12.9705 54.584 13.0174 56.4299 12.9568 57.9676ZM12.9323 24.0648C13.408 24.072 14.6457 24.1205 15.0361 24.0152C15.1445 23.8492 15.0794 23.3304 15.0938 23.1303C15.2762 20.5922 14.3678 17.0976 16.7852 15.3545C17.182 15.0683 17.565 14.3409 18.2526 14.4806C19.292 14.9312 20.3267 16.0636 20.7456 17.1208C20.9065 17.5224 21.0169 17.9424 21.0741 18.3712C21.1866 19.2382 21.1789 23.256 21.0608 24.0523C21.776 24.0655 22.597 24.0626 23.3032 24.1008L23.303 18.6471C23.3047 15.0067 23.4331 12.3031 20.5716 9.52737C20.1906 9.15778 18.4467 7.55197 18.0592 7.34208C17.2419 8.12786 15.9913 9.15186 15.2825 9.90193C13.8167 11.4531 12.954 13.584 12.9751 15.7256C12.9934 17.5801 12.9503 19.479 12.9718 21.3404C12.9796 22.0125 13.0066 23.4424 12.9323 24.0648ZM36.1055 24.0643L38.3742 24.0761C38.0973 22.5986 38.3578 19.6924 38.397 18.1273C38.4272 16.9201 40.1638 14.5518 41.3946 14.4726C42.2185 14.7237 43.3431 15.8763 43.757 16.6489C44.0042 17.1146 44.1711 17.6187 44.2507 18.1399C44.3676 18.8633 44.4295 23.2627 44.2831 24.0157C45.0279 24.0796 45.7356 24.0725 46.4769 24.1024L46.4749 18.4876C46.4742 17.3171 46.505 16.1174 46.4405 14.9507C46.2987 12.3876 44.6471 10.0121 42.62 8.52818C42.2154 8.23201 41.8304 7.54643 41.2826 7.36022C40.9526 7.71154 40.8003 7.76293 40.4967 8.04492C39.6341 8.84625 38.7869 9.55867 38.0311 10.4644C36.1335 12.7388 36.1372 15.2717 36.1405 18.0624L36.1458 21.8419C36.1465 22.4383 36.1749 23.5049 36.1055 24.0643ZM1.35944 28.5952C1.79781 28.6036 3.07337 28.6573 3.42151 28.5515C3.59126 28.3223 3.53382 27.7864 3.52564 27.4883C3.50477 26.5746 3.49649 25.6606 3.50081 24.7466C3.49926 22.7802 3.5675 21.1627 5.21357 19.8076C5.67346 19.4291 6.01603 18.9555 6.68229 19.0206C7.84358 19.6402 8.91141 20.7535 9.29674 22.0243C9.6225 23.0986 9.68346 27.4391 9.47704 28.5881C10.211 28.6029 10.9851 28.6068 11.7152 28.6373L11.7177 24.1439C11.7244 19.4203 11.3822 17.0711 7.58835 14.1193C7.31221 13.9044 6.75332 13.2187 6.44834 13.1308C5.52163 14.1675 4.30493 14.9355 3.40212 16.0277C1.44178 18.3993 1.37712 20.1397 1.38077 23.0098L1.38808 26.7044C1.38899 27.2297 1.40673 28.0865 1.35944 28.5952ZM47.694 28.6012L49.9575 28.6146C49.6842 27.1871 49.9571 24.2451 49.977 22.7129C49.9808 22.4225 50.5065 20.9138 50.7109 20.7429C51.3938 20.1722 52.0314 19.2012 52.9144 19.0027C53.7798 19.232 54.8321 20.2705 55.2873 21.0475C56.1479 22.5166 55.9046 24.4937 55.9419 26.1438C55.9555 26.7479 55.9557 28.0015 55.8833 28.5624C56.6074 28.5972 57.332 28.6224 58.0567 28.638L58.064 23.8065C58.0714 19.2754 57.8453 17.1437 54.0792 14.1712C53.7949 13.9468 53.1691 13.2306 52.873 13.1359C51.8878 14.1981 50.7195 14.9781 49.7846 16.062C47.1327 19.1364 47.8254 22.7736 47.7326 26.4919C47.7162 27.1471 47.7686 27.9653 47.694 28.6012ZM47.7176 57.9689C48.0788 57.9777 49.4092 58.0564 49.6522 57.8981C49.5748 55.1453 49.6723 52.3712 49.6282 49.6163C49.6088 48.4034 49.693 47.2696 50.5801 46.337C51.1621 45.7299 51.963 45.3814 52.8038 45.3695C54.21 45.3445 55.4719 46.1781 56.0225 47.4619C56.3684 48.2911 56.2485 50.844 56.2485 51.8358C56.2555 53.8814 56.2502 55.927 56.2327 57.9725C56.821 57.98 57.486 57.9736 58.0674 58.0103C58.0228 54.6214 58.0931 51.2086 58.0612 47.8224C58.0484 46.4581 58.135 44.3282 58.0311 43.018C57.1831 43.1499 48.5018 43.1409 47.773 42.9674C47.6651 43.9928 47.7294 46.0737 47.731 47.1962L47.7319 54.1727C47.7317 55.3555 47.7685 56.8078 47.7176 57.9689ZM1.37069 57.966L3.20075 57.9968C3.04966 54.9727 3.23198 51.7557 3.19988 48.7165C3.16867 45.762 6.71585 44.2383 8.85241 46.3572C9.12042 46.6121 9.44668 47.025 9.55663 47.3733C9.65733 47.7625 9.78882 48.4544 9.77924 48.8353C9.74669 50.1363 9.96357 57.0882 9.71948 57.9535C10.376 57.9716 11.0694 57.9798 11.7225 58.01C11.6786 54.6129 11.7474 51.193 11.7159 47.7985C11.7031 46.4309 11.7888 44.3298 11.6856 43.0117C10.7164 43.1548 2.21124 43.1457 1.42288 42.9882C1.31537 44.0459 1.38215 46.0593 1.38363 47.2089L1.38452 54.1748C1.38438 55.3581 1.42083 56.8033 1.37069 57.966ZM52.987 46.7492C50.571 46.9086 50.8184 48.8036 50.82 50.6572L50.828 55.3421C50.8292 56.0045 50.8706 57.3634 50.7686 57.9552C51.4881 57.983 52.2081 57.997 52.9281 57.9973C53.5645 57.9963 54.3971 57.9715 55.0181 58.0144C54.9194 55.7477 55.0863 53.4094 55.0122 51.143C54.948 49.1798 55.613 46.9421 52.987 46.7492ZM16.0067 57.9748C16.7472 57.9833 17.5093 58.0004 18.2479 57.9963L20.2651 57.9764C20.1377 57.4695 20.1778 56.3839 20.1788 55.8213L20.1869 51.6236C20.188 50.9438 20.1854 50.2399 20.1891 49.5618C20.1983 47.8887 19.9965 46.7747 18.0425 46.7524C15.4575 46.9491 16.0752 49.284 16.0155 51.1552C15.9437 53.402 16.1089 55.735 16.0067 57.9748ZM6.49029 33.6092C5.49273 34.3878 4.87162 34.9798 4.73585 36.3433C4.56809 38.0281 4.81526 40.0431 4.6448 41.7061C5.20891 41.7345 5.73587 41.7593 6.30225 41.7593C6.91246 41.7634 7.60485 41.7521 8.20819 41.7847C8.15636 40.7072 8.2206 39.5744 8.20271 38.4913C8.17929 37.0706 8.41405 35.2192 7.23658 34.1698C7.01762 33.9746 6.75402 33.7187 6.49029 33.6092ZM4.41998 57.9748C5.13957 57.983 5.87995 57.9996 6.59791 57.9966L8.67873 57.9764C8.53993 57.4332 8.59031 55.6831 8.59189 55.0453L8.60291 50.2142C8.60391 49.6027 8.64737 48.7197 8.49692 48.1368C8.42589 47.8617 8.01165 47.3623 7.83967 47.0879C7.26882 46.8101 7.07486 46.7801 6.46396 46.7544C3.81072 46.9713 4.50386 49.276 4.42823 51.2503C4.34347 53.4633 4.51406 55.758 4.41998 57.9748ZM55.5206 34.515C55.9555 35.8601 55.9822 37.1126 55.942 38.5124C55.914 39.4849 56.0228 40.7595 55.8732 41.7022C56.6184 41.7408 57.3222 41.7413 58.0559 41.7702C58.0619 37.9099 58.1316 33.8191 58.0438 29.9792C57.123 30.0788 48.3119 30.0708 47.8024 29.9199C47.6054 30.4479 47.7318 40.2886 47.725 41.7362C48.4455 41.7433 49.2149 41.7376 49.9313 41.7608C49.7876 39.8722 49.8612 37.3294 50.0305 35.4256C50.1212 34.405 51.8485 32.3447 52.8627 32.0515C53.5419 31.9052 55.087 33.8453 55.5206 34.515ZM1.4022 29.9312C1.28654 33.8015 1.44988 37.8401 1.37849 41.7274C2.06712 41.7361 2.84518 41.7614 3.52646 41.7467C3.43928 40.2041 3.37282 36.3736 3.7619 35.0153C3.91248 34.4895 4.20316 33.9868 4.56639 33.5775C4.93699 33.1599 5.94746 32.0654 6.48254 32.0258C6.68449 32.0099 6.88431 32.0767 7.03607 32.2109C7.74074 32.8455 8.90946 33.9186 9.17861 34.7775C9.72024 36.2565 9.52382 37.6645 9.55663 39.2291C9.57162 39.9459 9.57099 41.0294 9.50563 41.7284C10.1976 41.74 11.0242 41.7334 11.7047 41.7708C11.7371 37.9549 11.78 33.768 11.7007 29.9625C10.9679 30.0648 2.00378 30.1 1.4022 29.9312ZM27.6041 57.9573C28.3399 57.9748 29.0943 58.002 29.8289 57.9971L31.8475 57.9804C31.7078 57.4974 31.7517 56.3849 31.7528 55.8347L31.7617 51.691C31.7631 50.9423 31.7548 50.1602 31.7648 49.414C31.7864 47.8003 31.4545 46.6979 29.5751 46.7523C27.3398 46.9369 27.6679 49.027 27.6657 50.7225L27.674 55.1246C27.6764 56.0649 27.7281 56.9958 27.6093 57.9189L27.6041 57.9573ZM29.534 33.689C28.6741 34.425 28.0338 35.1956 27.9749 36.3929C27.889 38.1405 28.0241 39.982 27.9414 41.7331C28.6266 41.7428 29.3297 41.7605 30.0133 41.7607C30.4639 41.7641 31.0641 41.7522 31.5021 41.7848C31.488 40.6032 31.4855 39.4215 31.4948 38.2398C31.4966 36.7132 31.6123 34.8347 30.0717 33.8357C29.8617 33.6995 29.7933 33.6833 29.534 33.689ZM16.2319 37.1718C16.8732 37.2116 17.5157 37.2303 18.1583 37.2278C18.6968 37.2306 19.393 37.2153 19.9175 37.2608C19.8997 36.0658 19.8968 34.8707 19.9087 33.6757C19.9114 32.2117 20.0306 30.7979 18.8725 29.6393C18.7225 29.4893 18.2334 29.11 18.0356 29.0716C15.88 30.6464 16.2997 32.5922 16.2789 34.9742C16.2726 35.6938 16.3031 36.4559 16.2319 37.1718ZM33.0589 57.9694C33.6506 57.9787 34.3105 57.9748 34.8962 58.008C34.85 54.6021 34.923 51.1695 34.8899 47.7659C34.8768 46.417 34.9633 44.31 34.8591 43.0122C33.8935 43.1568 25.2917 43.1309 24.5989 42.9681C24.4895 44.006 24.5554 46.0977 24.5569 47.2364L24.5576 54.1758C24.5575 55.3652 24.5926 56.7959 24.5442 57.9664L26.3725 57.9878C26.2726 55.1933 26.4237 52.3367 26.3609 49.5351C26.3314 48.2162 26.3914 47.4791 27.2911 46.4573C28.9457 44.5779 31.8485 45.2758 32.8358 47.4556C33.1972 48.2796 33.0738 50.7408 33.0738 51.7692C33.0799 53.8359 33.0749 55.9027 33.0589 57.9694ZM16.2288 24.0237C16.8956 24.0625 17.457 24.0728 18.122 24.073L19.9578 24.0697L19.9466 24.0072C19.5556 21.7139 20.7686 17.8541 18.6149 16.294C18.4106 16.146 18.2245 15.9908 17.9713 15.9597C15.2525 18.2075 16.6635 21.0729 16.2288 24.0237ZM39.5282 37.2005L41.47 37.2275L43.1884 37.2333C42.8336 34.5264 44.0391 31.0319 41.6116 29.2407C41.4866 29.1485 41.4076 29.116 41.2609 29.0769C40.298 29.8412 39.6123 30.5824 39.5563 31.8897C39.4808 33.6519 39.6081 35.4389 39.5282 37.2005ZM39.4893 24.0523C40.1621 24.0604 40.8696 24.0802 41.5395 24.0717L43.1993 24.0641L43.1941 24.0354C42.7732 21.6443 44.0777 17.9226 41.657 16.1191C41.5383 16.0308 41.3597 15.9871 41.2139 15.9792C40.2337 16.8487 39.6735 17.4042 39.5537 18.816C39.4354 20.2105 39.6979 22.7818 39.4893 24.0523ZM54.7857 28.602L54.7804 28.573C54.6707 27.9484 54.7083 26.8836 54.73 26.2179C54.7806 24.6652 55.0159 20.857 52.7985 20.5079C51.5826 21.624 51.3371 22.0078 51.206 23.7061C51.1081 24.9743 51.3342 27.4137 51.1308 28.5498C51.8038 28.6105 52.6088 28.6175 53.2925 28.609L54.7857 28.602ZM27.9169 28.589C28.6559 28.5985 29.4232 28.619 30.1598 28.6083L31.5386 28.6088L31.5283 28.5454C31.272 26.8778 32.3312 20.3312 29.3983 20.5825C26.9975 23.2366 28.2638 25.2788 27.9169 28.589ZM29.5787 7.40902C28.714 8.14209 28.0336 8.979 27.9757 10.1648C27.89 11.9197 28.0164 13.7653 27.9476 15.5266C28.5998 15.5094 29.2522 15.5072 29.9045 15.52C30.4102 15.5197 30.9903 15.5062 31.489 15.5361C31.494 13.7224 31.6123 11.1496 31.3359 9.39129C31.3072 9.20898 30.829 8.40513 30.6951 8.07811C30.3594 7.8368 29.9218 7.39819 29.5787 7.40902ZM6.37838 20.5104C5.30456 21.4279 4.86237 21.9809 4.71621 23.4372C4.57112 24.882 4.84253 27.2273 4.64259 28.5608C5.2096 28.5977 5.77781 28.6143 6.34601 28.6107C6.81718 28.6097 7.74188 28.6374 8.17589 28.6009C8.20693 27.0977 8.20385 25.6111 8.20158 24.0932C8.20013 23.1047 8.091 21.885 7.35724 21.1164C7.13796 20.8866 6.69936 20.5378 6.37838 20.5104ZM51.1369 41.6896C51.8097 41.7601 52.4656 41.7551 53.1409 41.7606L54.778 41.7604C54.4662 39.6813 55.1606 37.0794 54.3667 35.0727C54.2073 34.6698 53.2824 33.6474 52.798 33.6753C51.7163 34.5914 51.3689 35.0515 51.2258 36.5302C51.0806 38.0323 51.3381 40.2637 51.1369 41.6896ZM43.4311 58.0146C43.3321 55.7361 43.4894 53.3868 43.4253 51.1043C43.3753 49.3201 43.9704 46.8969 41.4563 46.7535C40.3646 46.8056 39.6253 46.9972 39.3524 48.243C39.1865 49.0008 39.2323 49.8779 39.2329 50.6573L39.2405 55.3463C39.2417 56.0042 39.2833 57.366 39.1814 57.9552C39.8838 57.9822 40.5865 57.9963 41.2893 57.9973C41.9382 57.9963 42.7987 57.9704 43.4311 58.0146ZM29.6271 1.60883C28.7315 2.33754 27.3734 3.59483 26.5887 4.43234C23.9911 7.20467 24.5837 12.0141 24.5526 15.5195L26.6784 15.5171C26.6668 14.4818 26.6606 13.4465 26.6596 12.4112C26.6523 9.93178 26.6047 8.14303 28.7012 6.47859C29.1177 6.14792 29.0881 6.03684 29.6689 5.88633C30.5538 6.13318 31.6175 7.18188 32.0711 7.98113C32.971 9.56692 32.7476 11.3438 32.7716 13.0975C32.7802 13.7277 32.7896 14.8634 32.7193 15.464C33.3765 15.5057 34.2699 15.4951 34.875 15.5555C34.891 14.3568 34.8965 13.158 34.8915 11.9591C34.8898 7.90034 34.4926 5.38129 31.1084 2.80528C30.6885 2.48566 30.2504 1.68582 29.6271 1.60883ZM24.6335 29.922C24.4561 30.353 24.559 40.371 24.5508 41.7364C25.2488 41.7403 26.0077 41.7589 26.7008 41.7456C26.5391 39.9367 26.686 37.7053 26.7462 35.8674C26.781 34.8036 29.0405 31.1412 30.3097 32.2624C30.9952 32.868 31.9313 33.8055 32.3167 34.6529C33.038 36.748 32.7054 38.7849 32.7588 40.9663C32.7643 41.195 32.7394 41.4811 32.7035 41.7062C33.4307 41.7366 34.1606 41.7416 34.8793 41.7717C34.9107 37.9554 34.9546 33.7691 34.8747 29.9638C34.0564 30.077 25.1427 30.0604 24.6335 29.922ZM24.5459 16.8623C24.5978 20.4537 24.5339 24.0571 24.5576 27.6496C24.5595 27.9464 24.5559 28.3092 24.5201 28.6015C24.9171 28.6075 26.4352 28.6884 26.6934 28.5068C26.7449 28.3138 26.6313 27.8331 26.6517 27.5282C26.8206 24.9689 26.0352 21.8891 28.2699 19.9861C28.6788 19.6379 29.318 18.7735 29.9492 19.063C30.8916 19.4952 31.9625 20.698 32.3356 21.6436C32.988 23.4395 32.7241 25.1467 32.7707 27.0287C32.7821 27.4907 32.7788 28.0927 32.7244 28.5437C33.3592 28.6272 34.2323 28.6235 34.8891 28.6387C34.8859 24.8419 34.802 20.6358 34.8937 16.8634C31.9387 16.9096 28.9693 16.8365 26.0126 16.8683C25.5312 16.8734 25.0262 16.8789 24.5459 16.8623ZM13.0075 25.3688C12.906 26.3129 12.9768 28.1515 12.968 29.1771C12.9452 31.8451 12.9937 34.5335 12.9635 37.2024C13.6633 37.2064 14.4192 37.2246 15.1144 37.212C15.0641 36.2697 15.1253 35.2885 15.094 34.3627C14.9817 31.0504 15.0804 29.3483 18.0635 27.4147C19.2918 28.2163 20.2014 28.8648 20.7534 30.2444C21.3174 31.6291 21.2117 35.6446 21.0922 37.1953C21.7857 37.2066 22.6102 37.1998 23.2925 37.2366C23.3236 33.41 23.3651 29.2335 23.2876 25.4167C22.3865 25.5475 13.6275 25.533 13.0075 25.3688ZM36.181 25.3683C36.0808 26.314 36.1511 28.1458 36.1422 29.1701C36.1189 31.8403 36.1681 34.5314 36.1371 37.2023C36.8609 37.2097 37.6265 37.2047 38.3465 37.2265C38.2887 36.5612 38.3105 35.9054 38.3085 35.2448C38.297 31.4227 37.8407 29.7401 41.3099 27.4311C42.1724 27.9387 43.568 29.1026 43.9282 30.0561C44.433 31.3035 44.5013 35.783 44.2861 37.1689C45.0302 37.2085 45.735 37.2074 46.4669 37.2377C46.4973 33.3992 46.5351 29.2483 46.4618 25.4183C45.5521 25.5578 36.8001 25.5296 36.181 25.3683Z" fill="var(--fill-0, black)" fill-opacity="0.984314"/>
</svg>
