<svg preserveAspectRatio="none" width="100%" height="100%" overflow="visible" style="display: block;" viewBox="0 0 61.8611 67.315" fill="none" xmlns="http://www.w3.org/2000/svg">
<g id="Vector">
<path d="M29.8168 4.16869C29.9435 3.20335 29.6793 0.944527 30.1836 0.391591C31.8253 -1.40859 31.5415 3.55893 31.5365 3.96458C32.6067 4.37816 32.6682 4.41667 33.4929 5.21719C33.8218 6.21531 33.5504 6.33902 33.7733 7.11164C33.8643 7.42697 34.6846 7.67857 34.8772 8.385C35.1928 9.54212 34.8531 10.2971 34.3666 11.2735C34.4797 11.3868 34.5903 11.5028 34.6981 11.6214C37.6418 14.8638 37.9318 19.0816 37.8029 23.2017C37.7547 24.744 37.8574 26.3098 37.7808 27.8596C38.5021 27.8589 39.3626 27.7478 39.935 28.1198C39.8704 28.2249 39.823 28.3267 39.7234 28.3957C39.6104 28.7437 39.5763 28.8244 39.6069 29.1841L39.7612 29.4328C39.2288 29.5433 38.59 29.535 38.0382 29.5454C38.0434 30.3526 38.0352 33.3279 38.1657 34.0207L38.3214 34.0898L38.5028 33.9983C38.6259 33.7592 38.6225 32.6718 38.6332 32.3325C38.9212 31.9968 39.051 31.6737 39.4989 31.8066C39.7456 32.0749 39.8599 32.1644 40.153 32.3858C40.1922 33.7964 40.2036 33.5356 41.1864 34.4801C41.496 34.7776 41.9731 35.5135 42.3047 35.8974C42.4526 35.7259 42.4735 34.6904 42.6981 34.2176C43.0454 33.923 43.5555 33.9604 43.9263 34.192C44.1596 34.463 44.232 35.3962 44.2729 35.7767C44.3316 35.8386 44.3881 35.9025 44.4425 35.9684C45.533 37.3074 45.872 38.129 45.7099 39.8343C47.1672 39.7672 47.6384 39.6207 47.5605 41.2516L46.3381 41.5485C46.3415 42.6745 46.3581 43.8002 46.3881 44.9257C47.688 45.2223 47.4957 45.8662 47.3086 47.0073C48.8797 47.0746 50.8118 47.0024 52.4404 47.0306L52.4552 46.3591C52.4856 45.1057 52.4736 43.7326 53.1063 42.5909C53.3336 42.1809 53.7667 41.7279 53.8921 41.2577C54.0619 40.6205 53.7898 39.475 54.3052 38.9718C54.5095 38.7724 55.2286 38.8794 55.5303 38.904C55.7583 39.6139 55.8108 40.7421 55.8746 41.513C57.1596 43.2348 57.0326 44.0245 57.286 46.1055C57.4424 47.3887 57.7069 48.3641 57.6902 49.715C57.6249 54.9673 57.7953 60.2648 57.6737 65.5112C58.8948 65.4958 60.3202 65.4811 61.5226 65.548C61.752 65.8973 61.9 66.2049 61.8522 66.6425C61.7932 67.1828 61.0578 67.2945 60.6156 67.2932C56.843 67.2828 53.069 67.2781 49.2961 67.2854L7.23878 67.2877C5.60182 67.2894 1.49948 67.4303 0.0587833 67.0553C0.0214493 66.6807 -0.0767194 66.1429 0.113095 65.8301C0.710282 65.3446 3.36729 65.5021 4.289 65.5076C4.24404 64.972 4.27281 63.9013 4.27195 63.3339L4.26338 52.4131C4.26464 51.0826 4.24955 49.7556 4.31824 48.4256C4.35613 47.6923 4.61314 47.0162 4.67751 46.3778C4.77325 45.4281 4.68828 44.6852 4.91118 43.7117C5.07011 42.786 5.83424 42.1345 6.13362 41.283C6.35149 40.6634 5.96149 38.9082 6.95512 38.8102C7.78936 38.728 7.78614 39.7206 7.83251 40.3049C7.86183 40.675 7.87747 41.0681 7.89704 41.4475C9.44825 42.7579 9.72955 45.1108 9.53943 47.0282L14.6718 47.0103C14.6939 45.7517 14.4557 45.3322 15.7097 44.866C15.7737 44.0754 15.7708 42.3202 15.7622 41.5114C15.2067 41.446 14.4367 41.3598 14.377 40.6312C14.5897 39.7345 15.6978 39.7841 16.3984 39.7839C16.2996 37.7507 16.6019 37.2966 17.8307 35.7813C17.8556 35.3557 17.8805 34.5808 18.0859 34.2316C18.2864 34.0827 18.3875 34.0717 18.6261 34.0517C19.8508 33.9493 19.1609 35.4967 19.6848 35.9866C19.9158 35.908 20.1029 35.5126 20.2943 35.2786C20.7789 34.6858 21.2956 34.2191 21.8905 33.7454L22.0555 32.3112C22.8833 31.2917 22.6755 31.8531 23.5881 32.2719C23.5629 32.8411 23.3334 33.9892 24.0284 34.1189C24.2352 33.8059 24.1513 30.2927 24.1698 29.5668C23.3723 29.5175 22.7891 29.5112 22.0093 29.3156C21.8117 27.574 22.7926 27.8637 24.1648 27.8538C24.1148 26.2415 24.1649 24.5622 24.1325 22.9777C24.0347 18.1782 24.4573 15.1379 27.5226 11.3004C27.0793 10.9063 26.7388 10.4635 26.6129 9.88457C26.2365 8.56381 27.4517 7.8213 27.8129 6.88889C28.3388 5.53174 27.9635 4.59886 29.8168 4.16869ZM27.1707 33.0938C26.5545 33.1467 26.3287 33.1533 25.7148 33.0943C25.7572 33.5896 25.7954 34.0409 25.8078 34.5389C26.26 34.5198 26.6566 34.4971 27.1101 34.5262L27.597 35.1776C27.5666 35.4097 27.5299 35.649 27.5174 35.882C26.7931 36.1518 26.148 36.0865 25.8455 36.3784C25.7288 36.7217 25.7911 37.2159 25.812 37.5911C27.1741 37.677 28.0412 37.734 27.131 39.2422C26.7012 39.2676 26.2712 39.2902 25.8411 39.3102C25.6739 39.7736 25.7594 41.9614 25.769 42.5512C26.0993 42.5508 26.78 42.6106 26.9781 42.3322C27.3847 41.7612 27.051 41.124 28.0401 41.0313C28.9423 40.9466 28.4774 42.5389 29.3251 42.5361C29.5897 42.5352 29.8639 42.5393 30.1062 42.4236C30.4923 41.9075 30.1507 40.1202 31.7406 41.4414C31.8028 41.4932 31.8634 41.5471 31.9219 41.6032C32.008 42.1171 32.1615 42.6625 32.8068 42.6892C33.4442 42.4476 33.2345 41.9794 33.5028 41.4024C34.6721 40.3122 34.9215 41.6141 35.0354 42.5263L36.435 42.4787C36.3777 41.5823 36.3838 40.1291 36.4688 39.2397C33.9332 39.4679 34.1726 37.4312 36.3628 37.6352C36.3894 37.1912 36.4286 36.7128 36.4213 36.2708C35.6887 36.2371 33.8608 36.0094 35.0493 34.7773C35.3471 34.4687 35.976 34.4828 36.4043 34.4615L36.4452 33.2223C35.9153 33.179 35.0607 33.161 34.7739 32.6832C34.0563 31.4876 35.7349 31.3692 36.3469 31.3804C36.379 30.8437 36.4032 30.0711 36.4738 29.5559C33.9633 29.4908 31.4127 29.5759 28.9011 29.5488C28.2142 29.5415 26.4062 29.5867 25.787 29.508C25.7269 29.8147 25.6286 30.8683 25.8201 31.0365C26.6518 31.7674 28.1764 31.126 27.1707 33.0938ZM25.8759 18.1374C26.8274 18.2303 26.8582 18.216 27.6056 18.766C27.309 20.6253 26.5707 19.5668 25.9958 19.8727C25.6537 20.2615 25.7666 20.9722 25.7874 21.497C26.3817 21.4662 26.625 21.5028 27.2182 21.5884L27.602 22.2957C27.5061 22.5068 27.3661 22.8398 27.2571 23.0311C26.6069 23.0955 26.4109 23.1233 25.7563 23.0525C25.7837 23.5998 25.7902 23.9807 25.7653 24.5275C26.3081 24.4652 26.5375 24.4594 27.0826 24.4826C27.2446 24.6757 27.4324 24.9121 27.6001 25.0941L27.4851 25.9369C26.8092 26.1412 26.5082 26.2352 25.7877 26.1219C25.7765 26.7027 25.7585 27.2833 25.7337 27.8636C26.6049 27.846 27.4764 27.8391 28.3478 27.8428C27.9186 26.0094 28.2949 20.7816 28.4227 18.7575C28.5057 17.4411 29.5676 15.5035 30.5922 14.6063C31.9396 14.1104 32.9824 16.4727 33.3362 17.4587C33.5741 18.1157 33.7317 18.7992 33.8057 19.494C33.9427 20.7572 33.8605 22.8815 33.8718 24.2069C33.879 25.0627 33.9146 27.0853 33.8344 27.8542C34.5994 27.8485 35.4404 27.825 36.1987 27.857C36.1296 27.2757 36.1501 26.8196 36.1792 26.2355C34.0264 26.0843 34.3353 24.4978 36.1042 24.4306C36.1303 24.0014 36.1601 23.5725 36.1936 23.1438C35.5519 23.0959 34.6263 23.0721 34.6573 22.1657C34.9276 21.4861 35.47 21.4688 36.1105 21.5173L36.1799 19.9437C34.0324 19.8637 34.3662 18.243 36.0924 18.1206C35.3394 15.9856 34.6513 13.6315 32.8527 11.9969C31.8072 11.7041 31.2101 11.6551 30.108 11.7532C29.551 11.879 29.2163 11.9695 28.8079 12.381C27.7112 13.4864 26.9346 14.9288 26.4748 16.4082C26.2962 16.9828 26.1419 17.6092 25.8759 18.1374ZM40.787 56.0621L45.7698 56.0707C45.7791 52.9068 45.7021 49.7664 45.8165 46.6007C44.8804 46.6338 41.6363 46.677 40.8064 46.5754C40.6475 49.5501 40.9655 53.172 40.787 56.0621ZM16.2709 56.0717C17.8649 56.0719 19.5424 56.0479 21.1307 56.0738C21.2042 52.9494 21.0757 49.7575 21.1696 46.6113C19.6438 46.6171 17.8541 46.6654 16.3525 46.5638C16.2735 47.2965 16.2906 48.0328 16.2851 48.7686C16.2669 51.2026 16.3079 53.6381 16.2709 56.0717ZM25.7594 65.5488L27.5717 65.4988C27.5332 64.1124 27.5826 62.6681 27.5377 61.2926C27.4761 59.4025 27.9982 59.3232 29.7485 59.3573C31.0698 59.3831 32.4119 59.3679 33.74 59.4425C33.9674 59.6096 34.2123 59.7974 34.4433 59.9549L34.4259 60.7533C34.4252 61.8282 34.5018 64.5352 34.4106 65.5176C34.9696 65.5148 35.6156 65.4956 36.1672 65.5144C36.0706 63.3432 36.0831 59.8671 36.1855 57.6973L29.9853 57.7165C29.0115 57.7266 26.6148 57.8024 25.7657 57.6477C25.7645 60.2516 25.8059 62.9558 25.7594 65.5488ZM37.9975 57.7365C37.8609 57.8291 37.8353 57.8079 37.8219 57.9647C37.7584 58.7062 37.7802 59.5776 37.7815 60.3192L37.7941 65.5314L38.9113 65.4911L39.0542 65.4113C39.0935 65.1036 39.0486 63.6123 39.0493 63.1764C39.0457 61.3587 39.0596 59.5409 39.0906 57.7234C38.7591 57.7221 38.3187 57.7075 37.9975 57.7365ZM27.109 53.5018C27.0533 52.7625 27.0844 51.9759 27.1078 51.2325C27.1277 50.6025 27.7448 49.9106 28.4102 50.2821C28.8859 50.9089 28.7996 52.6776 28.7099 53.4686C29.9765 53.4556 31.5174 53.4258 32.7811 53.5168C32.8112 52.8863 32.8629 50.9401 32.9721 50.4374C33.3744 50.0526 33.8004 50.1659 34.1576 50.5464C34.2418 50.6369 34.324 50.7293 34.4042 50.8235C34.4211 51.5588 34.4841 52.787 34.4035 53.4804C34.9687 53.4798 35.633 53.4624 36.1852 53.5256C36.0805 52.3715 36.1432 50.6413 36.1819 49.4621C34.0278 49.4371 31.8736 49.4354 29.7195 49.4569C28.8804 49.4594 26.4435 49.5352 25.7744 49.329C25.7714 50.7157 25.787 52.1379 25.7675 53.5211C26.2259 53.5006 26.6496 53.474 27.109 53.5018ZM24.1198 65.5039C24.1762 64.8429 24.1623 63.9542 24.1451 63.2807C24.0989 61.4725 24.2052 59.5776 24.1258 57.7794C23.7731 57.7319 23.2927 57.6816 22.9559 57.6045C22.8225 58.1605 22.876 59.627 22.8689 60.2501C22.8491 61.9906 22.9153 63.7754 22.8615 65.5128C23.2713 65.5083 23.7128 65.4947 24.1198 65.5039ZM47.3944 56.0709C48.0763 56.0723 51.5274 56.1197 52.0152 56.0361C51.9653 53.7297 51.9422 50.962 52.0677 48.6638C50.5406 48.6506 48.9244 48.628 47.3989 48.676L47.3944 56.0709ZM14.7152 48.668C13.4971 48.6712 11.055 48.7385 9.95513 48.6242C10.0224 50.5442 10.0726 54.1754 9.97666 56.0749C11.5455 56.0652 13.1144 56.0673 14.6832 56.0812C14.6958 53.7425 14.5937 50.9533 14.7152 48.668ZM20.113 41.4751C19.2437 41.5027 18.3 41.5438 17.4358 41.5013C17.3429 42.4741 17.4897 43.8754 17.4248 44.9581C18.1727 44.9641 19.3541 44.9413 20.069 44.9927C20.0813 43.8316 20.0787 42.6327 20.113 41.4751ZM44.7059 44.9493C44.6399 44.2667 44.6792 42.2077 44.7563 41.5334C43.8598 41.5282 42.947 41.5123 42.0523 41.5463C41.9968 42.5315 42.1143 44.0607 41.9953 44.9743C42.7823 44.9743 43.9671 44.9165 44.7059 44.9493ZM29.8856 23.9894L31.1472 24.0053L32.1493 24.0075C32.1005 22.4551 32.4121 17.7446 31.0567 16.7273C29.4962 18.1 30.0819 22.0346 29.8856 23.9894ZM37.1988 44.97L37.4588 44.9136L37.5186 44.7918C37.0718 44.2708 35.1662 44.4197 34.4731 44.4229C33.2763 44.4285 32.074 44.4296 30.8772 44.427L26.9461 44.4219C26.4097 44.4216 25.4317 44.3911 24.9212 44.4343C24.6124 44.5855 24.5685 44.5406 24.4441 44.7876C24.7815 45.1206 27.9358 44.9878 28.6289 44.9864L35.2483 44.9904L37.1988 44.97ZM55.9994 51.6413C55.981 50.5799 56.0022 49.6835 56.0443 48.6239C55.2552 48.6597 54.4654 48.6749 53.6755 48.6695C53.6065 49.5363 53.701 50.6887 53.6837 51.5867C54.3007 51.5911 55.4241 51.5671 55.9994 51.6413ZM16.2946 57.7065C16.2565 59.8653 16.4348 63.5149 16.236 65.504C17.8785 65.4867 19.5211 65.4874 21.1636 65.5061C21.1357 62.9047 21.1314 60.303 21.1505 57.7015C19.8484 57.7033 17.518 57.6227 16.2946 57.7065ZM5.93264 51.5919C6.747 51.6048 7.3761 51.5809 8.18149 51.5336C8.14211 50.9613 8.25419 49.3068 8.36659 48.7481C7.7624 48.6901 6.5204 48.6211 5.90097 48.6616L5.93264 51.5919ZM39.0511 56.047C39.1088 55.7674 39.0719 55.3955 39.0563 55.1021L28.8199 55.1128C27.8223 55.1147 23.6529 55.2077 22.8813 54.9836C22.8692 55.3378 22.8654 55.7139 22.8174 56.0632C25.4653 55.9963 28.2358 56.0567 30.8941 56.064L39.0511 56.047ZM10.0109 57.6149C9.84368 60.066 10.1001 63.023 9.9681 65.508C11.4135 65.4918 13.2843 65.4429 14.696 65.5262C14.6653 62.9226 14.6688 60.3186 14.7063 57.715C13.7115 57.7371 10.879 57.8027 10.0109 57.6149ZM53.6223 56.0599C54.4087 56.0654 55.2463 56.0563 56.0281 56.0847C55.953 55.0896 55.9885 54.206 56.0501 53.2107C55.2528 53.2366 54.455 53.2415 53.6575 53.2254C53.6677 53.9387 53.7232 55.4056 53.6223 56.0599ZM22.8389 47.8001C27.5598 47.6226 32.4362 47.9342 37.1688 47.7814C37.7648 47.7621 38.4933 47.7559 39.0885 47.7836C39.0787 47.314 39.0873 47.1176 39.1389 46.651C35.4196 46.539 31.5116 46.7241 27.7819 46.6569C26.4709 46.6332 24.0958 46.7454 22.8487 46.5795C22.8517 46.9572 22.8689 47.4312 22.8389 47.8001ZM29.288 61.0269C29.0474 61.4751 29.2182 64.6073 29.1071 65.5024C30.3018 65.5008 31.6875 65.4649 32.8666 65.5086C32.7546 64.6315 32.822 62.0163 32.8722 61.0795C31.6669 61.0773 30.4934 61.0842 29.288 61.0269ZM5.90372 56.0735C6.69434 56.0645 7.48487 56.0426 8.27478 56.0079C8.13582 55.3176 8.20585 54.029 8.37641 53.3323C7.56803 53.2388 6.75407 53.2027 5.94058 53.2244C5.88085 54.1315 5.98405 55.288 5.90372 56.0735ZM54.0929 47.0029C54.3278 46.9955 54.7214 46.9945 54.9407 46.9665C55.2665 46.9498 55.3699 47.0007 55.5962 46.8429C55.7397 46.0042 55.5422 43.9892 55.0094 43.253C54.9399 43.157 54.7369 43.1199 54.6235 43.1022C53.8702 45.1795 54.2959 45.2115 54.0929 47.0029ZM28.5858 8.90681C28.3051 9.16745 28.2839 9.11086 28.1816 9.43177C28.4144 10.0903 29.4511 10.037 30.0532 10.0216C31.0037 9.99752 32.0345 10.0322 32.9759 9.95743C33.3303 9.74703 33.6012 9.56216 33.3193 9.11856C32.6684 8.74427 29.5583 8.90925 28.5858 8.90681ZM32.2281 25.6808C31.6022 25.6559 30.6118 25.6464 30.0165 25.5706C29.8576 26.024 29.982 27.1926 29.8728 27.8355C30.6254 27.8562 31.3782 27.8639 32.1309 27.8588C32.2102 27.2587 32.1267 26.4569 32.2281 25.6808ZM31.9901 6.81697C32.0448 6.54377 32.1139 6.33847 32.0196 6.07815C31.6333 5.58432 30.1757 5.82916 29.5657 5.8455C29.5626 5.95758 29.5499 6.44112 29.5862 6.51689C29.9482 7.27245 31.3536 6.8635 31.9901 6.81697ZM7.23352 46.9855C7.56394 46.9205 7.56882 46.9786 7.7371 46.7733C7.7962 46.0645 7.66636 43.3001 7.01376 42.9637C6.49682 44.0976 6.20797 45.5075 6.40069 46.7708C6.44895 47.087 7.0015 46.9989 7.23352 46.9855ZM24.1445 49.4631C23.7341 49.4432 23.2922 49.4421 22.9 49.3304C22.8435 50.7242 22.8967 52.1254 22.8771 53.5171L24.1206 53.4581C24.2057 52.5075 24.1449 50.4895 24.1445 49.4631ZM8.31762 65.427C8.15767 64.5542 8.18165 58.6549 8.32289 57.7797C7.55506 57.7441 6.68011 57.6835 5.91968 57.6899C5.90726 59.8602 6.04174 63.4448 5.87928 65.4934C6.55616 65.4972 7.68035 65.5274 8.31762 65.427ZM43.6443 39.7925C43.9452 39.7883 43.8531 39.8324 44.0259 39.6633C44.1485 39.0122 44.1745 38.404 43.8084 37.7865C43.69 37.5867 43.3402 37.5526 43.0915 37.5083C42.5608 38.0757 42.566 39.0085 42.5042 39.7725L43.6443 39.7925ZM37.7874 49.3174C37.7726 50.7106 37.7796 52.104 37.8084 53.497C38.0944 53.498 38.8142 53.5302 39.0436 53.4426C39.0522 52.423 39.0232 50.3628 39.1738 49.4492C38.6838 49.4486 38.2475 49.4862 37.7874 49.3174ZM40.4819 41.5441C39.9145 41.4929 38.9837 41.3899 38.9978 40.6161C39.3009 39.7461 40.1944 39.779 40.9424 39.7738C40.8909 38.134 41.1514 36.138 39.3945 35.1845C39.1651 35.518 38.3967 36.3657 38.3233 36.6872C37.9098 38.4982 38.0841 40.7956 38.1363 42.644C38.1519 43.1968 39.803 44.6946 40.328 44.8662C40.4537 44.7234 40.4228 44.5943 40.4447 44.3675C40.4345 43.4263 40.4469 42.4848 40.4819 41.5441ZM18.9998 39.8186C19.0748 39.7958 19.2828 39.75 19.3062 39.7003C19.4972 39.2932 19.2743 38.523 19.2401 38.053C19.0763 37.8403 18.8381 37.4743 18.6116 37.3808C18.3163 37.8357 17.7557 39.2947 18.1461 39.7404C18.4779 39.8228 18.6566 39.8147 18.9998 39.8186ZM56.0262 65.5252C55.9448 64.1951 55.9734 62.6899 55.9704 61.3438C55.9679 60.2468 55.9364 58.7437 56.0611 57.681C55.2154 57.7429 54.5109 57.7255 53.6667 57.7087L53.6734 62.6377C53.6731 63.338 53.7068 64.8327 53.6178 65.4797C54.3865 65.492 55.2671 65.4847 56.0262 65.5252ZM22.6497 35.2356C20.7554 36.7776 21.1891 37.6404 21.1219 39.7983C21.8917 39.781 23.0515 39.5523 23.0411 40.6225C23.0388 40.8734 23.0441 40.9914 22.8925 41.2065C22.5249 41.4835 21.7656 41.3851 21.7404 41.8508C21.6884 42.8127 21.8166 43.535 21.6714 44.5225L21.7432 44.693C22.261 44.4986 23.9456 42.9919 24.0165 42.5799C24.2361 41.304 24.2824 37.9029 23.8549 36.5555C23.7509 36.228 22.9043 35.4615 22.6497 35.2356ZM52.0613 65.4931C51.9569 64.7577 51.9901 62.7214 51.9998 61.9191C52.0151 60.644 51.9498 58.9523 52.0552 57.7055C50.5 57.7149 48.9447 57.7124 47.3896 57.6979L47.4019 62.5757C47.4027 63.3056 47.4299 64.8083 47.3275 65.4932L52.0613 65.4931ZM45.8038 65.5114C45.6806 63.3244 45.7257 59.9504 45.8126 57.7407C44.4052 57.7735 42.2274 57.7428 40.7841 57.7042L40.7944 62.5516C40.7914 63.4532 40.8161 64.6125 40.7175 65.4831L45.8038 65.5114Z" fill="black"/>
<path d="M30.8059 30.3591C32.7332 30.4728 33.9368 33.8039 33.8719 35.4723C33.8313 36.5146 34.1417 38.1988 33.5275 39.0539C33.3368 39.3194 31.7502 39.23 31.3827 39.2253C30.9052 39.2304 28.6061 39.3669 28.477 38.9667C28.0576 37.6667 28.2032 35.2067 28.4376 33.884C28.6872 32.4757 29.6276 31.108 30.8059 30.3591ZM29.9388 37.5964L31.3827 37.5689C31.723 37.588 31.8198 37.653 32.0679 37.5115C32.2325 37.0165 32.1277 36.4345 32.1412 35.922C32.1668 34.9457 31.9787 32.9655 30.8962 32.5894C29.6559 33.7088 30.0113 36.1027 29.9388 37.5964Z" fill="black"/>
<path d="M42.8251 49.9152C42.8864 49.9133 42.9476 49.9117 43.0089 49.9105C43.3613 49.9039 43.6377 49.8684 43.8999 50.1211C44.172 50.7637 44.1905 53.5645 44.0313 54.3762C43.999 54.5414 43.8257 54.5914 43.688 54.645C43.5751 54.6672 43.4609 54.6826 43.3461 54.691C42.9986 54.7166 42.8038 54.6766 42.5421 54.4493C42.1827 53.8537 42.3823 51.3501 42.4237 50.6011C42.44 50.3064 42.6133 50.1054 42.8251 49.9152Z" fill="black"/>
<path d="M18.5843 49.8326C19.5991 49.9408 19.4784 51.1433 19.4886 51.9296C19.499 52.7225 19.5015 53.6233 19.3823 54.398C19.265 54.5534 18.8911 54.6483 18.6869 54.7184L17.8975 54.4783C17.8183 53.3119 17.8235 51.412 17.9017 50.2574C18.1371 50.1349 18.3621 49.9788 18.5843 49.8326Z" fill="black"/>
<path d="M42.6847 59.2956C43.0329 59.2312 43.5589 59.2624 43.926 59.2703C44.1487 60.0918 44.3835 63.3963 43.7539 63.9789C42.9732 64.1884 42.9138 64.0955 42.3784 63.5539C42.3425 62.5494 42.1723 60.0002 42.6847 59.2956Z" fill="black" fill-opacity="0.988235"/>
<path d="M18.6113 59.2202C18.783 59.2378 19.2156 59.2811 19.2732 59.4172C19.5898 60.1642 19.4867 62.8256 19.4227 63.5275C19.2009 63.7209 18.9803 64.0084 18.7896 64.2406C18.6274 64.2141 18.035 63.7135 17.8504 63.5699C17.8629 62.6687 17.7249 60.1393 17.9974 59.4524C18.1443 59.278 18.3717 59.2692 18.6113 59.2202Z" fill="black" fill-opacity="0.988235"/>
<path d="M11.975 59.1962C12.0904 59.2051 12.515 59.2362 12.5978 59.2619C13.2766 59.4727 13.1328 61.2685 13.1485 61.8584C13.165 62.4769 13.1923 63.7252 12.6394 64.0314C11.9263 64.1047 11.9742 64.1006 11.5503 63.5176C11.5005 62.3041 11.5175 61.0747 11.5066 59.858C11.6812 59.5589 11.7514 59.4611 11.975 59.1962Z" fill="black" fill-opacity="0.988235"/>
<path d="M49.7372 59.2315C49.8959 59.2488 50.1398 59.2737 50.2388 59.3985C50.7442 60.0352 50.547 62.6175 50.5331 63.4784C50.3038 63.7222 50.0777 63.969 49.855 64.2189C49.6755 64.117 49.0141 63.7674 48.978 63.6094C48.7974 62.82 48.7837 60.0952 49.0546 59.424C49.2279 59.2444 49.4833 59.2554 49.7372 59.2315Z" fill="black" fill-opacity="0.988235"/>
<path d="M11.9525 49.8474C12.2299 49.8541 12.8098 49.8329 12.9175 50.1523C13.3142 51.328 13.1334 52.734 13.1134 53.9639C13.1069 54.3587 12.9988 54.4448 12.7245 54.6687C12.1204 54.7052 11.4892 54.6649 11.5018 53.9007C11.5204 52.7655 11.2201 50.7621 11.9525 49.8474Z" fill="black"/>
<path d="M49.6458 49.8336C49.8609 49.8426 50.1773 49.8919 50.2758 50.1009C50.7267 51.0582 50.6178 53.4153 50.4504 54.406C50.294 54.5002 49.9825 54.6418 49.8064 54.7276C49.5732 54.6429 49.1846 54.5523 48.934 54.4858C48.8243 53.4792 48.7167 51.3038 49.0306 50.3386C49.1314 50.0285 49.3609 49.9519 49.6458 49.8336Z" fill="black"/>
<path d="M39.935 28.1198C40.2928 28.4603 40.2799 28.8044 40.0625 29.2293C39.9634 29.2976 39.8629 29.3693 39.7612 29.4328L39.6069 29.1841C39.5763 28.8244 39.6104 28.7437 39.7234 28.3957C39.823 28.3267 39.8704 28.2249 39.935 28.1198Z" fill="var(--fill-0, black)" fill-opacity="0.956863"/>
</g>
</svg>
