<svg preserveAspectRatio="none" width="100%" height="100%" overflow="visible" style="display: block;" viewBox="0 0 79.4928 54.3015" fill="none" xmlns="http://www.w3.org/2000/svg">
<g id="Vector">
<path d="M19.8594 22.5506C20.3642 21.7787 20.74 20.9432 21.3423 20.1683C23.5534 17.323 26.4352 14.8383 29.3708 12.7564C30.2741 12.1158 31.5741 11.4841 32.54 10.8451C33.6038 10.1875 34.9163 9.95072 35.9346 9.23033C36.0296 9.12579 36.0161 8.93076 36.0236 8.81261C36.1838 6.46633 35.4582 3.42556 37.1436 1.49841C38.5016 -0.0543367 39.9436 -0.621512 41.6976 0.872117C44.1906 2.99486 43.3163 6.25863 43.475 9.27747C44.4221 9.6226 46.0722 10.3786 46.9672 10.8618C50.9435 13.0087 54.5196 15.9609 57.4856 19.3614C58.3577 20.3615 58.9809 21.3903 59.6425 22.53C59.7207 21.6914 59.6696 20.5718 59.6614 19.7056L59.6539 15.5417C59.6551 14.7041 59.3999 12.2675 60.5153 12.1771C61.6105 12.0884 61.9835 12.328 62.0459 13.4323C62.1543 15.3559 62.114 17.2849 62.114 19.2103L62.1096 29.5252C64.9723 29.4417 67.9674 29.5871 70.8453 29.5272C71.9216 29.5048 73.449 29.562 74.4963 29.4551C74.4888 30.1699 74.4346 31.3139 74.5461 31.9808C73.7893 31.8659 71.8207 31.9662 70.9543 31.9684C68.0355 32.0045 65.1166 31.9917 62.1984 31.93C62.1839 32.0585 62.1707 32.1872 62.1587 32.3159C62.0932 33.0215 62.2211 33.3553 63.0195 33.2499C63.5375 33.1815 64.058 33.1962 64.5785 33.2268C64.4732 35.6179 65.1601 36.0878 62.1757 35.6922C62.1442 36.1078 62.136 36.5308 62.1228 36.9478C63.3308 36.8859 64.6075 36.9439 65.8211 36.9507L71.0312 36.9458C71.8976 36.9481 73.698 36.9893 74.5052 36.8981C74.4636 37.6875 74.4604 38.6905 74.4882 39.4746C73.5738 39.402 72.202 39.5037 71.2202 39.4788C68.2541 39.4038 65.0435 39.5892 62.1014 39.4623C62.1398 40.0351 62.1322 40.8513 62.1291 41.4271C62.7303 40.8928 63.804 40.3375 64.3756 41.2284C64.6251 42.0401 64.5659 43.521 64.5684 44.4281C65.1696 44.3925 66.4771 44.4259 67.0928 44.4626C67.1766 43.3859 66.8155 41.5884 67.6498 40.8726C68.326 40.7524 68.8969 40.6047 69.3373 41.238C69.5844 42.0057 69.6669 43.6742 69.5724 44.4348C70.43 44.4131 71.2889 44.4126 72.1465 44.4334C72.1106 43.5689 72.0514 42.1039 72.2442 41.2992C72.2833 41.2358 72.3255 41.1761 72.3765 41.1218C72.5763 40.91 72.8296 40.7896 73.1226 40.7841C73.4566 40.7778 73.9525 40.8183 74.1939 41.0722C74.7093 41.6138 74.4762 45.9963 74.4371 46.9415C73.4276 46.8323 71.9707 46.8703 70.9222 46.8692L65.1374 46.88C64.1405 46.8837 63.0945 46.924 62.1039 46.884C62.1297 47.8081 62.1682 49.1861 62.1234 50.0926C62.5261 49.7657 62.9363 49.445 63.4852 49.4485C63.7328 49.4497 63.9691 49.5509 64.1412 49.7291C64.639 50.2365 64.5709 51.238 64.5652 51.9026C65.329 51.8106 66.3309 51.8392 67.1028 51.8736C67.1003 51.0747 67.0304 50.4213 67.4204 49.7188C69.2516 48.7257 69.6713 50.4197 69.5516 51.884C70.3172 51.8158 71.3525 51.8416 72.1308 51.8447L72.1289 51.7838C72.098 50.8086 71.9001 49.4518 73.2928 49.4358C74.6356 49.4203 74.4919 50.9152 74.49 51.8606C75.9009 51.7875 78.0762 51.8477 79.4745 51.9128C79.4493 52.6113 79.4178 53.6012 79.4928 54.28C78.5438 54.3235 77.2917 54.2875 76.3244 54.2869L0.00950424 54.286C-0.0205537 53.6367 0.0292906 52.5571 0.0405072 51.8815C1.52633 51.7939 3.45791 51.8426 4.98154 51.8441C4.88393 50.3425 5.18521 48.7792 7.06443 49.7148C7.37805 50.4586 7.44012 51.0276 7.36583 51.8397C8.20531 51.8411 9.06892 51.8299 9.90563 51.8754C9.8808 50.3886 10.1927 48.6868 12.0823 49.7468C12.4585 50.5075 12.4099 51.0845 12.3975 51.9194C13.0792 51.8085 14.2019 51.8463 14.9176 51.869C14.9166 51.0946 14.8692 50.4201 15.2351 49.725C16.2338 49.1376 16.6998 49.4393 17.3928 50.2169C17.3196 49.3409 17.3201 47.7462 17.3966 46.8901C16.7651 46.8771 14.7537 46.9167 14.2456 46.8728C13.1231 46.7757 5.38881 47.0255 5.07739 46.8286C4.88482 46.4646 4.81859 41.2906 5.33858 41.0234C7.75683 39.7807 7.47163 43.0145 7.36072 44.4163C8.16328 44.4263 9.15059 44.4155 9.93544 44.4714C9.92769 43.8364 9.77273 41.4976 10.3325 41.0831C11.5497 40.1816 12.5595 41.2152 12.4046 42.5964C12.3638 42.9601 12.4121 43.9925 12.4179 44.4416C13.037 44.3946 14.2896 44.4097 14.9197 44.4557C15.0147 43.3841 14.7813 42.0287 15.182 41.0946C15.9122 40.7068 16.0525 40.7053 16.8519 40.9117L17.4276 41.5524C17.3542 40.937 17.3892 40.1041 17.4114 39.4738C13.3409 39.4882 9.0463 39.3788 5.00259 39.4771C4.9828 38.636 4.98009 37.7947 4.99459 36.9535L17.3736 36.9179C17.3524 36.5973 17.3751 36.0723 17.3805 35.7361C16.5761 35.7761 15.7535 35.7423 14.9493 35.7115C14.9423 34.8837 14.9462 34.0558 14.9614 33.2281C15.5875 33.2655 16.6805 33.2029 17.3436 33.1819C17.3329 32.7211 17.3229 32.4021 17.3705 31.9439C16.0415 31.9827 14.7114 32.0065 13.382 31.9859C10.5786 31.9425 7.80088 31.9841 4.99446 31.9205C4.92609 31.2691 4.97342 30.1847 4.98974 29.5116C6.07176 29.5538 7.48631 29.5125 8.59442 29.5168C11.5267 29.5367 14.4592 29.5299 17.3914 29.4963C17.3229 24.1918 17.4374 18.8416 17.4037 13.533C17.4 12.9491 17.513 12.2857 18.1891 12.1917C19.3477 12.0306 19.7303 12.3709 19.7529 13.5274C19.964 16.423 19.5486 19.6927 19.8594 22.5506ZM29.7496 39.5951C30.457 39.7642 30.9192 40.0509 31.5135 40.4573C33.804 42.0238 33.5089 44.9282 33.5065 47.3565C33.5051 48.854 33.5369 50.3748 33.5048 51.8658C34.2792 51.8485 35.2727 51.8142 36.0427 51.8718C36.0779 49.8505 35.8014 44.2954 36.3088 42.7513C36.5612 41.9834 37.0774 41.3429 37.6524 40.7894C38.2228 40.2402 38.9543 39.7244 39.7792 39.7354C40.6836 39.7476 41.4746 40.4187 42.0666 41.0422C43.6068 42.6642 43.4532 44.4339 43.4545 46.5189C43.4546 48.2325 43.41 50.214 43.4835 51.9058C44.098 51.8183 45.3655 51.8235 45.9997 51.8542L46.0057 47.1724C46.0036 45.0821 45.7297 42.6071 47.3377 41.0092C48.0068 40.3451 48.8246 39.8503 49.7233 39.5657C49.6195 37.0566 49.7402 34.5523 49.6508 32.0453C49.6233 31.2761 49.5037 30.5928 49.427 29.8379C48.1947 30.0281 46.8414 30.3236 45.6325 30.4751C43.7063 30.7166 41.6354 30.7408 39.6982 30.738C37.9939 30.7355 36.227 30.7382 34.5302 30.5546C33.0608 30.3956 31.5679 30.0269 30.0832 29.8418C29.5279 33.33 29.9235 36.1998 29.7496 39.5951ZM39.8344 51.8537C40.1835 51.8588 40.689 51.8525 41.0231 51.8823C41.0534 50.2681 41.0682 48.6536 41.0674 47.0391C41.0682 46.3052 41.1042 44.8297 40.9613 44.1799C40.8397 43.601 40.5581 43.0679 40.1485 42.6412C40.0096 42.4967 39.8821 42.338 39.6914 42.2969C39.4488 42.5591 38.7351 43.3069 38.6643 43.6127C38.1251 45.9429 38.647 49.6378 38.4554 51.9119C38.9146 51.8838 39.3744 51.8644 39.8344 51.8537ZM29.7337 42.4017L29.7738 49.0077C29.7753 49.7292 29.8206 51.1749 29.7639 51.8479C30.1322 51.8441 30.6797 51.8539 31.0323 51.8234C31.0809 49.2682 31.1014 46.5281 30.9698 43.9729C30.9247 43.0984 30.5188 42.7205 29.7337 42.4017ZM49.7114 51.8426C49.6114 49.3056 49.6951 45.2206 49.7045 42.5469C49.6792 42.5149 49.6538 42.4828 49.6284 42.4508L49.5879 42.4377C49.1258 42.6836 48.7866 42.9857 48.6273 43.4988C48.2419 44.7408 48.4356 50.098 48.4464 51.7581C48.5637 51.8785 48.5177 51.8412 48.7394 51.8509C49.0479 51.845 49.4071 51.8288 49.7114 51.8426ZM31.3109 27.6755C34.3466 27.9793 36.9751 28.226 40.0519 28.1951C42.7353 28.1461 45.5484 28.0728 48.2075 27.6557C47.1034 26.0475 41.661 21.6276 39.8418 21.2972C39.763 21.2831 39.6829 21.277 39.6028 21.279C36.9739 22.3787 33.0423 25.3994 31.3109 27.6755ZM56.7161 27.3214C57.3419 27.1752 58.1806 27.0325 58.7603 26.8648C58.5448 26.2861 57.9437 24.6211 57.5813 24.2125C57.5334 24.1981 57.4748 24.1728 57.4307 24.1799C57.0054 24.4137 55.7232 24.9191 55.5515 25.2151C55.5688 25.7839 56.0168 26.7729 56.3154 27.2757C56.3815 27.3874 56.6065 27.3564 56.7161 27.3214ZM21.9587 24.1542C21.3438 25.0948 21.0835 25.8196 20.7228 26.8913C21.504 27.2039 22.1865 27.2627 22.9643 27.4755C23.3661 27.2316 23.7131 25.9052 24.0425 25.4026C23.4473 24.9867 22.3326 24.4553 21.9587 24.1542ZM52.6496 21.286C53.0052 21.7329 53.7588 22.7224 54.1765 23.0402C54.3562 23.0298 54.4443 22.9275 54.5891 22.8095C55.1422 22.5584 55.7615 22.2875 56.265 21.9524C56.0445 21.5739 54.566 19.7155 54.2343 19.6143C53.7838 20.2256 53.2001 20.7609 52.6496 21.286ZM54.7405 51.7962C54.6035 50.4468 54.674 47.6124 54.6791 46.1813C54.72 42.5205 54.7272 38.8594 54.701 35.1985C54.6656 31.8933 54.8046 29.5268 53.2507 26.4907C52.1263 24.2357 50.1413 22.4011 48.243 20.7707C46.2101 19.0246 43.7747 17.5115 41.287 16.5143C40.8639 16.3446 40.0144 15.9326 39.5755 15.9915C34.768 17.5023 29.4445 21.5757 26.6451 25.7499C24.5168 28.9236 24.7521 33.2429 24.757 36.8849L24.7634 46.1677C24.7736 47.8743 24.865 50.1694 24.7703 51.8467C25.6383 51.8378 26.4898 51.8349 27.3566 51.7826C27.2786 50.7983 27.3241 49.3346 27.3249 48.304L27.3418 41.8629L27.3282 35.6652C27.3225 33.6392 27.229 31.5523 27.6924 29.5648C28.0444 28.0546 28.9246 26.5427 29.9247 25.3658C31.5547 23.4477 37.0228 18.9425 39.5321 18.7544C39.7737 18.7363 40.0413 18.7479 40.2789 18.7988C43.5641 19.8371 47.6011 23.0954 49.8469 25.7087C50.2178 26.1402 50.7993 27.1366 51.0785 27.6738C51.581 28.6316 51.8965 29.6764 52.0083 30.7522C52.1786 32.2577 52.1344 33.9868 52.1177 35.5019C52.1057 37.0196 52.1044 38.5373 52.1139 40.0551L52.1293 47.6474C52.1319 48.821 52.1995 50.7603 52.1014 51.864C52.9817 51.8088 53.8667 51.8361 54.7405 51.7962ZM26.7419 18.1201C27.2662 18.4165 28.0645 19.2108 28.4502 19.6727L28.5667 19.7271C28.9836 19.394 29.9938 18.5414 30.3404 18.1773C30.1184 17.8929 29.0902 16.3101 28.9515 16.2181C28.585 16.5747 27.2081 17.7395 26.7419 18.1201ZM52.4047 17.9161C52.1499 17.6103 50.5635 16.1051 50.3011 16.0126C49.8114 16.9846 49.4272 17.3348 48.8149 18.1818C49.5467 18.5368 50.4526 19.4093 50.9317 19.5408C51.3033 19.1515 52.1372 18.3218 52.4047 17.9161ZM25.101 23.0661L25.2585 23.1315C25.6515 22.9332 26.4084 21.8369 26.6198 21.3768C26.3904 21.1463 25.1432 19.8182 24.9339 19.7393L24.9207 19.7649C24.5313 20.5129 23.1574 21.569 23.2572 22.1671C23.6621 22.4389 24.5304 22.7354 25.101 23.0661ZM19.8362 36.9598C20.3201 36.9581 21.8609 36.9812 22.2605 36.9219L22.3127 36.8303C22.2965 36.0337 22.304 35.2367 22.3351 34.4405C21.8898 34.4659 20.1997 34.5323 19.807 34.4496C19.8127 35.268 19.8043 36.1474 19.8362 36.9598ZM57.1535 39.4681C57.1579 40.1694 57.2014 41.2192 57.1346 41.885C57.9506 41.8843 58.8334 41.9003 59.6444 41.8783C59.7194 41.1466 59.6123 40.3031 59.7037 39.4792C58.8952 39.487 57.9531 39.5174 57.1535 39.4681ZM30.9957 14.805C31.3923 15.315 32.1175 16.198 32.4284 16.7088C32.4768 16.6941 34.2597 15.5215 34.3358 15.4497C34.2645 15.108 33.4155 13.6029 33.1104 13.4643C32.4342 13.8838 31.5261 14.271 30.9957 14.805ZM22.3401 44.4477C21.9408 44.4712 20.1458 44.5109 19.8081 44.4641C19.8029 45.2804 19.797 46.0497 19.8345 46.8653C20.6751 46.8724 21.5159 46.8736 22.3566 46.8691C22.3152 46.023 22.3237 45.2963 22.3401 44.4477ZM57.1459 36.9663C57.8517 36.9513 58.9752 36.9008 59.6614 36.9435C59.6457 36.3793 59.6243 35.0345 59.7112 34.495C59.0149 34.4919 57.8372 34.5125 57.1831 34.4401C57.1207 35.1793 57.1459 36.2029 57.1459 36.9663ZM59.698 51.797C59.6337 51.2759 59.6167 49.9997 59.7194 49.4856C58.8303 49.4308 57.9935 49.4714 57.1283 49.4358C57.1705 50.2731 57.2077 51.0146 57.1736 51.8546C58.0142 51.8141 58.8561 51.7949 59.698 51.797ZM59.2178 29.2408C58.8076 29.4678 57.4616 29.6913 56.9424 29.7779C56.9858 30.1856 57.0634 31.8275 57.2505 32.0304L57.3211 32.0373C58.0848 32.0145 58.8479 31.9973 59.6117 31.9856C59.5865 31.5679 59.4617 29.453 59.2178 29.2408ZM22.2801 32.0134C22.4149 31.7977 22.4949 30.1733 22.4999 29.8191C21.9728 29.7189 20.6016 29.4177 20.1387 29.3746C20.0098 30.2439 19.9117 31.1174 19.8445 31.9937L22.2801 32.0134ZM38.4789 7.08777C38.4883 7.5077 38.4844 8.08309 38.5192 8.48985C39.5324 8.0209 39.7483 8.00621 40.8022 8.36836L40.9137 8.38959C41.0537 8.20748 41.0078 7.39831 41.0331 7.10384C40.3789 7.1046 39.0827 7.14329 38.4789 7.08777ZM19.7679 49.4389C19.8191 50.1901 19.8165 51.0643 19.8297 51.8279C20.4003 51.8114 21.8868 51.8793 22.3256 51.8139C22.306 51.0556 22.3269 50.1742 22.36 49.4108C21.9371 49.441 20.1258 49.5072 19.7679 49.4389ZM43.0328 13.5863C43.2642 13.0748 43.4843 12.6552 43.7518 12.1604C42.9567 11.7975 42.0745 11.6163 41.3554 11.1858C41.2643 11.1312 41.1916 11.0671 41.0854 11.0271C41.0641 11.9298 41.0326 12.9023 41.0902 13.8021C42.0083 13.9725 42.5074 14.538 43.0328 13.5863ZM39.7588 2.40694C38.9198 3.35303 38.7839 3.46715 38.4422 4.71011C38.8949 4.67879 39.3485 4.6607 39.8023 4.65598C40.1437 4.66077 40.7109 4.65346 41.0329 4.68812C40.8691 3.94398 40.3516 2.83484 39.7588 2.40694ZM59.698 44.468C59.2443 44.4699 57.6154 44.4978 57.2448 44.4344C57.0715 44.6578 57.1465 46.4696 57.1358 46.8857C57.9575 46.877 58.8681 46.8841 59.6829 46.8473C59.664 46.1936 59.6186 45.0934 59.698 44.468ZM46.1213 13.2066C45.7863 13.9578 45.2397 14.597 44.8529 15.363C45.4267 15.6992 46.3129 16.1882 46.8114 16.5906C46.9014 16.5518 46.8773 16.583 46.9158 16.5159L46.9485 16.4637C47.2597 15.9742 48.2402 15.0638 48.1387 14.583C47.9387 14.2332 46.6717 13.6821 46.1213 13.2066ZM38.3158 11.0712C37.7521 11.4927 36.2818 11.8976 35.4797 12.2703L35.4516 12.2837C35.8378 12.7452 36.0101 13.1528 36.2583 13.6978L36.644 14.2898C37.2477 14.1419 37.8428 13.9607 38.4264 13.7467C38.4291 13.2665 38.4635 11.4931 38.385 11.1138L38.3158 11.0712ZM22.3445 41.9019C22.3416 41.5687 22.3801 39.6092 22.2863 39.484L22.2191 39.4705L19.788 39.4889C19.7985 39.8985 19.7835 41.5956 19.8418 41.879C20.6198 41.8843 21.582 41.864 22.3445 41.9019Z" fill="var(--fill-0, black)"/>
<path d="M39.3721 33.2687C39.8825 33.2451 40.0722 33.2822 40.5501 33.4623C41.0424 34.3184 41.0809 34.9309 41.1085 35.8951C41.1162 36.1672 41.1623 36.4923 41.0518 36.7456C40.8716 36.9099 40.5719 36.8933 40.3114 36.9157C39.606 36.9243 39.1387 36.9141 38.4303 36.8601C38.3989 36.0518 38.3556 34.5236 38.6779 33.8156C38.8322 33.4767 39.0388 33.3767 39.3721 33.2687Z" fill="var(--fill-0, black)"/>
<path d="M31.8366 33.278C32.0914 33.2622 32.5449 33.2436 32.7725 33.314C33.6703 33.592 33.6233 36.1531 33.4159 36.7923C33.2084 36.9398 33.1731 36.8951 32.8777 36.9187C32.2832 36.9281 31.6817 36.9075 31.0868 36.8929C31.052 35.9767 30.9369 34.4694 31.3229 33.6406C31.4448 33.3789 31.6029 33.346 31.8366 33.278Z" fill="var(--fill-0, black)"/>
<path d="M46.868 33.2654C47.2455 33.2455 47.529 33.2829 47.9026 33.3214C48.6485 34.3107 48.2979 35.6399 48.4447 36.871L47.6844 36.9106C47.1545 36.9234 46.5725 36.902 46.0386 36.8928C46.0157 36.0203 45.8794 34.4806 46.2387 33.7236C46.38 33.4259 46.5719 33.3497 46.868 33.2654Z" fill="var(--fill-0, black)"/>
<path d="M10.638 33.2273C11.2925 33.1847 11.7457 33.2002 12.3923 33.2302L12.4043 35.7619C12.1937 35.7417 11.9629 35.7437 11.7496 35.741C11.2916 35.7456 10.4195 35.7899 10.0319 35.6281C9.83912 35.3764 9.88178 33.6009 10.0076 33.3378C10.1886 33.2126 10.4118 33.2341 10.638 33.2273Z" fill="var(--fill-0, black)"/>
<path d="M67.9481 33.2208C68.645 33.1768 68.9034 33.1876 69.5909 33.3033C69.5543 33.9468 69.6886 35.1603 69.4907 35.5967C69.3004 35.7541 69.3004 35.7037 68.9986 35.7216C68.3854 35.7473 67.7339 35.7199 67.1169 35.7051C67.1459 34.9426 67.1258 34.0478 67.1277 33.2753C67.4018 33.2601 67.6746 33.242 67.9481 33.2208Z" fill="var(--fill-0, black)"/>
<path d="M5.94353 33.2192C6.40946 33.1789 6.89216 33.2117 7.35506 33.2674C7.38707 33.9996 7.35286 35.0022 7.35052 35.7556L6.61388 35.7289C6.1201 35.7544 5.50665 35.738 5.00373 35.7376C4.93845 35.0288 4.98042 33.9825 4.98899 33.2533C5.30721 33.2437 5.62544 33.2324 5.94353 33.2192Z" fill="var(--fill-0, black)"/>
<path d="M72.2958 33.2249C73.0243 33.1804 73.7552 33.181 74.4831 33.2266C74.4805 33.6811 74.587 35.4705 74.3841 35.7498C73.7326 35.6627 72.6531 35.8828 72.311 35.6496C72.0173 35.2971 72.0406 33.5236 72.2958 33.2249Z" fill="var(--fill-0, black)"/>
</g>
</svg>
