<svg preserveAspectRatio="none" width="100%" height="100%" overflow="visible" style="display: block;" viewBox="0 0 75.2516 40.3261" fill="none" xmlns="http://www.w3.org/2000/svg">
<g id="Vector">
<path d="M24.9271 7.63829C24.9401 7.33983 24.9173 6.95317 25.1044 6.7255C25.7165 6.32536 30.4664 6.72108 31.5472 6.49999L31.5766 6.49421C31.8839 6.43117 33.3166 5.33028 33.7332 5.10529C34.6448 4.61277 35.5749 4.02947 36.435 3.44598C36.7081 3.2607 37.0511 3.06847 37.2972 2.85714C37.8804 1.69158 36.5725 -0.608575 38.6918 0.150512C38.7222 1.02268 38.7161 1.82182 38.7775 2.69824C39.2132 3.10448 39.6166 3.28023 40.0826 3.61187C41.1437 4.36689 42.2401 4.9647 43.3525 5.64052C43.7149 5.86096 44.2144 6.31471 44.6387 6.47961C46.4878 6.73136 49.4344 6.35832 51.2031 6.6479C51.2731 6.73512 51.3768 6.85618 51.4355 6.94664C51.458 7.87304 51.4285 10.1157 51.6824 10.8516C52.2584 11.3163 52.5692 11.3754 53.1517 11.7346L55.7467 13.354C57.239 14.2868 56.9756 14.345 58.7998 14.3366C59.7729 14.3273 60.7455 14.3235 61.7186 14.3253C62.4763 14.3298 63.1673 14.2625 63.8658 14.5906C63.9259 15.3164 64.0273 16.5388 64.0395 17.2564C64.4962 17.7556 65.1201 17.9588 65.7144 18.2549C65.9754 18.3849 66.2655 18.5868 66.5208 18.6997C68.1619 19.4255 69.7467 20.246 71.3357 21.0731C72.4721 21.6646 73.4758 21.9727 74.5385 22.7344C74.5587 23.0725 74.5719 23.2849 74.6357 23.6164C73.4532 23.8113 72.3346 23.786 71.1395 23.7855C70.5222 23.7852 69.827 23.8103 69.2223 23.7929C69.2693 24.6927 69.236 25.8151 69.2317 26.7303L69.2223 31.5835L69.2289 36.1622C69.2331 36.9625 69.2716 38.0826 69.2284 38.8585C69.7068 38.935 70.4095 38.8667 70.9193 38.867C71.7882 38.8677 72.6533 38.8601 73.5246 38.8624C73.8518 38.8633 74.4137 38.8263 74.723 38.9085C74.8207 38.9345 75.1488 39.3171 75.2516 39.4222L75.2398 39.4403C74.9634 39.8708 75.1366 40.2129 74.7193 40.2727C74.362 40.3239 73.8119 40.307 73.4415 40.3082L6.42313 40.3061C5.50766 40.3067 0.60902 40.3893 0.128417 40.2141C0.0752507 40.0621 0.169149 40.0096 0.157747 39.9897C-0.115297 39.5132 -0.0703636 39.0232 0.583672 38.9592C2.23725 38.7976 4.28539 38.8253 5.92456 38.9235L5.91418 28.8853C5.91226 27.3356 5.85485 25.2921 5.93273 23.7641C5.21395 23.768 1.1167 23.8977 0.732149 23.5401C0.65737 23.4706 0.645588 23.3347 0.647325 23.237C0.650423 23.0636 0.667792 22.8888 0.685019 22.7162C1.72333 21.9758 2.73681 21.7113 3.80047 21.1277C6.16936 19.8278 8.67616 18.7753 11.0393 17.4819C11.201 16.9639 11.1416 15.3586 11.2704 14.5975C11.8821 14.255 13.1596 14.336 13.8836 14.3379L17.1084 14.359C19.0048 14.3758 18.7652 14.4275 20.3818 13.4262L23.3119 11.5956C23.819 11.2808 24.3844 11.012 24.8879 10.7092C24.8886 10.5955 24.8834 10.2008 24.9058 10.1126C24.9386 9.88724 24.9272 9.77659 25.0713 9.61704L25.0543 9.51315C25.078 9.05307 25.1101 8.51216 25.0178 8.05983C24.9961 7.86943 24.9884 7.81892 24.9271 7.63829ZM31.0912 38.9055C33.2782 38.8233 35.6115 38.8621 37.8096 38.8629L42.1646 38.8657C42.5803 38.867 43.6497 38.9189 43.974 38.88C44.1416 38.4839 44.0642 36.454 44.0628 35.9057L44.0637 31.3977C44.0646 29.8782 44.0581 28.3223 44.0646 26.8208C44.0754 24.48 43.9069 22.7511 42.255 20.9549C40.902 19.4837 39.4171 18.7905 37.4005 18.884C35.1797 19.0046 33.9916 19.6698 32.609 21.3504C30.7253 23.6402 31.0692 26.7058 31.0716 29.4578L31.0912 38.9055ZM65.366 38.9172C65.4158 38.601 65.3961 37.9495 65.3956 37.6074L65.389 35.2922L65.3942 27.7966C65.3942 26.6782 65.3304 24.78 65.4205 23.7593C64.7802 23.8022 64.023 23.7671 63.3654 23.7701L58.1196 23.7634L54.115 23.7746C53.7305 23.7765 52.448 23.8084 52.1204 23.7631C52.0115 23.9166 52.0392 25.7934 52.0373 26.0787C52.0284 27.6675 52.0293 29.2563 52.0401 30.845C52.0462 33.4129 51.9645 36.4039 52.0575 38.9238C55.1406 38.7899 58.3515 38.9026 61.4483 38.8678C62.0205 38.8613 64.99 38.8327 65.366 38.9172ZM23.0988 38.8841C23.0731 35.9487 23.0702 33.0131 23.0901 30.0776C23.0908 27.9855 23.0603 25.8325 23.111 23.7442C20.8519 23.8636 18.1312 23.7578 15.8413 23.7705C14.5908 23.7776 13.3403 23.7764 12.0899 23.7671C11.5398 23.7683 10.3711 23.8044 9.86432 23.7442C9.87178 25.4274 9.78259 38.5123 9.98791 38.8713C10.4317 38.9117 10.9143 38.8728 11.3637 38.8698C12.0367 38.8652 12.7091 38.8646 13.3823 38.8643L20.9472 38.8695C21.2321 38.8703 22.9962 38.9446 23.0988 38.8841ZM29.2015 38.8837C29.3059 35.6884 29.2095 32.4005 29.2527 29.1958C29.2748 27.5476 29.1336 25.4447 29.4312 23.8441C29.697 22.4148 30.8207 20.4156 31.8839 19.4115C33.6868 17.6539 35.4616 16.989 37.9677 17.1239C39.7961 17.2224 40.779 17.4099 42.2931 18.5587C43.2657 19.2965 43.7224 19.6053 44.3815 20.7282C46.4512 24.2462 45.8034 25.4838 45.917 29.292C45.9541 30.5298 45.8231 38.5089 46.062 38.8937C46.6516 38.9716 47.3248 38.8463 47.9397 38.9413C47.9646 37.502 47.9092 35.9663 47.9102 34.5069L47.913 23.0663C47.9078 20.8102 47.8289 17.8393 47.9796 15.6291C47.4778 15.6629 47.0051 15.6412 46.5085 15.6529C43.6286 15.7202 40.7227 15.5887 37.8496 15.6068L30.5404 15.6533C29.8652 15.6559 27.7411 15.705 27.1885 15.6186C27.1347 16.0064 27.1493 16.6723 27.1467 17.0798L27.1346 19.6462L27.1644 35.8096C27.1642 36.4141 27.0999 38.3223 27.1607 38.7791C27.3021 38.9208 28.5809 38.9012 28.8446 38.9006C28.9637 38.8997 29.0828 38.8941 29.2015 38.8837ZM51.904 14.3179C52.7607 14.3038 53.5376 14.3168 54.3853 14.4404C53.3442 12.5902 51.0445 12.901 49.2696 12.8946L43.0779 12.9005L31.9516 12.8959C30.2307 12.8869 28.5097 12.8874 26.7888 12.8974C25.8856 12.8991 24.7964 12.8691 23.9149 12.9117C23.521 13.0664 22.1608 13.7697 21.9248 14.1787C21.8821 14.2527 21.9184 14.2964 21.9491 14.3662C22.0677 14.426 23.1384 14.3136 23.3971 14.3129C32.8923 14.2868 42.4102 14.4183 51.904 14.3179ZM24.4153 38.8379C24.8778 38.9093 25.111 38.9119 25.5829 38.8686C25.7438 38.8036 25.7002 38.8461 25.7752 38.7194C25.8046 37.9931 25.763 37.2706 25.7736 36.5401C25.824 33.0644 25.7731 29.5916 25.7818 26.1129L25.8184 19.8495C25.8247 18.7086 25.8457 16.7799 25.7578 15.6721C25.2991 15.6497 24.9753 15.6707 24.521 15.7004C24.5138 15.7073 24.4403 15.7785 24.4403 15.7785C24.2734 18.2549 24.3524 20.7488 24.3458 23.23C24.3162 27.0684 24.3091 30.907 24.3244 34.7455C24.3254 35.5826 24.3247 36.419 24.3442 37.256C24.3563 37.774 24.4253 38.3261 24.4153 38.8379ZM4.49531 22.4915C6.47308 22.3246 8.51445 22.4289 10.515 22.4333L20.5232 22.4358C21.2064 22.4319 22.4585 22.3955 23.0903 22.4771C23.0983 22.0949 23.1331 21.4856 23.1144 21.1188L12.2649 21.118C10.7865 21.1207 8.70987 21.0639 7.2748 21.1326C6.82946 21.1826 5.35304 21.6987 4.97942 21.928L4.9514 21.945C4.78391 22.0485 4.61365 22.3234 4.49531 22.4915ZM52.0777 22.4424C55.6148 22.4201 59.1514 22.4161 62.6885 22.4305C64.0897 22.4353 65.4914 22.4287 66.8931 22.4109C67.7977 22.3967 68.7172 22.3702 69.6223 22.3785C69.9265 22.3814 70.218 22.4933 70.4926 22.5133C70.6325 21.9304 68.4976 21.1588 67.9723 21.1423C66.9649 21.1105 65.9589 21.1254 64.9506 21.1245L57.6582 21.0991C57.0094 21.1023 52.4072 21.19 52.095 21.0516C52.0218 21.5608 52.0894 21.9522 52.0777 22.4424ZM31.0537 9.92118C30.0945 9.92479 28.71 9.77444 27.932 10.3844C27.6454 10.6091 26.4994 11.1335 26.4077 11.4012C26.5431 11.52 27.6521 11.4427 27.9043 11.4342L31.4526 11.4503C31.8707 10.883 32.5521 10.3498 32.7644 9.87944C32.1944 9.90306 31.6241 9.91695 31.0537 9.92118ZM43.6088 9.78237L43.7769 10.3108C43.9487 10.445 44.888 11.3883 44.9195 11.3922C46.0268 11.5309 47.843 11.3991 49.0203 11.4567C49.3851 11.4745 49.701 11.5473 49.8827 11.5445C49.7076 11.0756 49.2212 10.9811 48.8293 10.7239C48.5166 10.5186 48.1993 10.2857 47.8693 10.1096C46.753 9.65572 44.7331 10.1445 43.6088 9.78237ZM52.0946 17.1243C53.6376 17.1366 55.2467 17.187 56.7799 17.1593C57.5704 17.2059 58.8801 17.1269 59.6997 17.1366C60.2503 17.1431 61.9956 17.1538 62.411 17.0497C62.5833 16.9006 62.6373 15.9279 62.4932 15.7075C61.9477 15.53 57.2127 15.6006 56.5123 15.6206C55.7293 15.5953 54.8811 15.6143 54.0952 15.6285C53.3681 15.6417 52.8654 15.7015 52.1251 15.6225C52.0054 15.9241 52.1077 16.7504 52.0946 17.1243ZM23.0875 18.3311C22.7797 18.3429 22.3981 18.3473 22.0971 18.3743C19.7012 18.4655 17.3846 18.388 14.9943 18.4399C14.3747 18.4533 13.0037 18.3627 12.4779 18.4825C11.7781 18.6419 10.3785 19.3401 9.76921 19.7287C10.1216 19.7404 10.675 19.7173 10.9768 19.7411C11.9211 19.7163 12.9823 19.7636 13.9352 19.779C15.0881 19.7901 16.2412 19.7939 17.3942 19.7905C19.0939 19.7928 21.44 19.6971 23.0504 19.7986C23.0872 19.2672 23.1118 18.8696 23.0875 18.3311ZM45.1861 8.61262C44.7054 8.15085 43.3643 7.05376 42.7606 7.05409C41.7401 7.05456 40.507 6.92096 39.4965 6.92477C39.8122 7.47657 40.962 8.43621 41.546 8.51282C42.3237 8.61487 44.4552 8.68397 45.1861 8.61262ZM52.0753 18.233C52.0739 18.5205 52.0171 19.5862 52.1199 19.7667C52.8475 19.8016 53.6962 19.7742 54.4403 19.7822C56.6583 19.7961 58.8768 19.795 61.0948 19.7791C62.4763 19.7678 63.9005 19.7275 65.2764 19.7684L65.3083 19.7051C65.0332 19.3556 62.9922 18.4335 62.4721 18.4387C60.2339 18.4615 58.0013 18.3676 55.7612 18.3782C54.9346 18.3781 52.7231 18.5189 52.0753 18.233ZM31.0192 8.63707C31.3578 8.63393 31.8689 8.64369 32.1889 8.59459C32.9855 8.55108 34.7313 8.72838 35.339 8.30036C35.888 7.9136 36.3258 7.40724 36.8265 6.97025C36.4117 6.97452 36.0373 6.97626 35.6225 7.01522C33.0036 7.04691 33.1584 6.81009 31.0192 8.63707ZM49.4259 18.0127C49.3574 20.4519 49.4076 22.9707 49.4062 25.4174L49.4001 28.4C49.4006 28.8528 49.386 29.5539 49.4226 29.9948C49.3738 30.3078 49.4048 32.4544 49.409 32.8653C49.4292 34.8827 49.3959 36.9429 49.4606 38.9551C49.8667 38.9235 50.2751 38.9196 50.6826 38.9115C50.7088 38.5385 50.7051 38.0212 50.6966 37.6394C50.6361 34.8345 50.799 31.9443 50.6933 29.1482C50.7685 27.9899 50.7023 26.6184 50.7074 25.4327C50.7164 23.3572 50.7398 21.261 50.6901 19.1877C50.7098 18.0347 50.6816 16.8452 50.6891 15.6844C50.2577 15.6782 49.8949 15.6945 49.4865 15.543C49.4137 16.1097 49.4001 17.429 49.4259 18.0127ZM28.1231 7.89816C27.4353 7.93764 26.9078 7.9481 26.2157 7.94327C26.2588 8.33542 26.2171 9.26934 26.1816 9.68726C26.3774 9.58347 26.5743 9.48175 26.7723 9.38205C27.2823 9.06232 27.8197 8.85986 28.3154 8.56394C28.5523 8.4225 28.741 8.12822 29.1095 7.8967C28.7846 7.88708 28.4454 7.86722 28.1231 7.89816ZM23.075 17.1531C23.0963 16.6521 23.1011 16.1504 23.0892 15.6491C22.3343 15.6322 21.5652 15.6833 20.815 15.6576C18.2984 15.5714 15.7902 15.5943 13.2737 15.6308C13.0702 15.6338 12.8285 15.5908 12.6415 15.5077C12.652 16.0124 12.6522 16.6379 12.6536 17.1527C14.0709 17.1165 15.4578 17.1418 16.8735 17.1438L23.075 17.1531ZM9.57501 30.9433L9.57834 30.9028C9.66491 29.7991 9.55957 28.1694 9.59233 27.0116C9.60656 26.5101 9.60557 24.7815 9.54919 24.3911C9.39194 24.6376 9.48648 37.3249 9.51765 38.6319C9.57187 38.244 9.64843 34.6432 9.57689 34.3384C9.6273 33.401 9.5982 31.8984 9.57501 30.9433ZM66.6424 37.345C66.649 37.5608 66.7368 38.6774 66.8072 38.8117C66.8987 38.9089 66.9879 38.951 67.1207 38.9553C67.2897 38.9607 67.7249 38.9611 67.8502 38.8387C68.0915 38.6032 67.9849 25.2527 67.9709 23.7706C67.539 23.7584 67.1071 23.7507 66.6753 23.7472C66.6823 24.2459 66.6269 24.8492 66.5931 25.3545C66.3148 25.7077 66.3335 36.8993 66.6424 37.345ZM8.44333 23.7538C7.98386 23.7765 7.70226 23.796 7.24171 23.7539L7.23725 33.9579C7.24058 35.5395 7.29569 37.3059 7.25776 38.8619C7.67329 38.9191 8.03371 39.0067 8.42423 38.8128C8.45352 35.44 8.46258 32.0672 8.45141 28.6943C8.45126 27.2422 8.37109 25.1315 8.44333 23.7538ZM47.2004 7.88431C47.613 8.55971 49.5912 9.33041 50.062 9.80574L50.1221 9.74725C50.1122 9.20442 50.0624 8.44466 50.1488 7.93172C49.133 8.00401 48.197 7.85192 47.2004 7.88431ZM38.0176 4.15842C37.8432 4.23362 35.9777 5.27442 35.8794 5.35638C35.8165 5.51913 35.8024 5.48003 35.8473 5.61621C35.9954 5.67578 38.0347 5.58635 38.3612 5.58452C38.8803 5.59598 39.8378 5.69089 40.2509 5.68122C40.3421 5.58917 40.3359 5.50754 40.3483 5.37995C40.2423 5.19462 39.9638 5.14702 39.7587 5.0475C39.2878 4.81904 38.5394 4.14316 38.0176 4.15842ZM38.017 7.95674C37.4006 8.51967 36.779 8.84038 36.1087 9.30525C35.5998 9.65821 35.1456 10.1358 34.6173 10.4932C34.1463 10.8118 33.6512 11.0847 33.2713 11.5053C35.0705 11.4207 36.6707 11.467 38.4561 11.4582C39.6564 11.4517 42.0428 11.3361 43.0606 11.6442C42.4728 11.0268 38.7227 8.19558 38.017 7.95674Z" fill="black"/>
<path d="M58.3237 25.0788C59.7254 24.9346 61.3449 25.3996 62.2213 26.5407C62.6959 27.1584 63.1005 27.6431 63.338 28.4039C63.8272 29.9702 63.6807 31.644 63.7051 33.2628C63.714 33.9816 63.7023 34.7713 63.6521 35.4824C63.6244 35.8738 63.4544 36.1233 63.4178 36.5759C62.2579 36.7685 60.3384 36.6968 59.1104 36.6916C57.8486 36.6858 54.887 36.8597 53.8444 36.5119C53.5032 35.003 53.5173 29.8433 53.9548 28.3534C54.1374 27.7371 54.4509 27.1678 54.8748 26.6846C55.8784 25.527 56.8018 25.1838 58.3237 25.0788ZM58.9334 34.8364C59.7521 34.8334 60.9872 34.7973 61.7655 34.8917C61.8556 34.1618 61.842 33.0395 61.8232 32.2934C61.7894 30.9382 62.0274 29.2112 61.1378 28.0806C60.6055 27.3974 59.823 26.9542 58.963 26.8488C58.7452 26.8228 58.5049 26.8305 58.2875 26.8542C55.4743 27.5564 55.5085 29.0936 55.364 31.7346C55.3062 32.7906 55.4621 33.8311 55.4442 34.8576C56.607 34.8336 57.7702 34.8265 58.9334 34.8364ZM63.4394 34.3663C63.485 33.9576 63.5441 30.5361 63.4037 30.2935C63.354 30.8911 63.3291 33.9023 63.4394 34.3663Z" fill="black"/>
<path d="M63.4394 34.3663C63.485 33.9576 63.5441 30.5361 63.4037 30.2935C63.354 30.8911 63.3291 33.9023 63.4394 34.3663Z" fill="black" fill-opacity="0.513725"/>
<path d="M11.5055 29.2059C11.6432 28.0505 12.4595 26.6582 13.3635 25.9753C15.2452 24.6541 18.0941 24.6935 19.7821 26.3129C21.8205 28.2684 21.3365 30.4395 21.4026 32.9785C21.4353 34.2345 21.4297 35.3231 21.2294 36.5562C20.752 36.6598 19.0619 36.748 18.5657 36.696C17.3005 36.5633 12.4538 36.9509 11.6236 36.5214C11.5003 36.4045 11.4991 36.208 11.4766 36.0339C11.4957 35.6921 11.5465 35.3009 11.5411 34.9681C11.5729 33.3257 11.6089 30.7915 11.5055 29.2059ZM13.1986 34.8393C14.3962 34.8281 15.5938 34.8251 16.7914 34.8304C17.5861 34.8268 18.7342 34.7939 19.4924 34.8877C19.5747 34.0494 19.5117 33.1434 19.5263 32.3072C19.5531 30.7658 19.7808 29.1553 18.7216 27.8718C18.0482 27.0559 16.9845 26.7779 15.968 26.8566C15.011 27.0938 14.2104 27.4629 13.6766 28.3485C13.4619 28.7125 13.3155 29.1126 13.2445 29.5291C13.1376 30.1412 13.168 31.1242 13.1707 31.7694C13.1702 32.7928 13.1795 33.8161 13.1986 34.8393Z" fill="black"/>
<path d="M11.262 30.3186C11.212 29.9012 11.2322 29.5475 11.5055 29.2059C11.6089 30.7915 11.5729 33.3257 11.5411 34.9681C11.3709 34.3918 11.5033 33.9037 11.4051 33.526C11.3682 32.6955 11.4986 30.6536 11.3467 29.9601C11.277 30.0457 11.2763 30.1999 11.262 30.3186Z" fill="black" fill-opacity="0.0588235"/>
<path d="M11.262 30.3186C11.2763 30.1999 11.277 30.0457 11.3467 29.9601C11.4986 30.6536 11.3682 32.6955 11.4051 33.526L11.4012 33.5687C11.3773 33.8629 11.4487 34.8301 11.3285 34.9793L11.2623 34.9266C11.28 33.3635 11.1941 31.925 11.262 30.3186Z" fill="black" fill-opacity="0.952941"/>
<path d="M11.4051 33.526C11.5033 33.9037 11.3709 34.3918 11.5411 34.9681C11.5465 35.3009 11.4957 35.6921 11.4766 36.0339C11.466 36.0126 11.2618 34.9752 11.2623 34.9266L11.3285 34.9793C11.4487 34.8301 11.3773 33.8629 11.4012 33.5687L11.4051 33.526Z" fill="black" fill-opacity="0.376471"/>
<path d="M25.688 13.4243C26.459 13.3766 27.5969 13.4094 28.3806 13.4102L34.8091 13.4689C36.2009 13.4744 37.6111 13.4729 39.0023 13.4855C39.8477 13.4931 41.4782 13.318 42.2143 13.5284L42.227 13.6101C41.0407 13.6304 39.8464 13.5296 38.6586 13.5354C37.0053 13.5433 35.3497 13.5233 33.6965 13.5416L27.9423 13.6063C27.5659 13.6069 25.7712 13.6847 25.6264 13.4912L25.688 13.4243Z" fill="black" fill-opacity="0.196078"/>
<path d="M47.2352 13.442C47.8924 13.405 48.5965 13.434 49.2593 13.4294C50.093 13.4237 50.9018 13.4087 51.7332 13.4916L51.7064 13.5337C51.1839 13.6012 47.4713 13.6726 47.2065 13.4935L47.2352 13.442Z" fill="black" fill-opacity="0.258824"/>
<path d="M42.7822 13.4485C43.2661 13.4089 44.9288 13.368 45.318 13.5256L45.3138 13.5911C45.0396 13.6058 42.8235 13.5857 42.7188 13.5147L42.7822 13.4485Z" fill="black" fill-opacity="0.258824"/>
<path d="M66.5931 25.3545C66.3148 25.7077 66.3335 36.8993 66.6424 37.345C66.7471 33.3486 66.7307 29.35 66.5931 25.3545Z" fill="black" fill-opacity="0.941176"/>
<path d="M9.57689 34.3384C9.64843 34.6432 9.57187 38.244 9.51765 38.6319C9.48648 37.3249 9.39194 24.6376 9.54919 24.3911C9.60557 24.7815 9.60656 26.5101 9.59233 27.0116C9.55957 28.1694 9.66491 29.7991 9.57834 30.9028L9.57501 30.9433C9.47686 31.21 9.46606 34.0944 9.57689 34.3384Z" fill="black" fill-opacity="0.694118"/>
<path d="M9.57501 30.9433C9.47686 31.21 9.46606 34.0944 9.57689 34.3384C9.6273 33.401 9.5982 31.8984 9.57501 30.9433Z" fill="black" fill-opacity="0.596078"/>
<path d="M24.9271 7.63829C24.9884 7.81892 24.9961 7.86943 25.0178 8.05983C24.9413 8.31637 24.8896 9.29565 25.0181 9.50478L25.0543 9.51315L25.0713 9.61704C24.9272 9.77659 24.9386 9.88724 24.9058 10.1126C24.7406 9.24695 24.6989 8.49259 24.9271 7.63829Z" fill="black" fill-opacity="0.968627"/>
<path d="M25.0178 8.05983C25.1101 8.51216 25.078 9.05307 25.0543 9.51315L25.0181 9.50478C24.8896 9.29565 24.9413 8.31637 25.0178 8.05983Z" fill="var(--fill-0, black)" fill-opacity="0.25098"/>
</g>
</svg>
