<svg preserveAspectRatio="none" width="100%" height="100%" overflow="visible" style="display: block;" viewBox="0 0 67.0382 66.7321" fill="none" xmlns="http://www.w3.org/2000/svg">
<g id="Vector">
<path d="M29.4652 0.0365284C31.6039 -0.0507804 33.955 0.0504149 36.1112 0.0160102C36.4403 0.0107597 37.0587 0.0465176 37.2489 0.306425C37.9792 1.30397 38.2774 2.95521 38.7748 4.09451C39.9225 6.72324 40.8163 9.50415 41.8103 12.1951C42.0911 12.9551 42.6302 13.8367 42.7821 14.57C42.9822 15.5363 42.9318 16.8218 42.9315 17.8249L42.9286 28.4704C42.9279 29.7225 42.9587 31.1585 42.8914 32.3903C46.5837 32.4116 50.2762 32.4101 53.9685 32.3861C54.0406 32.2371 54.1369 32.0994 54.2052 31.9568C55.3369 29.5913 55.9876 26.9748 57.0704 24.5807C57.2979 24.0777 57.4397 23.5832 57.709 23.0867C58.5039 22.9834 62.5019 22.8917 63.0357 23.2109C64.2034 24.5833 64.9504 28.2346 65.7299 29.7392C67.2359 32.6461 67.0322 34.4068 67.0255 37.4752L67.022 58.2739C67.0255 60.6197 67.0378 62.9808 67.0271 65.3274C67.0255 65.69 66.9641 66.1801 66.7559 66.4838C66.1628 66.8396 63.1957 66.7099 62.4403 66.7055L57.3536 66.7013L8.1493 66.7C6.88604 66.6936 0.97693 66.79 0.244791 66.5326C-0.0627555 66.217 0.0111011 65.8431 0.0111572 65.4325C0.0113885 63.8549 0.0123278 62.2773 0.0130849 60.6997L0.0177044 44.0668L0.00841623 36.5019C0.00653055 35.4071 -0.0281546 34.0123 0.0586073 32.9358C0.0940916 32.4955 0.723808 31.2469 0.911717 30.7413C1.66961 28.7023 2.37566 26.5718 3.23797 24.5806C3.46229 24.0627 3.59773 23.6041 3.87269 23.0867C5.19328 22.9151 7.8844 22.9259 9.1942 23.1938C9.61522 23.2799 10.1752 25.122 10.3518 25.6016L11.6009 28.9958C12.0435 30.2196 12.4943 31.0607 12.849 32.3407C16.0782 32.552 20.2227 32.3643 23.5577 32.413C23.4968 31.0584 23.532 29.4914 23.5312 28.1242L23.5323 20.5681L23.5266 17.0061C23.5263 16.6382 23.5144 15.1485 23.5948 14.8755C23.9749 13.5833 24.6294 12.183 25.1058 10.9021L27.8079 3.74129C28.2176 2.64597 28.561 1.5055 29.0548 0.426365C29.1388 0.242901 29.3005 0.144047 29.4652 0.0365284ZM28.5582 18.9228C28.5012 23.2731 29.4088 23.0632 24.909 23.0138C25.0029 25.7119 24.923 28.8275 24.9232 31.5582L24.9215 59.225C24.9213 60.8754 25.0014 63.6148 24.8783 65.2049C25.8566 65.2108 26.996 65.1886 27.9604 65.2283L27.9639 57.5689C27.9626 56.3265 27.8952 54.9974 27.9856 53.7661C28.219 50.5883 30.4171 48.8534 33.4689 48.8452C35.8057 49.0635 37.883 50.3417 38.3879 52.87C38.7639 54.7525 38.4336 56.9888 38.5419 58.9189C38.5201 60.9555 38.6043 63.2283 38.5304 65.2204C39.5402 65.2043 40.5502 65.205 41.5601 65.2223C41.4283 63.4477 41.5223 60.2296 41.5223 58.3671L41.5253 30.5691C41.5267 28.3511 41.4283 25.1512 41.556 23.038C36.693 22.9376 38.1848 23.3132 37.881 18.9625C36.9704 18.9798 36.2 19.0399 35.325 18.7533C35.1382 17.0032 34.3364 14.8115 34.1066 12.9863C34.0751 12.7359 33.503 10.1172 33.4357 9.99428C33.3028 9.95012 33.2304 9.91998 33.0917 9.90491C32.2627 12.5355 32.0168 15.5961 31.202 18.2598C30.8862 19.2922 29.4584 18.9992 28.5582 18.9228ZM55.2953 33.8028C55.1935 41.1483 55.2764 48.7092 55.2773 56.0736L55.2834 61.9324C55.2842 62.7479 55.328 64.4371 55.2172 65.1788L56.9352 65.2284C56.9213 64.0567 56.9161 62.885 56.9196 61.7133C56.9195 58.9364 56.5643 55.4735 60.4125 55.3273C61.4918 55.4123 62.3416 55.6473 63.0853 56.5225C63.4452 56.9425 63.7 57.4419 63.8289 57.9797C63.9996 58.7147 63.9564 60.6144 63.9462 61.4416C63.9316 62.6356 63.9709 64.0204 63.9268 65.2022C64.4421 65.2093 64.9695 65.2103 65.4834 65.2242L65.4935 45.9627C65.4932 41.9477 65.5377 37.84 65.4868 33.8326C64.7198 33.8374 62.9739 34.0034 62.4895 33.4828C61.9302 32.8814 60.9493 30.339 60.3311 29.9793C59.8412 30.9386 59.2415 31.8407 58.768 32.8085C58.636 33.0781 58.2894 33.7087 57.9819 33.7609C57.185 33.8963 56.0993 33.8682 55.2953 33.8028ZM4.3384 33.7774C3.47946 33.8821 2.32754 33.8622 1.45435 33.8014L1.44014 55.8867L1.44681 61.8828C1.44772 62.7096 1.49459 64.4343 1.37595 65.1831C1.95058 65.1952 2.52513 65.2107 3.09958 65.2297C3.08511 64.0548 3.07969 62.8798 3.08335 61.7049C3.08285 58.9208 2.73082 55.481 6.58111 55.3285C7.6579 55.4142 8.50702 55.6502 9.24895 56.5229C9.60884 56.9426 9.86379 57.4419 9.99263 57.9797C10.1637 58.7161 10.1194 60.5818 10.1103 61.4061C10.0971 62.6156 10.134 64.0041 10.0907 65.2004C10.6028 65.2071 11.1376 65.2057 11.6473 65.2225L11.652 37.6005C11.6514 36.4232 11.6879 34.9919 11.6414 33.8307C10.6706 33.8533 9.27299 34.0253 8.52608 33.4549C8.2909 32.8641 6.96189 30.2529 6.49566 29.9798C6.13892 30.675 5.72737 31.3409 5.34617 32.0232C5.01376 32.6183 4.7675 33.2439 4.3384 33.7774ZM42.8907 65.2022L44.8915 65.2219C44.8752 63.8298 44.8704 62.4378 44.8772 61.0457C44.8778 59.4091 44.6528 57.4349 45.9635 56.262C47.8906 54.5373 50.676 55.2767 51.7107 57.5469C51.9662 58.6809 51.9584 63.8506 51.8641 65.2021C52.5116 65.2087 53.2181 65.2012 53.8604 65.2261C53.7445 57.2491 54.0122 49.0482 53.8318 41.1066C52.0117 41.2339 49.5537 41.0981 47.6781 41.1412C46.658 41.1646 43.8205 41.2035 42.9365 41.0668C42.8614 46.5529 42.9269 52.1966 42.9273 57.6916L42.9271 62.3762C42.9268 63.2322 42.9544 64.3656 42.8907 65.2022ZM13.1656 65.2075C13.6989 65.2091 14.3032 65.1972 14.8302 65.2204C14.7327 63.9001 14.6496 59.011 14.928 57.8743C15.0476 57.3861 15.3097 56.9392 15.6361 56.5607C15.9446 56.2031 16.335 55.9525 16.6541 55.614C18.6491 55.1158 20.712 55.3091 21.588 57.4738C21.9012 58.6118 21.8436 63.7969 21.7636 65.2069C22.3676 65.2054 22.9538 65.2021 23.5582 65.2292C23.4759 63.4675 23.5296 61.3068 23.5296 59.5226L23.5337 47.7585C23.5351 45.6367 23.5927 43.1907 23.5075 41.0886C22.4402 41.2278 19.3827 41.1248 18.187 41.1441C17.2098 41.1598 14.0003 41.207 13.2057 41.0742C13.0599 46.8878 13.2708 52.9022 13.1843 58.7318C13.1531 60.8348 13.2548 63.1346 13.1656 65.2075ZM25.2883 14.4731C27.0619 14.4513 28.8356 14.4461 30.6093 14.4572C30.81 13.5377 31.0348 12.5899 31.2771 11.6704C31.7733 9.78728 32.001 7.82758 32.5934 5.97661C32.682 5.69943 33.0393 5.31389 33.3765 5.46124C33.9822 5.77304 34.1829 6.91895 34.3376 7.52209C34.6417 9.20342 34.9916 10.8761 35.3872 12.5383C35.525 13.1389 35.7534 13.8378 35.8545 14.4247C37.6437 14.4762 39.4123 14.4225 41.1787 14.4642C40.5763 12.625 39.9199 10.804 39.2104 9.0035C38.7416 7.81784 38.3183 6.81184 37.8929 5.5865C37.4248 4.23849 36.8669 3.07942 36.5027 1.65627C34.6977 1.50784 31.8598 1.58719 30.0198 1.64604C29.7855 2.30723 29.5532 2.96206 29.3332 3.6285C28.1516 7.20755 26.3194 10.8699 25.2883 14.4731ZM58.2952 65.1966L61.1216 65.2075L62.5604 65.1975C62.2461 63.3105 62.9444 58.8272 62.0889 57.4447C61.7133 57.2238 61.5017 57.1029 61.1615 56.8219C60.724 56.8148 60.272 56.7989 59.8362 56.8228C59.1924 57.1027 58.7915 57.3955 58.5309 58.0804C58.0809 59.2635 58.3816 63.6076 58.2952 65.1966ZM11.4554 32.3863C10.7701 31.0798 10.4651 29.6734 9.90578 28.3637C9.37506 27.1209 8.97479 25.8313 8.47449 24.615C7.26261 24.5822 6.05003 24.5871 4.83851 24.6296C4.51577 24.7969 3.93418 26.6509 3.79113 27.0816C3.49927 27.9604 3.15827 28.7948 2.79144 29.6485C2.39882 30.6118 2.25446 31.4865 1.67584 32.3741C2.31164 32.3915 2.9476 32.4022 3.58362 32.4063C3.82252 31.6842 4.417 31.0589 4.70448 30.4107C5.11302 29.4895 6.55356 26.1314 7.55479 28.6552C7.77455 29.1909 9.29991 31.9545 9.64045 32.3472C10.1967 32.4088 10.8888 32.4074 11.4554 32.3863ZM55.5157 32.3714C56.1491 32.391 56.7828 32.4027 57.4166 32.4066C57.6214 31.7861 58.1937 31.0361 58.5207 30.4425C58.9783 29.6118 59.3494 28.3564 60.1745 27.839C60.7397 27.4845 61.2275 28.22 61.3966 28.6633C61.6254 29.2061 63.1364 31.955 63.4797 32.3506C64.0943 32.4179 64.6784 32.3986 65.2943 32.3902C64.6093 31.1058 64.3115 29.7029 63.7588 28.4111C63.2222 27.1566 62.817 25.8428 62.3106 24.6151C61.0991 24.5826 59.8869 24.5871 58.6757 24.6287C58.3064 24.8192 57.0147 28.9339 56.6278 29.6485C56.2618 30.325 56.0906 31.4891 55.5157 32.3714ZM50.5298 65.2223C50.422 63.762 50.5156 62.1235 50.504 60.6467C50.4894 58.7791 50.7483 56.8091 48.1687 56.8245C47.6686 56.8655 47.2196 57.053 46.8854 57.4384C45.807 58.6824 46.5236 63.3882 46.249 65.1819C47.0094 65.2032 47.7702 65.2147 48.5309 65.2163C49.1899 65.2172 49.8731 65.2084 50.5298 65.2223ZM41.5064 15.881C39.8239 15.8996 37.7992 15.8925 36.1068 15.8662C36.2479 16.5104 36.3514 16.6413 36.4488 17.3743C37.1471 17.4236 39.512 17.2486 39.4659 18.3006C39.4189 19.37 39.4588 20.5401 39.3987 21.6006L41.5468 21.6071C41.4232 19.8646 41.5793 17.7009 41.5064 15.881ZM23.4669 39.7464C23.6007 39.2345 23.54 34.5981 23.5353 33.8155L16.7982 33.8239C15.9144 33.8248 13.9879 33.8841 13.177 33.7942L13.1901 39.7393C15.2985 39.7004 17.4829 39.7297 19.5978 39.7184C20.6965 39.7124 22.4572 39.6626 23.4669 39.7464ZM42.9113 33.7839C42.9276 35.7703 42.9308 37.7569 42.9211 39.7434C46.0342 39.6542 49.2033 39.7718 52.3197 39.725C52.773 39.7182 53.3055 39.7154 53.754 39.7481C53.92 39.4709 53.8532 34.5313 53.8352 33.8271C51.6405 33.859 49.3819 33.8118 47.1786 33.8246C46.0666 33.8311 43.96 33.886 42.9113 33.7839ZM16.6535 57.4674C15.8508 59.3282 16.5344 63.064 16.2108 65.1836C17.0486 65.2094 17.8867 65.2202 18.7249 65.216C19.2115 65.2169 19.9339 65.1971 20.4013 65.234L20.4125 61.1208C20.4144 60.6594 20.4219 60.1647 20.4156 59.7057C20.391 57.9099 20.425 57.663 18.8706 56.7994L17.854 56.818C17.3747 56.965 17.0513 57.1611 16.6535 57.4674ZM7.3264 56.82C6.88849 56.8127 6.43565 56.7967 5.99935 56.821C5.35787 57.1045 4.95536 57.3961 4.69179 58.0817C4.23302 59.2751 4.54816 63.6061 4.45899 65.1969L7.2725 65.2076L8.72439 65.1975C8.40734 63.3082 9.10987 58.8312 8.25277 57.4449C7.87479 57.2227 7.66709 57.1048 7.3264 56.82ZM24.9298 15.8453C24.9227 17.1746 25.0208 20.4244 24.8674 21.5769C25.6012 21.6075 26.3356 21.6209 27.07 21.6171C27.0577 20.566 27.0528 19.5149 27.0554 18.4638C27.0688 18.2392 27.0779 17.9302 27.1042 17.7142C28.0558 17.3435 28.9481 17.4341 29.9645 17.458C30.0326 17.0712 30.2897 16.2382 30.29 15.9901C29.7548 15.7215 25.9177 15.942 24.9298 15.8453ZM37.1519 65.2225L37.155 57.8455C37.1548 56.2377 37.2519 54.4474 36.9646 52.8674C36.8676 52.3339 36.3935 51.7714 36.0216 51.3912C35.2177 50.5905 34.471 50.294 33.3551 50.3016C33.3012 50.3018 33.2473 50.3033 33.1934 50.3062C31.8849 50.3757 31.2807 50.5525 30.3221 51.5741C30.0124 51.9043 29.5783 52.4966 29.5012 52.9308C29.2593 54.2939 29.3588 55.9297 29.3458 57.3216C29.3213 59.9474 29.3825 62.5948 29.3334 65.2155C30.6691 65.2033 32.0048 65.2022 33.3405 65.2122C34.5591 65.2135 35.9475 65.1812 37.1519 65.2225Z" fill="black" fill-opacity="0.984314"/>
<path d="M32.7942 22.9122C36.2196 22.6724 39.1921 25.2518 39.4374 28.6768C39.6826 32.1018 37.108 35.0784 33.6835 35.3293C30.251 35.5806 27.2661 32.9989 27.0203 29.566C26.7745 26.1333 29.3611 23.1525 32.7942 22.9122ZM33.6228 33.9113C35.1979 33.7815 36.6071 32.8819 37.3879 31.5078C38.1686 30.1336 38.22 28.4625 37.5252 27.043C36.6598 25.275 34.7995 24.2179 32.8377 24.3794C30.2055 24.5961 28.2473 26.9056 28.4641 29.5379C28.6809 32.1702 30.9905 34.1282 33.6228 33.9113Z" fill="black" fill-opacity="0.980392"/>
<path d="M57.6279 35.4363C58.5784 35.3787 62.9767 35.2767 63.7026 35.4831C63.8587 35.5276 63.9056 35.5549 63.9774 35.698C64.2705 36.2818 64.2417 41.4404 64.0071 42.1031C63.9303 42.3201 63.8599 42.4219 63.6552 42.5207C62.9718 42.5502 57.7441 42.5888 57.4986 42.4185C57.0198 41.4677 57.2615 37.7397 57.2243 36.5044C57.2105 36.047 57.2881 35.7421 57.6279 35.4363ZM58.5046 40.9016C59.7637 41.0021 61.4326 40.9596 62.7315 40.9687C62.7965 39.7438 62.7501 38.1413 62.7406 36.892C61.61 36.9061 59.7011 36.9732 58.6216 36.8738C58.6119 37.7293 58.6736 40.2388 58.5046 40.9016Z" fill="black" fill-opacity="0.984314"/>
<path d="M57.5641 45.3158C58.373 45.2931 63.4159 45.2055 63.8329 45.4425C64.3855 46.1922 64.1344 50.7886 64.0418 51.9547C64.0289 52.1162 63.8839 52.222 63.7657 52.3305C62.9473 52.4083 61.7609 52.3742 60.9169 52.3714C59.793 52.3676 58.4869 52.4011 57.3849 52.2793C57.0935 50.9868 57.19 47.4374 57.2856 45.9779C57.2977 45.7929 57.4656 45.4825 57.5641 45.3158ZM58.6127 50.8598C59.6654 50.8664 61.7543 50.8188 62.7024 50.919C62.7727 49.5748 62.7551 48.0693 62.7446 46.7119C61.546 46.7201 59.7954 46.7768 58.6202 46.6948C58.6057 48.0831 58.6032 49.4715 58.6127 50.8598Z" fill="black" fill-opacity="0.980392"/>
<path d="M3.66222 35.9991C5.02711 35.9792 8.7883 35.9138 9.92552 36.0999C10.207 36.9582 10.2122 41.6468 9.97395 42.7797C9.92615 43.0072 9.77004 43.0522 9.59535 43.1334C8.83127 43.163 3.68216 43.2647 3.37879 42.9513C2.87796 42.0007 3.12336 38.3517 3.12158 37.1281C3.12081 36.6012 3.26944 36.3171 3.66222 35.9991ZM4.46877 41.6009C5.05424 41.6039 8.39952 41.7463 8.67915 41.5181C8.68301 41.515 8.68462 41.5099 8.68728 41.5058C8.62959 40.4505 8.64655 38.5993 8.69324 37.5276C7.77508 37.543 5.3059 37.5994 4.49955 37.4873C4.49394 38.7471 4.53404 40.3849 4.46877 41.6009Z" fill="black" fill-opacity="0.984314"/>
<path d="M3.74593 45.9564C4.98811 45.9015 8.85514 45.8685 9.98647 46.0322C10.1631 46.938 10.2796 52.2202 9.90453 52.7889C9.80646 52.9376 9.71589 52.9221 9.55389 52.9517C8.83846 52.9823 3.42065 53.1254 3.30301 52.6697C3.00555 51.5176 2.94215 47.3291 3.24817 46.2201C3.37238 46.0397 3.52784 46.023 3.74593 45.9564ZM4.46391 51.5661C5.03613 51.5713 8.36767 51.6502 8.66412 51.5005L8.67863 51.4034C8.64912 50.2584 8.6323 48.4973 8.69637 47.3595C7.55354 47.3391 5.5032 47.4224 4.48438 47.3255C4.48662 48.6824 4.52363 50.2237 4.46391 51.5661Z" fill="var(--fill-0, black)" fill-opacity="0.988235"/>
</g>
</svg>
