<svg preserveAspectRatio="none" width="100%" height="100%" overflow="visible" style="display: block;" viewBox="0 0 63.5909 60.4978" fill="none" xmlns="http://www.w3.org/2000/svg">
<g id="Vector">
<path d="M26.89 0C26.995 0.0257602 27.1788 0.0688565 27.245 0.14753C27.5723 0.536856 27.4256 1.88384 27.3999 2.3856C28.16 2.29516 30.0487 2.35086 30.924 2.35949C32.9025 2.37899 35.0339 2.31494 36.9974 2.39208C36.9437 1.95931 36.7762 0.180182 37.3423 0.0843819C37.7791 0.445373 37.6609 1.80363 37.6522 2.3666C37.7264 2.36667 37.8007 2.36757 37.8749 2.36938C38.7236 2.39103 39.5629 2.70447 40.1524 3.33121C41.1056 4.34442 40.9966 5.61405 40.9824 6.8905C40.9724 7.79872 40.9818 8.70694 40.9384 9.61496C41.3889 9.63577 41.6865 9.55975 41.9953 9.94253C41.9719 10.4376 41.2911 10.3213 40.9312 10.3013C41.0593 11.8484 40.98 14.3499 40.9781 15.9541L40.9824 25.8025C40.9825 26.6001 40.86 29.5297 40.9928 30.1849C41.1298 30.2791 41.2224 30.2829 41.3838 30.3137C41.865 30.1277 41.555 29.392 41.8126 29.2105C43.5587 27.9804 42.752 28.3047 42.4324 26.6003C42.4566 26.5161 42.482 26.4322 42.5086 26.3488C42.7785 25.5094 43.3839 25.0844 44.1271 24.7072C45.8921 25.8453 45.9799 26.2778 45.3155 27.987C45.1105 28.5143 46.1892 28.9478 46.3922 29.2604C46.5505 29.5041 46.4323 29.9565 46.6858 30.2361C46.956 30.2762 46.9085 30.3083 47.1332 30.2153C47.2846 30.0241 47.2636 29.7071 47.2743 29.4527C48.1753 28.3058 49.0262 27.9735 49.6083 29.6698C49.6745 29.8628 49.7196 30.0296 49.8087 30.216C50.0294 30.2765 50.1085 30.3147 50.3315 30.2407C50.5375 30.0607 50.4808 29.7242 50.5531 29.5019C50.8546 28.5742 51.9059 27.8903 52.4874 29.0828C52.6781 29.4735 52.7279 29.9212 52.8791 30.1949C52.9987 30.237 53.5284 30.3121 53.5593 30.1532C53.6765 29.551 53.6805 29.3173 54.0448 28.8034C54.2994 28.664 54.5642 28.5748 54.8359 28.4749C56.38 29.276 55.8882 29.8802 56.4134 30.3218C56.6857 30.2059 56.8405 29.4296 56.9275 29.1593C57.1538 28.9551 57.5194 28.7499 57.7336 28.547C58.3138 27.8991 57.5225 27.3013 57.5387 26.518C57.4885 25.8905 58.6136 24.7617 59.1796 24.7688C59.6129 24.7742 60.7484 25.8921 60.7705 26.4092C60.803 27.1713 60.4203 27.9018 60.41 28.5997C60.3919 29.8226 60.4178 31.0426 60.4178 32.26L60.4066 50.968L60.4096 56.7381C60.4116 57.5565 60.479 58.804 60.4045 59.5585C61.1399 59.6417 63.1537 59.3923 63.5729 59.889C63.6009 60.1411 63.6131 60.038 63.4779 60.2975C63.0569 60.5579 60.9578 60.4572 60.348 60.457L10.0093 60.4583C8.78418 60.4586 1.03772 60.5875 0.36546 60.3778C0.199795 60.3261 0.0836162 60.2583 0 60.1003C0.00705272 59.8388 -0.0279741 59.937 0.1316 59.7301C0.551059 59.5181 2.54566 59.5977 3.18656 59.5954C3.11742 58.7345 3.16971 57.2393 3.17145 56.3342L3.17263 30.6695C3.1727 29.7464 3.1899 28.7693 3.11638 27.8516C3.07887 27.3828 2.69727 26.9853 2.79474 26.4382C2.93931 25.6269 3.7615 25.1244 4.38427 24.6712C4.74721 24.8885 5.13424 25.1357 5.41196 25.3945C6.64984 26.5481 5.74983 26.9204 5.63983 28.1503C5.59242 28.6807 6.45434 28.8432 6.68019 29.1677C6.81839 29.3663 6.78122 30.0158 7.04258 30.2448C7.75126 30.3085 7.4372 29.4538 7.89949 29.0099C8.15347 28.7662 8.35711 28.6595 8.65691 28.4845C9.05466 28.6033 9.24911 28.7036 9.61511 28.8841C10.0053 29.4518 9.8558 29.6099 10.0528 30.2044C10.8854 30.5692 10.9004 29.5995 10.9945 29.1016C11.0424 28.8482 11.6971 28.5443 11.9407 28.4358C13.6153 29.2008 12.6199 29.8182 13.2632 30.2496C13.5376 30.2797 13.5725 30.27 13.8321 30.1817C14.0001 29.9516 13.9137 29.5423 14.1708 28.9888L14.186 28.9564C14.5759 28.7078 14.7466 28.6289 15.1653 28.4479C16.2685 28.9552 15.9507 29.407 16.6388 30.2202C16.6939 30.2853 16.7712 30.2499 16.8609 30.2336C17.142 29.951 17.1334 29.6672 17.2155 29.2506C17.3932 29.0862 18.0422 28.5823 18.1575 28.4195C18.5757 27.8293 17.6932 27.1215 17.8888 26.3289C18.0584 25.6418 18.6587 25.2765 19.1868 24.8506C19.2733 24.7808 19.4886 24.7498 19.59 24.8021C20.0365 25.0325 20.6884 25.4647 20.9245 25.892C21.2743 26.5251 20.9664 27.075 20.8039 27.6744C20.4911 28.8282 21.2856 28.626 21.8286 29.2817C21.9832 29.4684 21.8286 29.8723 21.995 30.1765C22.1882 30.3172 22.403 30.3156 22.5726 30.1535C22.6686 29.8584 22.5987 26.7603 22.599 26.2526L22.6076 12.8857C22.2326 12.7262 21.9276 12.6595 21.9825 12.1949C22.1172 11.962 22.3326 11.8887 22.5765 11.7684L22.6056 10.3959C22.4567 10.38 22.308 10.3625 22.1594 10.3433C21.8711 10.3053 21.461 10.2514 21.5247 9.8697C21.8377 9.56657 22.1472 9.6224 22.5769 9.61934L22.5661 6.05747C22.5714 3.14873 23.8684 2.33554 26.6219 2.37425C26.5823 1.85634 26.5417 1.24129 26.5617 0.72414C26.5785 0.287261 26.6079 0.246253 26.89 0ZM20.714 59.5668C21.5245 59.5418 22.3356 59.5411 23.1462 59.5646C23.1178 57.9784 23.0063 44.5445 23.2336 43.9362C23.7508 43.6255 27.1697 43.7733 28.0166 43.776L34.8618 43.7723C35.9124 43.7776 39.4669 43.6657 40.3108 43.8703C40.4694 44.0281 40.459 44.2979 40.4592 44.5257L40.4588 45.9364C40.4394 48.7623 40.4376 51.5883 40.4533 54.4143C40.4519 56.0639 40.4037 57.9283 40.4911 59.5722C41.1383 59.5373 42.2437 59.53 42.8899 59.5944C42.7503 56.9735 42.8584 53.3594 42.8669 50.6754C42.8762 47.7934 42.7556 44.1692 42.9198 41.3587C38.1641 41.4267 33.2874 41.3665 28.5195 41.3677L23.6367 41.372C22.7615 41.3736 21.5144 41.4108 20.6818 41.331C20.7456 42.3511 20.7129 43.6265 20.712 44.665L20.7073 50.2166L20.7113 56.1723C20.7152 57.2305 20.7602 58.5333 20.714 59.5668ZM33.5002 28.5447C34.8194 29.0404 34.2268 29.6858 34.8391 30.2224C35.1052 30.2889 34.9924 30.2878 35.2789 30.1957C35.3055 30.1568 35.3377 30.1099 35.3754 30.0549C35.2966 29.1128 35.3288 27.8209 35.3308 26.9021L35.3253 18.1957C35.32 16.6524 35.2578 14.3098 35.3803 12.8124C33.0373 12.7327 30.6321 12.8371 28.2938 12.7702C28.2188 12.9326 28.2815 15.7762 28.2833 16.1765L28.261 26.7921C28.2638 27.2334 28.254 29.869 28.2972 30.0978C28.4267 30.2709 28.3579 30.2154 28.6343 30.2739C28.7801 30.2152 28.9304 30.1464 28.9593 29.9793C29.266 28.2028 30.8659 27.9201 31.4423 29.7457C31.4839 29.8776 31.5886 30.1911 31.726 30.2963C32.3844 30.1362 32.1252 28.3889 33.5002 28.5447ZM28.0642 51.4308C27.902 51.9942 27.8755 52.2357 27.8867 52.8436C28.285 53.0521 29.0093 53.2849 28.7923 53.8006C28.5775 54.0241 28.2204 54.1075 27.9187 54.2082C27.8398 55.897 27.9856 57.9291 27.865 59.5323C29.183 59.552 30.5013 59.5589 31.8195 59.553L35.8601 59.5491C35.7978 58.7403 35.9387 54.4304 35.6984 54.1428C35.3226 53.9241 35.078 54.0835 34.8698 53.8326C34.8153 53.5735 34.8074 53.6787 34.8948 53.4335C35.2678 53.0745 35.9315 52.9404 35.9133 52.2975C35.8824 51.2042 34.3688 50.4485 33.5967 49.8926C33.1062 49.5395 32.5118 49.3768 32.1054 48.9359C32.0671 48.8948 31.9386 48.7551 31.9114 48.7343C31.2056 49.4169 30.4889 49.6891 29.6723 50.219C29.1152 50.5805 28.5809 51.0123 28.0642 51.4308ZM31.7826 45.3398C33.2446 45.9874 35.3132 47.6252 36.8335 48.4017C37.7048 48.9843 38.6514 49.7459 38.7921 50.8027C38.9789 52.2061 38.9272 53.9229 38.9106 55.3628C38.8957 56.6542 38.9667 58.3101 38.8995 59.5548L39.7742 59.5841C39.6618 55.1754 39.7992 50.7217 39.743 46.3088C39.7356 45.7273 39.7239 45.0647 39.7584 44.4891L29.339 44.4944C27.6104 44.4929 25.4746 44.5561 23.7839 44.4621C23.8862 45.833 23.7411 59.1785 23.8815 59.4468C24.0932 59.5759 24.3805 59.6458 24.6048 59.4968C24.7847 59.0379 24.6777 57.5054 24.6807 56.9051C24.6871 55.6481 24.6743 54.3788 24.6736 53.1172C24.6731 51.9089 24.5426 50.5663 25.3836 49.5661C26.2061 48.5879 27.4822 47.9893 28.542 47.3026C29.6551 46.6463 30.6457 45.85 31.7826 45.3398ZM23.4882 9.63528C25.0294 9.57993 26.5891 9.61844 28.1331 9.62011C30.2969 9.6027 32.4608 9.60298 34.6246 9.62087C36.2439 9.63292 38.5629 9.51728 40.0759 9.65199C40.0494 8.47998 40.0403 6.81754 40.0959 5.64802C35.3668 5.83315 30.468 5.54129 25.7202 5.66355C24.9947 5.68221 24.1625 5.67671 23.4426 5.64051C23.4412 6.78579 23.3993 8.51291 23.4882 9.63528ZM26.3578 28.7993L26.3849 28.7824C26.9599 28.4271 27.392 28.681 27.4101 28.2733C27.4713 26.8984 27.4443 25.3122 27.4437 23.9517L27.4387 12.7571C26.7785 12.8096 24.0406 12.8506 23.4705 12.7305C23.4931 14.1043 23.3954 28.3632 23.5491 28.5054C23.8428 28.7772 24.4444 28.6315 24.8136 29.0912C25.1338 29.4898 24.8493 30.153 25.4285 30.2918C25.6029 30.2512 25.6755 30.2498 25.8082 30.1334C25.9578 29.5704 25.9742 29.2443 26.3578 28.7993ZM38.7346 29.0878L38.7852 29.0381C39.5959 28.2521 40.0786 29.0236 40.0821 27.6363C40.0859 26.0992 40.0869 24.5561 40.0864 23.0187L40.0956 12.7395C39.3041 12.8258 36.9245 12.8186 36.0911 12.7552C36.2113 14.0252 36.157 16.3732 36.1479 17.6964C36.1324 20.106 36.129 22.5157 36.1377 24.9253C36.1387 25.7461 36.0744 27.8742 36.166 28.5307L36.2598 28.6031C38.2297 28.29 37.1733 30.9217 38.4767 30.1611C38.7011 29.8616 38.5056 29.533 38.7346 29.0878ZM24.2113 38.8578C24.4826 39.0795 24.6722 39.2242 24.9026 39.4941C24.9595 39.8709 24.9467 40.1882 25.1903 40.4388C25.4095 40.5156 25.4402 40.5263 25.6754 40.5177C26.2806 40.0398 25.6819 38.8047 27.1807 38.9239C27.4847 38.9481 27.7273 39.1287 27.915 39.3689C28.1701 39.6955 28.2815 40.3597 28.6519 40.53C28.7716 40.5153 28.8126 40.5357 28.8654 40.4448C29.1861 39.894 29.1149 39.0671 29.9197 38.9163C30.2167 38.8607 30.6993 38.9867 30.9692 39.1639C31.4423 39.4745 31.3555 40.197 31.6791 40.5433C31.8045 40.5748 31.911 40.6016 31.9985 40.6236C32.1101 40.2229 32.234 39.6284 32.388 39.2697C34.7578 38.2202 34.2189 40.0994 34.815 40.5134C34.9347 40.5025 35.115 40.4928 35.1798 40.3485C35.6128 39.3841 35.9631 38.4811 37.2329 39.1077C37.8225 39.3987 37.3098 40.4705 38.3282 40.5503L38.4841 40.4871C38.733 39.5039 38.5483 39.5044 39.3768 38.8072C39.1002 37.7733 39.0516 37.3808 38.0984 36.8185C37.1751 36.2737 36.3581 36.1007 35.3859 35.7004C34.5412 35.3525 32.5631 34.4685 31.7271 34.3382C30.4445 34.817 29.285 35.2348 28.0312 35.7851C26.1992 36.5892 24.6016 36.423 24.2113 38.8578ZM20.7091 33.4007C26.1924 33.2668 31.8551 33.465 37.3534 33.3787C38.2067 33.3652 42.4891 33.4449 42.8893 33.3467C42.8343 32.5257 42.891 31.795 42.9035 30.9799C38.2504 31.0853 33.2146 30.9865 28.5417 30.9878L23.4658 30.9918C22.7562 30.9931 21.3588 31.0335 20.6931 30.9581C20.7063 31.7618 20.7331 32.5997 20.7091 33.4007ZM25.3698 59.5406C25.9639 59.5433 26.6099 59.5589 27.1993 59.5373C26.961 57.8694 27.2553 55.3847 27.2651 53.6559C27.2702 52.7601 27.0498 51.7054 27.496 50.8677C27.9667 50.1384 29.0099 49.7291 29.7051 49.2556C30.1655 48.9551 31.5326 47.9435 31.9908 47.9728C34.0262 49.1463 37.9258 50.8228 36.2949 53.6755L36.6726 54.1538C36.7389 55.0315 36.7689 58.6096 36.6939 59.5805C37.2018 59.563 37.7101 59.5525 38.2183 59.549C38.13 57.7455 38.2216 55.9161 38.1926 54.1077C38.1693 52.6482 38.4495 50.829 37.2269 49.7444C36.5838 49.1738 35.6834 48.7619 34.9741 48.2738C34.0631 47.6419 33.2533 47.0676 32.2554 46.5581C32.1051 46.4814 31.8569 46.2718 31.7738 46.238L31.748 46.2594C31.0577 46.824 30.0459 47.151 29.4186 47.6678C27.997 48.8393 25.5372 49.5448 25.4148 51.6704C25.266 54.2558 25.5018 56.957 25.3698 59.5406ZM15.891 59.6245C16.6925 59.5791 17.3345 59.5896 18.1349 59.6077C18.2992 59.4483 18.2674 59.3415 18.2698 59.0582C18.3047 54.9256 18.2447 50.7742 18.2746 46.6435C18.2852 45.1912 18.1869 42.7047 18.3079 41.3516C17.7197 41.378 16.4395 41.4054 15.8556 41.3256C15.8888 47.4173 15.8146 53.5389 15.891 59.6245ZM5.61087 59.5654L7.99 59.5948C8.08886 58.8415 8.03414 56.2417 8.02836 55.4064L8.03344 45.8824C8.03609 44.7983 7.96061 42.3174 8.08468 41.3829C7.39549 41.3789 6.19911 41.405 5.55294 41.3484C5.68293 42.0555 5.62994 44.2885 5.62688 45.1291L5.61985 52.0026L5.63064 57.1117C5.63231 57.6982 5.68 59.0292 5.61087 59.5654ZM55.5631 59.5859C56.2585 59.5755 56.9769 59.5548 57.6701 59.5774L57.8616 59.55C58.1715 59.0837 57.7873 44.1384 57.9609 42.2688C57.9793 42.07 57.9766 41.6606 58.0175 41.4146C57.1673 41.3722 56.3461 41.3656 55.4954 41.3581C55.5883 42.2455 55.5606 43.5272 55.559 44.4471L55.5594 49.0733L55.5528 55.285C55.5613 56.4635 55.6292 58.4609 55.5631 59.5859ZM45.3171 59.5998C46.1436 59.5754 46.8914 59.5567 47.722 59.6131L47.7398 41.3642C47.0108 41.3698 45.9745 41.4073 45.2733 41.3294C45.4063 42.9587 45.3059 45.5972 45.3063 47.3444L45.3171 59.5998ZM45.2901 33.4208C46.2789 33.3472 47.4637 33.3759 48.4661 33.3757L54.6684 33.3811C55.6763 33.3822 57.0276 33.4222 58.0015 33.3664C57.9108 32.6609 57.9424 31.7176 58.0181 31.0051L49.6139 30.9905C48.3863 30.9912 46.4138 31.0573 45.2864 30.9569C45.3062 31.8086 45.321 32.5692 45.2901 33.4208ZM5.59994 33.3801L13.6754 33.3795C15.1178 33.3788 16.8759 33.3331 18.2982 33.4078C18.2653 32.5948 18.2643 31.7809 18.2953 30.9679C16.1159 31.0936 13.2279 30.9715 10.9895 30.9912C9.60042 31.0035 6.85091 31.0809 5.59291 30.9746C5.62793 31.6122 5.66274 32.7369 5.59994 33.3801ZM29.0222 11.8754C28.9146 11.3028 28.9521 10.8955 28.9798 10.3167C28.3888 10.3399 27.9834 10.3435 27.3942 10.3092C27.406 10.7985 27.4359 11.401 27.3958 11.8779C27.8374 11.88 28.6068 11.9074 29.0222 11.8754ZM54.863 52.4651C52.7248 52.4468 50.5398 52.4782 48.409 52.4358C48.4419 53.3301 48.4324 54.1958 48.4253 55.0902C49.0719 54.4331 50.7085 53.4974 51.6358 53.2823C51.8731 53.2272 53.4372 54.0802 53.7474 54.274C54.1268 54.5158 54.518 54.7589 54.8926 55.0063C54.807 54.2435 54.8212 53.2374 54.863 52.4651ZM36.1072 11.8415C35.9997 11.3369 36.0444 10.8412 36.0864 10.3306C35.573 10.3339 35.0112 10.3491 34.5039 10.3048C34.4991 10.7809 34.5103 11.4297 34.4703 11.8906C34.9945 11.8832 35.5915 11.8882 36.1072 11.8415ZM48.8046 55.6905C48.4036 56.7223 48.464 56.9055 48.3987 58.0019L51.9958 57.9961L54.9021 57.9983C54.8194 57.1002 54.8104 56.6867 54.5339 55.8328C54.1143 55.4755 52.0091 54.1587 51.5418 54.0376C50.6882 54.5468 49.6295 55.1737 48.8046 55.6905ZM19.8913 33.34C19.8301 32.6025 20.0034 31.4379 19.7384 31.0602C19.5479 30.9403 19.3261 30.9717 19.0954 30.975C19.1234 31.6222 18.9998 32.8239 19.2208 33.2831C19.4352 33.4292 19.6406 33.425 19.8913 33.34ZM44.4528 33.3899C44.4829 32.9787 44.4898 31.4185 44.422 31.0525C44.2162 30.9516 43.9457 30.9683 43.7096 30.963C43.7192 31.2438 43.7102 33.2103 43.7623 33.3229C44.0116 33.4083 44.1904 33.3915 44.4528 33.3899ZM4.68441 33.4218C4.84043 32.9139 4.77617 31.6685 4.72771 31.1073C4.71393 30.948 4.28533 30.9417 4.15054 30.9399C4.01478 31.283 4.05634 32.8717 4.09408 33.293C4.24857 33.4344 4.45793 33.4218 4.68441 33.4218ZM58.974 33.4389C59.2535 33.4032 59.3066 33.4448 59.4854 33.2916C59.5519 32.9042 59.5782 31.2741 59.4174 30.9985L59.2456 30.8895C59.0969 30.9486 58.9163 30.9735 58.8806 31.1473C58.7913 31.5828 58.7094 33.1661 58.974 33.4389ZM39.982 11.9127C40.1439 11.726 40.0793 10.6429 40.0769 10.3131L39.2191 10.347C39.1687 10.8709 39.2221 11.3511 39.162 11.8734L39.982 11.9127ZM24.231 11.8334C24.1961 11.3035 24.3216 10.6766 23.9997 10.3832C23.7667 10.2964 23.7286 10.2902 23.4797 10.2712C23.4568 10.721 23.3601 11.3664 23.5023 11.7533C23.7696 12.0104 23.8764 11.9201 24.231 11.8334ZM15.1569 55.0973C15.1549 54.2852 15.1216 53.2249 15.1584 52.4331C14.1915 52.4948 12.8628 52.4594 11.8623 52.4551C10.8858 52.4507 9.63586 52.4867 8.68844 52.4364C8.766 53.139 8.77185 54.3103 8.67375 55.0151C9.57849 54.4886 10.9079 53.5503 11.9365 53.3103C12.1416 53.2625 13.6425 54.0557 14.007 54.2328C14.5342 54.5549 14.6993 54.6614 15.1569 55.0973ZM53.297 47.6112L52.0367 47.6398C52.0316 47.8891 51.9908 48.1763 52.1365 48.3648C52.382 48.5538 52.9376 48.5387 53.2495 48.5199L53.297 47.6112ZM10.3107 48.5062C10.737 48.4993 11.0588 48.4947 11.4855 48.5296L11.5521 47.639L10.3004 47.6013L10.3107 48.5062ZM50.0148 48.4832C50.4158 48.4864 50.7539 48.4771 51.1507 48.5488C51.1725 48.2523 51.2085 47.895 51.2093 47.6028C50.8008 47.6132 50.3729 47.6309 49.9659 47.6261C49.9889 47.9046 50.0213 48.2064 50.0148 48.4832ZM12.4088 48.4695L13.4728 48.4917C13.6149 48.3008 13.5754 47.8876 13.5771 47.6245L12.5151 47.5952C12.3152 47.7876 12.3947 48.1807 12.4088 48.4695ZM13.5848 59.5525C13.6959 59.3386 13.6948 59.3018 13.6966 59.0697C13.4654 58.7357 12.9421 58.8081 12.5497 58.7939C12.4921 59.0028 12.4128 59.2015 12.4757 59.4068C12.7675 59.6667 13.1711 59.5755 13.5848 59.5525ZM11.5894 59.5479C11.592 59.2126 11.6447 59.1662 11.5041 58.9096C11.2203 58.7335 10.8604 58.8981 10.434 58.7752C10.4064 59.1054 10.3457 59.1892 10.4756 59.4542C10.7027 59.6094 11.2767 59.5516 11.5894 59.5479ZM52.4039 59.5305C52.9117 59.5681 53.6206 59.6233 53.2556 58.84C53.121 58.7974 53.1656 58.7832 53.0636 58.8148C52.6487 58.8116 52.1677 58.7874 52.0529 59.2938C52.159 59.4613 52.2119 59.4663 52.4039 59.5305ZM50.5357 59.5367C51.0065 59.5496 51.2635 59.6201 51.3016 59.0295C51.2383 58.8984 51.1831 58.7799 50.9964 58.8066C50.6416 58.8223 50.067 58.8064 50.0296 59.2846C50.1949 59.4954 50.2169 59.4862 50.5357 59.5367ZM49.2829 48.4803C49.3028 48.2444 49.3597 47.9403 49.249 47.7438C49.0746 47.5805 48.6839 47.6181 48.4214 47.613C48.4227 47.8717 48.3858 48.2483 48.533 48.4384C48.7278 48.5606 49.0414 48.5002 49.2829 48.4803ZM15.0917 48.5658C15.1271 48.31 15.2035 47.977 15.1119 47.7481C14.8429 47.5502 14.6221 47.6196 14.265 47.6571C14.2722 47.9174 14.2456 48.1759 14.4069 48.37C14.6046 48.5318 14.8352 48.533 15.0917 48.5658ZM9.43208 59.5857C9.58908 59.5102 9.62013 59.5011 9.70723 59.3526C9.70778 58.8901 9.50671 58.7794 9.07694 58.7976C9.02367 58.8003 8.97041 58.8037 8.91722 58.8079C8.75779 58.9468 8.74811 58.979 8.66902 59.1769C8.78821 59.6079 9.04261 59.5465 9.43208 59.5857ZM48.6159 30.2983C48.8808 29.9827 48.8562 29.7215 48.5556 29.4195L48.3192 29.3448C48.1945 29.5519 48.0597 29.7312 48.0415 29.9697C48.1823 30.265 48.3034 30.2534 48.6159 30.2983ZM48.5169 58.7703C48.4695 59.0054 48.391 59.2325 48.4851 59.444C48.671 59.5793 48.7249 59.578 48.9881 59.5362C49.098 59.5181 49.2077 59.4984 49.317 59.477C49.3895 59.2941 49.4221 59.239 49.4019 59.04C49.1984 58.8031 49.0744 58.8102 48.7385 58.785C48.6647 58.7795 48.5908 58.7745 48.5169 58.7703ZM59.1753 25.6052C58.8505 25.961 58.293 26.4264 58.3127 26.8644C58.5042 27.0384 58.7526 27.092 59.0131 27.0648C59.2972 27.0632 59.5508 27.0887 59.7921 26.9409C60.0861 26.5388 59.7574 26.3052 59.4838 26.0009C59.3873 25.8936 59.2539 25.6625 59.1753 25.6052ZM15.3394 40.5699C15.569 40.2524 15.5183 39.8062 15.0904 39.7357C14.9681 39.9034 14.8219 40.0654 14.8016 40.2688C14.936 40.532 15.0568 40.5112 15.3394 40.5699ZM4.30441 27.0673C4.60392 27.0612 4.81446 27.0828 5.07408 26.9392C5.42358 26.5169 4.73996 25.9273 4.38754 25.6115C4.09234 26.0121 3.58333 26.4873 3.60429 26.8918C3.78015 27.0382 4.08218 27.115 4.30441 27.0673ZM43.7219 27.8562C43.7273 28.2045 43.7041 30.0523 43.7647 30.2067C43.9734 30.3094 44.1982 30.2835 44.434 30.281C44.564 29.8583 44.4329 28.4202 44.4137 27.945C44.4084 27.8124 43.8313 27.8514 43.7219 27.8562ZM54.8423 51.6112C54.8432 51.2573 54.8947 51.2684 54.7452 50.9942C54.3333 50.7502 53.7943 50.8856 53.266 50.8683C53.0866 50.7431 52.8665 50.6178 52.7672 50.4288C52.8917 49.8165 54.3929 50.2392 54.8607 49.7585C54.8964 49.5557 54.9124 49.6322 54.81 49.469C53.9834 49.238 49.7243 49.4111 48.4802 49.3203C48.4233 49.5345 48.3912 49.6131 48.4221 49.8393C48.9315 50.3304 50.1222 49.7443 50.5609 50.1496C50.6228 50.3605 50.6493 50.4132 50.5784 50.63C50.1549 51.1623 48.9016 50.5585 48.4673 51.0277C48.4087 51.2433 48.412 51.2748 48.4387 51.4977C48.6476 51.6761 54.0591 51.6052 54.8423 51.6112ZM36.7253 40.5346C36.9424 40.4563 36.8808 40.5137 36.9719 40.3315C36.9682 40.0036 36.8258 39.7823 36.4909 39.7385C36.2958 39.9167 36.1873 39.9905 36.103 40.2409C36.211 40.5623 36.4054 40.5143 36.7253 40.5346ZM18.2554 34.2118C17.1992 34.3499 14.5888 34.2601 13.4393 34.2287C13.5275 34.6372 15.4194 35.2387 15.6477 36.3114C15.892 37.4595 15.7412 39.6962 16.5801 40.5132C17.0805 40.6328 17.1555 39.8278 17.236 39.4638C17.6332 39.1468 17.8075 39.0584 18.2837 38.8824C18.2796 37.481 18.3266 35.5782 18.2554 34.2118ZM54.9574 40.547C55.1876 40.3702 55.1275 40.4659 55.1889 40.1913C55.1376 39.9523 55.0258 39.7865 54.7761 39.7334C54.6216 39.8986 54.48 40.015 54.4417 40.2359C54.5721 40.4874 54.672 40.4767 54.9574 40.547ZM6.59644 39.381C6.7393 39.6889 6.91607 40.3457 7.04926 40.4793C7.6776 40.6391 7.987 38.7944 7.9799 38.325C8.01116 35.41 8.53444 35.7315 10.5294 34.2265C9.06419 34.3026 7.11505 34.2956 5.63454 34.2494C5.6234 35.765 5.64199 37.3618 5.60697 38.8699C6.04329 39.026 6.20934 39.0966 6.59644 39.381ZM18.0988 29.3489C17.9867 29.5753 17.8528 29.7731 17.8916 30.0159C17.9774 30.1872 17.99 30.2124 18.1318 30.3401C18.3636 30.0532 18.4076 29.5934 18.0988 29.3489ZM19.8889 30.2767C19.8535 29.6416 20.0112 28.1933 19.6963 27.8998C19.5106 27.8197 19.3115 27.846 19.1086 27.8546C19.1254 28.4653 19.0059 29.7261 19.2182 30.1572C19.4433 30.3197 19.5757 30.3066 19.8889 30.2767ZM48.3814 39.6566C48.2476 39.8554 48.0979 40.0296 48.0844 40.2644C48.2201 40.5137 48.3008 40.4925 48.5929 40.5497C48.8753 40.2222 48.7373 39.7977 48.3814 39.6566ZM57.9162 30.2537C58.1013 29.9615 58.092 29.6211 57.7811 29.4296C57.6668 29.6129 57.5376 29.7726 57.5538 29.9865C57.6948 30.2005 57.6529 30.1378 57.9162 30.2537ZM54.1818 58.7512C54.1195 58.9661 54.0238 59.1968 54.0877 59.405C54.3225 59.5954 54.4743 59.5514 54.8018 59.5462C54.8625 59.2895 54.8689 59.2553 54.7914 59.0015C54.5941 58.7665 54.4827 58.7612 54.1818 58.7512ZM5.66956 29.4234C5.60641 29.6715 5.51716 29.8837 5.62375 30.1086C5.71015 30.1756 5.77358 30.2323 5.87376 30.2778C6.04691 29.9017 6.05833 29.6473 5.66956 29.4234ZM12.0327 57.9984L15.171 58.0022C15.1379 56.8935 15.1467 56.771 14.8087 55.7581C14.1456 55.3155 13.4958 54.9548 12.8069 54.5587C12.5791 54.4277 12.1943 54.1116 11.9878 54.0299C11.5576 54.2361 9.50741 55.4668 9.1341 55.7567C8.71762 56.6702 8.76948 57.0242 8.66951 57.9922C9.78388 57.995 10.9205 58.01 12.0327 57.9984ZM33.1905 39.7835C33.0899 39.9724 32.9598 40.1527 33.0055 40.3559C33.2362 40.5531 33.434 40.4992 33.7539 40.474L33.7868 40.4713C33.932 40.0982 33.4931 39.8741 33.1905 39.7835ZM21.7294 39.4035C21.8295 39.7759 21.9014 40.1748 22.1424 40.4698L22.2837 40.5373C22.6377 40.3544 22.6782 39.7684 22.8185 39.4026L23.3975 38.9965C23.5706 37.6327 23.5921 36.9333 24.8633 36.1444C26.1887 35.614 27.4744 35.0301 28.8317 34.5913C29.1166 34.4992 29.3916 34.4003 29.6626 34.2721C27.5919 34.2088 25.4485 34.3098 23.3684 34.2757C22.5099 34.2617 21.5607 34.3107 20.7137 34.2351C20.7118 35.7691 20.6912 37.348 20.7107 38.8785C21.2206 39.0799 21.2761 39.1012 21.7294 39.4035ZM20.9706 30.2849C21.0895 29.9668 21.1059 29.5652 20.7878 29.3552C20.7107 29.6119 20.6236 29.8068 20.6943 30.0633C20.7925 30.2084 20.8053 30.2335 20.9706 30.2849ZM58.8579 27.8479C58.8378 28.3952 58.8045 29.6715 58.8887 30.1888C59.0665 30.3204 59.2518 30.2899 59.5025 30.2934C59.5214 29.8641 59.5412 28.2766 59.4745 27.9071C59.2522 27.8226 59.0951 27.8423 58.8579 27.8479ZM39.7079 40.4978C39.9483 40.525 39.8891 40.5556 40.0531 40.4515C40.1444 40.1815 40.0086 39.8509 39.7394 39.7505C39.5716 39.9254 39.4157 40.0836 39.2398 40.2504L39.2458 40.3769C39.4151 40.4804 39.5149 40.4777 39.7079 40.4978ZM40.768 39.4534C40.9098 39.8712 40.969 40.2077 41.2682 40.5179C41.7004 40.5352 41.7293 39.7768 41.8499 39.4542C42.1504 39.1317 42.4593 39.0236 42.8708 38.87C42.8618 37.3311 42.8627 35.7922 42.8733 34.2534C40.8304 34.3199 38.7219 34.2502 36.6749 34.2633C35.9679 34.2679 34.7539 34.1678 34.1296 34.2092C35.0599 35.5029 39.98 34.8262 40.1539 38.9368C40.3482 39.1049 40.5651 39.3016 40.768 39.4534ZM19.4896 27.0737C19.7573 27.0541 20.0484 27.0673 20.2433 26.8929C20.4536 26.4056 19.7774 26.041 19.4619 25.6711C19.2047 25.9553 18.7128 26.4029 18.722 26.772C18.9386 27.0737 19.1315 27.0467 19.4896 27.0737ZM20.7782 39.7411C20.6967 40.0769 20.5839 40.39 20.9529 40.5803C21.0189 40.2961 21.0822 39.9233 20.7782 39.7411ZM44.1041 25.6762C43.76 26.0046 43.0118 26.504 43.359 26.963C43.5739 27.0752 43.7913 27.0737 44.0336 27.0936C44.2872 27.0586 44.5179 27.058 44.7003 26.8857C44.9302 26.4379 44.3805 25.7538 44.1041 25.6762ZM42.8186 40.5699C42.9067 40.3029 43.0094 39.934 42.6959 39.7925C42.5765 40.1047 42.5075 40.1316 42.5597 40.4117C42.6444 40.4699 42.7238 40.5316 42.8186 40.5699ZM45.2985 29.348C45.2861 29.6058 45.2353 29.9537 45.3597 30.1638C45.5416 30.2555 45.4596 30.2388 45.6786 30.2104C45.6834 29.858 45.717 29.4628 45.2985 29.348ZM45.3432 39.7303C45.3056 39.9917 45.2476 40.1909 45.367 40.4233C45.4372 40.4739 45.4961 40.5231 45.5738 40.5595C45.6903 40.2416 45.6827 39.9083 45.3432 39.7303ZM57.8125 40.5377C58.0112 40.2962 57.9556 40.3945 58.0085 40.0796C57.9194 39.8265 57.9836 39.8963 57.7857 39.7861C57.6405 40.0757 57.5742 40.0863 57.6068 40.3547L57.8125 40.5377ZM46.3168 39.4448C46.4301 39.8486 46.5187 40.5988 47.057 40.4475C47.4215 40.0765 47.7334 38.9407 47.7292 38.4235C47.729 38.3674 47.7274 38.3114 47.724 38.2554C47.7444 37.1597 47.6939 36.2454 48.5408 35.4086C49.0542 34.9014 49.709 34.655 50.2548 34.2608C48.873 34.2646 46.6187 34.3362 45.3125 34.239C45.3077 35.7576 45.2788 37.3943 45.3152 38.9052C45.7977 39.0673 45.9205 39.1317 46.3168 39.4448ZM27.3243 30.2484C27.5947 29.9349 27.493 29.6851 27.1882 29.4289C27.0561 29.3993 26.9773 29.3772 26.8423 29.3718C26.6993 29.5801 26.6024 29.6917 26.555 29.9405C26.6801 30.3238 26.961 30.245 27.3243 30.2484ZM18.1107 39.7435C18.0136 39.9455 17.8882 40.1415 17.9274 40.3574C18.0272 40.5071 18.0292 40.516 18.1852 40.5959C18.2914 40.3065 18.3908 39.9543 18.1107 39.7435ZM53.9781 47.632C53.9755 47.8963 53.9394 48.2075 54.0803 48.4207C54.3351 48.5601 54.4959 48.5428 54.8005 48.493C54.8305 48.2465 54.9026 47.9393 54.7844 47.734C54.5158 47.5763 54.3065 47.6159 53.9781 47.632ZM8.66206 39.7391C8.52086 39.9692 8.37591 40.118 8.37598 40.3566C8.50471 40.5086 8.68747 40.5167 8.88415 40.5518C9.1068 40.3514 9.05459 40.4509 9.10492 40.1832C9.01511 39.922 8.91604 39.8403 8.66206 39.7391ZM30.1993 39.8113C30.0292 39.9432 29.8062 40.084 29.7264 40.2762C29.8356 40.5194 30.0567 40.484 30.3087 40.5035L30.4722 40.4847C30.6313 40.2442 30.5545 40.0982 30.4042 39.8791C30.3602 39.8636 30.2375 39.8166 30.1993 39.8113ZM51.4628 29.3635C51.2844 29.6046 51.2442 29.6488 51.1628 29.9342C51.2177 30.1646 51.1644 30.0843 51.3743 30.2287C51.5297 30.2318 51.6866 30.237 51.8419 30.2338C52.0907 30.0833 52.0408 30.1634 52.1168 29.921C52.0554 29.5575 51.8012 29.4179 51.4628 29.3635ZM23.7144 39.7296C23.6101 39.9245 23.4586 40.1431 23.4863 40.3535C23.6347 40.5011 23.6924 40.5066 23.9413 40.5052C24.0214 40.5043 24.1015 40.5018 24.1816 40.498L24.3047 40.3482C24.2578 40.1034 23.9577 39.7838 23.7144 39.7296ZM15.1565 29.304C14.9595 29.5161 14.8723 29.5903 14.7699 29.8584C14.807 30.2287 14.8852 30.2236 15.2343 30.3236C15.6832 30.0076 15.5856 29.5065 15.1565 29.304ZM4.07842 27.8474C4.06846 28.4649 3.94203 29.783 4.18647 30.2174C4.42653 30.3408 4.44136 30.2888 4.75688 30.2638C4.75361 29.6924 4.87385 28.3601 4.66484 27.9461C4.42395 27.7879 4.42277 27.8438 4.07842 27.8474ZM51.416 39.7298C51.3086 39.9348 51.1575 40.147 51.2131 40.362C51.46 40.5284 51.6539 40.4913 51.9683 40.483C52.1125 40.2742 52.0862 40.373 52.0589 40.1096C51.8709 39.8427 51.7327 39.7806 51.416 39.7298ZM57.9544 38.7893L57.9567 34.2596C56.4878 34.2694 54.598 34.319 53.1653 34.2053C53.3719 34.6782 55.0242 35.3546 55.2856 36.0757C55.5938 36.9257 55.4246 40.1644 56.4502 40.5602L56.625 40.4788C56.7361 40.0567 56.8132 39.8069 56.9713 39.4002C57.2373 39.1318 57.6153 38.965 57.9544 38.7893ZM51.7522 46.9182C52.8037 46.9305 53.8555 46.9191 54.9065 46.8839C54.8168 46.1793 54.7965 45.4927 54.5682 44.8238C54.0884 44.4291 52.0653 43.0472 51.4756 43.0438C50.7133 43.5014 49.3787 44.2603 48.7132 44.7278C48.4307 45.5705 48.4373 46.0275 48.3916 46.9296C49.5166 46.9069 50.6284 46.9213 51.7522 46.9182ZM10.9434 49.3411C10.5254 49.3494 9.04735 49.302 8.83026 49.4337C8.66331 49.6402 8.69798 49.5499 8.6553 49.7856C8.90901 50.2981 10.3499 49.7287 10.8838 50.1989C10.9559 50.3818 10.952 50.407 10.9144 50.601C10.4102 51.2234 9.28142 50.534 8.77721 51.0426C8.69478 51.2456 8.69972 51.2743 8.74017 51.4911C9.03245 51.6954 11.9792 51.5995 12.5549 51.5951C13.181 51.601 14.4833 51.6482 15.0575 51.6002C15.1625 51.4845 15.185 51.4704 15.163 51.2727C15.0499 50.2558 12.8122 51.5069 13.1979 50.183C13.2835 49.8893 14.8336 50.1163 15.0747 49.9528C15.1389 49.8653 15.1932 49.7914 15.2374 49.7312C15.2365 49.6342 15.2549 49.596 15.1792 49.5256C14.8341 49.2038 11.6167 49.3626 10.9434 49.3411ZM26.8685 39.7209C26.7399 39.9158 26.6061 40.0739 26.5971 40.3049C26.7649 40.5813 27.0108 40.5357 27.3163 40.5423C27.4737 40.3315 27.4359 40.4333 27.4374 40.1434C27.3104 39.8638 27.1567 39.7818 26.8685 39.7209ZM11.9791 29.3753C11.6333 29.5496 11.3554 29.7158 11.5199 30.1383C11.6704 30.248 11.7354 30.2421 11.922 30.2682C12.2371 30.2207 12.1769 30.2796 12.3479 30.081C12.426 29.6995 12.4004 29.4786 11.9791 29.3753ZM11.9896 39.7395C11.7437 39.8904 11.6402 39.9362 11.4841 40.1752L11.4818 40.3375C11.6871 40.5261 11.6747 40.4724 11.9981 40.5268L12.2514 40.5084C12.4951 40.1917 12.3266 39.883 11.9896 39.7395ZM24.9667 10.3128C25.0055 10.8857 25.049 11.3414 24.9479 11.914C25.4874 11.888 25.9353 11.8826 26.4755 11.8922C26.6191 11.7019 26.5394 10.6365 26.5325 10.3144C25.9797 10.3307 25.5177 10.3433 24.9667 10.3128ZM36.8917 10.3117C36.9276 10.9605 36.9506 11.2763 36.8767 11.9197C37.3979 11.8973 37.9547 11.9 38.4589 11.8748C38.5674 11.6639 38.4689 10.8041 38.5267 10.3542L36.8917 10.3117ZM32.0751 10.301L32.0685 11.909C32.5987 11.8958 33.2447 11.8961 33.7637 11.8484C33.644 11.3564 33.6708 10.8606 33.7076 10.3562C33.1983 10.3438 32.5735 10.3443 32.0751 10.301ZM29.6418 10.3234C29.7364 10.9972 29.8018 11.2077 29.6356 11.8726C30.1812 11.8837 30.7956 11.8823 31.3349 11.9131C31.4524 11.6293 31.3594 10.7029 31.3781 10.2964C30.7636 10.3474 30.2546 10.3351 29.6418 10.3234ZM10.107 43.0983C10.3714 42.9744 11.03 42.6156 11.2138 42.4414C12.2736 41.4371 12.8317 42.944 13.436 42.943C13.8273 42.606 13.4441 42.1588 13.9666 42.0737C14.1479 42.1559 14.172 42.1669 14.2744 42.336C14.2856 42.677 14.1093 42.792 13.8685 43.0168C13.9758 43.2564 14.8275 43.7091 15.1619 43.9866C15.1456 43.1535 15.1362 42.1907 15.1659 41.3569C13.3148 41.4109 10.5252 41.4389 8.67355 41.3615C8.75946 42.0878 8.75528 43.2248 8.66679 43.9479C9.10012 43.7411 9.78499 43.2296 9.97604 43.162L10.107 43.0983ZM58.8788 34.1987C58.8013 35.1187 58.772 39.509 58.8983 40.4104C59.0688 40.573 59.1976 40.5422 59.4705 40.5703C59.5649 39.9741 59.5572 34.4978 59.3857 34.2594C59.179 34.1845 59.0924 34.1958 58.8788 34.1987ZM4.14616 34.1955C4.02933 34.6552 4.04256 39.8747 4.09965 40.4378C4.27015 40.5688 4.48863 40.5527 4.71546 40.5686C4.7509 39.775 4.87489 34.5514 4.5964 34.2292C4.41399 34.2031 4.32996 34.192 4.14616 34.1955ZM43.7477 34.2031L43.7412 38.567C43.7404 38.8869 43.7093 40.1738 43.752 40.4158C43.9876 40.5694 44.0419 40.5172 44.371 40.5277C44.5262 40.3062 44.4867 34.9818 44.4322 34.3791C44.2557 34.1593 44.0236 34.2066 43.7477 34.2031ZM19.1697 34.2001C19.0798 34.653 19.1054 39.8998 19.1632 40.3973C19.3794 40.5586 19.5875 40.5393 19.8639 40.5137C19.8495 39.2933 19.8446 38.0728 19.8492 36.8523C19.8526 36.3084 19.8953 34.8207 19.8015 34.3369C19.6185 34.2102 19.4009 34.2201 19.1697 34.2001ZM48.4162 41.3422C48.4292 42.2419 48.4488 43.0927 48.3972 43.9918C48.5619 43.8754 49.6891 43.1297 49.719 43.0443C49.5503 42.8704 49.3394 42.6897 49.2774 42.4625C49.3128 42.207 49.2694 42.3014 49.4452 42.1074C49.7179 42.0513 49.6205 42.0387 49.8556 42.1123C50.0509 42.3705 49.931 42.7178 49.8605 42.999C50.6234 42.9949 50.9664 42.0921 51.6724 42.0843C52.1021 42.0795 52.9686 43.109 53.4591 42.9695C53.4196 42.7978 53.4057 42.7857 53.3085 42.635C53.332 42.3594 53.3226 42.2763 53.4901 42.055C53.7228 41.9766 53.8222 42.0428 53.953 42.2669C54.0323 42.6156 53.8108 42.8246 53.5946 43.0653C53.8206 43.354 54.565 43.7894 54.9051 43.9447C54.7881 43.1397 54.8439 42.1955 54.882 41.3775L50.795 41.3683C50.0658 41.3674 49.121 41.3964 48.4162 41.3422ZM4.07459 41.3454L4.07076 57.5474C4.07055 57.9485 4.00107 59.1957 4.15145 59.4957C4.33804 59.6644 4.24565 59.6217 4.50304 59.6505C4.66658 59.5607 4.65029 59.6015 4.72381 59.4625C4.85589 57.2317 4.74031 53.8097 4.74164 51.4662L4.74345 44.7997C4.74345 44.3599 4.78926 41.5904 4.68232 41.4101C4.49956 41.2994 4.29014 41.3346 4.07459 41.3454ZM58.8285 41.3589C58.8219 42.8413 58.7431 59.2135 58.9361 59.5393C59.1175 59.6363 59.2464 59.6129 59.4539 59.6077C59.5226 59.3541 59.515 59.1318 59.5146 58.8721C59.5073 53.1548 59.5138 47.4372 59.5035 41.7199C59.5033 41.6037 59.486 41.5294 59.4396 41.4222C59.2693 41.3062 59.0406 41.3474 58.8285 41.3589ZM43.6969 41.3335C43.8419 43.2337 43.646 59.2771 43.7966 59.4879C44.0062 59.5862 44.2011 59.5766 44.4327 59.5864C44.5015 58.8065 44.4617 57.5031 44.461 56.6938L44.4606 45.0993C44.4604 43.9902 44.4991 42.5487 44.4342 41.463C44.2641 41.3291 43.9312 41.3457 43.6969 41.3335ZM54.8658 38.8477C54.8512 38.3044 54.8318 37.2517 54.7108 36.7688C54.5444 36.1044 52.1042 34.4666 51.5262 34.4034C50.7255 34.8411 49.5099 35.731 48.7504 36.2749C48.3839 37.1765 48.4323 37.9085 48.4132 38.8765C50.1153 39.3214 49.3792 40.0654 49.8896 40.4927C50.1672 40.5236 50.0619 40.5449 50.297 40.4301C50.8327 39.7088 50.4255 38.9455 51.7293 38.8833C53.2394 39.2941 52.3586 40.1039 53.0783 40.5874C53.6134 40.6277 53.6251 39.9314 53.7436 39.5586C53.903 39.057 54.4213 38.9702 54.8658 38.8477ZM19.0871 41.3496C19.1839 42.77 19.1211 44.9751 19.1213 46.4493L19.1176 55.6662C19.1148 56.7505 19.0796 58.2984 19.1513 59.4194C19.1918 59.4696 19.2262 59.5121 19.2542 59.5468C19.4806 59.5997 19.5088 59.5974 19.7357 59.5447L19.8532 59.4496L19.8395 45.8226C19.8398 45.1522 19.9287 41.8338 19.826 41.4456C19.6355 41.3282 19.3217 41.3527 19.0871 41.3496ZM14.1654 39.283C14.5724 39.0626 14.7003 39.0291 15.1374 38.9118C15.1396 38.1405 15.2401 36.753 14.6753 36.2471C14.2118 35.8319 12.3926 34.4456 11.8505 34.4041C11.2364 34.738 10.6893 35.1315 10.1111 35.4886C8.57587 36.4369 8.72688 37.2812 8.67229 38.8924C10.5073 39.2905 9.47204 40.0322 10.276 40.6358C10.4045 40.6676 10.3612 40.6597 10.5114 40.5881C11.1694 39.8053 10.5611 39.0361 12.0921 38.9041C13.2456 39.2397 12.8137 39.9761 13.4224 40.5465C13.9019 40.5734 14.0331 39.6528 14.1654 39.283ZM11.8221 43.0312C11.3418 43.2823 9.36253 44.4757 9.02124 44.7934C8.76336 45.623 8.75452 46.0678 8.69743 46.9399C9.79968 46.892 10.8354 46.9287 11.9283 46.9155C12.9935 46.9132 14.1124 46.8938 15.1731 46.9172C15.1478 46.131 15.2127 45.0961 14.5597 44.5422C14.07 44.1269 13.423 43.8772 12.8754 43.5498C12.481 43.314 12.3291 43.0229 11.8221 43.0312ZM25.2146 3.22949C24.8067 3.31638 24.416 3.47031 24.0585 3.68496C23.833 4.06308 23.6027 4.42678 23.4295 4.83178C24.496 4.73423 25.6699 4.75289 26.7452 4.75958C30.6796 4.78422 34.6255 4.72156 38.5587 4.77963L40.0958 4.81346C39.7879 4.17879 39.5576 3.62369 38.8417 3.36191C38.1367 3.10417 26.6588 3.16077 25.2146 3.22949Z" fill="var(--fill-0, black)"/>
<path d="M29.4868 42.0781C30.9717 42.1035 32.5004 41.9769 33.9718 42.1118C34.2551 42.1378 34.2193 42.7208 34.13 42.9252C32.871 43.0992 30.837 42.9349 29.5263 42.8983C29.2906 42.8917 29.4378 42.225 29.4868 42.0781Z" fill="var(--fill-0, black)"/>
<path d="M23.2908 42.0831C24.4202 42.0596 25.6042 42.0739 26.738 42.0699C26.8484 42.2091 26.9567 42.3498 27.063 42.4921C27.0855 42.7383 27.1031 42.6469 26.9197 42.8733C26.1183 43.0674 24.1441 42.9823 23.2849 42.891C23.0312 42.864 23.1747 42.2688 23.2908 42.0831Z" fill="var(--fill-0, black)"/>
<path d="M36.879 42.0883C37.405 42.0795 40.0136 41.9725 40.302 42.1576C40.4305 42.3855 40.4142 42.4671 40.4115 42.7275C40.3127 42.9227 40.3293 42.8673 40.0714 42.9693C39.2985 42.9723 37.3416 43.0805 36.6416 42.7695C36.5203 42.7156 36.5234 42.5973 36.5048 42.482C36.5798 42.2708 36.6978 42.2146 36.879 42.0883Z" fill="var(--fill-0, black)"/>
<path d="M21.6907 48.3621C21.8318 48.4005 21.9584 48.4656 22.0917 48.5268C22.3821 48.8883 22.2219 51.6093 22.2282 52.208C22.2291 52.2925 22.1159 52.4563 22.0617 52.5249C21.532 52.469 21.4524 52.3034 21.4595 51.7881C21.4641 51.4597 21.4307 51.0549 21.4572 50.7345C21.5173 50.0082 21.3242 48.9948 21.6907 48.3621Z" fill="var(--fill-0, black)"/>
<path d="M41.5003 48.4312C41.715 48.4531 41.75 48.4538 41.9362 48.5598C41.9778 48.6079 42.0695 48.7429 42.0691 48.8043C42.064 49.5682 42.2687 51.9804 41.8931 52.5387C41.7336 52.52 41.4124 52.4702 41.3927 52.2804C41.3091 51.4759 41.205 49.0832 41.5003 48.4312Z" fill="var(--fill-0, black)"/>
<path d="M21.6494 54.8451L22.0062 54.9062C22.4502 55.312 22.3619 56.8011 22.0176 57.2572C21.6226 57.1337 21.5152 57.0088 21.4682 56.5838C21.4179 56.1292 21.3856 55.2092 21.6494 54.8451Z" fill="var(--fill-0, black)"/>
<path d="M21.5811 43.794C21.7044 43.7953 21.8516 43.8107 21.9762 43.8204C22.4397 44.2313 22.3184 45.6096 22.1146 46.1203C21.946 46.1263 21.8967 46.1118 21.7293 46.0792C21.2775 45.7659 21.4108 44.242 21.5811 43.794Z" fill="var(--fill-0, black)"/>
<path d="M41.4799 54.8549C41.5632 54.863 41.7889 54.8835 41.8494 54.922C42.3995 55.2728 42.1267 56.8018 41.8783 57.2209L41.6168 57.209C41.179 56.8392 41.2417 55.2916 41.4799 54.8549Z" fill="var(--fill-0, black)"/>
<path d="M41.4725 43.7708L41.8216 43.8315C42.3357 44.248 42.1697 45.6509 41.8885 46.154L41.6032 46.1149C41.1862 45.8371 41.2362 44.1208 41.4725 43.7708Z" fill="var(--fill-0, black)"/>
<path d="M35.0335 42.0373C35.406 42.0605 35.5097 42.0391 35.727 42.3573C35.7579 42.632 35.728 42.6907 35.641 42.9549L35.2979 43.0207C35.0539 42.9389 35.1317 42.9989 34.9903 42.8059C34.9229 42.5113 34.977 42.3364 35.0335 42.0373Z" fill="var(--fill-0, black)"/>
<path d="M28.0931 42.0262C28.2769 42.034 28.2992 42.0442 28.4642 42.1268C28.7582 42.5389 28.6852 42.7286 28.3271 43.0524C27.6802 42.955 27.7007 42.4376 28.0931 42.0262Z" fill="var(--fill-0, black)"/>
<path d="M21.8028 42.0121L22.0733 42.1406C22.3642 42.4946 22.2074 42.8046 21.9235 43.0792C21.4673 42.7815 21.4039 42.3757 21.8028 42.0121Z" fill="var(--fill-0, black)"/>
<path d="M41.433 42.0365C41.7625 42.084 41.7902 42.1192 41.9598 42.3373C42.0111 42.6118 42.0075 42.6529 41.9658 42.9299C41.7007 42.977 41.6475 42.9789 41.4456 42.8292C41.3364 42.5951 41.4018 42.2999 41.433 42.0365Z" fill="var(--fill-0, black)"/>
<path d="M21.5943 58.0756C21.9023 58.0624 22.064 58.0478 22.2681 58.2979C22.2368 58.5711 22.2402 58.4956 22.0344 58.7369C21.7146 58.7943 21.5121 58.6059 21.4469 58.2977L21.5943 58.0756Z" fill="var(--fill-0, black)"/>
<path d="M41.4815 58.0417C41.7151 58.0612 41.9794 58.1492 42.1381 58.3277C42.1182 58.5556 42.0818 58.5152 41.8548 58.7173C41.7884 58.7846 41.7402 58.7799 41.6444 58.7972C41.2881 58.6126 41.3037 58.3366 41.4815 58.0417Z" fill="var(--fill-0, black)"/>
<path d="M21.6747 53.3702C21.8368 53.2597 22.0579 53.3017 22.1681 53.4641C22.2784 53.6265 22.2358 53.8475 22.0731 53.9574C21.911 54.0669 21.6909 54.0244 21.581 53.8626C21.4712 53.7007 21.5131 53.4804 21.6747 53.3702Z" fill="var(--fill-0, black)"/>
<path d="M21.8162 46.9811C22.005 47.0175 22.2207 47.0854 22.3281 47.2506C22.294 47.4752 22.2775 47.4243 22.0543 47.6124C21.7705 47.5791 21.5865 47.5586 21.4469 47.291C21.5414 47.0698 21.55 47.1225 21.8162 46.9811Z" fill="var(--fill-0, black)"/>
<path d="M41.5508 46.9675C41.837 47.0489 42.0967 47.0501 42.1652 47.347L41.9835 47.5824C41.6787 47.5891 41.5124 47.6033 41.2946 47.3724C41.3242 47.1161 41.3227 47.1876 41.5508 46.9675Z" fill="var(--fill-0, black)"/>
<path d="M41.5776 53.3757C41.6966 53.3287 41.8318 53.3512 41.9292 53.4343C42.0264 53.5174 42.0698 53.6475 42.0418 53.7724C42.0138 53.8973 41.9191 53.9965 41.7956 54.0301C41.6187 54.0783 41.4351 53.9799 41.3771 53.806C41.3192 53.6322 41.4072 53.4433 41.5776 53.3757Z" fill="var(--fill-0, black)"/>
<path d="M31.4092 14.3286C32.9295 14.134 34.3232 15.1998 34.5335 16.7181C34.7439 18.2365 33.6926 19.6411 32.1765 19.8671C31.1818 20.0155 30.184 19.6181 29.5636 18.8265C28.9431 18.0349 28.7957 16.9711 29.1776 16.0406C29.5594 15.1101 30.4115 14.4564 31.4092 14.3286ZM32.2388 19.0024C33.1186 18.7803 33.729 17.981 33.7118 17.0738C33.7005 16.4816 33.4207 15.9265 32.9513 15.5652C32.4818 15.2039 31.8737 15.0754 31.2982 15.216C30.2489 15.4725 29.6078 16.5329 29.8682 17.5813C30.1287 18.6296 31.1914 19.2668 32.2388 19.0024Z" fill="var(--fill-0, black)"/>
<path d="M31.6273 15.3593C32.2254 15.4733 32.1061 16.2927 32.087 16.7512C32.4818 16.7348 33.2207 16.6325 33.3843 17.0595C33.3566 17.264 33.1865 17.3714 33.0268 17.5069C32.4284 17.6719 31.4916 17.6813 31.359 16.9442C31.2873 16.5457 31.4315 15.698 31.6273 15.3593Z" fill="var(--fill-0, black)"/>
<path d="M36.8517 45.3537C37.264 45.2659 37.7907 45.6407 38.1153 45.8588C38.4275 46.9819 38.2138 47.179 37.1836 47.5936C36.0931 47.7911 35.3498 46.8017 35.9403 45.833C36.1628 45.4679 36.4653 45.4424 36.8517 45.3537ZM37.0892 46.9882C37.2971 46.6608 37.4216 46.1075 36.9227 45.9819C36.7947 46.1747 36.5849 46.4266 36.618 46.6437C36.7341 46.8327 36.8925 46.8896 37.0892 46.9882Z" fill="var(--fill-0, black)"/>
<path d="M26.3888 45.3452C27.4091 45.2729 28.1977 46.0122 27.7062 47.05C27.5175 47.4485 27.1874 47.5192 26.7893 47.6393C25.9928 47.6237 25.0898 47.069 25.4165 46.1617C25.5998 45.6528 25.9349 45.5506 26.3888 45.3452ZM26.9021 46.8241C27.0869 46.4378 26.8361 46.076 26.4491 45.9748C26.3708 46.2208 26.2546 46.4862 26.3214 46.7287C26.5366 46.918 26.6091 46.8899 26.9021 46.8241Z" fill="var(--fill-0, black)"/>
<path d="M31.451 6.35642C32.7899 6.17157 33.4698 7.939 32.8652 8.66286C32.6647 8.80343 32.4706 8.77676 32.2233 8.77711C31.8662 8.78317 31.1215 8.8216 30.8201 8.71981C30.1074 8.47899 30.5238 7.35125 30.7848 6.92189C30.9703 6.61688 31.1623 6.5194 31.451 6.35642ZM31.8855 8.15852C32.2485 7.79453 32.1575 7.34095 31.7185 7.07631C31.4904 7.44482 31.2264 7.71684 31.5719 8.07246L31.8855 8.15852Z" fill="var(--fill-0, black)"/>
<path d="M25.0967 6.36468C25.3702 6.35013 25.8644 6.29248 26.0661 6.49111C26.5687 6.98605 26.91 8.10119 26.4064 8.68901C26.1994 8.83974 25.9598 8.79303 25.696 8.78077C24.468 8.79038 23.7126 8.87553 24.3206 7.23822C24.4965 6.76472 24.63 6.56818 25.0967 6.36468ZM25.7181 8.03985C25.8553 7.81762 25.8287 7.91669 25.8301 7.66557C25.7091 7.42412 25.586 7.34231 25.3357 7.25869C25.294 7.24484 25.2521 7.23189 25.2099 7.21971C25.0877 7.43108 24.996 7.55528 24.9714 7.79854C25.1328 8.12981 25.3607 8.04508 25.7181 8.03985Z" fill="var(--fill-0, black)"/>
<path d="M37.6607 6.36565C38.7108 6.31489 38.673 6.37825 39.2833 7.22116C39.3257 7.64767 39.4353 8.18501 39.2693 8.55965C39.1146 8.74115 38.9916 8.74262 38.7614 8.78836C37.6353 8.75118 36.5064 9.1859 36.9802 7.45168C37.1056 6.99225 37.2303 6.62332 37.6607 6.36565ZM38.404 8.05544C38.5699 7.86245 38.5243 7.93799 38.5331 7.64342C38.4448 7.44068 38.4325 7.41457 38.2586 7.27965C38.1465 7.25883 38.021 7.23119 37.9082 7.22659C37.786 7.43539 37.67 7.59232 37.653 7.833C37.8173 8.13377 38.0806 8.06136 38.404 8.05544Z" fill="var(--fill-0, black)"/>
<path d="M25.1737 14.296C25.5043 14.2945 25.896 14.2831 26.1555 14.4895C26.727 14.9441 26.7253 18.7486 26.4221 19.1176C26.1775 19.2022 25.842 19.1538 25.575 19.1346C24.6462 19.1421 24.1183 19.3194 24.1807 18.1722C24.2414 17.0568 24.0363 15.7778 24.475 14.735C24.7628 14.4914 24.8268 14.431 25.1737 14.296ZM25.7331 18.2715C25.8186 18.2048 25.9002 18.1538 25.8796 18.0113C25.7579 17.1686 26.1053 16.1223 25.7304 15.3724C25.6457 15.2031 25.342 15.1964 25.1786 15.1912L25.1215 15.1899C24.9153 15.656 24.9376 17.6085 25.0073 18.1479C25.189 18.3677 25.4616 18.2968 25.7331 18.2715Z" fill="var(--fill-0, black)"/>
<path d="M37.8365 14.3029C39.3587 14.241 39.2623 15.2646 39.3129 16.5379C39.3315 17.0076 39.3978 18.7266 39.182 19.0256C38.9855 19.1697 38.8051 19.1392 38.5586 19.1349C38.0971 19.1259 37.551 19.1549 37.0829 19.1691C36.8906 18.4299 36.7906 15.6032 37.1633 14.8506C37.3444 14.4849 37.4708 14.4367 37.8365 14.3029ZM38.3269 18.2674L38.4842 18.2324C38.6296 17.8771 38.6111 15.4681 38.3874 15.2303C38.1516 15.1871 38.0886 15.1821 37.8486 15.1844C37.558 15.6359 37.5701 17.7208 37.6917 18.2415C37.8662 18.3394 38.0981 18.2878 38.3269 18.2674Z" fill="var(--fill-0, black)"/>
<path d="M29.026 35.8299L32.4891 35.8078C33.0169 35.8055 34.4063 35.7229 34.8281 35.9635C35.0194 36.0728 34.9575 37.6351 34.8883 37.8799C34.8168 38.1329 34.7919 38.1131 34.5818 38.2354C33.6595 38.0335 29.3316 38.3258 28.8107 38.1021C28.5633 37.6917 28.6202 36.5807 28.652 36.0859C28.8008 35.8682 28.7462 35.934 29.026 35.8299ZM29.3298 37.396L34.1857 37.4228C34.1989 37.0942 34.2006 36.8461 34.1857 36.5178C33.2669 36.5706 30.2972 36.5947 29.4169 36.4991C29.3848 36.7978 29.3558 37.0967 29.3298 37.396Z" fill="var(--fill-0, black)"/>
<path d="M30.4432 31.7972C31.1473 31.789 33.9095 31.5964 34.2964 32.1057C34.2426 32.6114 33.7937 32.618 33.3971 32.6174C32.3329 32.5974 31.2563 32.6588 30.1921 32.6195C29.8327 32.6063 29.5243 32.5535 29.3452 32.2271C29.3908 31.9917 29.3486 32.0796 29.5112 31.8959C29.7488 31.7743 30.1617 31.8009 30.4432 31.7972Z" fill="var(--fill-0, black)"/>
<path d="M37.7403 31.797C38.2624 31.7899 39.9673 31.711 40.3646 31.8995C40.3996 31.9617 40.4128 31.9789 40.426 32.0505C40.4596 32.2246 40.4147 32.4048 40.3031 32.5427C40.0687 32.686 39.6188 32.6289 39.3243 32.6192C38.7145 32.6235 36.7139 32.7509 36.4151 32.2302C36.6163 31.7538 37.3166 31.8018 37.7403 31.797Z" fill="var(--fill-0, black)"/>
<path d="M23.973 31.7976C24.8854 31.7913 25.7529 31.7827 26.6647 31.8245C26.9516 32.0182 26.9969 31.9832 27.1237 32.253L27.0665 32.4053C26.8468 32.5542 26.7583 32.5617 26.5014 32.6199C25.7941 32.6009 23.5153 32.8005 23.1079 32.3233C23.0832 32.0693 23.0814 32.1539 23.2387 31.9034C23.4367 31.7727 23.7265 31.8 23.973 31.7976Z" fill="var(--fill-0, black)"/>
<path d="M35.099 31.8764C35.2822 31.7398 35.5411 31.7767 35.6789 31.9589C35.8167 32.1411 35.7817 32.4003 35.6005 32.5393C35.4174 32.6797 35.1551 32.6442 35.016 32.4603C34.8768 32.2763 34.9141 32.0142 35.099 31.8764Z" fill="var(--fill-0, black)"/>
<path d="M28.1789 31.7898C28.3272 31.7703 28.4744 31.8326 28.5637 31.9525C28.6531 32.0724 28.6705 32.2313 28.6095 32.3678C28.5483 32.5042 28.4182 32.597 28.2692 32.6102C28.0455 32.63 27.847 32.4674 27.8225 32.2442C27.798 32.021 27.9563 31.8191 28.1789 31.7898Z" fill="var(--fill-0, black)"/>
<path d="M41.53 31.8744C41.7037 31.7852 41.917 31.8512 42.0099 32.023C42.103 32.1948 42.0416 32.4094 41.8719 32.5061C41.7587 32.5705 41.6196 32.5688 41.5082 32.5014C41.3968 32.434 41.3306 32.3116 41.3351 32.1815C41.3396 32.0514 41.4142 31.9339 41.53 31.8744Z" fill="var(--fill-0, black)"/>
<path d="M21.7295 31.8653C21.855 31.8104 22.0008 31.8326 22.1044 31.9222C22.208 32.0119 22.2507 32.1532 22.2144 32.2852C22.178 32.4172 22.0689 32.5167 21.934 32.5406C21.7568 32.5721 21.584 32.466 21.5318 32.2938C21.4797 32.1216 21.5645 31.9375 21.7295 31.8653Z" fill="var(--fill-0, black)"/>
<path d="M16.9196 48.4423C17.1338 48.4928 17.2528 48.5321 17.4575 48.6054C17.7149 48.9614 17.5939 51.7414 17.5417 52.3242C17.5417 52.3242 17.4028 52.4669 17.3848 52.4854C17.129 52.4794 17.0353 52.4913 16.8024 52.3824C16.5272 52.0966 16.6263 48.8928 16.9196 48.4423Z" fill="var(--fill-0, black)"/>
<path d="M16.8391 43.779C16.9014 43.7849 16.9636 43.7916 17.0258 43.7991C17.2442 43.826 17.4367 43.8473 17.5644 44.011C17.6247 44.4108 17.6724 45.7731 17.4607 46.0948C17.2172 46.11 17.0264 46.1445 16.8065 46.0415C16.5583 45.6816 16.6278 44.1731 16.8391 43.779Z" fill="var(--fill-0, black)"/>
<path d="M16.8774 54.853C17.1625 54.8894 17.2198 54.9021 17.487 55.0067C17.7175 55.261 17.6638 56.8549 17.426 57.1615C17.2672 57.1725 16.9926 57.1892 16.878 57.0907C16.467 56.7378 16.5957 55.2087 16.8774 54.853Z" fill="var(--fill-0, black)"/>
<path d="M16.9185 42.0561C17.3058 42.1387 17.4371 42.147 17.5567 42.5405C17.4878 42.8103 17.5411 42.7387 17.3591 42.9338L16.9863 42.9467C16.7651 42.8139 16.8336 42.8923 16.7327 42.647C16.7688 42.3541 16.7798 42.3164 16.9185 42.0561Z" fill="var(--fill-0, black)"/>
<path d="M16.8005 58.0631C17.1412 58.0576 17.4544 58.0645 17.6198 58.3842C17.5984 58.5791 17.5522 58.6076 17.4104 58.7488C17.2865 58.7704 17.1538 58.7756 17.0275 58.7838C16.7647 58.6608 16.8252 58.7298 16.6695 58.5047C16.6553 58.2216 16.6413 58.3225 16.8005 58.0631Z" fill="var(--fill-0, black)"/>
<path d="M16.8677 53.3074C17.1142 53.3392 17.4563 53.4233 17.5945 53.6464C17.588 53.8497 17.6127 53.7706 17.4913 53.9448C17.1469 53.9837 16.9654 54.0417 16.7019 53.7979C16.6924 53.5146 16.7043 53.5868 16.8677 53.3074Z" fill="var(--fill-0, black)"/>
<path d="M17.0322 47.0227C17.3361 47.0537 17.4462 47.0216 17.6273 47.2774C17.5022 47.5139 17.5281 47.4486 17.2591 47.5956C16.9436 47.5703 16.7508 47.5907 16.6217 47.265C16.7604 47.0615 16.7462 47.1174 17.0322 47.0227Z" fill="var(--fill-0, black)"/>
<path d="M6.77727 48.3708C7.48456 48.6012 7.16485 51.5676 7.14431 52.2308C7.13888 52.4057 6.96991 52.4958 6.83011 52.5731C6.60105 52.4356 6.55225 52.4083 6.36816 52.2144C6.26164 51.7954 6.36545 49.3857 6.3587 48.8331C6.35661 48.6586 6.62953 48.4797 6.77727 48.3708Z" fill="var(--fill-0, black)"/>
<path d="M6.75237 43.7162C6.81517 43.7298 7.00872 43.7817 7.03685 43.8238C7.35112 44.2955 7.3106 45.8644 6.89426 46.2065C6.08351 45.846 6.25081 44.9014 6.36193 44.1629C6.39597 43.9364 6.5708 43.8363 6.75237 43.7162Z" fill="var(--fill-0, black)"/>
<path d="M6.67342 54.8399L6.9659 54.8809C7.44337 55.2703 7.24627 56.8512 6.91369 57.3431C6.26021 56.9124 6.26481 56.4728 6.30895 55.7075C6.33262 55.2973 6.36033 55.128 6.67342 54.8399Z" fill="var(--fill-0, black)"/>
<path d="M6.69806 42.0276L6.93122 42.0725C7.2762 42.4341 7.16968 42.6949 6.90665 43.0695C6.68135 42.9298 6.4658 42.8143 6.3998 42.5595C6.40794 42.3327 6.55067 42.2043 6.69806 42.0276Z" fill="var(--fill-0, black)"/>
<path d="M6.80201 58.0124L6.99047 58.0504C7.35195 58.3638 7.07827 58.6592 6.85819 59.014C6.64926 58.6532 6.41554 58.6156 6.3416 58.3378C6.46692 58.131 6.54914 58.1425 6.80201 58.0124Z" fill="var(--fill-0, black)"/>
<path d="M6.75383 53.2481L6.89711 53.2683C7.26848 53.5958 7.18869 53.7691 6.86676 54.0744C6.57922 53.9315 6.47889 53.9348 6.3416 53.6992C6.39639 53.4901 6.57414 53.3909 6.75383 53.2481Z" fill="var(--fill-0, black)"/>
<path d="M6.82937 46.9506C6.9116 46.9559 7.0058 47.0144 7.08677 47.0535C7.22448 47.2409 7.19719 47.1506 7.17867 47.3972C7.05446 47.5671 7.03532 47.5819 6.83397 47.6429C6.78349 47.6209 6.7333 47.5984 6.68331 47.5754C6.47486 47.4792 6.36367 47.443 6.2921 47.2489C6.41087 47.067 6.61243 47.0294 6.82937 46.9506Z" fill="var(--fill-0, black)"/>
<path d="M56.6546 48.3599C57.6227 48.6719 57.1786 50.7428 57.2712 51.5663C57.3175 51.9785 57.2274 52.2207 56.9346 52.4911C56.2293 52.5943 56.344 51.4396 56.3567 50.9449C56.3744 50.2562 56.2531 48.8805 56.6546 48.3599Z" fill="var(--fill-0, black)"/>
<path d="M56.5454 54.838C56.6675 54.8541 56.9391 54.8984 57.0134 54.9754C57.4995 55.4793 57.3589 56.7444 56.9801 57.1839C56.9103 57.2076 56.789 57.2332 56.713 57.2519C56.2094 56.9074 56.2728 55.3002 56.5454 54.838Z" fill="var(--fill-0, black)"/>
<path d="M56.6302 43.7491C57.6421 43.9043 57.355 45.5843 56.9137 46.1474C56.0812 46.253 56.2569 44.1138 56.6302 43.7491Z" fill="var(--fill-0, black)"/>
<path d="M56.5391 42.0262C56.8963 42.0441 57.0943 42.1699 57.2312 42.4897C57.175 42.751 57.1884 42.6761 56.9525 42.884C56.858 42.9431 56.7976 42.9571 56.6937 42.9907C56.308 42.7883 56.407 42.3751 56.5391 42.0262Z" fill="var(--fill-0, black)"/>
<path d="M56.5959 57.9626C56.7394 57.9945 57.0742 58.159 57.2018 58.2336C57.2734 58.3729 57.256 58.2975 57.2312 58.4706C57.1005 58.5387 57.0544 58.5545 56.99 58.6892C56.9358 58.7681 56.8651 58.842 56.801 58.9139L56.6628 58.9055C56.3165 58.6475 56.384 58.2704 56.5959 57.9626Z" fill="var(--fill-0, black)"/>
<path d="M56.5985 46.9036C56.8778 46.9563 57.3052 47.0548 57.2668 47.3774L57.0314 47.5588C56.8899 47.6108 56.8284 47.6075 56.6764 47.619C56.4224 47.5064 56.4954 47.5787 56.3771 47.3604C56.4097 47.0532 56.3795 47.1583 56.5985 46.9036Z" fill="var(--fill-0, black)"/>
<path d="M56.6362 53.2291C56.8634 53.303 57.2615 53.5275 57.2998 53.7801L57.1193 53.9212C56.7795 54.0337 56.5831 54.0825 56.4168 53.7422C56.415 53.5093 56.5053 53.4173 56.6362 53.2291Z" fill="var(--fill-0, black)"/>
<path d="M46.2037 48.496C46.4412 48.4965 46.5405 48.4841 46.7642 48.5676C46.9729 48.816 47.0054 52.1817 46.7321 52.4988C46.4591 52.4827 46.4055 52.482 46.1488 52.3874C45.8383 51.9799 46.0104 49.3332 46.0459 48.6988C46.0459 48.6988 46.1884 48.5158 46.2037 48.496Z" fill="var(--fill-0, black)"/>
<path d="M46.231 54.8826C46.5787 54.8971 46.5481 54.8419 46.7859 55.016C47.0307 55.4905 47.026 56.7977 46.7072 57.2196C46.3385 57.1706 46.3755 57.2297 46.1186 57.0282C45.8749 56.5217 45.8277 55.3066 46.231 54.8826Z" fill="var(--fill-0, black)"/>
<path d="M46.1158 43.8134C46.367 43.798 46.5459 43.7662 46.7766 43.8658C47.0065 44.1965 46.9563 45.7227 46.7223 46.0857C46.4728 46.0819 46.347 46.1185 46.1475 45.9569C45.9072 45.6022 45.8659 44.0828 46.1158 43.8134Z" fill="var(--fill-0, black)"/>
<path d="M46.2607 42.0809C46.439 42.0784 46.4961 42.0826 46.6715 42.1136C46.8732 42.3067 46.8215 42.2108 46.8784 42.4717C46.8193 42.7261 46.7929 42.7515 46.6146 42.9328C46.4324 42.926 46.384 42.9171 46.2071 42.8718C46.0536 42.7253 46.0398 42.7047 46.0012 42.4965C46.0884 42.1894 46.0233 42.2929 46.2607 42.0809Z" fill="var(--fill-0, black)"/>
<path d="M46.0649 58.0939C46.4013 58.0636 46.6893 58.0346 46.9126 58.3131C46.907 58.5839 46.8878 58.5258 46.702 58.7865C46.4128 58.8289 46.2144 58.8123 46.0346 58.5435C45.9745 58.2618 45.9705 58.3797 46.0649 58.0939Z" fill="var(--fill-0, black)"/>
<path d="M46.1464 53.3622C46.2122 53.3588 46.2781 53.3564 46.3441 53.355C46.6268 53.3498 46.6912 53.3646 46.8696 53.537C46.9038 53.7665 46.8748 53.8047 46.7672 54.0039C46.4421 53.9919 46.2389 54.019 46.0126 53.804C46.015 53.5239 46.0038 53.6172 46.1464 53.3622Z" fill="var(--fill-0, black)"/>
<path d="M46.0664 47.0311C46.3609 46.9913 46.8569 46.9698 46.9802 47.2857L46.8484 47.5006C46.5561 47.5643 46.2351 47.6344 46 47.3983C45.9682 47.1641 45.9559 47.2604 46.0664 47.0311Z" fill="var(--fill-0, black)"/>
<path d="M48.8211 31.7979C49.3298 31.7734 50.3373 31.7111 50.6233 32.2291L50.5809 32.3697C50.3119 32.6318 49.9879 32.6058 49.6286 32.6173C49.1776 32.6013 47.1413 32.9164 47.8462 31.8878C48.0907 31.7545 48.5261 31.7953 48.8211 31.7979Z" fill="var(--fill-0, black)"/>
<path d="M53.9403 31.7991C54.4933 31.7792 55.3306 31.6901 55.6326 32.2561L55.5816 32.3756C55.196 32.6815 54.8219 32.6202 54.3373 32.6129C54.0432 32.6155 52.5507 32.6649 52.7539 32.065C53.1481 31.7626 53.4476 31.8088 53.9403 31.7991Z" fill="var(--fill-0, black)"/>
<path d="M51.3188 31.7945C51.377 31.8038 51.4349 31.8146 51.4925 31.8268C51.7154 31.8747 51.904 31.9434 52.0323 32.1399C52.0082 32.3817 52.0437 32.2877 51.8592 32.4954L51.5329 32.5642C51.2655 32.4754 51.348 32.541 51.2009 32.3321C51.1598 32.0968 51.2217 32.0073 51.3188 31.7945Z" fill="var(--fill-0, black)"/>
<path d="M56.5475 31.7874C56.6456 31.8006 56.7423 31.8226 56.8364 31.853C57.0812 31.9352 57.1358 31.9846 57.2294 32.1791C57.1518 32.4024 57.1268 32.3619 56.8925 32.5278C56.8528 32.5743 56.7721 32.6135 56.7153 32.6472C56.3602 32.476 56.4074 32.0948 56.5475 31.7874Z" fill="var(--fill-0, black)"/>
<path d="M46.0507 31.8964C46.3669 31.8797 46.6314 31.8202 46.8604 32.0568C46.9049 32.2577 46.8525 32.3278 46.7657 32.5093C46.5245 32.4995 46.2652 32.5218 46.0786 32.3847C45.98 32.1456 46.0165 32.1853 46.0507 31.8964Z" fill="var(--fill-0, black)"/>
<path d="M13.9575 31.7969C14.444 31.7859 15.5265 31.6523 15.8418 32.0716C15.8891 32.278 15.8792 32.3028 15.7876 32.4952C15.6077 32.6444 15.4037 32.6175 15.1657 32.6209C14.538 32.6019 13.4348 32.8312 13.063 32.2928C13.047 32.1081 13.0424 32.0808 13.1413 31.9263C13.3424 31.7793 13.6946 31.8045 13.9575 31.7969Z" fill="var(--fill-0, black)"/>
<path d="M8.82865 31.7947C9.38779 31.791 10.2784 31.7135 10.7156 32.0261C10.8414 32.2592 10.8245 32.1586 10.7949 32.406C10.6456 32.5646 10.4497 32.5647 10.2223 32.6033C9.62311 32.6088 8.3351 32.7907 7.95106 32.314C7.95573 32.0796 7.94313 32.1671 8.07903 31.9302C8.28643 31.7877 8.57154 31.8053 8.82865 31.7947Z" fill="var(--fill-0, black)"/>
<path d="M11.6096 31.8546C11.7698 31.8428 11.9254 31.8398 12.0858 31.8355C12.3255 31.9792 12.2675 31.9013 12.3561 32.1195C12.3263 32.3596 12.3236 32.3953 12.1877 32.5989C11.931 32.5528 11.6529 32.5304 11.4927 32.3257C11.4726 32.0379 11.4705 32.1318 11.6096 31.8546Z" fill="var(--fill-0, black)"/>
<path d="M6.82666 31.7654C7.07758 31.9152 7.15688 32.105 7.09916 32.389C6.94488 32.5756 7.01965 32.5341 6.81873 32.5891C6.55771 32.4754 6.39988 32.4445 6.32093 32.158C6.40942 31.9435 6.61411 31.8748 6.82666 31.7654Z" fill="var(--fill-0, black)"/>
<path d="M16.8393 31.8143C17.0827 31.8822 17.4109 31.9385 17.5568 32.1281C17.5539 32.3533 17.5759 32.2639 17.4283 32.4775C17.0814 32.4999 16.883 32.5467 16.6582 32.258C16.672 32.0006 16.6843 32.0556 16.8393 31.8143Z" fill="var(--fill-0, black)"/>
<path d="M10.4571 35.8316C11.2427 35.7795 12.7373 35.6767 13.4698 35.9589C13.6558 36.0305 13.6216 37.9231 13.4381 38.1449C12.9492 38.2266 10.9187 38.2201 10.4598 38.1091C10.1789 37.8284 10.2857 37.2343 10.2648 36.8468C10.2426 36.4357 10.1651 36.1443 10.4571 35.8316ZM11.0747 37.3871C11.5003 37.3962 12.2606 37.3925 12.6517 37.4612C12.7227 37.1494 12.7022 36.8109 12.6981 36.4892C12.1866 36.5147 11.6745 36.5214 11.1626 36.5093L11.0747 37.3871Z" fill="var(--fill-0, black)"/>
<path d="M50.5462 35.8093C52.596 35.8079 53.6583 35.1129 53.2336 37.8936C53.206 38.0744 53.0942 38.1026 52.9587 38.1692C52.2478 38.1856 50.7698 38.2757 50.1333 38.0933C49.8541 37.8289 49.8318 36.2994 50.0582 35.9807C50.1554 35.8438 50.394 35.8387 50.5462 35.8093ZM50.8146 37.413C51.3274 37.4135 51.8782 37.4043 52.3874 37.4238L52.4009 36.5216L50.8321 36.4951C50.833 36.8107 50.8321 37.0963 50.8146 37.413Z" fill="var(--fill-0, black)"/>
<path d="M12.1398 50.0167C12.234 50.0333 12.3123 50.0935 12.4 50.145C12.5445 50.4627 12.4296 50.7777 12.1064 50.9165C11.8273 50.7413 11.5625 50.6407 11.581 50.2868C11.7067 50.1034 11.9222 50.0755 12.1398 50.0167Z" fill="var(--fill-0, black)"/>
<path d="M51.5105 50.0421C51.7298 49.927 52.0009 50.009 52.1197 50.2263C52.2386 50.4436 52.1613 50.7161 51.946 50.8387C51.8035 50.9198 51.6282 50.9177 51.4876 50.8332C51.347 50.7487 51.2629 50.5949 51.2676 50.431C51.2724 50.267 51.3652 50.1184 51.5105 50.0421Z" fill="var(--fill-0, black)"/>
<path d="M9.97604 43.162C9.9296 43.1087 9.8845 43.0544 9.84085 42.9988C9.65809 42.7643 9.6253 42.6374 9.66192 42.3475C9.80945 42.1127 9.72535 42.1763 9.97042 42.095C10.4033 42.3045 10.2424 42.7341 10.107 43.0983L9.97604 43.162Z" fill="var(--fill-0, black)"/>
<path d="M57.7857 39.7861C57.9836 39.8963 57.9194 39.8265 58.0085 40.0796C57.9556 40.3945 58.0112 40.2962 57.8125 40.5377L57.6068 40.3547C57.5742 40.0863 57.6405 40.0757 57.7857 39.7861Z" fill="var(--fill-0, black)"/>
<path d="M45.3432 39.7303C45.6827 39.9083 45.6903 40.2416 45.5738 40.5595C45.4961 40.5231 45.4372 40.4739 45.367 40.4233C45.2476 40.1909 45.3056 39.9917 45.3432 39.7303Z" fill="var(--fill-0, black)"/>
<path d="M20.9529 40.5803C21.0189 40.2961 21.0822 39.9233 20.7782 39.7411C20.6967 40.0769 20.5839 40.39 20.9529 40.5803Z" fill="var(--fill-0, black)"/>
</g>
</svg>
