<svg preserveAspectRatio="none" width="100%" height="100%" overflow="visible" style="display: block;" viewBox="0 0 115 54" fill="none" xmlns="http://www.w3.org/2000/svg">
<g id="Vector">
<path d="M88.3367 16.3136C90.1567 16.1353 91.9534 16.3878 93.4391 17.5045C96.4418 19.7618 96.5627 25.6501 94.399 28.4532C93.3896 29.7408 91.9082 30.5766 90.2805 30.777C90.2113 30.7932 90.1407 30.8068 90.0701 30.8177C86.2327 31.4112 83.1113 28.9786 82.6488 25.1772C82.1237 20.8624 83.6429 16.963 88.3367 16.3136ZM90.1123 29.2694C93.7231 28.7226 94.5024 24.9105 93.97 21.8559C93.418 18.6915 91.3882 17.623 88.3833 17.8245C87.036 18.0997 86.0674 18.4626 85.3085 19.6671C84.2795 21.3003 84.1272 23.8694 84.5271 25.7072C85.1891 28.7497 87.3557 29.4873 90.1123 29.2694Z" fill="var(--fill-0, black)"/>
<path d="M17.3101 39.8619L17.3645 39.8277C17.9498 39.4543 19.4776 38.1469 20.1219 37.6223L25.9292 32.8909L51.0098 12.585C51.7209 12.0099 53.5147 10.4689 54.2336 10.1667L54.3017 10.2164C53.9298 10.9118 50.7768 13.3044 49.9202 13.993L43.6696 19.0444L19.8307 38.353L12.6513 44.1296C12.3334 44.3879 10.0689 46.0955 10.0912 46.3609C10.4313 46.3331 15.5557 42.264 16.3561 41.6653L50.0493 16.4696C51.1887 15.623 52.3272 14.7751 53.4606 13.9204C53.6667 13.7649 54.0926 13.4015 54.3263 13.4369C54.3926 13.8689 53.7972 14.2022 53.4709 14.4397C51.5503 15.8379 49.6506 17.2598 47.7537 18.6897L19.0263 40.1473C18.1846 40.7717 16.2011 42.162 15.4985 42.8172C15.0819 42.9904 10.4373 46.4724 10.0759 46.8319L10.0487 46.9545C10.4336 47.0177 15.0797 43.5299 15.7758 43.0469C19.3579 40.718 22.9046 38.1512 26.4341 35.7293L43.8598 23.8126L51.3393 18.6855C51.9852 18.2504 53.752 16.8836 54.3805 16.8107L54.4059 16.8842C53.9488 17.5214 51.238 19.2308 50.3953 19.81L19.8989 40.6974C18.4511 41.6822 16.983 42.7012 15.5352 43.6814C15.1489 43.9431 12.7832 45.4878 12.5677 45.7126C11.833 46.1596 11.3898 46.5127 10.7143 47.0069C10.2926 47.3152 10.2323 47.1816 9.69997 47.6772L9.683 47.7826C10.174 47.8375 12.3875 46.2456 12.8872 45.8634L12.9525 45.8298C13.3578 45.6191 14.0313 45.1309 14.4541 44.8581C15.3769 44.2642 16.3065 43.6813 17.243 43.1094L49.2892 23.1446C50.0885 22.6411 53.6371 20.2868 54.2398 20.2336C54.216 20.7069 51.3011 22.3532 50.7242 22.7093L20.698 41.4274C17.7065 43.2799 12.8412 46.2682 9.68832 48.2177C9.67667 48.254 9.66509 48.2903 9.65343 48.3266L9.71665 48.3984C10.143 48.3729 14.5768 45.6382 15.3097 45.23L39.8513 31.4863C44.3929 28.9244 48.9556 26.3764 53.5021 23.8232C53.6683 23.7299 54.1923 23.471 54.3439 23.5761C54.2613 23.7759 54.1512 23.8938 53.9664 24.0029C52.5072 24.8654 51.008 25.6798 49.5294 26.5056L18.982 43.6404L14.7235 46.0073C14.201 46.2976 13.238 46.7819 12.7833 47.0939C12.2477 47.3717 11.6971 47.6926 11.1636 47.9696C9.68759 48.736 10.1819 48.9266 8.84351 48.151C8.74854 48.1163 8.6385 47.9672 8.56523 47.8827C8.54593 47.5374 8.70302 47.5583 8.80309 47.2396C8.88677 46.9733 8.73099 47.1711 8.64607 46.8521C8.72676 46.6922 8.80484 46.5583 8.89522 46.4053C9.12725 46.1827 10.0214 45.603 10.3138 45.5147C10.8071 45.4558 16.4302 40.5882 17.3101 39.8619Z" fill="var(--fill-0, black)"/>
<path d="M99.0114 16.3242C101.717 16.5122 106.956 15.539 108.066 19.0376C108.886 21.6229 107.981 24.2477 105.245 25.2061C105.401 25.3924 105.905 26.0295 106.012 26.2254C106.298 26.746 108.617 29.4617 108.558 29.8099C108.214 30.2824 107.693 30.5693 107.136 30.7248C106.867 30.6643 106.952 30.6915 106.759 30.4007C105.774 28.8444 104.493 26.9633 103.617 25.4105C102.997 25.5404 101.437 25.4993 100.751 25.4973C100.823 27.0919 100.765 29.076 100.772 30.7028L99.0806 30.6579C98.9371 29.5311 98.9619 28.2047 98.9597 27.0632L98.9568 22.3782C98.9561 20.8675 98.8628 17.6345 99.0114 16.3242ZM100.736 23.9834C102.525 23.8977 104.238 24.3024 105.752 23.1367C106.475 22.1514 106.709 21.2796 106.512 20.0851C106.031 17.1697 102.54 18.1425 100.753 17.8647C100.788 19.42 100.856 22.5222 100.736 23.9834Z" fill="var(--fill-0, black)"/>
<path d="M105.432 38.4875C108.216 38.7127 112.75 37.6644 114.226 40.8728C114.734 41.9795 114.685 43.8574 114.228 44.9823C113.72 46.2285 112.762 46.8709 111.575 47.3579C111.901 47.7313 112.455 48.579 112.771 49.0149C113.496 50.0026 114.239 50.9764 115 51.9362C114.452 52.3134 113.86 52.6892 113.303 53.0652C113.177 52.7994 113.044 52.5635 112.9 52.3076L111.112 49.5218C110.764 48.9813 110.195 48.159 109.953 47.5949C108.903 47.616 108.037 47.6053 106.979 47.5782C107.104 48.8087 107.03 51.5492 107.03 52.9068C106.548 52.9206 105.668 53.044 105.336 52.6679C105.254 52.2502 105.221 48.174 105.258 47.7552C105.366 46.527 105.041 39.1904 105.432 38.4875ZM107.008 46.1143C108.621 46.1049 110.71 46.3095 111.984 45.2899C112.629 44.6148 112.795 43.9637 112.83 43.0613C112.966 39.5379 109.405 40.0177 107.011 40.0111C107.034 41.6668 107.116 44.5432 107.008 46.1143Z" fill="var(--fill-0, black)"/>
<path d="M13.682 41.2517C15.0459 40.0375 16.4041 38.6276 17.7554 37.3699L30.9765 24.9548C33.7744 22.3195 36.6413 19.7194 39.429 17.0766C40.0737 16.4655 41.0506 15.6589 41.5872 15.0951C41.5751 15.3004 41.549 15.39 41.6499 15.5673C40.0308 17.2538 37.479 19.4626 35.723 21.1169L21.5668 34.339C19.8879 35.9021 18.2137 37.4641 16.5068 38.9966C16.3442 39.1426 16.1583 39.3277 16.0073 39.4859C14.3814 40.9224 12.7985 42.5093 11.1897 43.9842C10.911 44.2359 10.6162 44.4711 10.4266 44.7934L10.4979 44.8213C10.8547 44.6256 11.118 44.3582 11.4172 44.084C11.6545 43.8287 12.2498 43.3948 12.5386 43.1111C13.5716 42.0966 15.3616 40.7444 16.3028 39.7256C16.7602 39.387 17.1963 38.9284 17.6422 38.5492L18.0611 38.6334C17.7982 38.8779 17.2898 39.3216 17.0631 39.5673C16.3704 40.1438 10.4098 45.2263 10.3138 45.5147C10.0214 45.603 9.12725 46.1827 8.89522 46.4053C8.78466 46.4886 8.44068 46.7229 8.40652 46.8268C8.08309 46.9042 7.75674 47.5156 7.54998 47.8503L7.52049 47.8982C7.57591 48.0989 7.68595 48.1457 7.85739 48.2599C7.68683 48.5038 7.7097 48.4025 7.71836 48.6539C7.84756 48.8143 7.87312 48.8331 8.04653 48.9454C8.62063 49.6887 8.92331 49.801 9.77526 50.2105C9.98041 50.187 10.0111 50.1753 10.1996 50.0903L10.2563 50.1838L10.2409 50.2709C9.69806 50.8575 8.28067 49.6186 7.81086 49.3244L7.74189 49.4165C7.90946 50.1164 9.5926 50.76 10.2746 50.7901C9.80745 51.5918 7.77022 50.0001 7.21017 49.6612C7.8059 50.4496 8.6344 51.1142 9.64912 51.2939C10.2754 51.4049 10.5769 51.0374 11.3997 51.0077L11.3618 51.2663C10.7473 51.4455 10.6947 51.3396 9.86418 51.6645C7.80976 51.0046 8.30339 51.1446 6.67189 49.9731C7.67882 51.2897 8.02548 51.363 9.57243 51.9266C9.51388 51.9639 9.34535 52.0759 9.29255 52.0984C8.28985 51.8795 8.02257 51.7726 7.10988 51.291C7.05249 51.1967 6.86387 51.0714 6.72688 50.8551L6.61334 50.8273C6.52259 51.0232 6.53512 50.9337 6.61836 51.1962C6.77312 51.3265 6.80415 51.3628 6.98607 51.4436C7.66272 51.9231 8.77481 52.4596 9.58314 52.5286C9.50484 52.7292 9.56347 52.6653 9.35744 52.7628C8.33456 52.4681 8.02198 52.564 6.78339 52.0962C6.3749 51.8821 6.57765 51.7468 6.32763 51.6378C6.1256 51.9653 6.5132 52.2153 6.76395 52.3793C8.37659 52.9913 9.73229 53.2245 11.4576 52.9682L11.7022 53.0625L11.75 53.1875C11.632 53.3298 11.6159 53.3596 11.4637 53.4594C10.9229 53.4643 10.4952 53.4808 9.95675 53.526L9.91225 53.5217C8.88012 53.4172 7.36048 52.9867 6.37125 53.1311L6.40257 53.1907C6.9222 53.4202 7.18701 53.3914 7.72914 53.5032C7.98652 53.7031 8.24659 53.7253 8.55334 53.8147C8.33456 53.8711 8.16072 53.9046 7.93852 53.944C7.4714 53.9976 5.78112 53.9585 5.26208 53.9577C3.50793 53.9432 1.75364 53.9573 0 54C0.657641 53.4531 1.90002 52.1311 2.54994 51.4805L7.46892 46.5408C11.0179 42.9483 14.6527 39.4938 18.1892 35.8567C18.2603 36.0044 18.2742 36.0791 18.4109 36.1514C16.7858 37.796 15.03 39.4246 13.4398 41.0795C12.6575 41.7863 11.603 43.021 10.9377 43.5838C10.773 43.7589 10.6726 43.8002 10.6477 43.9994C10.9236 43.9245 10.9077 43.87 11.1415 43.6416C11.9596 42.8429 12.8893 42.1032 13.682 41.2517Z" fill="var(--fill-0, black)"/>
<path d="M94.3284 38.4623C94.5535 38.4549 94.8003 38.4787 95.0276 38.4797C97.5416 38.4908 100.107 38.5815 102.616 38.4547C102.596 38.9916 102.643 39.5212 102.34 39.9555C101.894 40.2304 96.8403 40.1156 96.0559 40.0432C96.1134 40.8448 96.1411 44.0634 96.0122 44.7846C97.6778 44.623 99.9042 44.8356 101.804 44.6852C101.796 45.2202 101.809 45.7815 101.812 46.3187C99.8765 46.2267 97.9684 46.3261 96.0508 46.2553C96.0901 46.5635 96.0909 46.993 96.1011 47.3118C96.0894 48.2269 96.1418 50.5199 95.9947 51.2655C96.7099 51.2096 97.6428 51.2566 98.3806 51.2595L102.674 51.2633C102.746 51.8393 102.787 52.2926 102.815 52.8722C100.462 52.9338 98.0536 52.766 95.6939 52.8747C95.2431 52.8955 94.7829 52.8946 94.3313 52.8972C94.2607 51.9534 94.2898 50.8137 94.2905 49.8539L94.2942 44.8818L94.2862 40.9293C94.284 40.1749 94.2534 39.1987 94.3284 38.4623Z" fill="var(--fill-0, black)"/>
<path d="M72.4458 38.3923C73.8638 38.5657 75.5891 38.5127 77.0347 38.512C78.0936 38.5116 79.6653 38.5404 80.6798 38.4161C80.6565 39.0317 80.6033 39.4553 80.5152 40.0677C79.5407 40.1348 78.3813 40.1087 77.3857 40.1086C76.3487 40.1085 75.0174 40.1711 74.0116 40.0582C74.0677 41.0059 74.134 43.9985 73.9715 44.7794C74.6707 44.7156 75.5854 44.7519 76.3028 44.7562C77.5045 44.7754 78.7061 44.7564 79.9063 44.6993C79.9245 45.1577 79.8874 45.8219 79.875 46.2951C77.9451 46.2759 76.0151 46.267 74.0844 46.2684C73.989 46.412 74.0313 46.6086 74.0334 46.8146C74.0793 47.7044 74.1281 50.5114 73.9497 51.2631C76.136 51.132 78.4061 51.4042 80.7162 51.1682C80.7701 51.7428 80.7934 52.3007 80.8196 52.8768C80.1161 52.9191 79.039 52.8581 78.2888 52.8546C76.3217 52.8341 74.3546 52.8472 72.3875 52.8937C72.3162 51.5209 72.2499 38.9375 72.4458 38.3923Z" fill="var(--fill-0, black)"/>
<path d="M62.18 16.2483C62.8489 16.264 65.068 16.4413 65.5326 16.8453C65.6273 17.1317 65.4314 17.9223 65.3658 18.2601C63.4168 17.6007 59.646 17.0697 59.4259 20.1824C59.2879 22.1345 62.211 22.6718 63.5019 23.372C64.1414 23.7189 64.8327 24.0974 65.3447 24.6486C66.6585 25.9683 66.5733 28.4204 65.1546 29.655C63.8276 30.8102 62.3817 30.9062 60.6996 30.8582C59.9585 30.7254 58.075 30.5645 57.4449 30.0289C57.2784 29.8875 57.4996 28.9096 57.5457 28.5765C58.9048 29.1493 60.5651 29.3502 62.0328 29.3675C63.1689 29.3808 64.6922 28.2182 64.5451 27.0367C64.2252 24.4773 60.5991 24.4521 59.0215 23.0107C58.251 22.3475 57.7603 21.4763 57.7129 20.4384C57.5792 17.5107 59.6458 16.4087 62.18 16.2483Z" fill="var(--fill-0, black)"/>
<path d="M69.6701 16.3908C70.4487 16.3196 71.82 16.3797 72.6576 16.3692C75.023 16.3393 77.4424 16.431 79.8049 16.3342C79.8115 16.9187 79.8086 17.3666 79.896 17.9428C78.3207 17.9578 76.7447 17.9596 75.1694 17.9482C75.3078 20.6366 75.2015 24.1499 75.1985 26.8989C75.1993 28.1687 75.2066 29.4385 75.2211 30.7083C74.6662 30.7045 74.1251 30.6757 73.5708 30.6482C73.3713 29.2423 73.4201 26.8778 73.4193 25.4204C73.4237 22.9108 73.4135 20.4012 73.388 17.8917C72.8549 17.9768 69.3686 18.0597 68.9877 17.8538C68.7984 17.5923 68.8224 16.797 69.0336 16.5243C69.2142 16.3646 69.4233 16.3939 69.6701 16.3908Z" fill="var(--fill-0, black)"/>
<path d="M68.5901 38.451C68.7721 38.4581 68.7022 38.4278 68.8377 38.5649C68.9178 38.9862 68.8756 39.5801 68.861 40.0255C68.164 40.1717 64.8824 40.1403 64.1403 40.0318C64.2671 40.8601 64.2117 43.4196 64.2113 44.4254L64.2154 52.8667C63.6648 52.882 63.1141 52.894 62.5633 52.9024C62.4388 51.7576 62.4766 49.9468 62.4793 48.7553C62.4613 45.8545 62.4766 42.9536 62.525 40.0531C61.9095 40.1271 58.4596 40.1615 57.9603 39.9973C57.6992 39.666 57.7995 38.899 57.818 38.4652C58.5095 38.4357 59.4141 38.5168 60.1466 38.5027C62.8665 38.4504 65.9042 38.6257 68.5901 38.451Z" fill="var(--fill-0, black)"/>
<path d="M83.0343 38.4419C83.5688 38.4964 84.0211 38.4612 84.5571 38.434L84.5644 46.9178C84.5637 48.111 84.6161 50.0729 84.5039 51.2078C86.0253 51.1419 89.9122 51.3434 91.1809 51.0982C91.143 51.6707 91.1066 52.1743 91.1204 52.7472C90.9114 52.9354 88.3631 52.8562 87.9444 52.8552C86.2598 52.8436 84.5753 52.8581 82.8915 52.8985C82.8194 52.11 82.8478 51.0795 82.8471 50.2693V41.4087C82.8471 40.8426 82.7459 38.8006 83.0343 38.4419Z" fill="var(--fill-0, black)"/>
<path d="M66.9776 0.170185C67.2681 0.171055 67.4422 0.152192 67.708 0.268493C67.9469 0.617541 67.8588 3.70594 67.8078 4.25553C69.5207 4.29848 71.2337 4.29565 72.9466 4.24718C72.9109 3.53131 72.8657 0.937788 73.0748 0.373186C73.2918 0.18056 73.6945 0.198988 74.0237 0.16721C74.0092 1.52568 74.2968 8.80549 74.0164 9.65254C73.8344 9.77189 73.6421 9.72894 73.412 9.7161C73.1643 9.68628 73.243 9.72857 73.0871 9.58071C72.8723 8.95843 72.8898 6.08275 72.8767 5.26378C72.0974 5.32154 68.4625 5.33764 67.8391 5.2278C67.8544 6.61819 67.9243 8.05835 67.8071 9.43699C67.8151 9.83378 66.8749 9.82717 66.8465 9.48778C66.7212 7.95489 66.4161 1.12323 66.9776 0.170185Z" fill="var(--fill-0, black)"/>
<path d="M111.194 16.2735C111.743 16.3855 112.271 16.3431 112.823 16.3007L112.828 30.6729C112.224 30.6459 111.756 30.6311 111.154 30.6569C110.965 29.4872 110.963 16.9196 111.194 16.2735Z" fill="var(--fill-0, black)"/>
<path d="M76.6163 0.117331C77.4619 0.234793 81.6662 0.115371 81.9102 0.321637C81.9372 0.587396 81.9219 0.907206 81.7216 1.10491C81.2293 1.34861 78.1515 1.27729 77.5136 1.19052C77.5798 1.99774 77.6818 3.55398 77.5216 4.32579C78.8201 4.29547 80.2097 4.34205 81.5213 4.3366L81.4339 5.36583C80.8913 5.29212 78.1151 5.30576 77.6337 5.40827C77.499 5.58755 77.5609 5.85411 77.5828 6.08801C77.598 6.72894 77.6549 8.09191 77.5238 8.68219C79.0677 8.64686 80.5243 8.716 82.0515 8.73298C82.0151 9.07782 82.0187 9.32595 82.0231 9.66854C80.3277 9.61521 78.6541 9.76344 76.9608 9.76162C76.676 9.76126 76.6068 9.73325 76.4474 9.55869C76.3869 9.09617 76.4073 8.08675 76.4015 7.57896C76.3789 6.15672 76.3767 4.73426 76.3956 3.31195C76.4029 2.66036 76.3265 0.552934 76.6163 0.117331Z" fill="var(--fill-0, black)"/>
<path d="M13.0127 47.3216L48.1853 29.781C49.043 29.3533 53.5996 26.9588 54.1579 26.9863L54.1757 27.0715C53.5961 27.7317 51.9543 28.3406 51.121 28.7519L44.8269 31.906L15.4183 46.5496C14.1387 47.1762 12.8802 47.842 11.5764 48.4276C11.1052 48.6392 10.568 48.9491 10.0987 49.1282L10.0368 49.259C9.64239 49.3057 8.86036 48.8152 8.55776 48.5778C8.52986 48.5559 8.50219 48.5336 8.4748 48.511L8.3751 48.5337C8.47604 48.9927 9.71296 49.6125 10.1579 49.6887C9.96356 49.9002 10.0504 49.8401 9.74522 49.8993C9.55383 49.7711 8.17835 48.947 8.04653 48.9454C7.87312 48.8331 7.84756 48.8143 7.71836 48.6539C7.7097 48.4025 7.68683 48.5038 7.85739 48.2599C7.68595 48.1457 7.57591 48.0989 7.52049 47.8982L7.54998 47.8503C7.75674 47.5156 8.08309 46.9042 8.40652 46.8268C7.69892 48.0179 8.17424 47.6568 8.75112 48.3274C9.07192 48.5541 9.40803 48.8244 9.75862 48.9936C10.2268 48.8755 12.5846 47.6079 13.0127 47.3216Z" fill="var(--fill-0, black)"/>
<path d="M17.6422 38.5492C18.3877 37.8426 19.3641 37.0602 20.1587 36.374L35.7683 22.7226L48.0926 11.9809C49.9832 10.3325 51.8858 8.68459 53.7587 7.01632C53.9026 6.8882 54.0985 6.76319 54.2968 6.77219C54.3347 6.88377 54.3366 6.88123 54.2845 6.98955C54.0465 7.48487 46.2774 14.0979 45.1237 15.1085L21.4581 35.7379C20.6779 36.4206 18.8399 38.1093 18.0611 38.6334L17.6422 38.5492Z" fill="var(--fill-0, black)"/>
<path d="M18.1892 35.8567L51.4303 2.73159C51.8998 2.26356 53.8723 0.243122 54.245 0L54.3552 0.0148003C54.3799 0.595291 52.8627 1.82309 52.4216 2.26392L48.7123 5.97772L25.1241 29.4744C22.9268 31.6612 20.6491 34.028 18.4109 36.1514C18.2742 36.0791 18.2603 36.0044 18.1892 35.8567Z" fill="var(--fill-0, black)"/>
<path d="M10.3195 49.3715C10.8966 49.2186 11.6189 48.773 12.1801 48.5216C19.4419 45.2692 26.7573 42.1071 34.0566 38.9386L51.6005 31.2758C52.2214 31.0051 53.6763 30.3263 54.2877 30.1956C54.2684 30.754 50.3772 32.2354 49.6639 32.5448L43.7985 35.1102L26.3332 42.7177C21.1886 44.9696 16.035 47.2479 10.8629 49.4388C10.622 49.5409 10.4614 49.6093 10.1931 49.589L10.2172 49.4124L10.3195 49.3715Z" fill="var(--fill-0, black)"/>
<path d="M10.1996 50.0903C10.4574 49.8844 10.5392 49.9272 10.8142 49.8084C13.5198 48.64 16.307 47.7178 19.0566 46.6745C30.1907 42.4084 41.3545 38.2198 52.5473 34.1091C52.9267 33.9728 53.8214 33.6376 54.2032 33.7151C54.1246 34.0665 51.5717 34.8965 51.128 35.0674C48.0233 36.2486 44.9115 37.4113 41.7929 38.5558L20.341 46.575C19.1558 47.0174 10.9992 50.2031 10.2563 50.1838L10.1996 50.0903Z" fill="var(--fill-0, black)"/>
<path d="M10.4072 50.5386C11.0939 50.4377 12.7438 49.7982 13.4898 49.5586C14.7121 49.1659 15.9443 48.7852 17.1715 48.4051L50.4477 38.0512C51.0659 37.8634 53.7752 36.903 54.1289 37.0406L54.1327 37.1852C53.9025 37.4357 50.067 38.5462 49.4335 38.7442L13.5269 49.9557C12.7945 50.1631 10.908 50.7925 10.2746 50.7901L10.4072 50.5386Z" fill="var(--fill-0, black)"/>
<path d="M58.4862 0.21699C60.3199 0.184777 62.1571 0.156192 63.9898 0.234621C64.2526 0.245867 64.7494 0.266762 64.6824 0.647878C64.5244 1.54346 62.2572 1.23809 61.5152 1.20697C61.6076 2.26579 61.5456 2.88764 61.5296 3.94951C61.5096 5.14902 61.5174 6.34889 61.5527 7.5481C61.5429 8.13004 61.7024 8.8153 61.5308 9.3606C61.418 9.71886 60.8891 9.83313 60.5712 9.65981C60.2327 9.06386 60.383 2.33878 60.4026 1.16953C59.7358 1.29345 58.3218 1.33495 57.6566 1.1408C57.3566 1.05315 57.2167 0.683429 57.4522 0.388794C57.7274 0.237668 58.1606 0.240207 58.4862 0.21699Z" fill="var(--fill-0, black)"/>
<path d="M14.0204 50.2717C14.4464 50.0742 15.3137 49.9066 15.8094 49.7828C17.2429 49.4248 18.7063 49.1605 20.136 48.7813C29.2688 46.3971 38.4236 44.0972 47.5991 41.8819C48.5689 41.6517 53.6914 40.2783 54.0427 40.3916C54.0536 40.3951 54.0642 40.3996 54.0749 40.4036L54.064 40.5076C53.5265 40.9301 49.8609 41.6862 49.0006 41.9022L38.0913 44.6289C29.6892 46.7194 21.1195 48.9643 12.7059 50.9605C12.2638 51.0874 11.7403 51.1517 11.3618 51.2663L11.3997 51.0077C11.7276 50.7586 13.5288 50.3955 14.0204 50.2717Z" fill="var(--fill-0, black)"/>
<path d="M9.91225 53.5217L9.95675 53.526C10.784 53.7377 14.2707 53.6388 15.2688 53.6158C16.3749 53.6261 19.2023 53.7289 20.1943 53.6353L44.465 53.6051L50.2562 53.6173C51.3651 53.6215 53.4824 53.5992 54.5051 53.8187C53.4034 54.0073 51.8469 53.9579 50.6973 53.9599L45.3204 53.966L26.0103 53.957C20.8943 53.9345 15.7448 54.0666 10.6401 53.8468C9.75136 53.8086 8.91246 54.0419 7.93852 53.944C8.16072 53.9046 8.33456 53.8711 8.55334 53.8147C8.24659 53.7253 7.98652 53.7031 7.72914 53.5032C8.27353 53.5714 9.40616 53.7493 9.91225 53.5217Z" fill="var(--fill-0, black)"/>
<path d="M21.3262 49.7562C22.5414 49.4134 24.7731 49.0813 26.076 48.8445L33.7312 47.4259C36.5466 46.9303 39.3902 46.2878 42.218 45.8144C42.4913 45.7686 42.8921 45.7809 43.1627 45.8647L43.219 45.9543C42.9427 46.2073 23.9656 49.5143 22.0718 49.964C21.7474 49.968 21.4971 50.0381 21.3262 49.7562Z" fill="var(--fill-0, black)"/>
<path d="M41.5872 15.0951C42.719 14.0858 43.816 12.9884 44.9207 11.9469L51.1828 6.14199C51.7345 5.64015 53.7234 3.55275 54.2447 3.49724L54.2842 3.58895C54.0383 4.14528 51.4129 6.44649 50.7277 7.08582L44.7133 12.7244C43.7424 13.6314 42.5675 14.6552 41.6499 15.5673C41.549 15.39 41.5751 15.3004 41.5872 15.0951Z" fill="var(--fill-0, black)"/>
<path d="M22.4716 50.9236C23.5223 50.6421 25.7091 50.5227 26.8804 50.3654L36.1592 49.2078C36.9718 49.1104 40.2098 48.6013 40.7815 48.7604L40.845 48.842C40.3324 49.1716 35.4675 49.63 34.5894 49.7389L22.7445 51.2247C22.5488 51.1132 22.613 51.1525 22.4716 50.9236Z" fill="var(--fill-0, black)"/>
<path d="M51.0631 47.299C51.7107 47.1896 52.2057 47.3274 52.8435 47.455C51.1173 47.773 48.828 47.8932 47.0196 48.1911C46.4789 48.2801 43.4733 48.6926 43.029 48.7056C42.6271 48.7367 42.1421 48.88 41.8018 48.5892L41.9066 48.5049C43.7545 48.133 45.7181 48.0232 47.5897 47.7727C48.6526 47.6305 49.0775 47.4705 50.1773 47.6265C50.5452 47.4483 50.6676 47.3984 51.0631 47.299Z" fill="var(--fill-0, black)"/>
<path d="M53.1174 43.7321C53.3924 43.7301 53.7958 43.7236 54.0229 43.8681L53.9923 43.9584C53.5052 44.1468 52.0806 44.3291 51.4877 44.4526C49.4193 44.8834 47.268 45.2181 45.2043 45.6426C44.869 45.6982 44.678 45.78 44.3656 45.662L44.3858 45.4792C45.2036 45.1369 46.4794 45.0786 47.3734 44.873C49.2652 44.438 51.2462 44.2301 53.1174 43.7321Z" fill="var(--fill-0, black)"/>
<path d="M10.3138 45.5147C10.4098 45.2263 16.3704 40.1438 17.0631 39.5673L17.3101 39.8619C16.4302 40.5882 10.8071 45.4558 10.3138 45.5147Z" fill="var(--fill-0, black)"/>
<path d="M32.2814 51.5803C33.2109 51.4979 33.8992 51.6452 34.8092 51.8239C34.1679 51.9423 32.9997 51.9744 32.3071 52.016C30.9764 52.096 29.5733 52.2153 28.2462 52.243C27.7711 52.2243 26.4619 52.355 26.1244 52.2062L26.2026 52.1113C27.1637 51.6948 29.0719 51.8793 30.0901 52.0653C31.1476 51.5973 31.0547 51.6438 32.2814 51.5803Z" fill="var(--fill-0, black)"/>
<path d="M15.392 50.8419C15.7267 50.8264 16.2589 50.7429 16.5359 50.8364C16.6015 50.9568 16.5999 50.9 16.5885 51.012C15.2125 51.1837 10.2942 52.4332 9.29255 52.0984C9.34535 52.0759 9.51388 51.9639 9.57243 51.9266C10.4407 51.8246 13.0995 51.3484 13.9088 51.1039C14.3554 50.9898 14.8593 50.9742 15.392 50.8419Z" fill="var(--fill-0, black)"/>
<path d="M15.7758 43.0469C15.0797 43.5299 10.4336 47.0177 10.0487 46.9545L10.0759 46.8319C10.4373 46.4724 15.0819 42.9904 15.4985 42.8172L15.6019 43.0074L15.7758 43.0469Z" fill="var(--fill-0, black)"/>
<path d="M7.21017 49.6612C7.77022 50.0001 9.80745 51.5918 10.2746 50.7901C10.908 50.7925 12.7945 50.1631 13.5269 49.9557C13.75 50.2622 13.629 50.1773 14.0204 50.2717C13.5288 50.3955 11.7276 50.7586 11.3997 51.0077C10.5769 51.0374 10.2754 51.4049 9.64912 51.2939C8.6344 51.1142 7.8059 50.4496 7.21017 49.6612Z" fill="var(--fill-0, black)"/>
<path d="M6.67189 49.9731C8.30339 51.1446 7.80976 51.0046 9.86418 51.6645C10.6947 51.3396 10.7473 51.4455 11.3618 51.2663C11.7403 51.1517 12.2638 51.0874 12.7059 50.9605C13.2572 51.2525 13.3042 51.0358 13.9088 51.1039C13.0995 51.3484 10.4407 51.8246 9.57243 51.9266C8.02548 51.363 7.67882 51.2897 6.67189 49.9731Z" fill="var(--fill-0, black)"/>
<path d="M16.0073 39.4859C16.1177 39.6 16.1603 39.6628 16.3028 39.7256C15.3616 40.7444 13.5716 42.0966 12.5386 43.1111C12.2498 43.3948 11.6545 43.8287 11.4172 44.084L11.1897 43.9842C12.7985 42.5093 14.3814 40.9224 16.0073 39.4859Z" fill="var(--fill-0, black)"/>
<path d="M15.3924 50.842C15.6767 50.6937 20.3991 49.9882 21.3262 49.7562C21.4971 50.0381 21.7474 49.968 22.0718 49.964C20.7707 50.2197 17.767 50.6488 16.5889 51.0121C16.6003 50.9001 16.6019 50.9569 16.5363 50.8365C16.2593 50.743 15.7271 50.8264 15.3924 50.842Z" fill="var(--fill-0, black)"/>
<path d="M11.4576 52.9682C12.8697 52.8873 14.1973 52.4912 15.4845 53.0422C14.9601 53.2034 14.0445 53.1795 13.4799 53.1768C12.795 53.1965 12.1908 53.4787 11.4637 53.4594C11.6159 53.3596 11.632 53.3298 11.75 53.1875L11.7022 53.0625L11.4576 52.9682Z" fill="var(--fill-0, black)"/>
<path d="M8.84307 48.1511C10.1814 48.9267 9.68715 48.7361 11.1632 47.9697C11.6967 47.6927 12.2472 47.3718 12.7829 47.094C12.8579 47.19 12.9039 47.2695 13.0127 47.3216C12.5846 47.6079 10.2268 48.8755 9.75862 48.9936C9.40803 48.8244 9.07192 48.5541 8.75112 48.3274L8.84307 48.1511Z" fill="var(--fill-0, black)"/>
<path d="M15.4845 53.0422C16.062 53.1264 16.7578 52.9214 17.0398 53.2254C17.1764 53.9501 19.7301 53.314 20.1943 53.6353C19.2023 53.7289 16.3749 53.6261 15.2688 53.6158L15.5154 53.5031L15.5149 53.4062C15.2223 53.1935 13.9209 53.1953 13.4799 53.1768C14.0445 53.1795 14.9601 53.2034 15.4845 53.0422Z" fill="var(--fill-0, black)"/>
<path d="M46.452 50.7095C47.3025 50.6451 47.7324 50.7819 48.5522 50.9594C47.9621 51.0793 47.0229 51.0977 46.4166 51.1116C45.788 51.1656 45.356 51.247 44.7395 51.1059L44.6928 51.0228C45.1337 50.7357 45.9332 50.7323 46.452 50.7095Z" fill="var(--fill-0, black)"/>
<path d="M34.9577 51.8029C36.0785 51.1478 37.3555 51.2075 38.5831 51.5033L38.7945 51.6033C37.8792 51.6722 35.8002 51.8636 34.9577 51.8029Z" fill="var(--fill-0, black)"/>
<path d="M12.8872 45.8634C12.3875 46.2456 10.174 47.8375 9.683 47.7826L9.69997 47.6772C10.2323 47.1816 10.2926 47.3152 10.7143 47.0069C11.3898 46.5127 11.833 46.1596 12.5677 45.7126L12.8872 45.8634Z" fill="var(--fill-0, black)"/>
<path d="M9.58314 52.5286C10.5129 52.5364 11.3417 52.1851 12.0944 52.1962C12.3219 52.2069 12.8258 52.1839 12.9773 52.2864C12.9668 52.3491 12.9572 52.427 12.9396 52.4864C12.0831 52.5348 9.9306 52.8384 9.35744 52.7628C9.56347 52.6653 9.50484 52.7292 9.58314 52.5286Z" fill="var(--fill-0, black)"/>
<path d="M14.63 51.7899C15.1563 52.0223 15.6077 51.8146 16.158 51.6577L15.8624 51.8459L15.8434 51.9541C16.1647 52.0285 16.4094 51.9608 16.7325 51.9815C15.56 52.1914 14.0649 52.1853 13.0001 52.4705L12.9396 52.4864C12.9572 52.427 12.9668 52.3491 12.9773 52.2864C12.8258 52.1839 12.3219 52.2069 12.0944 52.1962C12.9385 52.1518 13.8594 51.8418 14.49 51.8409C14.2053 51.9392 14.1136 51.9144 13.9663 52.1137C14.1854 52.293 14.5659 52.2871 14.7663 52.0912C14.7222 51.9691 14.7038 51.8998 14.63 51.7899Z" fill="var(--fill-0, black)"/>
<path d="M10.9377 43.5838C11.603 43.021 12.6575 41.7863 13.4398 41.0795L13.682 41.2517C12.8893 42.1032 11.9596 42.8429 11.1415 43.6416L10.9377 43.5838Z" fill="var(--fill-0, black)"/>
<path d="M7.72914 53.5032C7.18701 53.3914 6.9222 53.4202 6.40257 53.1907L6.37125 53.1311C7.36048 52.9867 8.88012 53.4172 9.91225 53.5217C9.40616 53.7493 8.27353 53.5714 7.72914 53.5032Z" fill="var(--fill-0, black)"/>
<path d="M38.5831 51.5033C39.2616 51.4864 39.7359 51.2611 40.3963 51.1352C40.7756 51.063 41.2131 51.0575 41.6022 51.0464C41.3113 51.136 41.1925 51.1801 40.89 51.1972L40.7799 51.3031C41.2016 51.3718 42.4463 51.3065 43.0181 51.3381C41.9953 51.5136 39.7744 51.428 38.7945 51.6033L38.5831 51.5033Z" fill="var(--fill-0, black)"/>
<path d="M10.2746 50.7901C9.5926 50.76 7.90946 50.1164 7.74189 49.4165L7.81086 49.3244C8.28067 49.6186 9.69806 50.8575 10.2409 50.2709L10.4072 50.5386L10.2746 50.7901Z" fill="var(--fill-0, black)"/>
<path d="M22.7445 51.2247C22.4108 51.2749 20.3687 51.5353 20.2213 51.3857C20.7695 50.8634 21.7715 51.1331 22.4716 50.9236C22.613 51.1525 22.5488 51.1132 22.7445 51.2247Z" fill="var(--fill-0, black)"/>
<path d="M8.40691 46.8269C8.44107 46.7229 8.78466 46.4886 8.89522 46.4053C8.80484 46.5583 8.72676 46.6922 8.64607 46.8521C8.73099 47.1711 8.88677 46.9733 8.80309 47.2396C8.70302 47.5583 8.54593 47.5374 8.56523 47.8827C8.6385 47.9672 8.74854 48.1163 8.84351 48.151L8.75112 48.3274C8.17424 47.6568 7.69931 48.018 8.40691 46.8269Z" fill="var(--fill-0, black)"/>
<path d="M18.9751 52.4496C19.2021 52.4499 19.5449 52.478 19.7111 52.6412L19.6723 52.7577C19.4371 52.8994 19.1547 52.8608 18.8752 52.8527C18.3763 52.8261 18.0141 52.7938 17.5431 52.6206C18.0764 52.5041 18.4278 52.486 18.9751 52.4496Z" fill="var(--fill-0, black)"/>
<path d="M41.6022 51.0464C42.2348 50.996 42.7361 50.9575 43.3472 51.1862L43.3885 51.2777C43.2207 51.3321 43.1941 51.3397 43.0181 51.3381C42.4463 51.3065 41.2016 51.3718 40.7799 51.3031L40.89 51.1972C41.1925 51.1801 41.3113 51.136 41.6022 51.0464Z" fill="var(--fill-0, black)"/>
<path d="M23.7433 52.5012C23.692 52.5122 23.6403 52.5217 23.5883 52.5297C23.1997 52.5909 21.904 52.7028 21.5999 52.4844C21.8905 52.1158 23.3686 52.0739 23.7984 52.2041C23.4597 52.22 23.131 52.2105 22.8229 52.3502L22.8689 52.4213C23.1899 52.4899 23.4193 52.4904 23.7433 52.5012Z" fill="var(--fill-0, black)"/>
<path d="M10.1579 49.6887C9.71296 49.6125 8.47604 48.9927 8.3751 48.5337L8.4748 48.511C8.50219 48.5336 8.52986 48.5559 8.55776 48.5778C8.86036 48.8152 9.64239 49.3057 10.0368 49.259L10.0987 49.1282L10.32 49.3715L10.2178 49.4123L10.1937 49.589L10.1579 49.6887Z" fill="var(--fill-0, black)"/>
<path d="M51.5963 50.8185C51.0918 50.7663 49.7261 50.9856 49.4431 50.7632C49.8104 50.441 50.4834 50.4654 50.974 50.4329L50.6897 50.5835L50.6803 50.678C51.0503 50.7827 51.2879 50.7073 51.6182 50.7626L51.5963 50.8185Z" fill="var(--fill-0, black)"/>
<path d="M8.04653 48.9454C8.17835 48.947 9.55383 49.7711 9.74522 49.8993L9.77526 50.2105C8.92331 49.801 8.62063 49.6887 8.04653 48.9454Z" fill="var(--fill-0, black)"/>
<path d="M16.158 51.6577C16.66 51.5456 16.8581 51.5119 17.3275 51.7169L17.3512 51.819C17.1773 51.9569 16.9554 51.9569 16.7325 51.9815C16.4094 51.9608 16.1647 52.0285 15.8434 51.9541L15.8624 51.8459L16.158 51.6577Z" fill="var(--fill-0, black)"/>
<path d="M23.7984 52.2041C24.0374 52.228 24.2353 52.2266 24.4371 52.3548L24.463 52.4473C24.2635 52.566 23.9883 52.5164 23.7433 52.5012C23.4193 52.4904 23.1899 52.4899 22.8689 52.4213L22.8229 52.3502C23.131 52.2105 23.4597 52.22 23.7984 52.2041Z" fill="var(--fill-0, black)"/>
<path d="M51.9893 50.6151C52.0027 50.6125 53.0778 50.7273 53.0774 50.7272L53.1585 50.9405L53.3393 50.9267L53.3499 50.8095L53.3873 50.8275L53.3851 50.9191C52.9655 51.0047 52.0492 50.8666 51.5963 50.8185L51.6182 50.7626C51.7724 50.7342 51.8479 50.6857 51.9893 50.6151Z" fill="var(--fill-0, black)"/>
<path d="M50.974 50.4329C51.2989 50.3776 51.665 50.5204 51.9893 50.6151C51.8479 50.6857 51.7724 50.7342 51.6182 50.7626C51.2879 50.7073 51.0503 50.7827 50.6803 50.678L50.6897 50.5835L50.974 50.4329Z" fill="var(--fill-0, black)"/>
<path d="M11.1897 43.9842L11.4172 44.084C11.118 44.3582 10.8547 44.6256 10.4979 44.8213L10.4266 44.7934C10.6162 44.4711 10.911 44.2359 11.1897 43.9842Z" fill="var(--fill-0, black)"/>
<path d="M14.49 51.8409L14.63 51.7899C14.7038 51.8998 14.7222 51.9691 14.7663 52.0912C14.5659 52.2871 14.1854 52.293 13.9663 52.1137C14.1136 51.9144 14.2053 51.9392 14.49 51.8409Z" fill="var(--fill-0, black)"/>
<path d="M6.98607 51.4436C6.80415 51.3628 6.77312 51.3265 6.61836 51.1962C6.53512 50.9337 6.52259 51.0232 6.61334 50.8273L6.72688 50.8551C6.86387 51.0714 7.05249 51.1967 7.10988 51.291C7.06779 51.3362 7.00508 51.3911 6.98607 51.4436Z" fill="var(--fill-0, black)"/>
<path d="M6.76395 52.3793C6.5132 52.2153 6.1256 51.9653 6.32763 51.6378C6.57765 51.7468 6.3749 51.8821 6.78339 52.0962L6.76395 52.3793Z" fill="var(--fill-0, black)"/>
<path d="M10.9377 43.5838L11.1415 43.6416C10.9077 43.87 10.9236 43.9245 10.6477 43.9994C10.6726 43.8002 10.773 43.7589 10.9377 43.5838Z" fill="var(--fill-0, black)"/>
</g>
</svg>
